<svg width="80" height="80" fill="none" xmlns="http://www.w3.org/2000/svg"><path d="M46.796 78.438H32.734V65h14.062v13.438Zm-9.375-3.126h4.688v-5.624H37.42v5.624Z" fill="#8B8992"/><path d="M40 69.688h2.109v5.624h-2.11v3.126h6.797V65H40v4.688Z" fill="#57555C"/><path d="M75.077 58.75H4.921v-37.5h70.156v37.5Z" fill="#9BC9FF"/><path d="M75.076 21.25H39.998v37.5h35.078v-37.5Z" fill="#009AE5"/><path d="M51.483 75.313H28.045V80h23.438v-4.688Z" fill="#005ECE"/><path d="M37.421 58.75H23.36V26.719H37.42V58.75Z" fill="#B87FD9"/><path d="M37.421 58.75H30.39V26.719h7.031V58.75Z" fill="#8034AD"/><path d="M45.263 20.469H15.359L9.28 0h8.945c3.193 0 6.91 1.143 9.821 3.203V0h23.298l-6.08 20.469Z" fill="#8B8992"/><path d="M51.343 0H30.313v20.469h14.952L51.344 0Z" fill="#57555C"/><path d="M38.827 31.406H21.952a7.04 7.04 0 0 1-7.03-7.031v-8.594h30.937v8.594a7.04 7.04 0 0 1-7.032 7.031Z" fill="#E3CEF0"/><path d="M30.39 15.781v15.625h8.437a7.04 7.04 0 0 0 7.032-7.031v-8.594h-15.47Z" fill="#D5B4E8"/><path d="M66.829 18.492a8.185 8.185 0 0 1-4.103-1.107 8.18 8.18 0 0 1-3.836-5 8.179 8.179 0 0 1 .822-6.247 8.18 8.18 0 0 1 5-3.836L72.664.17l2.131 7.953a8.179 8.179 0 0 1-.822 6.247 8.18 8.18 0 0 1-5 3.836c-.709.19-1.429.285-2.144.285Z" fill="#E0E0E2"/><path d="M74.795 8.124 72.665.17l-9.94 17.214a8.183 8.183 0 0 0 6.248.822 8.18 8.18 0 0 0 5-3.836 8.18 8.18 0 0 0 .822-6.247Z" fill="#ACABB1"/><path d="m43.893 64.066-12.178-7.03 19.531-33.83 12.178 7.031-19.53 33.83Z" fill="#FFE477"/><path d="m37.803 60.55 6.09 3.516 19.53-33.828-6.089-3.515-19.53 33.827Z" fill="#FFA733"/><path d="m62.885 35.339-15.787-9.115 13.604-15.42 8.734 5.043-6.551 19.492Z" fill="#FF9A00"/><path d="m69.437 15.847-4.367-2.521L54.992 30.78l7.893 4.558 6.552-19.492Z" fill="#E67500"/><path d="M75.077 69.688H4.921V54.062h70.156v15.626Z" fill="#005ECE"/><path d="M75.076 54.063H39.998v15.624h35.078V54.063ZM51.483 75.313h-11.72V80h11.72v-4.688Z" fill="#003F8A"/></svg>