<svg width="80" height="80" fill="none" xmlns="http://www.w3.org/2000/svg"><path d="M6.25 20h67.5a2.5 2.5 0 0 1 2.5 2.5V60H3.75V22.5a2.5 2.5 0 0 1 2.5-2.5Z" fill="#3780EA"/><path d="M8.75 35h32.5v20H8.75V35Z" fill="#896FF7"/><path d="M52.5 71.25v5h-25v-5h25Z" fill="#E8E5FB"/><path d="M36.25 63.75h7.5v7.5h-7.5v-7.5Z" fill="#8E95A3"/><path d="M76.25 61.25v1.25a2.508 2.508 0 0 1-2.5 2.5H6.25a2.508 2.508 0 0 1-2.5-2.5V60h72.5v1.25Z" fill="#E8E5FB"/><path d="M10 7.5h25v20H10v-20Z" fill="#78B9EB"/><path d="M41.25 35 25 45 8.75 35h32.5Z" fill="#B9B1F1"/><path d="M45 8.75h8.75v10H45v-10Z" fill="#E8E5FB"/><path d="M51.25 18.75 50 27.5h-3.75v-8.75h5Z" fill="#C7BEC5"/><path d="M74.263 11.988A2.443 2.443 0 0 1 75 13.75a2.508 2.508 0 0 1-2.5 2.5H70v-5h2.5a2.443 2.443 0 0 1 1.763.738Z" fill="#EC455A"/><path d="M70 3.75v20l-16.25-5v-10l16.25-5Z" fill="#F6CC4F"/><path d="M41.25 11.25H45v5h-3.75v-5Z" fill="#EC455A"/><path d="M46.25 32.5h22.5v15h-22.5v-15Z" fill="#9E2849"/><path d="M71.25 37.5v15H50v-15h21.25Z" fill="#EC455A"/><path d="M53.75 41.25h2.5v2.5h-2.5v-2.5ZM58.75 41.25h8.75v2.5h-8.75v-2.5ZM53.75 46.25h5v2.5h-5v-2.5ZM61.25 46.25h6.25v2.5h-6.25v-2.5Z" fill="#E8E5FB"/><path d="M36.25 65h7.5v2.5h-7.5V65Z" fill="#636263"/><path d="m27.5 17.5-8.75 5v-10l8.75 5Z" fill="#EC455A"/></svg>