<svg width="46" height="35" fill="none" xmlns="http://www.w3.org/2000/svg"><path d="M41.542 3.697C44.117 6.432 45.5 9.5 45.5 14.472c0 8.75-6.142 16.593-15.075 20.47l-2.233-3.445c8.338-4.51 9.968-10.362 10.618-14.052-1.343.695-3.1.937-4.823.777-4.51-.417-8.065-4.12-8.065-8.722a8.75 8.75 0 0 1 8.75-8.75c2.683 0 5.248 1.225 6.87 2.947Zm-25 0C19.117 6.432 20.5 9.5 20.5 14.472c0 8.75-6.143 16.593-15.075 20.47l-2.232-3.445c8.337-4.51 9.967-10.362 10.617-14.052-1.343.695-3.1.937-4.822.777C4.478 17.805.923 14.102.923 9.5A8.75 8.75 0 0 1 9.673.75c2.682 0 5.247 1.225 6.87 2.947Z" fill="#BCC1C7"/></svg>