<svg width="80" height="80" fill="none" xmlns="http://www.w3.org/2000/svg"><g clip-path="url(#a)"><path d="M71.469 59.557H4.024A4.024 4.024 0 0 1 0 55.533v-49.9A4.024 4.024 0 0 1 4.024 1.61H71.47a4.024 4.024 0 0 1 4.024 4.024v49.9a4.024 4.024 0 0 1-4.024 4.023Z" fill="#736572"/><path d="M80 5.634v49.9a4.024 4.024 0 0 1-4.024 4.023h-4.829a4.024 4.024 0 0 0 4.024-4.024v-1.61l-6.823-18.497L75.17 7.243v-1.61a4.024 4.024 0 0 0-4.024-4.023h4.83A4.024 4.024 0 0 1 80 5.634Z" fill="#615260"/><path d="M74.367 54.728H5.634a.805.805 0 0 1-.805-.804V16.9l40.463-5.231 29.88 5.231v37.023c0 .444-.36.804-.805.804Z" fill="#fff"/><path d="M65.513 32.515H52.636l-3.85-2.414 3.85-2.415h12.877a2.414 2.414 0 1 1 0 4.83Z" fill="#FCF1F2"/><path d="M52.636 32.515h-38.15a2.415 2.415 0 1 1 0-4.829h38.15v4.83Z" fill="#BAF39A"/><path d="m68.865 11.841-4.156 5.06H4.829V7.243c0-.444.36-.804.805-.804H64.71l4.156 5.402Z" fill="#FFE077"/><path d="M23.742 13.28c-.887 0-1.61-.723-1.61-1.61 0-.887.723-1.61 1.61-1.61.888 0 1.61.723 1.61 1.61 0 .887-.722 1.61-1.61 1.61ZM18.108 13.28c-.887 0-1.61-.723-1.61-1.61 0-.887.723-1.61 1.61-1.61.888 0 1.61.723 1.61 1.61 0 .887-.722 1.61-1.61 1.61ZM12.475 13.28c-.888 0-1.61-.723-1.61-1.61 0-.887.722-1.61 1.61-1.61.887 0 1.61.723 1.61 1.61 0 .887-.723 1.61-1.61 1.61ZM64.708 6.439h9.658c.445 0 .805.36.805.804v9.658H64.708V6.44Z" fill="#FFC263"/><path d="M40 51.75c-.667 0-1.207-.54-1.207-1.207V44.75a1.207 1.207 0 1 1 2.414 0v5.794c0 .667-.54 1.208-1.207 1.208Z" fill="#FCF1F2"/><path d="M46.52 48.29v-.966a6.441 6.441 0 0 1 4.687-6.198c.556-.157 3.303 1.176 4.376 3.404l6.734 13.978a25.755 25.755 0 0 1 2.552 11.178v2.266a6.439 6.439 0 0 1-6.438 6.438h.322a6.439 6.439 0 0 1-6.439-6.438c0-1.543-.322-3.068-.947-4.478l-.518-1.171a3.22 3.22 0 0 0-2.944-1.917h-15.81a3.22 3.22 0 0 0-2.943 1.917l-.518 1.17a11.063 11.063 0 0 0-.947 4.479 6.439 6.439 0 0 1-6.439 6.438h-4.185a6.439 6.439 0 0 1-6.439-6.438v-2.266c0-3.87.873-7.69 2.553-11.178L19.91 44.53a6.439 6.439 0 0 1 5.8-3.644h1.332a6.439 6.439 0 0 1 6.438 6.439v.966c0 .889.721 1.61 1.61 1.61h9.82c.888 0 1.608-.721 1.608-1.61Z" fill="#BCF1F8"/><path d="M69.376 69.687v2.265a6.439 6.439 0 0 1-6.439 6.438h-4.185c-.105 0-.21-.003-.312-.008a6.44 6.44 0 0 0 6.107-6.43v-2.265c0-3.871-.873-7.691-2.551-11.18L55.26 44.53a6.441 6.441 0 0 0-4.055-3.402 6.416 6.416 0 0 1 1.751-.242h1.332a6.44 6.44 0 0 1 5.8 3.644l6.736 13.979a25.777 25.777 0 0 1 2.55 11.179Z" fill="#91F2F2"/><path d="M24.708 61.167a4.024 4.024 0 1 1 0-8.048 4.024 4.024 0 0 1 0 8.048ZM59.315 55.936H56.5v-2.817a1.207 1.207 0 1 0-2.415 0v2.817h-2.817a1.207 1.207 0 1 0 0 2.414h2.817v2.817a1.207 1.207 0 1 0 2.414 0V58.35h2.817a1.207 1.207 0 1 0 0-2.414Z" fill="#fff"/><path d="M45.634 60.764h-3.22a1.207 1.207 0 1 1 0-2.414h3.22a1.207 1.207 0 1 1 0 2.414ZM37.586 60.764h-3.22a1.207 1.207 0 1 1 0-2.414h3.22a1.207 1.207 0 1 1 0 2.414Z" fill="#7DE8F9"/><path d="M40 46.117a2.817 2.817 0 1 1 0-5.634 2.817 2.817 0 0 1 0 5.634Z" fill="#CBB0F2"/></g><defs><clipPath id="a"><path fill="#fff" d="M0 0h80v80H0z"/></clipPath></defs></svg>