<svg width="80" height="80" fill="none" xmlns="http://www.w3.org/2000/svg"><path d="M60.686 0H19.313a2.76 2.76 0 0 0-2.762 2.761v66.204h46.897V2.762A2.76 2.76 0 0 0 60.686 0Z" fill="#EBBA16"/><path d="M44.138 6.897h-8.276a1.38 1.38 0 0 1 0-2.76h8.276a1.38 1.38 0 0 1 0 2.76Z" fill="#fff"/><path d="M60.06 80H19.94a3.386 3.386 0 0 1-3.388-3.388V63.448h46.897v13.164A3.386 3.386 0 0 1 60.06 80Z" fill="#EAEFF0"/><path d="M40 75.862a4.138 4.138 0 1 0 0-8.276 4.138 4.138 0 0 0 0 8.276Z" fill="#B8BEC3"/><path d="m42.758 17.931-17.931 6.897-2.759 19.31 15.173 12.414 17.93-6.897 2.76-19.31L42.757 17.93Z" fill="#DC691D"/><path d="M28.967 42.759a1.38 1.38 0 0 1-.618-2.614l10.374-5.188 1.288-10.302a1.388 1.388 0 0 1 1.54-1.197 1.378 1.378 0 0 1 1.197 1.54l-1.38 11.034a1.38 1.38 0 0 1-.75 1.063l-11.035 5.517c-.198.1-.409.147-.616.147Z" fill="#fff"/><path d="M49.656 45.517a1.37 1.37 0 0 1-.897-.332l-9.655-8.276a1.377 1.377 0 0 1-.149-1.944 1.375 1.375 0 0 1 1.945-.148l9.655 8.275a1.377 1.377 0 0 1-.9 2.425Z" fill="#fff"/></svg>