<svg width="612" height="375" fill="none" xmlns="http://www.w3.org/2000/svg"><path d="M504.104 221.576h60.586v151.991h-60.586V221.576Z" fill="#EBEBEB"/><path d="m586.75 177.997-14.618 43.579h-75.158l-16.394-43.579h106.17Z" fill="#EBEBEB"/><path d="m481.001 179.031 16.76-41.923a7.322 7.322 0 0 1 6.82-4.576h5.299v-.916h-5.299a8.245 8.245 0 0 0-7.671 5.19l-16.76 41.923.851.302Z" fill="#EBEBEB"/><path d="M511.061 134.481h3.496a2.078 2.078 0 0 0 1.47-3.55 2.09 2.09 0 0 0-1.47-.615h-3.496a2.09 2.09 0 0 0-2.078 2.087c0 .551.219 1.08.608 1.47.39.389.919.608 1.47.608ZM516.489 221.576h33.904v151.936h-33.904V221.576Z" fill="#E0E0E0"/><path d="M77.384 284.707s3.011-16.907 22.947-22.545c0 0-16.11-4.028-28.183 15.899 0 0-.806-21.135 28.183-25.767 0 0-15.304-6.407-31.405 11.68 0 0 3.423-18.114 24.558-21.739 0 0-16.476-3.661-27.78 12.476 0 0 2.82-28.787 17.309-38.646 0 0-20.733 5.428-23.955 35.424 0 0-1.61-12.677-25.364-14.087 0 0 15.305 5.437 18.518 16.906 0 0-5.428-6.407-25.566-6.041 0 0 25.566 1.611 29.392 26.984 0 0-6.041-14.297-28.375-14.499 0 0 22.947 6.243 21.967 23.955h27.754Z" fill="#EBEBEB"/><path d="M42.261 373.988h46.39l-4.97-90.041-39.36-1.84-2.06 91.881Z" fill="#E0E0E0"/><path d="m83.68 283.947-18.224 61.648 23.194 28.393-4.97-90.041Z" fill="#F5F5F5"/><path d="m42.262 373.988 23.195-28.393-20.586-61.85-.55-1.638" fill="#EBEBEB"/><path d="M42.261 373.988h46.39s-19.497-23.862-22.756-27.862l-.44-.531-23.194 28.393Z" fill="#E0E0E0"/><path d="M33.429 47.222h27.597V94.28H33.43V47.222ZM67.187 0H95.59v45.986H67.187V0ZM67.187 100.44H95.59v48.989H67.187V100.44ZM9.419 0h22.425v45.986H9.42V0ZM67.187 47.222H95.59V94.28H67.187V47.222ZM33.429 0h27.597v45.986H33.43V0ZM33.429 100.44h27.597v48.989H33.43V100.44ZM97.181 47.222h22.572V94.28H97.181V47.222ZM97.181 100.44h22.572v48.989H97.181V100.44ZM31.844 150.655v44.028h1.593v-44.028h27.588v42.655h6.16v-42.655h28.403v44.028h1.584v-44.028h22.581v44.055H9.428v-44.055h22.416ZM9.419 100.44h22.425v48.989H9.42V100.44ZM97.181 0h22.572v45.986H97.181V0ZM9.419 47.222h22.425V94.28H9.42V47.222ZM381.669 47.964h27.597V95.02h-27.597V47.964ZM415.427.742h28.403v45.986h-28.403V.742ZM415.427 101.182h28.403v48.988h-28.403v-48.988ZM357.66.742h22.426v45.986H357.66V.742ZM415.427 47.964h28.403V95.02h-28.403V47.964ZM381.669.742h27.597v45.986h-27.597V.742ZM381.669 101.182h27.597v48.988h-27.597v-48.988ZM445.421 47.964h22.572V95.02h-22.572V47.964ZM445.421 101.182h22.572v48.988h-22.572v-48.988ZM380.084 151.396v44.037h1.593v-44.037h27.588v42.655h6.161v-42.655h28.403v44.037h1.583v-44.037h22.581v44.056H357.659v-44.056h22.425ZM357.66 101.182h22.426v48.988H357.66v-48.988ZM445.421.742h22.572v45.986h-22.572V.742ZM357.66 47.964h22.426V95.02H357.66V47.964Z" fill="#F5F5F5"/><path d="M0 373.988c0 .129 136.87.238 305.677.238 168.806 0 305.722-.109 305.722-.238 0-.128-136.842-.238-305.722-.238-168.88 0-305.677.101-305.677.238Z" fill="#263238"/><path d="M100.953 41.932h274.418v189.593H100.953V41.932Z" fill="#FAFAFA"/><path d="M100.944 231.525c0-1.574.083-74.279.193-189.593l-.193.192h274.4l-.238-.238V231.48l.22-.22-274.427.22 274.427.219h.219V41.648H100.688v.192c.183 115.406.256 188.148.256 189.685Z" fill="#263238"/><path d="M137.119 201.777h204.45v11.615h-204.45v-11.615Z" fill="#263238"/><path d="M137.119 190.866h204.45v11.616h-204.45v-11.616Z" fill="#455A64"/><path d="M309.816 182.976c-.128 0-.238 5.244-.238 11.698 0 6.453.11 11.707.238 11.707s.238-5.245.238-11.707c0-6.463-.101-11.698-.238-11.698ZM204.443 182.976c-.129 0-.238 5.244-.238 11.698 0 6.453.109 11.707.238 11.707.128 0 .247-5.245.247-11.707 0-6.463-.11-11.698-.247-11.698ZM186.876 185.008c-.138 0-.248 5.236-.248 11.698 0 6.462.11 11.698.248 11.698.137 0 .238-5.236.238-11.698 0-6.462-.11-11.698-.238-11.698ZM262.895 188.523a82.203 82.203 0 0 0-.238 8.934 82.273 82.273 0 0 0 .238 8.924c.236-2.968.315-5.947.238-8.924a85.093 85.093 0 0 0-.238-8.934ZM258.318 185.136c-.138 0-.238 4.751-.238 10.618s.1 10.627.238 10.627c.137 0 .238-4.76.238-10.627 0-5.867-.11-10.618-.238-10.618Z" fill="#263238"/><path d="m173.165 150.747-19.332.266a19.346 19.346 0 0 0 11.859 17.954 19.343 19.343 0 0 0 26.444-14.024 19.34 19.34 0 0 0-18.971-23.152 19.504 19.504 0 0 0-13.73 5.638l13.73 13.318Z" fill="#FF5300"/><path d="m173.166 90.536.293 20.092a20.37 20.37 0 0 0 20.183-20.092c0-10.984-9.236-20.082-20.476-20.082-11.241 0-20.476 9.07-20.476 20.082h20.476Z" fill="#455A64"/><path d="M148.067 96.916c0 .128 4.503.238 10.068.238 5.566 0 10.069-.11 10.069-.238s-4.503-.238-10.069-.238c-5.565 0-10.068.1-10.068.238ZM148.067 100.367c0 .128 4.503.238 10.068.238 5.566 0 10.069-.11 10.069-.238s-4.503-.247-10.069-.247c-5.565 0-10.068.109-10.068.247ZM147.827 103.955c0 .128 4.504.238 10.069.238 5.565 0 10.069-.11 10.069-.238s-4.513-.238-10.069-.238c-5.556 0-10.069.1-10.069.238Z" fill="#263238"/><path d="m278.502 120.98-31.122.421c.238 16.586 14.206 30.096 31.122 30.096h.174l-.174-30.517Z" fill="#FF5300"/><path d="M227.059 163.095c.221.042.445.06.669.055l1.903.045 6.948.083h.091l.055-.064 10.261-12.934c3.03-3.872 5.868-7.487 8.238-10.545l-.164.074 9.153-.083 2.563-.055c.306.001.612-.021.915-.064a4.13 4.13 0 0 0-.915-.064l-2.563-.055-9.153-.082h-.028l-.055.082c-2.425 3.048-5.272 6.655-8.329 10.508l-10.179 12.998.146-.073-6.947.082-1.904.046a3.144 3.144 0 0 0-.705.046ZM215.902 166.683c0 .128 4.503.238 10.068.238 5.566 0 10.069-.11 10.069-.238s-4.503-.238-10.069-.238c-5.565 0-10.068.11-10.068.238ZM215.902 170.408c0 .138 4.503.238 10.068.238 5.566 0 10.069-.1 10.069-.238 0-.137-4.503-.238-10.069-.238-5.565 0-10.068.11-10.068.238Z" fill="#263238"/><path d="m283.408 116.55.439 30.517c16.897-.238 30.673-13.94 30.673-30.517 0-16.742-14.041-30.517-31.121-30.517-17.081 0-31.122 13.775-31.122 30.517h31.131Z" fill="#FF5300"/><path d="M295.564 106.573c.173.065.355.105.54.119l1.547.256 5.593.778h.091l.064-.073 7.469-7.231c3.588-3.515 6.81-6.71 9.154-9.044a109.206 109.206 0 0 1 2.746-2.746c.35-.325.672-.68.961-1.062-.389.274-.753.58-1.089.916l-2.829 2.672a933.778 933.778 0 0 0-9.217 8.943l-7.396 7.323.165-.055-5.611-.622-1.557-.138c-.439-.055-.631-.064-.631-.036ZM331.527 86.188c0 .138 4.512.238 10.068.238s10.069-.1 10.069-.238c0-.137-4.513-.238-10.069-.238-5.556 0-10.068.11-10.068.238ZM331.527 89.941c0 .128 4.512.238 10.068.238s10.069-.11 10.069-.238-4.513-.238-10.069-.238c-5.556 0-10.068.082-10.068.238ZM92.092 35.112h297.366V46.81H92.092V35.112ZM308.202 374.446h32.76c3.762 0 6.829-3.726 6.829-8.312v-78.407h-.916v78.407c0 4.074-2.654 7.396-5.913 7.396h-32.76c-3.258 0-5.913-3.322-5.913-7.396v-78.407h-.915v78.407c0 4.586 3.084 8.312 6.828 8.312ZM129.2 374.446h32.76c3.762 0 6.828-3.726 6.828-8.312v-78.407h-.915v78.407c0 4.074-2.655 7.396-5.913 7.396H129.2c-3.259 0-5.904-3.322-5.904-7.396v-78.407h-.915v78.407c0 4.586 3.057 8.312 6.819 8.312Z" fill="#263238"/><path d="M121.585 262.171H363.49v25.556H121.585v-25.556ZM323.444 374.446h32.769c3.762 0 6.819-3.726 6.819-8.312v-78.407h-.915v78.407c0 4.074-2.655 7.396-5.904 7.396h-32.769c-3.259 0-5.904-3.322-5.904-7.396v-78.407h-.915v78.407c0 4.586 3.057 8.312 6.819 8.312ZM146.958 374.446h32.759c3.772 0 6.829-3.726 6.829-8.312v-78.407h-.915v78.407c0 4.074-2.655 7.396-5.914 7.396h-32.759c-3.259 0-5.904-3.322-5.904-7.396v-78.407h-.916v78.407c0 4.586 3.058 8.312 6.82 8.312Z" fill="#455A64"/><path d="M296.048 262.171v-1.996h-20.174l-9.904-39.442h-59.835l8.649 41.438h81.264Z" fill="#263238"/><path d="M237.85 245.035a2.929 2.929 0 1 1 0-5.857 2.929 2.929 0 0 1 0 5.857Z" fill="#E0E0E0"/><path d="M185.942 262.171s.76-.376 2.206-.916a20.764 20.764 0 0 1 6.334-.998 27.613 27.613 0 0 1 4.43.339c1.696.223 3.34.737 4.861 1.52a6.637 6.637 0 0 1 3.405 4.109c.249.911.182 1.88-.193 2.746a4.027 4.027 0 0 1-2.059 1.968 2.884 2.884 0 0 1-2.746-.192 3.81 3.81 0 0 1-1.529-2.297c-.467-1.831.183-3.735.76-5.41a23.967 23.967 0 0 1 2.05-4.659c.395-.657.858-1.271 1.383-1.831a4.895 4.895 0 0 1 1.647-1.244 8.855 8.855 0 0 1 3.533-.696c.926-.003 1.848.107 2.746.329.765.212 1.5.52 2.188.916a2.47 2.47 0 0 0-.503-.366 7.057 7.057 0 0 0-1.63-.687 10.859 10.859 0 0 0-2.746-.421 8.943 8.943 0 0 0-3.661.65 5.379 5.379 0 0 0-1.776 1.3 11.933 11.933 0 0 0-1.455 1.83 24.055 24.055 0 0 0-2.124 4.724 19.637 19.637 0 0 0-.805 2.691 6.783 6.783 0 0 0 0 2.974 4.308 4.308 0 0 0 1.73 2.591 3.368 3.368 0 0 0 3.176.229 4.472 4.472 0 0 0 2.316-2.206c.423-.98.498-2.075.21-3.103a7.017 7.017 0 0 0-3.661-4.376 15.24 15.24 0 0 0-4.97-1.482 25.902 25.902 0 0 0-4.495-.275 19.527 19.527 0 0 0-6.407 1.153c-.555.206-1.096.448-1.62.723a2.48 2.48 0 0 0-.595.367Z" fill="#263238"/><path d="m427.187 370.254.192-8.421 15.772.256-.147 12.33h-.979c-4.357.165-22.17.558-25.071-.375-3.231-.989 10.233-3.79 10.233-3.79Z" fill="#FF5300"/><path opacity=".4" d="M420.607 371.865s-4.723 1.281-4.147 2.059c.577.778 18.591 1.071 26.545.504v-.357l-21.053-.156s-.43-2.004-1.345-2.05Z" fill="#fff"/><path d="M443.234 374.053a1.142 1.142 0 0 1-.274 0h-.778l-2.865.073c-2.426.055-5.776.073-9.474 0-3.698-.073-7.048-.174-9.474-.302l-2.865-.165-.778-.055h-.265 1.052l2.865.11c2.426.082 5.767.183 9.465.238 3.698.055 7.048.055 9.465 0h3.926v.101Z" fill="#263238"/><path d="M421.971 374.153a6.795 6.795 0 0 0-.513-1.373 6.762 6.762 0 0 0-.915-1.117 2.2 2.2 0 0 1 1.126 1.016c.276.438.384.962.302 1.474ZM426.665 371.865s-.265-.247-.494-.614c-.229-.366-.366-.686-.32-.713.045-.028.256.247.485.613.162.21.274.454.329.714ZM427.948 371.215s-.284-.138-.549-.385c-.266-.247-.458-.485-.421-.521.036-.037.283.137.549.384.265.247.458.476.421.522ZM428.781 369.732a1.831 1.831 0 0 1-.824.092 1.778 1.778 0 0 1-.824-.101c.266-.087.546-.118.824-.092.279-.026.56.008.824.101ZM429.073 368.689a1.644 1.644 0 0 1-.915.256 1.666 1.666 0 0 1-.915-.146c.304-.029.611-.029.915 0 .301-.064.608-.101.915-.11Z" fill="#263238"/><path d="M426.145 370.482a2.84 2.84 0 0 1-1.007 0 5.711 5.711 0 0 1-1.08-.247 4.263 4.263 0 0 1-.613-.265.555.555 0 0 1-.247-.321.402.402 0 0 1 .164-.402 1.834 1.834 0 0 1 2.289.576c.153.204.262.438.32.687v.274a2.952 2.952 0 0 0-.448-.915 1.832 1.832 0 0 0-.852-.577 1.587 1.587 0 0 0-1.208.064c-.165.119-.11.312.073.422.178.1.365.183.559.247.341.12.689.218 1.043.293.623.128 1.007.128 1.007.164Z" fill="#263238"/><path d="M425.888 370.529a.91.91 0 0 1-.11-.705c.036-.267.137-.522.293-.741a1.034 1.034 0 0 1 .851-.504.411.411 0 0 1 .302.476.974.974 0 0 1-.183.449c-.128.226-.292.43-.485.604-.157.182-.359.32-.586.402 0 0 .202-.173.486-.494.17-.182.318-.385.439-.604.137-.21.247-.595 0-.641-.247-.045-.522.22-.677.421a1.5 1.5 0 0 0-.293.65 2.638 2.638 0 0 0-.037.687ZM442.978 369.732s-.449-.046-1.163 0a4.935 4.935 0 0 0-4.183 3.222c-.256.678-.284 1.135-.32 1.126a.955.955 0 0 1 0-.32c.036-.287.1-.569.192-.842a4.758 4.758 0 0 1 4.302-3.323c.286-.032.575-.032.861 0a.876.876 0 0 1 .311.137Z" fill="#263238"/><path d="M441.449 363.142c.093 1.077.121 2.159.082 3.24a28.876 28.876 0 0 1-.1 3.249 27.738 27.738 0 0 1-.092-3.249 27.38 27.38 0 0 1 .11-3.24ZM435.353 372.625a8.723 8.723 0 0 1-2.307.192 8.447 8.447 0 0 1-2.307-.22c0-.055 1.035 0 2.307 0s2.307-.027 2.307.028ZM438.419 372.671s-.091.219-.201.457c-.11.238-.165.44-.22.43-.055-.009-.082-.247.046-.512.128-.266.339-.412.375-.375ZM439.608 371.242s-.073.202-.238.357c-.164.156-.329.266-.366.229-.036-.036.064-.201.238-.366.174-.165.33-.256.366-.22ZM441.285 370.602c0 .055-.22.046-.458.128-.238.082-.403.201-.439.165-.037-.037.091-.257.384-.348.293-.092.531.009.513.055ZM442.475 370.309c0 .046-.073.128-.202.174-.128.045-.256.055-.274 0-.018-.055.073-.128.21-.174.138-.046.248-.046.266 0Z" fill="#263238"/><path opacity=".3" d="m442.967 369.311-15.762-.513.055-1.895 15.844 1.41-.137.998Z" fill="#000"/><path d="m393.246 370.236.238-8.422 15.781.339-.22 12.33h-.979c-4.357.155-22.17.448-25.062-.495-3.176-1.016 10.242-3.752 10.242-3.752Z" fill="#FF5300"/><path opacity=".4" d="M386.712 371.81s-4.732 1.254-4.165 2.041c.568.787 18.591 1.163 26.545.632v-.357l-21.053-.256s-.412-2.005-1.327-2.06Z" fill="#fff"/><path d="M409.33 374.126h-1.053l-2.874.064h-9.474c-3.698 0-7.048-.211-9.464-.348l-2.865-.183-.778-.055h-.275 1.053l2.874.119c2.416.101 5.766.22 9.464.293 3.698.073 7.039.091 9.465.091h3.661l.266.019Z" fill="#263238"/><path d="M388.056 374.117a5.772 5.772 0 0 0-.503-1.383 6.496 6.496 0 0 0-.916-1.116c.483.193.879.554 1.117 1.016.279.44.387.968.302 1.483ZM392.763 371.865c-.046 0-.257-.247-.486-.614-.228-.366-.366-.686-.32-.713.046-.028.266.247.485.613.22.366.366.714.321.714ZM394.053 371.196c0 .046-.274-.128-.54-.375-.265-.247-.458-.485-.421-.531.037-.046.284.138.549.385.266.247.449.485.412.521ZM394.895 369.732a1.932 1.932 0 0 1-.824.083 1.774 1.774 0 0 1-.823-.101 3.424 3.424 0 0 1 1.647 0v.018ZM395.198 368.679c-.27.181-.591.271-.916.257a1.686 1.686 0 0 1-.915-.147c.303-.044.61-.059.915-.046a6.24 6.24 0 0 1 .916-.064Z" fill="#263238"/><path d="M392.258 370.464c-.337.053-.68.053-1.016 0a5.802 5.802 0 0 1-1.071-.265 2.715 2.715 0 0 1-.613-.266.559.559 0 0 1-.248-.32.407.407 0 0 1 .165-.403 1.832 1.832 0 0 1 2.289.595c.15.201.256.432.311.678a.53.53 0 0 1 0 .274 3.067 3.067 0 0 0-.449-.869 1.824 1.824 0 0 0-.851-.586 1.578 1.578 0 0 0-1.208.064c-.165.11-.11.302.073.412.177.104.364.189.558.256.34.125.689.223 1.044.293.631.091 1.016.101 1.016.137Z" fill="#263238"/><path d="M391.993 370.51a1.09 1.09 0 0 1-.101-.714c.038-.264.138-.515.293-.732a1.015 1.015 0 0 1 .851-.495.39.39 0 0 1 .251.169.38.38 0 0 1 .051.298c-.024.164-.083.32-.174.458a3.433 3.433 0 0 1-.494.595c-.159.18-.36.318-.586.403 0 0 .202-.174.486-.495.168-.181.316-.38.439-.595.146-.21.247-.595 0-.65-.247-.055-.513.22-.677.421a1.5 1.5 0 0 0-.293.65 3.76 3.76 0 0 0-.046.687ZM409.092 369.796s-.448-.045-1.162 0a4.968 4.968 0 0 0-4.202 3.213c-.256.668-.293 1.126-.329 1.117a1.232 1.232 0 0 1 0-.321c.031-.287.095-.569.192-.842a4.773 4.773 0 0 1 4.32-3.295c.286-.031.575-.031.861 0 .112.027.22.07.32.128Z" fill="#263238"/><path d="M407.6 363.197c.081 1.081.102 2.166.064 3.249a31.587 31.587 0 0 1-.119 3.241 27.6 27.6 0 0 1-.073-3.241c-.022-1.085.02-2.17.128-3.249ZM401.421 372.652a8.473 8.473 0 0 1-2.307.183 9.135 9.135 0 0 1-2.307-.229c0-.054 1.044 0 2.307 0s2.307-.009 2.307.046ZM404.515 372.716s-.092.22-.201.449c-.11.228-.165.439-.22.439-.055 0-.083-.247.055-.522.137-.274.329-.403.366-.366ZM405.715 371.288s-.073.202-.238.366c-.164.165-.329.257-.366.22-.036-.036.064-.201.238-.357.174-.155.33-.265.366-.229ZM407.389 370.666c0 .046-.22.046-.449.119-.228.073-.402.201-.448.165-.046-.037.101-.257.384-.348.284-.092.531.009.513.064ZM408.589 370.373c0 .055-.073.128-.211.174-.137.045-.247.045-.265 0-.018-.046.073-.129.201-.174.128-.046.257-.046.275 0Z" fill="#263238"/><path opacity=".3" d="m409.082 369.375-15.762-.595.064-1.894 15.845 1.492-.147.997Z" fill="#000"/><path d="M336.112 116.55c1.217-.503 4.109 6.05 4.302 4.275.192-1.776-4.467-7.598-3.167-8.064 1.684-.623 4.576 6.297 4.878 6.855.302.559 1.117.174.833-.32-.421-.723-4.576-8.348-2.929-8.961.916-.348 1.373 1.355 1.373 1.355s3.378 7.423 4.147 7.103c.769-.321-1.053-4.751-1.776-6.197-.723-1.446-.32-2.353.577-2.142.604.146 2.929 4.522 3.615 5.977.687 1.455 2.481 5.446 3.195 2.746.714-2.7 2.288-4.503 3.057-4.696a.917.917 0 0 1 .75 1.474 10.32 10.32 0 0 0-1.226 2.526 6.845 6.845 0 0 0-.412 2.225 24.122 24.122 0 0 0 .302 4.402l19.872 26.271 8.238-4.952 7.671 13.29-11.067 6.28a12.524 12.524 0 0 1-16.769-4.238l-20.503-36.532a57.295 57.295 0 0 1-3.552-4.768c-2.178-3.524-1.867-3.726-1.409-3.909ZM429.925 134.792a8.53 8.53 0 0 1-9.218-8.238c-.183-4.649-.347-9.345-.347-9.345s-7.039-.659-7.552-7.625c-.512-6.966-.128-22.636-.128-22.636l-.22-.055a24.323 24.323 0 0 1 24.595 1.19l1.08.732-.366 37.529a8.52 8.52 0 0 1-7.844 8.448Z" fill="#FFBE9D"/><path d="M415.864 98.81a1.013 1.013 0 0 0-.074-1.378 1.018 1.018 0 0 0-1.381-.031 1.01 1.01 0 0 0-.22 1.1 1.01 1.01 0 0 0 .556.55 1.014 1.014 0 0 0 1.119-.24Z" fill="#263238"/><path d="M413.146 97.639c.11.11.769-.458 1.73-.522s1.684.394 1.831.266c.146-.129-.073-.275-.394-.486a2.333 2.333 0 0 0-1.437-.357 2.383 2.383 0 0 0-1.373.568c-.329.256-.421.476-.357.53ZM424.964 97.493a1.016 1.016 0 1 0 1.172 1.659 1.016 1.016 0 0 0-1.172-1.66Z" fill="#263238"/><path d="M423.626 97.85c.11.118.769-.45 1.73-.513.961-.064 1.684.384 1.785.256.101-.128-.073-.265-.393-.485a2.401 2.401 0 0 0-1.438-.357 2.356 2.356 0 0 0-1.373.568c-.283.256-.375.485-.311.53ZM420.213 105.319a4.343 4.343 0 0 0-1.574-.238c-.247 0-.449-.055-.476-.193a1.34 1.34 0 0 1 .137-.723c.201-.65.412-1.309.632-2.004a28.036 28.036 0 0 0 1.336-5.227c-.146 0-.979 2.224-1.831 5.071l-.595 2.005a1.618 1.618 0 0 0-.073 1.052.64.64 0 0 0 .458.376c.143.02.287.02.43 0a4.764 4.764 0 0 0 1.556-.119Z" fill="#263238"/><path d="M414.117 83.634a31.672 31.672 0 0 1 17.703-.915s6.041 2.233 6.343 5.437a66.03 66.03 0 0 1-.073 8.522h-.376l.156 6.325-2.352-.339-.321-7.88s-4.11-2.83-4.192-7.241c-2.005-.275-11.826-1.428-18.517.86v-1.556c-.019-.915.705-2.874 1.629-3.213Z" fill="#455A64"/><path d="M420.286 117.227a16.48 16.48 0 0 0 8.888-3.505s-1.656 5.263-8.723 5.327l-.165-1.822Z" fill="#EB996E"/><path d="M423.683 95.15c0 .128.796.302 1.831.375 1.034.073 1.83.046 1.83-.092 0-.137-.787-.302-1.785-.384-.997-.083-1.858-.037-1.876.1ZM413.741 93.923c.065.128.806-.165 1.73-.073.925.091 1.593.503 1.676.394.082-.11-.541-.77-1.63-.87-1.089-.1-1.858.458-1.776.55Z" fill="#263238"/><path d="M418.949 108.175a2.507 2.507 0 0 0 2.288.247c1.309-.357 1.959-1.318 1.831-1.382a16.19 16.19 0 0 1-1.968.915c-.711.124-1.43.197-2.151.22Z" fill="#fff"/><path d="M436.177 85.84a8.944 8.944 0 0 1-2.151-2.471 3.611 3.611 0 0 1-.201-3.176 3.77 3.77 0 0 1 1.684-1.63 4.524 4.524 0 0 1 2.81-.576 3.769 3.769 0 0 1 3.058 3.286 4.073 4.073 0 0 1-2.252 3.936 4.404 4.404 0 0 1-4.577-.531" fill="#455A64"/><path d="M437.495 96.54a1.065 1.065 0 0 1 1.007-1.061c1.309 0 3.432.485 3.661 4.073.284 5.135-4.65 3.854-4.668 3.707-.018-.146-.009-4.723 0-6.718Z" fill="#FFBE9D"/><path d="M438.602 101.245s.092.055.247.119a.91.91 0 0 0 .669 0 2.216 2.216 0 0 0 .915-2.04 2.916 2.916 0 0 0-.33-1.264 1.004 1.004 0 0 0-.704-.65.46.46 0 0 0-.513.275c-.064.146 0 .247-.055.256-.055.01-.11-.082-.082-.293a.6.6 0 0 1 .409-.46.668.668 0 0 1 .259-.034 1.257 1.257 0 0 1 .979.741c.244.434.379.921.394 1.419a2.344 2.344 0 0 1-1.181 2.288.974.974 0 0 1-.824-.091c-.174-.147-.201-.256-.183-.266Z" fill="#EB996E"/><path d="M419.334 125.429c-3.286.192-8.806.631-19.707 7.011-2.389 1.391-26.847 17.812-26.847 17.812l10.828 13.831 19.945-11.24-2.682 23.881-3.304 23.131 49.63-2.82.219-21.052.403-19.396 3.094 25.931 19.112-1.831-5.272-34.123a22.763 22.763 0 0 0-5.035-11.351c-3.286-3.844-7.487-6.169-12.274-7.908a40.505 40.505 0 0 0-9.007-1.648l.155-5.702s-8.595.805-10.883 6.325c0 0-2.856-6.527-8.375-7.067v6.216Z" fill="#FF5300"/><path d="M448.817 128.45a.903.903 0 0 0-.302.1 4.373 4.373 0 0 0-.814.403 8.818 8.818 0 0 0-2.481 2.224 11.779 11.779 0 0 0-2.087 4.531 16.391 16.391 0 0 0-.137 6.042 33.644 33.644 0 0 0 1.51 5.858c.586 1.757 1.172 3.313 1.629 4.631a71.54 71.54 0 0 1 1.026 3.131c.089.395.214.781.375 1.153a5.404 5.404 0 0 0-.192-1.199c-.174-.769-.467-1.831-.916-3.195-.796-2.672-2.325-6.26-2.965-10.434a16.4 16.4 0 0 1 .091-5.886 12.132 12.132 0 0 1 1.922-4.384 10.782 10.782 0 0 1 3.341-2.975ZM402.96 158.189c.108-.377.175-.763.201-1.154.101-.842.238-1.894.394-3.148.329-2.747.778-6.408 1.263-10.38.485-3.973.915-7.625 1.263-10.389.146-1.255.274-2.307.375-3.14.069-.384.103-.773.101-1.163a4.617 4.617 0 0 0-.284 1.126c-.137.742-.32 1.831-.531 3.131a311.737 311.737 0 0 0-1.4 10.38c-.485 4.064-.916 7.734-1.126 10.407a113.71 113.71 0 0 0-.247 3.158 5.22 5.22 0 0 0-.009 1.172ZM429.311 124.12a2.316 2.316 0 0 1 1.611.21c.516.306.918.772 1.144 1.327.144.333.263.676.357 1.026 0 .192.101.375.147.567.045.243.152.47.311.659a.592.592 0 0 0 .421.211c.138.003.275-.022.403-.074.21-.091.366-.183.549-.265l1.016-.494 1.693-.916a6.85 6.85 0 0 0 1.52-.915 6.239 6.239 0 0 0-1.657.604l-1.748.769-1.026.476-.521.247c-.174.055-.238.055-.312 0a4.026 4.026 0 0 1-.347-1.025 6.81 6.81 0 0 0-.412-1.089 2.958 2.958 0 0 0-1.382-1.428 1.918 1.918 0 0 0-1.337-.156c-.32.119-.448.247-.43.266ZM419.214 125.081a25.965 25.965 0 0 0 3.726 3.094l.311.238.064-.385c0-.155.055-.32.091-.485a4.288 4.288 0 0 1 2.664-4.101 1.833 1.833 0 0 0-1.492.559 3.78 3.78 0 0 0-1.062 1.409 8.305 8.305 0 0 0-.586 2.041l-.082.495.375-.147a25.735 25.735 0 0 0-4.009-2.718ZM426.564 139.708s.055-.046.119-.165c.184-.668.531-3.304.852-6.462.192-1.831.329-3.506.412-4.723a8.305 8.305 0 0 0 0-1.968 8.136 8.136 0 0 0-.367 1.931 152.928 152.928 0 0 0-.558 4.714c-.32 3.158-.512 5.812-.476 6.499.009.101 0 .165.018.174ZM451.682 181.685a14.091 14.091 0 0 0 2.316-.64c1.409-.44 3.368-1.016 5.556-1.565 2.187-.55 4.183-.916 5.629-1.255a13.42 13.42 0 0 0 2.343-.521c-.804-.03-1.609.035-2.398.192a54.97 54.97 0 0 0-11.24 2.828 10.7 10.7 0 0 0-2.206.961Z" fill="#263238"/><path d="M465.98 175.727a9.759 9.759 0 0 0-2.288.466 67.085 67.085 0 0 0-5.373 1.657 74.53 74.53 0 0 0-2.902 1.08c-.802.289-1.577.647-2.316 1.071-1.3.778-1.583 1.831-1.519 1.776a5.1 5.1 0 0 1 1.693-1.483c.742-.363 1.51-.669 2.298-.915l2.901-1.044c2.069-.723 3.945-1.336 5.318-1.785a12.458 12.458 0 0 0 2.188-.823ZM382.099 160.422a7.448 7.448 0 0 0-.815-1.83 41.467 41.467 0 0 0-2.498-4.138 40.632 40.632 0 0 0-2.966-3.826 7.146 7.146 0 0 0-1.419-1.419c-.101.092 1.831 2.417 3.991 5.492 2.16 3.076 3.579 5.822 3.707 5.721Z" fill="#263238"/><path d="M383.527 158.216a5.302 5.302 0 0 0-.842-1.656 19.98 19.98 0 0 0-2.81-3.488 19.587 19.587 0 0 0-3.515-2.746 5.427 5.427 0 0 0-1.666-.824 52.974 52.974 0 0 1 4.852 3.936 51.924 51.924 0 0 1 3.981 4.778Z" fill="#263238"/><path d="M435.718 139.937a1.576 1.576 0 0 1 .915.989 2.276 2.276 0 0 1-.97 2.517 2.087 2.087 0 0 1-2.902-1.446 2.245 2.245 0 0 1 1.657-2.39c.336-.055.681.003.98.165l.32.165ZM462.556 160.624a1.574 1.574 0 0 1 .916.988 2.26 2.26 0 0 1-.971 2.517 2.1 2.1 0 0 1-2.505-.617 2.088 2.088 0 0 1-.396-.829 2.247 2.247 0 0 1 .395-1.5 2.246 2.246 0 0 1 1.271-.889c.332-.056.674.002.97.165l.32.165ZM398.895 140.047a1.659 1.659 0 0 1 .915.988 2.278 2.278 0 0 1-.979 2.517 2.093 2.093 0 0 1-1.796-.031 2.106 2.106 0 0 1-.713-.582 2.099 2.099 0 0 1-.393-.833 2.265 2.265 0 0 1 1.666-2.38c.335-.058.679-.003.98.156l.32.165ZM407.151 188.706a1.64 1.64 0 0 1 .916.989 2.283 2.283 0 0 1-.98 2.517 2.097 2.097 0 0 1-2.901-1.446 2.257 2.257 0 0 1 1.665-2.389c.336-.055.681.003.98.164l.32.165Z" fill="#fff"/><path d="M438.557 188.706a1.604 1.604 0 0 1 .915.989 2.271 2.271 0 0 1-.979 2.517 2.096 2.096 0 0 1-1.79-.037 2.09 2.09 0 0 1-1.103-1.409 2.244 2.244 0 0 1 1.657-2.389c.336-.056.68.002.979.164l.321.165Z" fill="#FAFAFA"/><path d="M426.043 171.022a1.606 1.606 0 0 1 .916.988 2.264 2.264 0 0 1-.97 2.518 2.107 2.107 0 0 1-.902.187 2.096 2.096 0 0 1-2-1.634 2.242 2.242 0 0 1 1.666-2.38c.332-.059.673-.004.97.156l.32.165ZM418.465 150.253a.913.913 0 0 1 .503.558 1.265 1.265 0 0 1-.549 1.41 1.172 1.172 0 0 1-1.629-.805 1.273 1.273 0 0 1 .915-1.346.915.915 0 0 1 .549.092l.211.091ZM414.977 134.646a.917.917 0 0 1 .504.558 1.28 1.28 0 0 1-.55 1.41 1.167 1.167 0 0 1-1.406-.34 1.18 1.18 0 0 1-.223-.465 1.274 1.274 0 0 1 .915-1.346.917.917 0 0 1 .55.092l.21.091ZM437.266 162.033a.917.917 0 0 1 .504.559c.07.263.054.541-.045.794a1.273 1.273 0 0 1-.504.615 1.181 1.181 0 0 1-1.007-.015 1.167 1.167 0 0 1-.623-.79 1.27 1.27 0 0 1 .916-1.346.915.915 0 0 1 .549.092l.21.091ZM456.662 139.644a.917.917 0 0 1 .504.558 1.258 1.258 0 0 1-.549 1.41 1.19 1.19 0 0 1-1.007-.024 1.181 1.181 0 0 1-.623-.791 1.277 1.277 0 0 1 .916-1.336.907.907 0 0 1 .549.091l.21.092Z" fill="#fff"/><path d="M421.065 186.381a.923.923 0 0 1 .503.558 1.258 1.258 0 0 1-.549 1.41 1.177 1.177 0 0 1-1.407-.34 1.162 1.162 0 0 1-.222-.466 1.272 1.272 0 0 1 .915-1.345.922.922 0 0 1 .549.091l.211.092Z" fill="#FAFAFA"/><path d="M411.609 169.512a.913.913 0 0 1 .503.558 1.27 1.27 0 0 1-.549 1.419 1.169 1.169 0 0 1-1.401-.35 1.18 1.18 0 0 1-.219-.465 1.243 1.243 0 0 1 .915-1.336.824.824 0 0 1 .549.082l.202.092Z" fill="#fff"/><path d="M447.105 196.88v172.047l-24.934-.971-2.141-147.424-8.458 148.01-24.806-.586 10.801-168.065 49.538-3.011Z" fill="#263238"/><path d="M433.76 367.883c.137 0 .247-38.069.256-85.025.009-46.957-.101-85.026-.229-85.026s-.247 38.06-.247 85.026c0 46.966.092 85.025.22 85.025ZM399.289 367.883s0-.146.055-.43c.054-.284.054-.732.1-1.272.083-1.144.192-2.801.348-4.907.275-4.292.677-10.453 1.172-18.059.961-15.25 2.233-36.321 3.533-59.598 1.3-23.277 2.371-44.366 3.039-59.634.338-7.634.576-13.803.723-18.078.064-2.114.119-3.771.156-4.915v-1.721.439c0 .293-.046.733-.083 1.273-.055 1.153-.137 2.801-.238 4.915-.21 4.293-.503 10.462-.915 18.078-.751 15.259-1.877 36.339-3.176 59.616-1.3 23.277-2.518 44.339-3.378 59.607-.43 7.606-.778 13.775-1.025 18.059-.11 2.124-.192 3.771-.256 4.916 0 .549 0 .97-.055 1.281-.055.311 0 .43 0 .43ZM417.915 198.216a17.61 17.61 0 0 0-.201 2.865 315.905 315.905 0 0 0-.174 6.929v3.817a7.475 7.475 0 0 0 .513 3.131 3.45 3.45 0 0 0 1.418 1.611c.219.157.482.24.751.238 0-.046-.266-.11-.65-.394a3.586 3.586 0 0 1-1.208-1.583 7.796 7.796 0 0 1-.385-2.993c0-1.19 0-2.472.064-3.817.046-2.746.046-5.154 0-6.93.043-.96 0-1.921-.128-2.874ZM422.383 200.239c-.046.055.329.275.339.852a.919.919 0 0 1-.348.796.864.864 0 0 1-.998-.073.762.762 0 0 1-.286-.971.757.757 0 0 1 .231-.283c.13-.125.291-.213.467-.254.175-.042.358-.037.531.016v-.192c-.208.109-.308.183-.302.219h.366l.201-.046-.183-.146a1.195 1.195 0 0 0-1.355.11 1.183 1.183 0 0 0 0 1.959 1.292 1.292 0 0 0 1.538 0 1.254 1.254 0 0 0 .43-1.181 1.133 1.133 0 0 0-.393-.723c-.083-.101-.229-.11-.238-.083Z" fill="#455A64"/><path d="M403.609 173.694c.668-.869 8.705.513 8.705.513l-2.929-2.224c1.492-2.646 6.645.558 8.293 2.105.424.441.708.999.814 1.602l32.421 6.828 18.087-1.83s.367 3.121 1.273 9.006c.86 5.566-8.293 10.984-13.959 10.225-5.181-.733-36.852-9.739-42.243-11.277l-.787-.22c-1.748-.604-5.922-2.096-6.362-2.856-.549-.915-.402-8.457-.402-8.457l-2.975-1.309a2.13 2.13 0 0 1 .064-2.106Z" fill="#FFBE9D"/></svg>