<svg width="80" height="80" fill="none" xmlns="http://www.w3.org/2000/svg"><g clip-path="url(#a)"><path d="M50.677 68.349v-6.417H29.323v6.417c.088 5.342-2.949 10.48-2.949 10.48h27.252s-3.037-5.138-2.949-10.48Z" fill="#ACACAC"/><path d="M29.322 63.198h21.355v3.174H29.322v-3.174Z" fill="#9C9C9C"/><path d="M77.455 63.199H2.545a1.926 1.926 0 0 1-1.926-1.926V15.22c0-1.064.862-1.926 1.925-1.926h74.911c1.064 0 1.926.862 1.926 1.926v46.053a1.926 1.926 0 0 1-1.926 1.926Z" fill="#ACACAC"/><path d="M79.38 15.22v46.054a1.925 1.925 0 0 1-1.926 1.924h-3.172a1.925 1.925 0 0 0 1.925-1.924V15.22a1.926 1.926 0 0 0-1.925-1.926h3.172c1.065 0 1.927.863 1.927 1.926Z" fill="#9C9C9C"/><path d="M6.749 54.005v-33.28c0-.977.753-1.768 1.683-1.768h63.136c.93 0 1.683.791 1.683 1.767v33.28H6.749Z" fill="#C4E2FF"/><path d="M73.252 20.724v33.28h-3.174v-33.28c0-.975-.754-1.767-1.684-1.767h3.174c.93 0 1.684.792 1.684 1.767Z" fill="#A5D5F9"/><path d="M58.112 80H21.889a1.172 1.172 0 0 1 0-2.344h36.223a1.172 1.172 0 0 1 0 2.344Z" fill="#5A5A5A"/><path d="M65.998 54.005H14V1.293c0-.714.58-1.292 1.293-1.292h49.41c.715 0 1.293.579 1.293 1.292v52.712Z" fill="#EAF6FF"/><path d="M65.998 1.293v52.712h-3.173V1.293C62.825.58 62.245 0 61.53 0h3.174c.714 0 1.293.58 1.293 1.293Z" fill="#D8ECFE"/><path d="M33.712 8.5a2.772 2.772 0 0 0-2.773 2.771v10.862c0 .397 0 1.135-1.452 1.866-.402.203-.845.301-1.354.301h-.005c-.542 0-1.007-.13-1.425-.397-1.108-.708-1.199-1.215-1.199-1.759V11.271a2.772 2.772 0 1 0-5.544 0v10.873c0 2.675 1.264 4.839 3.758 6.432 1.315.84 2.796 1.267 4.402 1.269h.013c1.376 0 2.67-.3 3.848-.893 2.904-1.463 4.503-3.885 4.503-6.819V11.272a2.773 2.773 0 0 0-2.772-2.773ZM59.475 25.508l-5.238-6.902 4.356-5.777a2.772 2.772 0 0 0-4.427-3.338l-3.412 4.526-3.44-4.533a2.773 2.773 0 0 0-4.416 3.352l4.387 5.781-4.99 6.618a2.772 2.772 0 0 0 4.427 3.339l4.047-5.367 4.29 5.653a2.768 2.768 0 0 0 3.884.532 2.772 2.772 0 0 0 .532-3.884Z" fill="#97D729"/><path d="M36.484 11.271v10.862c0 2.935-1.598 5.357-4.503 6.818-1.176.593-2.471.893-3.848.893h-.013c-.506-.001-1-.042-1.479-.127a8.246 8.246 0 0 0 2.325-.766c2.905-1.461 4.503-3.883 4.503-6.818V11.27c0-.976-.503-1.833-1.265-2.326a2.772 2.772 0 0 1 4.28 2.326ZM58.944 29.392a2.758 2.758 0 0 1-3.183.118 2.772 2.772 0 0 0 .702-4.002l-4.806-6.331a.946.946 0 0 1-.002-1.142l3.925-5.206a2.773 2.773 0 0 0-.708-3.995 2.773 2.773 0 0 1 3.723 3.995l-4.356 5.778 5.238 6.9a2.772 2.772 0 0 1-.533 3.885Z" fill="#8BC727"/><path d="M60.039 37.134h-40.08a1.172 1.172 0 1 1 0-2.343h40.08a1.172 1.172 0 0 1 0 2.343ZM60.039 41.962h-40.08a1.172 1.172 0 1 1 0-2.344h40.08a1.172 1.172 0 0 1 0 2.343ZM60.039 46.789h-40.08a1.172 1.172 0 1 1 0-2.343h40.08a1.172 1.172 0 0 1 0 2.343Z" fill="#96CCED"/><path d="M79.381 54.005v7.269a1.925 1.925 0 0 1-1.926 1.924H2.545a1.925 1.925 0 0 1-1.926-1.924v-7.27H79.38Z" fill="#5A5A5A"/><path d="M79.38 54.005v7.27a1.925 1.925 0 0 1-1.926 1.924h-3.172a1.925 1.925 0 0 0 1.925-1.925v-7.269h3.174Z" fill="#444"/><path d="M42.38 59.773h-4.76a1.172 1.172 0 0 1 0-2.343h4.76a1.172 1.172 0 0 1 0 2.343Z" fill="#333"/></g><defs><clipPath id="a"><path fill="#fff" d="M0 0h80v80H0z"/></clipPath></defs></svg>