<svg width="80" height="80" fill="none" xmlns="http://www.w3.org/2000/svg"><g clip-path="url(#a)"><path d="M28.281 63.438H51.72v14.218H28.28V63.437Z" fill="#D8D8FC"/><path d="M40 63.438h11.719v14.218H40V63.437Z" fill="#A3A3D1"/><path d="M80 0v56.25l-4.688 4.688H4.689L0 56.25V0h80Z" fill="#32393F"/><path d="M80 0v56.25l-4.688 4.688H40V0h40Z" fill="#32393F"/><path d="M4.688 4.688h70.624v46.874H4.689V4.688Z" fill="#FFD396"/><path d="M40 4.688h35.313v46.874H40V4.688Z" fill="#FFB64C"/><path d="M18.906 75.313h42.188V80H18.906v-4.688Z" fill="#F2F2FC"/><path d="M40 75.313h21.094V80H40v-4.688Z" fill="#D8D8FC"/><path d="m52 35.156-4.969 11.719-5.578 4.688h-2.906l-5.578-4.688-4.97-11.719 9.376-18.75h5.25L52 35.156Z" fill="#F2F2FC"/><path d="m52 35.156-4.969 11.719-5.578 4.688H40V16.406h2.625L52 35.156Z" fill="#D8D8FC"/><path d="M37.656 16.406h4.688V37.5h-4.688V16.406Z" fill="#D8D8FC"/><path d="M40 16.406h2.344V37.5H40V16.406Z" fill="#A3A3D1"/><path d="M21.25 14.063h37.5v4.687h-37.5v-4.688Z" fill="#575F64"/><path d="M40 14.063h18.75v4.687H40v-4.688Z" fill="#32393F"/><path d="M23.594 23.438H9.375V9.374h14.219v14.063Z" fill="#FF641A"/><path d="M70.625 23.438H56.406V9.374h14.219v14.063Z" fill="#F03800"/><path d="M32.969 46.875H47.03v14.063H32.97V46.874Z" fill="#FF641A"/><path d="M40 46.875h7.031v14.063H40V46.874Z" fill="#F03800"/><path d="M0 56.25h80v9.531H0V56.25Z" fill="#F2F2FC"/><path d="M40 56.25h40v9.531H40V56.25Z" fill="#D8D8FC"/></g><defs><clipPath id="a"><path fill="#fff" d="M0 0h80v80H0z"/></clipPath></defs></svg>