<svg width="554" height="471" fill="none" xmlns="http://www.w3.org/2000/svg"><path d="M447.305 385.574v24.996h76.894v-24.996h-76.894Z" fill="#F5F5F5"/><path d="M444.076 378.584v6.99h82.81v-6.99h-82.81Z" fill="#EBEBEB"/><path d="M485.475 410.57h38.724v-24.996h2.687v-6.99H483.86v6.339l1.615 25.647ZM473.652 389.6h-15.596v3.76h15.596v-3.76ZM476.062 398.072h-20.019v7.943h20.019v-7.943Z" fill="#E0E0E0"/><path d="M541.072 470.735 539.24 81.569h-7.533v76.652h-19.464l-.362-76.64h-7.532v76.64h-66.962l-.362-76.64h-7.533v76.64h-19.404l-.361-76.64h-7.533v389.154h9.365l-.241-52.222h18.174v52.222h9.377l-.253-52.186h65.733v52.186h9.364l-.241-52.222h18.235v52.222h9.365ZM419.911 366.941l-6.737-28.853h13.824l-7.087 28.853Zm9.581-27.081v68.143l-8.159-34.951 8.159-33.192Zm0-99.045-8.159-34.951 8.159-33.18v68.131Zm-1.458 6.255h-16.873l8.629-35.108 8.244 35.108Zm-8.123-47.317-7.714-33.095h15.837l-8.123 33.095Zm-1.495 6.098-7.966 32.337-.314-67.77 8.28 35.433Zm-7.472 135.202 7.472 31.987-7.231 29.19-.241-61.177Zm8.895 38.097 7.231 30.854h-14.812l7.581-30.854Zm-8.642-49.558-.06-.266h-.241l-.35-73.795h18.946v74.012l-18.295.049Zm26.648-74.013h66.504v74.013H438.17l-.325-74.013Zm83.678-43.617 8.196 35.108h-16.825l8.629-35.108Zm-8.919 24.357-.301-63.876 7.822 33.396-7.521 30.48Zm19.103 6.75-8.689-37.205 8.689-35.338v72.543Zm0 3.881v.12h-.53l.53-.12Zm0 94.935v63.985l-7.665-32.818 7.665-31.167Zm-9.087 25.056-6.737-28.853h13.884l-7.147 28.853Zm-1.025-167.188-7.713-33.095h15.885l-8.172 33.095Zm10.112 55.826v74.013h-17.801v-.266l-.795.181-.35-73.928h18.946ZM521.125 373.04l-7.725 31.396-.301-65.805 8.026 34.409Zm1.423 6.11 7.231 30.854h-14.812l7.581-30.854Zm-18.199-212.492v80.364h-66.541l-.373-80.364h66.914Zm-64.564 243.346h-1.205l-.338-71.916h66.107v71.916h-64.564Z" fill="#EBEBEB"/><path d="M439.773 247.456v-8.786h62.033l.193 8.786h-62.226Z" fill="#E0E0E0"/><path d="M501.842 240.104s-55.019.41-58.586 1.205c-.771.181-1.543 3.616 0 3.869 1.543.253 58.586.771 58.586.771v-5.845Z" fill="#fff"/><path d="M446.98 238.32v-8.774h49.137l.157 8.774H446.98Z" fill="#EBEBEB"/><path d="M496.141 230.98s-43.581.398-46.401 1.206c-.615.18-1.205 3.555 0 3.868 1.205.314 46.401.772 46.401.772v-5.846Z" fill="#fff"/><path d="M446.763 229.643v-8.774H495.9l.157 8.774h-49.294Z" fill="#E0E0E0"/><path d="M495.925 222.303s-43.581.397-46.401 1.205c-.615.181-1.206 3.616 0 3.869 1.205.253 46.401.771 46.401.771v-5.845Z" fill="#fff"/><path d="M504.348 100.057h-12.45v58.007h12.45v-58.007Z" fill="#E0E0E0"/><path d="M500.842 144.144a2.406 2.406 0 0 1-1.475 2.221 2.412 2.412 0 0 1-3.179-3.102 2.402 2.402 0 0 1 2.183-1.529 2.472 2.472 0 0 1 2.471 2.41ZM500.167 115.424h-3.809v23.706h3.809v-23.706Z" fill="#fff"/><path d="M491.706 100.057h-12.45v58.007h12.45v-58.007Z" fill="#EBEBEB"/><path d="M485.728 146.615a2.47 2.47 0 1 0 0-4.941 2.47 2.47 0 0 0 0 4.941ZM487.524 115.424h-3.809v23.706h3.809v-23.706Z" fill="#fff"/><path d="M479.666 100.057h-12.45v58.007h12.45v-58.007Z" fill="#F5F5F5"/><path d="M476.159 144.144a2.408 2.408 0 0 1-1.488 2.227 2.408 2.408 0 0 1-2.627-.522 2.416 2.416 0 0 1-.523-2.627 2.415 2.415 0 0 1 2.227-1.488 2.469 2.469 0 0 1 2.411 2.41ZM475.483 115.424h-3.808v23.706h3.808v-23.706Z" fill="#fff"/><path d="M504.348 271.729h-12.45v58.007h12.45v-58.007Z" fill="#E0E0E0"/><path d="M500.842 315.828a2.406 2.406 0 0 1-1.475 2.221 2.412 2.412 0 0 1-3.179-3.103 2.41 2.41 0 0 1 4.654.882ZM500.167 287.107h-3.809v23.707h3.809v-23.707Z" fill="#fff"/><path d="M491.706 271.729h-12.45v58.007h12.45v-58.007Z" fill="#EBEBEB"/><path d="M488.199 315.828a2.406 2.406 0 0 1-1.475 2.221 2.412 2.412 0 0 1-3.179-3.103 2.41 2.41 0 0 1 4.654.882ZM487.524 287.107h-3.809v23.707h3.809v-23.707Z" fill="#fff"/><path d="M479.666 271.729h-12.45v58.007h12.45v-58.007Z" fill="#F5F5F5"/><path d="M476.159 315.828a2.408 2.408 0 0 1-1.488 2.227 2.416 2.416 0 0 1-2.627-.523 2.409 2.409 0 0 1 1.704-4.115 2.414 2.414 0 0 1 2.411 2.411ZM475.483 287.107h-3.808v23.707h3.808v-23.707Z" fill="#fff"/><path d="m451.825 157.173 14.957-51.029-5.158-2.254-15.343 51.439 5.544 1.844Z" fill="#E0E0E0"/><path d="M99.298 160.137H39.59v77.846l59.707 1.506v-79.352Z" fill="#EBEBEB"/><path d="M95.37 162.909H43.134v70.602l52.234 1.76v-72.362Z" fill="#fff"/><path d="m86.222 175.733-34.662-1.314v49.342h34.662v-48.028Z" fill="#EBEBEB"/><path d="m51.56 223.761 34.662-25.346-34.662-23.996v49.342ZM149.435 459.31c-1.422-1.206-4.604-5.074-2.145-9.558.892-1.651 2.808-2.471 4.532-3.194a18.088 18.088 0 0 0 4.977-2.567c2.7-2.278 3.447-6.086 5.243-9.135 2.061-3.496 5.893-6.123 9.955-5.942 4.64.217 8.521 3.989 10.281 8.304 1.759 4.314 1.82 9.087 1.844 13.739 0 2.567-.085 5.46-1.989 7.232-1.904 1.771-4.375 1.615-6.749 1.542l-25.394-.771" fill="#F5F5F5"/><path d="M193.908 399.024h-60.659l10.847 64.902a7.233 7.233 0 0 0 5.183 5.785l.205.06c.177.055.359.1.542.132.397.083.8.132 1.205.145H178.59c.497.001.994-.047 1.482-.145a7.226 7.226 0 0 0 6.147-6.339l5.267-44.726.241-1.784 2.085-17.704.096-.326Zm-11.45 41.4h-6.231l.627-18.838h7.231l-1.627 18.838Zm2.218-18.838h6.026l-2.217 18.838h-5.364l1.555-18.838Zm-17.789 39.772-.386-16.367h8.931l-.554 16.367h-7.991Zm-9.642-16.367h8.714l.386 16.367h-7.822l-1.278-16.367Zm.675 16.367h-7.316c-.687-4.423-1.59-10.16-2.567-16.367h8.606l1.277 16.367Zm-1.024-20.886-1.471-18.838h9.992l.434 18.838h-8.955Zm9.569 0-.446-18.838h10.293l-.627 18.838h-9.22Zm-.542-23.357-.41-17.44h11.534l-.579 17.44h-10.545Zm-.603 0h-10.256l-1.362-17.44h11.208l.41 17.44Zm-10.847 0h-10.847c-.373-2.411-.747-4.689-1.072-6.737-1.133-7.051-1.555-9.702-1.796-10.703h12.353l1.362 17.44Zm.35 4.519 1.47 18.838h-8.967c-.301-1.904-.602-3.845-.904-5.773-.711-4.447-1.41-8.895-2.073-13.065h10.474Zm-8.099 18.838h-5.858l-3.182-18.838h6.027c.879 5.773 1.904 12.257 2.94 18.79l.073.048Zm.711 4.519 2.579 16.367h-5.628l-2.76-16.367h5.809Zm28.166 16.367.554-16.367h6.026l-1.41 16.367h-5.17Zm1.482-44.243.579-17.44h8.436l-1.506 17.44h-7.509Zm-36.964-17.488c.241 1.265 1.35 8.123 2.832 17.439h-6.086l-2.941-17.439h6.195Zm45.798 61.683h-4.688l1.434-16.367h5.219l-1.965 16.367Zm5.207-44.244h-6.05l1.494-17.439h6.665l-2.109 17.439Z" fill="#EBEBEB"/><path d="M15.98 365.591c1.073.181 2.279.446 3.616.579 1.338.133 2.833.362 4.436.434 1.603.072 3.302.12 5.098.144a71.844 71.844 0 0 0 11.63-1.205 71.848 71.848 0 0 0 11.233-3.218c1.663-.687 3.254-1.301 4.676-2.036 1.422-.736 2.772-1.387 3.953-2.049 1.181-.663 2.23-1.326 3.146-1.893.916-.566 1.7-1.096 2.314-1.542l1.205-.796H12.184v10.751l1.085.253c.735.193 1.651.41 2.712.578ZM48.884 465.95a40.25 40.25 0 0 0-11.74 1.519 30.395 30.395 0 0 0-6.676 2.904h45.075c-3.833-.759-7.906-1.723-12.185-2.591a76.115 76.115 0 0 0-14.474-1.832Z" fill="#F5F5F5"/><path d="M104.324 458.586c-5.122-.807-11.293-.192-18.078.434a79.354 79.354 0 0 1-10.847.302c-3.748-.157-7.605-.567-11.534-1.049-7.87-.988-15.367-1.989-22.2-1.687a48.573 48.573 0 0 0-17.584 3.917 50.463 50.463 0 0 0-10.546 6.17l-1.386 1.085v2.615h17.74a27.733 27.733 0 0 1 7.112-3.374 39.68 39.68 0 0 1 11.883-1.748 74.1 74.1 0 0 1 14.607 1.736c5.098 1.036 9.907 2.241 14.318 3.085l1.483.253h35.879v-7.761a25.674 25.674 0 0 0-10.847-3.978Z" fill="#F5F5F5"/><path d="M23.9 460.021a48.004 48.004 0 0 1 17.752-4.11c6.918-.338 14.463.651 22.309 1.627 3.929.482 7.773.904 11.485 1.06 3.602.163 7.21.07 10.8-.277 6.82-.59 13.076-1.205 18.258-.265a25.295 25.295 0 0 1 10.666 4.122v-13.607a33.626 33.626 0 0 0-9.171-1.29c-10.245-.337-23.852 5.243-39.688 4.821a95.643 95.643 0 0 1-21.923-2.663c-6.629-1.591-12.317-3.869-17.259-5.159a39.43 39.43 0 0 0-11.883-1.627 30.193 30.193 0 0 0-3.062.29v24.514c.362-.314.748-.651 1.206-1.013a46.401 46.401 0 0 1 10.51-6.423ZM16.15 397.445c2.735.242 6.508 1.591 10.93 3.616a63.79 63.79 0 0 0 7.34 2.82 48.818 48.818 0 0 0 8.883 1.639c6.92.498 13.876.069 20.682-1.277 7.231-1.29 14.089-3.11 20.38-4.459a120.877 120.877 0 0 1 16.873-2.688 60.19 60.19 0 0 1 11.522.193 30.73 30.73 0 0 1 2.41.361v-18.138l-1.072-.868a69.166 69.166 0 0 0-7.087-5.122 24.413 24.413 0 0 0-12.052-4.014c-4.821-.156-10.016 1.736-15.053 4.207a121.7 121.7 0 0 0-13.836 7.822c-2 1.349-4.134 2.555-4.978 4.447a2.409 2.409 0 0 0 .362 2.651 6.556 6.556 0 0 0 2.278 1.555 23.154 23.154 0 0 0 8.364 2.242c2.049.144 3.206 0 3.206.084-.27.087-.55.135-.832.145-.801.07-1.606.09-2.41.06a22.175 22.175 0 0 1-8.57-2.037 7.103 7.103 0 0 1-2.494-1.675 3.047 3.047 0 0 1-.494-3.266c.976-2.206 3.194-3.411 5.17-4.821a113.673 113.673 0 0 1 13.884-7.93c5.074-2.483 10.365-4.412 15.415-4.219a24.679 24.679 0 0 1 12.317 4.255 58.417 58.417 0 0 1 6.991 5.363l.879.783v-14.993a41.784 41.784 0 0 0-5.761-2.639 43.282 43.282 0 0 0-18.331-2.483 38.566 38.566 0 0 0-10.678 2.483 76.638 76.638 0 0 0-10.558 5.387 70.393 70.393 0 0 1-10.714 5.351 40.558 40.558 0 0 1-10.968 2.134c-7.123.422-13.486-.302-18.825-.386a56.4 56.4 0 0 0-12.57.856c-.736.156-1.387.265-1.941.41l-1.398.409c-.392.133-.796.23-1.206.29.362-.175.736-.32 1.121-.434l1.386-.482c.555-.169 1.206-.302 1.929-.483a52.826 52.826 0 0 1 12.655-1.096c5.363 0 11.738.675 18.765.217a39.77 39.77 0 0 0 10.81-2.17 71.775 71.775 0 0 0 10.595-5.303 72.842 72.842 0 0 1 10.666-5.423 38.786 38.786 0 0 1 10.847-2.495c6.32-.485 12.669.428 18.596 2.676a40.163 40.163 0 0 1 5.58 2.639v-9.642H67.552c-.313.265-.723.603-1.277 1.037a24.708 24.708 0 0 1-2.254 1.651c-.904.603-1.916 1.338-3.122 2.001a43.72 43.72 0 0 1-3.94 2.157c-1.423.759-3.026 1.41-4.701 2.121a68.327 68.327 0 0 1-11.341 3.314 69.327 69.327 0 0 1-11.763 1.206c-1.82 0-3.544 0-5.159-.217a45.125 45.125 0 0 1-4.459-.531c-1.362-.168-2.567-.482-3.616-.699a23.056 23.056 0 0 1-2.7-.699l-1.012-.301v23.104c.808-.277 1.868-.59 3.158-.904a50.195 50.195 0 0 1 24.647.277c1.224.32 2.43.702 3.616 1.145.425.139.83.334 1.205.579 0 .12-1.905-.506-4.978-1.205a58.52 58.52 0 0 0-12.185-1.447c-4.1-.018-8.191.386-12.208 1.206-1.35.277-2.41.53-3.279.735v9.051a12.93 12.93 0 0 1 3.966-.133Zm63.274-14.149c.142-.318.357-.598.626-.819a4.723 4.723 0 0 1 1.663-.892 36.428 36.428 0 0 1 23.755.952 33.545 33.545 0 0 1 6.485 3.362c.735.458 1.205.904 1.602 1.206.398.301.543.434.519.458a48.927 48.927 0 0 0-8.786-4.484 37.644 37.644 0 0 0-10.438-2.205 36.237 36.237 0 0 0-12.92 1.47c-.508.151-.98.406-1.386.747a1.013 1.013 0 0 0-.445 1.097c.277.759 1.639.82 2.663 1.073l6.243 1.277 10.558 2.194 7.111 1.554 1.916.458c.23.034.454.103.663.205a2.119 2.119 0 0 1-.687-.06l-1.953-.313-7.11-1.35-10.642-2.013-6.232-1.205c-.554-.109-1.072-.193-1.663-.338a2.135 2.135 0 0 1-1.566-1.205 1.47 1.47 0 0 1 .024-1.169Zm-45.618 8.895a48.018 48.018 0 0 0 6.135 2.832 45.48 45.48 0 0 0 21.874 2.543c8.702-1.024 15.668-5.423 21.297-6.665a20.956 20.956 0 0 1 6.749-.675c.62.042 1.237.13 1.844.265.213.035.42.1.615.193 0 .073-.88-.132-2.411-.169a22.994 22.994 0 0 0-6.653.904 77.62 77.62 0 0 0-9.388 3.544 45.267 45.267 0 0 1-11.932 3.35 44.097 44.097 0 0 1-22.176-2.796 39.5 39.5 0 0 1-6.099-3.073 17.668 17.668 0 0 1-2.037-1.446c.76.336 1.489.735 2.182 1.193Z" fill="#F5F5F5"/><path d="M27.298 443.786c4.99 1.205 10.702 3.471 17.283 5.002a97.05 97.05 0 0 0 21.766 2.591c15.668.398 29.25-5.098 39.688-4.628 3.106.033 6.192.516 9.16 1.434v-14.583l-3.062.374c-4.387.434-10.413 1.289-17.174 1.434-3.18.075-6.36-.151-9.497-.675a34.746 34.746 0 0 1-7.485-2.157 25.137 25.137 0 0 1-4.604-2.519 11.782 11.782 0 0 1-1.133-.868c-.253-.205-.373-.325-.361-.349a43.73 43.73 0 0 0 6.303 3.229 36.117 36.117 0 0 0 7.388 1.977 53.79 53.79 0 0 0 9.377.603c6.689-.133 12.739-.916 17.126-1.206l3.122-.229v-35.373a81.332 81.332 0 0 0-2.411-.253 64.248 64.248 0 0 0-11.437 0 126.423 126.423 0 0 0-16.813 2.881c-6.255 1.386-13.077 3.218-20.393 4.519a77.099 77.099 0 0 1-20.886 1.205 48.087 48.087 0 0 1-8.991-1.735 62.252 62.252 0 0 1-7.4-2.953c-4.4-2.061-8.063-3.471-10.763-3.796a16.674 16.674 0 0 0-3.917-.145v25.032c.181-.229.386-.445.603-.674 1.989-2.013 5.725-3.857 10.534-5.111 4.808-1.253 10.738-1.759 17.21-2.603a132.807 132.807 0 0 0 20.622-4.917 150.47 150.47 0 0 1 20.693-5.171 89.011 89.011 0 0 1 17.391-.928c3.912.189 7.806.644 11.655 1.362a59.79 59.79 0 0 1 3.121.675c.365.072.724.173 1.073.302a5.008 5.008 0 0 1-1.097-.145c-.723-.145-1.783-.313-3.145-.542-3.85-.61-7.735-.98-11.63-1.109a90.728 90.728 0 0 0-17.26 1.084 155.653 155.653 0 0 0-20.585 5.195 129.766 129.766 0 0 1-20.754 4.917c-6.508.808-12.39 1.205-17.162 2.411-4.773 1.205-8.436 2.916-10.45 4.821a6.78 6.78 0 0 0-.819.867v10.51l.374.193 2.724 1.446a106.19 106.19 0 0 0 10.328 4.616 100.63 100.63 0 0 0 36.53 6.701c14.656.169 27.36-4.351 36.965-5.243a42.652 42.652 0 0 1 11.365.097l1.76.325 1.205.326c.357.065.705.175 1.036.325a5.733 5.733 0 0 1-1.072-.181l-1.278-.253-1.747-.241a44.462 44.462 0 0 0-11.27.145c-4.748.554-10.304 1.844-16.51 3.169a97.621 97.621 0 0 1-57.212-4.664 94.335 94.335 0 0 1-10.245-4.881l-2.651-1.579-.302-.193v9.112a21.91 21.91 0 0 1 3.05-.422 37.775 37.775 0 0 1 12.064 1.446ZM56.452 420.2a81.45 81.45 0 0 0-11.51 6.978 2.613 2.613 0 0 0-1.205 2.049 2.024 2.024 0 0 0 1.326 1.627 6.704 6.704 0 0 0 3.76.241 6.416 6.416 0 0 1 2.507.109c.283.069.546.201.771.385 0 0-.277-.12-.82-.241a6.555 6.555 0 0 0-2.41 0 6.877 6.877 0 0 1-3.977-.144 2.413 2.413 0 0 1-1.627-1.977 3.049 3.049 0 0 1 1.41-2.495 76.977 76.977 0 0 1 11.534-7.231 79.702 79.702 0 0 1 15.5-5.773 78.669 78.669 0 0 1 30.009-1.88c1.917.289 3.616.518 5.134.892 1.519.373 2.809.578 3.833.904l2.411.711c.283.069.558.17.819.301a4.3 4.3 0 0 1-.856-.157l-2.41-.566c-1.037-.289-2.338-.494-3.833-.783-1.494-.29-3.23-.507-5.134-.76a81.497 81.497 0 0 0-45.196 7.798l-.036.012Zm11.136 9.811a6.923 6.923 0 0 1-1.783-.085 3.296 3.296 0 0 1-2.41-1.579 2.169 2.169 0 0 1-.182-1.868c.31-.621.77-1.156 1.338-1.554a29.895 29.895 0 0 1 8.256-5.05 37.378 37.378 0 0 1 11.534-2.652 52.586 52.586 0 0 1 21.188 3.315c2.591.928 4.628 1.819 6.026 2.41.699.313 1.205.591 1.591.771.385.181.542.302.53.326a17.363 17.363 0 0 1-2.23-.82 114.674 114.674 0 0 0-6.026-2.229 55.106 55.106 0 0 0-20.898-3.062 37.925 37.925 0 0 0-11.33 2.543 30.448 30.448 0 0 0-8.183 4.821c-.498.344-.91.797-1.205 1.326a1.793 1.793 0 0 0 .108 1.494 2.97 2.97 0 0 0 2.073 1.483c1.459.301 2.338.205 2.326.289-.229.093-.476.134-.723.121Z" fill="#F5F5F5"/><path d="M16.102 397.735c2.7.325 6.363 1.735 10.762 3.796a62.083 62.083 0 0 0 7.4 2.953 48.17 48.17 0 0 0 8.991 1.736 77.14 77.14 0 0 0 20.887-1.206c7.315-1.301 14.137-3.133 20.392-4.519a126.322 126.322 0 0 1 16.765-2.833 64.436 64.436 0 0 1 11.437 0c.988.089 1.792.173 2.411.254v-.193a32.647 32.647 0 0 0-2.411-.362 60.19 60.19 0 0 0-11.522-.193 120.878 120.878 0 0 0-16.873 2.688c-6.291 1.35-13.113 3.17-20.38 4.459a77.855 77.855 0 0 1-20.682 1.278c-2.999-.296-5.965-.869-8.858-1.712a63.837 63.837 0 0 1-7.364-2.844c-4.423-2.001-8.196-3.35-10.931-3.616a12.955 12.955 0 0 0-3.966.061v.084a16.722 16.722 0 0 1 3.942.169ZM15.897 366.001c1.072.217 2.278.531 3.615.699 1.477.251 2.965.428 4.46.531 1.615.18 3.338.18 5.158.217a69.327 69.327 0 0 0 11.763-1.206 68.327 68.327 0 0 0 11.341-3.314c1.675-.711 3.278-1.362 4.7-2.121 1.37-.63 2.705-1.33 4.002-2.097 1.205-.663 2.218-1.398 3.121-2.001a24.68 24.68 0 0 0 2.254-1.651c.555-.434.964-.771 1.278-1.037h-.302l-1.205.796c-.614.446-1.374.988-2.314 1.543-.94.554-1.928 1.265-3.145 1.892-1.218.626-2.495 1.386-3.954 2.049a147.161 147.161 0 0 1-4.676 2.036 71.875 71.875 0 0 1-11.22 3.182 71.845 71.845 0 0 1-11.63 1.205c-1.797 0-3.508 0-5.099-.144-1.59-.145-3.085-.253-4.435-.434-1.35-.181-2.555-.398-3.616-.579a37.645 37.645 0 0 1-2.712-.566l-1.084-.253v.229l1.012.301c.88.295 1.778.536 2.688.723ZM91.067 358.36a38.786 38.786 0 0 0-10.847 2.495 72.847 72.847 0 0 0-10.667 5.423 71.775 71.775 0 0 1-10.593 5.303 39.791 39.791 0 0 1-10.763 2.134c-7.027.458-13.402-.205-18.765-.217a52.774 52.774 0 0 0-12.655 1.097c-.723.18-1.374.313-1.929.482l-1.386.482a7.37 7.37 0 0 0-1.12.434c.41-.06.813-.157 1.205-.29l1.398-.409c.554-.145 1.205-.254 1.94-.41a56.4 56.4 0 0 1 12.57-.856c5.34.084 11.703.808 18.826.386a40.558 40.558 0 0 0 10.968-2.134 70.397 70.397 0 0 0 10.714-5.351 76.638 76.638 0 0 1 10.558-5.387 38.546 38.546 0 0 1 10.546-2.483 43.266 43.266 0 0 1 18.355 2.483 41.838 41.838 0 0 1 5.761 2.639v-.506a40.332 40.332 0 0 0-5.58-2.639 43.136 43.136 0 0 0-18.536-2.676ZM107.325 373.064a24.694 24.694 0 0 0-12.318-4.255c-5.05-.192-10.34 1.736-15.415 4.219a113.686 113.686 0 0 0-13.835 7.93c-1.977 1.374-4.195 2.579-5.17 4.821a3.049 3.049 0 0 0 .493 3.266 7.103 7.103 0 0 0 2.495 1.675 22.175 22.175 0 0 0 8.57 2.037c.803.03 1.608.01 2.41-.06.282-.01.562-.058.831-.145 0 0-1.205.061-3.206-.084a23.133 23.133 0 0 1-8.364-2.242 6.558 6.558 0 0 1-2.278-1.555 2.408 2.408 0 0 1-.361-2.651c.843-1.892 2.977-3.097 4.977-4.447a121.702 121.702 0 0 1 13.836-7.822c5.038-2.471 10.196-4.363 15.053-4.206 4.302.25 8.46 1.635 12.053 4.013a69.043 69.043 0 0 1 7.086 5.122l1.073.868v-.301l-.88-.784a58.308 58.308 0 0 0-7.05-5.399Z" fill="#EBEBEB"/><path d="M80.955 385.61c.59.145 1.109.229 1.663.338l6.243 1.205 10.594 2.049 7.159 1.313 1.952.314c.225.057.457.078.687.06a2.196 2.196 0 0 0-.662-.205l-1.917-.458-7.11-1.555-10.558-2.193-6.243-1.278c-1.025-.253-2.41-.313-2.664-1.072a1.014 1.014 0 0 1 .446-1.097 3.85 3.85 0 0 1 1.386-.747 36.238 36.238 0 0 1 12.92-1.471c3.566.236 7.081.979 10.437 2.206a48.89 48.89 0 0 1 8.786 4.483s-.156-.18-.518-.458c-.361-.277-.868-.711-1.603-1.205a33.481 33.481 0 0 0-6.484-3.362 36.429 36.429 0 0 0-23.755-.952 4.737 4.737 0 0 0-1.663.891c-.27.221-.484.502-.627.82a1.47 1.47 0 0 0 0 1.109 2.145 2.145 0 0 0 1.53 1.265ZM27.671 386.562a58.52 58.52 0 0 1 12.185 1.447c3.073.687 4.942 1.313 4.978 1.205a5.09 5.09 0 0 0-1.206-.579 37.164 37.164 0 0 0-3.615-1.145 50.185 50.185 0 0 0-24.671-.277c-1.29.314-2.41.627-3.158.904v.301a88.08 88.08 0 0 1 3.279-.735 59.769 59.769 0 0 1 12.208-1.121ZM23.453 417.344c4.821-1.206 10.655-1.615 17.163-2.411a129.842 129.842 0 0 0 20.754-4.893 155.493 155.493 0 0 1 20.585-5.194 90.648 90.648 0 0 1 17.259-1.085c3.896.129 7.78.499 11.63 1.109 1.362.229 2.411.397 3.146.542.359.089.727.137 1.096.145a6.937 6.937 0 0 0-1.12-.266c-.699-.18-1.76-.409-3.122-.674a85.938 85.938 0 0 0-11.654-1.362 88.933 88.933 0 0 0-17.392.928 150.324 150.324 0 0 0-20.693 5.17 132.806 132.806 0 0 1-20.622 4.917c-6.472.844-12.39 1.302-17.21 2.604-4.821 1.301-8.545 3.097-10.534 5.11-.217.229-.422.446-.603.675v.409a6.78 6.78 0 0 1 .82-.867c2.025-1.929 5.725-3.652 10.497-4.857ZM33.65 392.444a39.5 39.5 0 0 0 6.098 3.073 44.097 44.097 0 0 0 22.177 2.796 45.269 45.269 0 0 0 11.931-3.35 77.618 77.618 0 0 1 9.389-3.544 22.994 22.994 0 0 1 6.653-.904c1.59 0 2.41.242 2.41.169a2.288 2.288 0 0 0-.615-.193 12.3 12.3 0 0 0-1.831-.265 20.971 20.971 0 0 0-6.798.675c-5.689 1.205-12.594 5.641-21.296 6.665a45.48 45.48 0 0 1-21.875-2.543 48.025 48.025 0 0 1-6.135-2.832 15.026 15.026 0 0 0-2.193-1.205 17.675 17.675 0 0 0 2.085 1.458Z" fill="#EBEBEB"/><path d="M101.648 412.402c1.905.253 3.616.446 5.135.76 1.518.313 2.796.494 3.832.783l2.411.566c.279.081.566.134.855.157a3.83 3.83 0 0 0-.819-.301l-2.411-.711c-1.024-.326-2.326-.579-3.832-.904-1.507-.326-3.218-.603-5.134-.892a78.682 78.682 0 0 0-29.974 1.868 79.786 79.786 0 0 0-15.596 5.845 76.902 76.902 0 0 0-11.534 7.232 3.043 3.043 0 0 0-1.41 2.495 2.411 2.411 0 0 0 1.627 1.976 6.885 6.885 0 0 0 3.977.145 6.512 6.512 0 0 1 2.41 0c.543.12.808.277.82.241a1.953 1.953 0 0 0-.77-.386 6.397 6.397 0 0 0-2.508-.108 6.722 6.722 0 0 1-3.76-.241 2.032 2.032 0 0 1-1.326-1.627 2.608 2.608 0 0 1 1.205-2.049 80.866 80.866 0 0 1 56.706-14.776l.096-.073Z" fill="#EBEBEB"/><path d="M63.804 428.191a1.799 1.799 0 0 1-.108-1.495 3.951 3.951 0 0 1 1.205-1.326 30.42 30.42 0 0 1 8.184-4.82 37.863 37.863 0 0 1 11.329-2.543 55.086 55.086 0 0 1 20.898 3.061 89.055 89.055 0 0 1 6.026 2.23 17.51 17.51 0 0 0 2.23.819s-.169-.133-.53-.325a26.635 26.635 0 0 0-1.591-.772 60.608 60.608 0 0 0-6.026-2.41 52.613 52.613 0 0 0-21.128-3.315 37.378 37.378 0 0 0-11.534 2.652 29.906 29.906 0 0 0-8.207 4.978 4.167 4.167 0 0 0-1.338 1.554 2.172 2.172 0 0 0 .18 1.868 3.295 3.295 0 0 0 2.41 1.579 6.924 6.924 0 0 0 1.785.085c.208.01.416-.019.614-.085 0-.084-.867 0-2.326-.289a2.96 2.96 0 0 1-2.073-1.446ZM15.137 435.422a94.281 94.281 0 0 0 10.28 4.821 97.621 97.621 0 0 0 57.212 4.724c6.207-1.325 11.763-2.615 16.512-3.169a44.46 44.46 0 0 1 11.269-.145l1.747.241 1.278.253c.351.094.71.155 1.073.181a4.43 4.43 0 0 0-1.037-.325l-1.205-.326-1.76-.325a42.65 42.65 0 0 0-11.365-.097c-9.642.892-22.309 5.412-36.964 5.243a100.632 100.632 0 0 1-36.506-6.701 106.19 106.19 0 0 1-10.329-4.616l-2.724-1.446-.373-.193v.132l.3.193 2.592 1.555Z" fill="#EBEBEB"/><path d="M94.947 434.651a53.79 53.79 0 0 1-9.377-.603 36.115 36.115 0 0 1-7.387-1.977 43.72 43.72 0 0 1-6.304-3.229s.109.144.362.349c.36.312.738.602 1.133.868a25.137 25.137 0 0 0 4.604 2.519 34.746 34.746 0 0 0 7.484 2.157c3.137.524 6.317.75 9.497.675 6.761-.145 12.788-1 17.175-1.434l3.061-.374v-.398l-3.122.229c-4.387.302-10.437 1.085-17.126 1.218ZM27.19 444.317c4.941 1.289 10.63 3.615 17.259 5.158a95.643 95.643 0 0 0 21.923 2.663c15.836.386 29.443-5.194 39.688-4.82 3.102.004 6.188.438 9.171 1.289v-.386a32.152 32.152 0 0 0-9.159-1.434c-10.438-.47-24.02 5.026-39.688 4.628a97.05 97.05 0 0 1-21.767-2.591c-6.58-1.531-12.293-3.748-17.282-5.002a37.806 37.806 0 0 0-12.053-1.422c-1.025.07-2.043.211-3.049.422v.157a30.188 30.188 0 0 1 3.061-.29 39.413 39.413 0 0 1 11.896 1.628ZM24.116 460.503a48.577 48.577 0 0 1 17.536-3.917c6.834-.302 14.33.699 22.2 1.687 3.93.482 7.786.892 11.534 1.049 3.619.147 7.243.046 10.847-.302 6.834-.626 13.005-1.205 18.079-.434 3.87.485 7.58 1.845 10.847 3.978v-.386a25.311 25.311 0 0 0-10.751-4.122c-5.182-.892-11.438-.325-18.26.265-3.56.335-7.14.42-10.713.253-3.713-.156-7.557-.578-11.486-1.06-7.834-.977-15.355-1.965-22.297-1.603a48.018 48.018 0 0 0-17.777 4.134 46.37 46.37 0 0 0-10.51 6.424c-.457.361-.843.699-1.205 1.012v.301l1.386-1.084a50.393 50.393 0 0 1 10.57-6.195Z" fill="#EBEBEB"/><path d="M63.515 466.987a74.114 74.114 0 0 0-14.631-1.736 39.655 39.655 0 0 0-11.908 1.7 27.733 27.733 0 0 0-7.11 3.374h.578a30.415 30.415 0 0 1 6.689-2.856 40.23 40.23 0 0 1 11.75-1.519c4.867.131 9.71.728 14.463 1.784 4.279.868 8.352 1.832 12.185 2.591h3.772l-1.494-.253c-4.387-.844-9.196-2.049-14.294-3.085Z" fill="#EBEBEB"/><path d="M86.727 391.227H12.184v1.458h74.543v-1.458ZM86.74 429.601H12.183v1.458H86.74v-1.458Z" fill="#E0E0E0"/><path d="M57.947 391.962H42.195v3.338h15.752v-3.338ZM57.947 354.021H42.195v3.339h15.752v-3.339ZM57.947 430.131H42.195v3.339h15.752v-3.339Z" fill="#E0E0E0"/><path d="M115.195 354.021H86.728v116.365h28.467V354.021ZM22.236 306.114H12.184v47.907h10.052v-47.907ZM34.36 310.995h-7.014v43.038h7.015v-43.038Z" fill="#EBEBEB"/><path d="M27.346 310.995h-5.11v43.038h5.11v-43.038Z" fill="#E0E0E0"/><path d="M39.532 315.936h-5.183v38.097h5.183v-38.097Z" fill="#F5F5F5"/><path d="M50.499 302.884H39.531v51.137H50.5v-51.137ZM58.248 331.436l-1.037 4.314 1.037 1.555v2.579l-1.037 2.411 1.037.867v6.026l-1.037.687 1.037.868v3.266h55.356v-3.965l-1.037-1.892 1.037-8.617-.844-4.146a10.128 10.128 0 0 1-.868-2.242c0-.518.181-1.724.181-1.724l-53.825.013Z" fill="#EBEBEB"/><path opacity=".24" d="m86.727 354.021-1.325-6.243 1.325-2.579v-2.471l-1.325-1.289 1.325-1.977v-8.026h25.322l-.169 1.723.856 2.242.868 4.134-1.037 8.629 1.037 1.892v3.965H86.727Z" fill="#E0E0E0"/><path d="M553.028 470.373c0 .181-123.801.314-276.502.314-152.702 0-276.526-.085-276.526-.314 0-.229 123.788-.313 276.526-.313s276.502.193 276.502.313Z" fill="#263238"/><path d="m169.893 119.283-41.014.165.208 51.788 41.014-.165-.208-51.788Z" fill="#fff"/><path d="M129.103 171.213h2.977l8.328-.108 29.709-.253-.253.265c-.085-14.8-.169-32.613-.265-51.825-.073-.084.59.579.301.302H128.898l.277-.277v51.547a1.78 1.78 0 0 1 0 .253 1.124 1.124 0 0 1 0-.217V167.417c0-2.483-.06-6.026-.12-10.558-.072-9.147-.169-22.116-.289-37.518v-.278h.277l19.549-.108H170.056l.326.313c0 19.175.108 36.989.157 51.825v.265h-40.556c-.651-.12-.88-.145-.88-.145Z" fill="#263238"/><path d="m152.711 169.955-5.688.022.005 1.386 5.689-.022-.006-1.386Z" fill="#263238"/><path d="m155.948 137.454-12.438.05.073 17.97 12.437-.05-.072-17.97Z" fill="#FF5300"/><path opacity=".5" d="m155.948 137.454-12.438.05.073 17.97 12.437-.05-.072-17.97Z" fill="#fff"/><path d="m153.306 118.627-5.688.023.004 1.181 5.689-.023-.005-1.181Z" fill="#263238"/><path d="M260.075 115.46c15.202 0 27.527-12.325 27.527-27.527 0-15.203-12.325-27.528-27.527-27.528-15.203 0-27.528 12.325-27.528 27.528 0 15.202 12.325 27.527 27.528 27.527Z" fill="#FF5300"/><path d="M272.717 88.776a21.3 21.3 0 0 1-3.616.205c-2.278 0-5.435.097-9.003.109h-.301v-2.097c0-3.99 0-7.593.084-10.209a28.487 28.487 0 0 1 .229-4.23c.173 1.403.245 2.817.217 4.23.06 2.616.097 6.22.097 10.209v1.783l-.314-.313c3.616 0 6.725 0 9.003.108a21.294 21.294 0 0 1 3.604.205ZM260.159 64.925c.169 0 .313 1.037.313 2.314 0 1.277-.144 2.314-.313 2.314s-.313-1.037-.313-2.314c0-1.278.132-2.314.313-2.314ZM272.693 68.637c.133.12-.494.94-1.386 1.832-.892.892-1.711 1.519-1.832 1.398-.12-.12.494-.952 1.386-1.844.892-.892 1.712-1.507 1.832-1.386ZM280.033 76.652c.072.156-.772.735-1.832 1.386-1.061.65-1.965 1.12-2.061.976-.096-.145.651-.856 1.735-1.519 1.085-.663 2.085-1 2.158-.843ZM284.323 88.535a16 16 0 0 1-6.303 0 16.005 16.005 0 0 1 6.303 0ZM240.61 88.113a14.295 14.295 0 0 1-5.954 0 14.295 14.295 0 0 1 5.954 0ZM243.696 96.972c.12.132-.856 1.085-2.158 2.145-1.301 1.061-2.41 1.796-2.567 1.651-.156-.144.868-1.097 2.17-2.145a7.573 7.573 0 0 1 2.555-1.651ZM251.361 103.817a9.87 9.87 0 0 1-1.411 2.724c-.867 1.434-1.578 2.604-1.747 2.519a6.698 6.698 0 0 1 1.205-2.844c.844-1.471 1.784-2.507 1.953-2.399ZM260.159 112.64a16.002 16.002 0 0 1 0-6.304 16.002 16.002 0 0 1 0 6.304ZM273.742 108.445a6.554 6.554 0 0 1-2.688-1.687c-1.326-1.205-2.157-2.326-2.025-2.41a12.205 12.205 0 0 1 2.411 1.964c1.313 1.097 2.41 1.977 2.302 2.133ZM280.13 101.576c-.133.12-1.109-.663-2.194-1.748s-1.856-2.06-1.735-2.181c.12-.12 1.096.65 2.181 1.735s1.904 2.061 1.748 2.194ZM243.406 79.64c-.12.121-.988-.542-1.94-1.494s-1.615-1.82-1.495-1.94c.121-.12 1.001.542 1.941 1.494.94.952 1.615 1.82 1.494 1.94ZM251.277 71.349c-.121.12-.977-.53-1.905-1.459-.928-.928-1.578-1.771-1.458-1.904.121-.132.976.53 1.904 1.459.928.928 1.543 1.783 1.459 1.904ZM387.368 171.637l-42.054 3.99 2.689 28.34 42.054-3.99-2.689-28.34Z" fill="#fff"/><path d="M390.058 199.982a2.801 2.801 0 0 1-.085-.53c0-.386-.096-.88-.168-1.519-.145-1.35-.35-3.278-.615-5.713a9088.428 9088.428 0 0 0-2.073-20.561l.265.229-42.014 4.05c-.06.072.53-.639.289-.338V176.516l.085.94.18 1.881c.121 1.205.242 2.482.35 3.712l.687 7.231c.446 4.749.868 9.304 1.265 13.631l-.313-.265 30.239-2.724 8.69-.747 2.326-.181h.831a5.71 5.71 0 0 1-.759.109l-2.266.253-8.605.892-30.396 3.025h-.289v-.29c-.422-4.314-.856-8.87-1.314-13.619-.225-2.41-.454-4.821-.687-7.231l-.361-3.712-.181-1.88-.084-.94V175.685l.277-.338 42.05-3.929h.253v.253c.772 8.642 1.398 15.741 1.832 20.73.205 2.411.362 4.327.482 5.677 0 .614.085 1.097.109 1.47.024.374 0 .446 0 .434Z" fill="#263238"/><path d="M387.358 171.635a11.209 11.209 0 0 1-1.278 1.603l-3.615 4.243c-3.134 3.615-7.509 8.436-12.414 13.932l-.181.205-.229-.145-1.121-.711a2119.258 2119.258 0 0 1-16.439-10.594l-4.941-3.266-1.326-.916c-.297-.217-.442-.337-.434-.361.178.065.347.15.506.253l1.386.819 5.05 3.098c4.254 2.639 10.1 6.327 16.536 10.437l1.121.711h-.398a1534.43 1534.43 0 0 1 12.558-13.8l3.821-4.11c.438-.493.904-.96 1.398-1.398Z" fill="#263238"/><path d="M383.923 32.336h-53.319v79.352h53.319V32.336Z" fill="#FF5300"/><path opacity=".3" d="M383.923 32.336h-53.319v79.352h53.319V32.336Z" fill="#000"/><path d="M384.537 112.302h-54.56v-80.63h54.56v80.63Zm-53.319-1.205h52.078V32.95h-52.078v78.147Z" fill="#263238"/><path d="M378.644 37.229h-42.677v69.517h42.677V37.229Z" fill="#fff"/><path d="M369.231 56.934h-23.96v28.082h23.96V56.934Z" fill="#FF5300"/><path d="M298.087 170.177c.378-.039.74-.176 1.048-.398.363-.271.623-.658.736-1.097a11.46 11.46 0 0 0 .06-1.88c0-2.94 0-7.111.084-12.221V148.374a7.331 7.331 0 0 0 0-1.048 1.736 1.736 0 0 0-.446-.856 1.655 1.655 0 0 0-.855-.458 8.387 8.387 0 0 0-1.121 0h-29.576a1.67 1.67 0 0 0-1.639 1.543v2.868c0 1.917-.061 3.809-.085 5.665 0 3.712-.12 7.291-.169 10.702v1.266c-.03.367.059.735.254 1.048.183.304.463.537.795.663.354.112.727.152 1.097.121h13.137l12.221.096 3.326.06h.856a.802.802 0 0 1 .301 0 .95.95 0 0 1-.301 0h-4.182l-12.221.109H268.234a3.334 3.334 0 0 1-1.302-.133 2.221 2.221 0 0 1-1.073-.892 2.407 2.407 0 0 1-.349-1.349v-1.278c0-3.411.084-6.99.132-10.702 0-1.856 0-3.737.073-5.653v-2.916a2.3 2.3 0 0 1 2.265-2.122h29.552a8.668 8.668 0 0 1 1.206 0c.431.084.827.299 1.133.615.292.313.492.701.578 1.121a6.22 6.22 0 0 1 0 1.205v2.145c0 1.41 0 2.76-.084 4.05-.109 5.122-.205 9.28-.265 12.221.015.645-.03 1.291-.133 1.928a2.089 2.089 0 0 1-.844 1.205 1.847 1.847 0 0 1-.819.302c-.121.301-.217.289-.217.277Z" fill="#263238"/><path d="m284.36 155.871 4.11 2.495-4.194 2.47-4.207 2.459.085-4.965.096-4.954 4.11 2.495Z" fill="#263238"/><path d="M198.982 227.437 168.2 210.853a26.779 26.779 0 0 0 8.557-9.642l11.269-21.585a13.427 13.427 0 0 1 10.678-7.002l28.552 15.342a17.384 17.384 0 0 0-7.894 7.484l-12.751 23.611a23.535 23.535 0 0 1-7.617 8.436l-.012-.06Z" fill="#fff"/><path d="m198.982 227.437.337-.265 1-.784a23.71 23.71 0 0 0 3.447-3.398 22.801 22.801 0 0 0 2.037-2.845c.651-1.096 1.278-2.41 2.001-3.615l4.821-9.015c1.795-3.339 3.748-6.991 5.845-10.92a28.41 28.41 0 0 1 1.723-2.952 18.175 18.175 0 0 1 2.315-2.7 18.373 18.373 0 0 1 4.543-3.134v.494h-.096l-.205-.108-.41-.229-.831-.434-13.788-7.617-7.364-3.917-3.736-2.025-1.892-1.012-.121-.072h-.06.144-.265l-.518.06c-.35.072-.699.12-1.037.205a13.063 13.063 0 0 0-6.978 4.351 16.4 16.4 0 0 0-2.193 3.471l-1.905 3.615-7.231 13.921a45.586 45.586 0 0 1-3.7 6.351 27.615 27.615 0 0 1-4.821 5.002c-.434.349-.88.687-1.338 1l-.156.121-.085.06v-.422l.35.193.723.386 2.772 1.506 5.219 2.845 15.728 8.605 4.266 2.41 1.097.627c.131.065.256.142.374.229a1.745 1.745 0 0 1-.398-.169l-1.133-.578-4.315-2.266-15.824-8.437-5.243-2.808-2.784-1.494-.711-.386-.362-.193v-.446l.085-.06.168-.121c.446-.313.88-.638 1.302-.988a27.333 27.333 0 0 0 4.713-4.917 44.342 44.342 0 0 0 3.615-6.291l7.232-13.945 1.904-3.615a16.845 16.845 0 0 1 2.254-3.616 13.704 13.704 0 0 1 7.351-4.484c.35-.096.723-.144 1.085-.216l.542-.061H199.018l.12.061 1.892 1.024 3.737 2.013 7.303 3.953 13.812 7.472.832.446.397.229.205.109h.109v.53c-.546.26-1.077.55-1.591.868a17.042 17.042 0 0 0-2.82 2.145 17.568 17.568 0 0 0-2.254 2.603 28.097 28.097 0 0 0-1.711 2.905l-5.906 10.847-4.905 8.979c-.723 1.313-1.362 2.555-2.049 3.615a24.296 24.296 0 0 1-2.097 2.845 22.555 22.555 0 0 1-3.616 3.35c-.446.326-.795.579-1.036.723a1.862 1.862 0 0 1-.458.386Z" fill="#263238"/><path d="M213.288 196.101c0 .109-5.098-2.531-11.269-5.893-6.171-3.363-11.112-6.171-11.052-6.28.061-.108 5.098 2.544 11.269 5.894 6.171 3.351 11.112 6.183 11.052 6.279ZM211.588 200.404c0 .108-5.267-2.628-11.642-6.099-6.376-3.471-11.486-6.375-11.426-6.484.061-.108 5.267 2.628 11.643 6.099 6.375 3.471 11.498 6.363 11.425 6.484ZM209.564 204.14c0 .096-5.279-2.627-11.642-6.098-6.364-3.471-11.486-6.388-11.438-6.497.048-.108 5.279 2.628 11.642 6.099 6.364 3.471 11.486 6.376 11.438 6.496ZM207.515 207.876c-.061.109-5.267-2.627-11.643-6.098s-11.486-6.376-11.425-6.484c.06-.109 5.266 2.627 11.642 6.098 6.376 3.471 11.486 6.376 11.426 6.484ZM205.478 211.612c-.061.109-5.267-2.615-11.643-6.098-6.375-3.483-11.486-6.376-11.425-6.484.06-.109 5.267 2.627 11.642 6.098 6.376 3.471 11.51 6.388 11.426 6.484ZM192.305 209.31a9.655 9.655 0 0 1-1.82-.819 137.605 137.605 0 0 1-4.267-2.254c-1.651-.904-3.145-1.735-4.206-2.41a9.513 9.513 0 0 1-1.687-1.097 8.382 8.382 0 0 1 1.832.819 138.75 138.75 0 0 1 4.266 2.254c1.652.904 3.146 1.736 4.207 2.411.597.302 1.159.67 1.675 1.096ZM199.609 218.988s.12-.301.241-.855a3.618 3.618 0 0 0-.265-2.278 3.398 3.398 0 1 0-2.616 4.821 3.613 3.613 0 0 0 2.061-1.013c.398-.397.543-.675.579-.65-.089.29-.246.554-.458.771a3.614 3.614 0 0 1-2.133 1.205 3.748 3.748 0 0 1-1.855-.165 3.745 3.745 0 0 1-1.544-1.04 3.775 3.775 0 0 1-.517-4.339 3.768 3.768 0 0 1 3.928-1.916 3.704 3.704 0 0 1 2.844 2.217 3.62 3.62 0 0 1 .145 2.411 2.159 2.159 0 0 1-.41.831ZM202.155 184.592l-8.898-4.853-.699 1.28 8.899 4.854.698-1.281Z" fill="#263238"/><path d="m169.863 87.933-7.882-8.377v27.757l16.741-18.79-8.859-.59Z" fill="#FF5300"/><path opacity=".5" d="m169.863 87.933-7.882-8.377v27.757l16.741-18.79-8.859-.59Z" fill="#fff"/><path d="m162.162 107.108 9.799-19.043-2.097-.132-1.29-1.362-6.412 20.537Z" fill="#FF5300"/><path d="M169.863 87.933a15.374 15.374 0 0 1-.867 2.94 135.752 135.752 0 0 1-2.664 6.918 215.004 215.004 0 0 1-2.965 6.774c-.369.96-.833 1.88-1.386 2.748.23-1.002.557-1.979.976-2.917.687-1.772 1.676-4.182 2.797-6.846a451.28 451.28 0 0 0 2.82-6.833c.33-.971.763-1.904 1.289-2.784ZM169.803 84.257a14.663 14.663 0 0 1-1.072 5.93 7.31 7.31 0 0 1 .217-3.026 7.443 7.443 0 0 1 .855-2.904ZM172.949 72.65a7.359 7.359 0 0 1-.566 2.977 7.548 7.548 0 0 1-1.206 2.796 7.413 7.413 0 0 1 .567-2.977 7.564 7.564 0 0 1 1.205-2.796ZM177.385 61.43a7.74 7.74 0 0 1-.904 2.892 7.523 7.523 0 0 1-1.471 2.64c.103-1.016.411-2 .904-2.893a7.381 7.381 0 0 1 1.471-2.64ZM183.013 50.776a7.227 7.227 0 0 1-1.205 2.784 7.656 7.656 0 0 1-1.76 2.41 7.809 7.809 0 0 1 1.205-2.784 7.57 7.57 0 0 1 1.76-2.41ZM189.786 40.809a7.653 7.653 0 0 1-1.506 2.627c-.964 1.35-1.868 2.41-2.013 2.266a7.405 7.405 0 0 1 1.507-2.628c.976-1.362 1.88-2.362 2.012-2.265ZM197.62 31.673a7.555 7.555 0 0 1-1.796 2.41c-1.109 1.206-2.121 2.134-2.254 2.013-.132-.12.675-1.205 1.796-2.41 1.121-1.206 2.121-2.146 2.254-2.013ZM206.442 23.453c.108.133-.808 1.133-2.061 2.23a7.72 7.72 0 0 1-2.435 1.747c-.12-.132.808-1.12 2.061-2.23 1.254-1.108 2.326-1.88 2.435-1.747ZM216.168 16.355c.097.156-.964.976-2.314 1.94a7.568 7.568 0 0 1-2.651 1.458c-.109-.132.916-1.024 2.29-1.976a6.63 6.63 0 0 1 2.675-1.422ZM226.69 10.485c.084.157-1.061.904-2.531 1.663a7.235 7.235 0 0 1-2.82 1.11 7.63 7.63 0 0 1 2.531-1.664 7.418 7.418 0 0 1 2.82-1.109ZM237.838 5.917a7.57 7.57 0 0 1-2.712 1.35 7.47 7.47 0 0 1-2.928.772 7.348 7.348 0 0 1 2.712-1.362 7.49 7.49 0 0 1 2.928-.76ZM249.444 2.675A7.604 7.604 0 0 1 246.6 3.7a7.316 7.316 0 0 1-3.001.422 14.716 14.716 0 0 1 5.845-1.447ZM261.352.807a7.603 7.603 0 0 1-2.953.687 7.46 7.46 0 0 1-3.025.072 7.475 7.475 0 0 1 2.941-.699 7.351 7.351 0 0 1 3.037-.06ZM273.38.337a7.567 7.567 0 0 1-3.001.338 7.484 7.484 0 0 1-3.013-.278 7.593 7.593 0 0 1 3.001-.35 7.232 7.232 0 0 1 3.013.29ZM285.384 1.265a7.797 7.797 0 0 1-3.025 0 7.654 7.654 0 0 1-2.953-.639c2.032-.21 4.086.011 6.026.651l-.048-.012ZM297.159 3.64a14.221 14.221 0 0 1-5.869-1.375c2.03.053 4.027.52 5.869 1.374ZM308.609 7.484a14.517 14.517 0 0 1-5.652-2.11 7.496 7.496 0 0 1 2.94.76 7.794 7.794 0 0 1 2.712 1.35ZM319.359 12.908a14.462 14.462 0 0 1-5.327-2.93 7.414 7.414 0 0 1 2.796 1.206 7.576 7.576 0 0 1 2.531 1.724ZM329.025 20.067c-.12.132-1.205-.615-2.531-1.652-1.326-1.036-2.241-2-2.133-2.145.108-.145 1.205.603 2.531 1.651 1.326 1.049 2.254 2.025 2.133 2.146ZM337.269 28.805c-.145.084-.977-.965-2.025-2.242a9.756 9.756 0 0 1-1.772-2.41c.121-.121 1.205.735 2.254 2.036a6.031 6.031 0 0 1 1.543 2.616ZM306.186 156.871a7.626 7.626 0 0 1-3.001.145 7.508 7.508 0 0 1-2.989-.482 7.563 7.563 0 0 1 3.025-.145 7.39 7.39 0 0 1 2.965.482ZM318.214 156.269a7.228 7.228 0 0 1-2.977.578 7.589 7.589 0 0 1-3.025 0 14.59 14.59 0 0 1 6.026-.53l-.024-.048ZM329.977 153.689a14.744 14.744 0 0 1-5.821 1.567 14.757 14.757 0 0 1 5.821-1.567ZM340.969 148.796a6.703 6.703 0 0 1-2.495 1.736 6.626 6.626 0 0 1-2.868 1.024c-.072-.168 1.109-.831 2.579-1.579a8.745 8.745 0 0 1 2.784-1.181ZM350.418 141.348c.132.121-.711 1.205-1.953 2.314a6.565 6.565 0 0 1-2.519 1.711c-.108-.144.868-1.072 2.098-2.169 1.229-1.097 2.253-1.94 2.374-1.856ZM357.577 131.706a6.517 6.517 0 0 1-1.278 2.772c-.903 1.41-1.831 2.411-1.964 2.302a8.801 8.801 0 0 1 1.446-2.639c.892-1.386 1.639-2.435 1.796-2.435ZM361.65 120.437c.043 2.046-.51 4.06-1.59 5.798a8.845 8.845 0 0 1 .614-2.953 9.319 9.319 0 0 1 .976-2.845ZM362.072 110.88c.169 0 .35.771.398 1.772.048 1-.06 1.795-.229 1.795s-.349-.795-.398-1.771c-.048-.976.049-1.772.229-1.796ZM214.167 174.299a8.617 8.617 0 0 1-1.578 2.579c-.977 1.338-1.796 2.41-1.941 2.314a6.512 6.512 0 0 1 1.434-2.688c.977-1.41 1.917-2.314 2.085-2.205ZM222.821 165.959c.108.132-.88 1.048-2.133 2.133-1.254 1.085-2.314 1.916-2.411 1.784-.096-.133.759-1.206 2.025-2.266 1.265-1.061 2.41-1.796 2.519-1.651ZM233.126 159.728a7.642 7.642 0 0 1-2.519 1.687 7.563 7.563 0 0 1-2.808 1.145 7.69 7.69 0 0 1 2.519-1.699 7.387 7.387 0 0 1 2.808-1.133ZM244.527 155.811a19.845 19.845 0 0 1-5.809 1.627 6.483 6.483 0 0 1 2.796-1.205 6.617 6.617 0 0 1 3.013-.422ZM256.483 154.605a8.423 8.423 0 0 1-3.001.362 8.295 8.295 0 0 1-3.013-.084 11.412 11.412 0 0 1 6.026-.278h-.012ZM263.232 155.172a.35.35 0 0 1-.41.253.36.36 0 0 1-.244-.111.346.346 0 0 1-.093-.251.356.356 0 0 1 .158-.216.358.358 0 0 1 .263-.049c.205.036.362.193.326.374ZM229.498 254.639a7.382 7.382 0 0 1 2.712 1.362c1.398.904 2.41 1.747 2.41 1.892a7.151 7.151 0 0 1-2.712-1.362c-1.446-.94-2.507-1.784-2.41-1.892ZM219.832 247.407a7.729 7.729 0 0 1 2.555 1.628c1.29 1.036 2.266 1.976 2.157 2.121-.108.144-1.205-.591-2.555-1.627-1.349-1.037-2.277-1.977-2.157-2.122ZM212.456 237.983c.157-.085.904 1.036 1.784 2.41a9.25 9.25 0 0 1 1.434 2.652c-.133.108-1.073-.892-1.965-2.314a6.67 6.67 0 0 1-1.253-2.748ZM207.852 226.919a14.467 14.467 0 0 1 2.025 5.676 7.475 7.475 0 0 1-1.302-2.736 7.628 7.628 0 0 1-.723-2.94Z" fill="#263238"/><path d="m297.099 363.458-2.482 107.253h-4.725l.301-106.988 6.906-.265ZM314.19 362.265l22.995 108.446h5.279l-19.151-108.446h-9.123ZM271.067 363.458l-25.442 107.253h-5.279l23.104-107.699 7.617.446Z" fill="#455A64"/><path d="M337.258 260.665s25.406-1.446 22.899 27.937c-2.507 29.383-3.989 59.14-13.426 69.3-9.437 10.16-104.493 10.522-112.472 2.182-7.978-8.34 15.234-7.991 19.585-7.991 4.351 0 31.203 2.543 39.917-20.308 8.714-22.851 6.496-72.627 43.497-71.12Z" fill="#455A64"/><path d="M338.885 260.665s19.416 3.977 17.608 24.297c-1.807 20.32-6.893 55.874-16.33 64.95-9.437 9.075-46.401 11.039-66.396 9.798-23.225-1.458-37.88-5.881-37.88-5.881s-4.242 2.723-2.953 4.483c1.29 1.76 12.607 8.81 67.493 7.641 54.885-1.169 51.065-9.28 53.343-18.078 2.278-8.798 7.062-56.007 6.399-66.372-.663-10.365-5.893-19.066-21.284-20.838Z" fill="#455A64"/><path opacity=".2" d="M338.885 260.665s19.416 3.977 17.608 24.297c-1.807 20.32-6.893 55.874-16.33 64.95-9.437 9.075-46.401 11.039-66.396 9.798-23.225-1.458-37.88-5.881-37.88-5.881s-4.242 2.723-2.953 4.483c1.29 1.76 12.607 8.81 67.493 7.641 54.885-1.169 51.065-9.28 53.343-18.078 2.278-8.798 7.062-56.007 6.399-66.372-.663-10.365-5.893-19.066-21.284-20.838Z" fill="#000"/><path d="M322.963 300.172a2.17 2.17 0 1 0 4.055-1.474 2.176 2.176 0 0 0-1.957-1.214 2.402 2.402 0 0 0-1.606.91 2.41 2.41 0 0 0-.492 1.778Z" fill="#455A64"/><path d="M324.398 288.277a15.534 15.534 0 0 0-.723 3.917 9.287 9.287 0 0 0 .928 4.121c.36.751.827 1.445 1.386 2.061.352.324.678.675.976 1.049a2.13 2.13 0 0 1 .35 1.615 18.147 18.147 0 0 1-1.073 2.639 8.426 8.426 0 0 0-.313 2.411 9.142 9.142 0 0 0 1.06 4.085 15.545 15.545 0 0 0 2.411 3.134s-.374-.133-.94-.591a8.575 8.575 0 0 1-1.953-2.289 9.076 9.076 0 0 1-1.289-4.327 8.579 8.579 0 0 1 .313-2.7c.392-.82.738-1.66 1.036-2.519.193-.807-.47-1.374-1.133-2.049a8.992 8.992 0 0 1-1.47-2.265 9.233 9.233 0 0 1-.832-4.424 8.953 8.953 0 0 1 .663-2.952c.135-.344.34-.656.603-.916Z" fill="#455A64"/><path d="M318.637 296.689c.121 0 0 .639.302 1.531a5.383 5.383 0 0 0 2.109 2.856 8.42 8.42 0 0 0 3.447 1.205c.964.145 1.578.157 1.578.265 0 .109-.602.253-1.615.241a7.226 7.226 0 0 1-3.82-1.132 5.2 5.2 0 0 1-2.206-3.339c-.156-1.036.133-1.651.205-1.627Z" fill="#455A64"/><g opacity=".2" fill="#000"><path opacity=".2" d="M322.964 300.172a2.164 2.164 0 0 0 1.653 1.603 2.172 2.172 0 0 0 2.164-.787 2.173 2.173 0 0 0-.567-3.178 2.186 2.186 0 0 0-1.153-.326 2.397 2.397 0 0 0-.893.296 2.403 2.403 0 0 0-1.204 2.392Z"/><path opacity=".2" d="M324.397 288.277a15.623 15.623 0 0 0-.723 3.917 9.3 9.3 0 0 0 .928 4.121c.36.751.827 1.445 1.386 2.061.352.324.679.675.977 1.049a2.127 2.127 0 0 1 .349 1.615 17.925 17.925 0 0 1-1.073 2.639 8.462 8.462 0 0 0-.313 2.411 9.13 9.13 0 0 0 1.061 4.085 15.504 15.504 0 0 0 2.41 3.134s-.373-.133-.94-.591a8.554 8.554 0 0 1-1.952-2.289 9.077 9.077 0 0 1-1.29-4.327 8.579 8.579 0 0 1 .313-2.7c.393-.82.739-1.66 1.037-2.519.193-.807-.47-1.374-1.133-2.049a8.992 8.992 0 0 1-1.47-2.265 9.222 9.222 0 0 1-.832-4.424 8.953 8.953 0 0 1 .663-2.952c.135-.344.34-.656.602-.916Z"/><path opacity=".2" d="M318.637 296.689c.12 0 0 .639.301 1.531a5.388 5.388 0 0 0 2.109 2.856 8.426 8.426 0 0 0 3.447 1.205c.964.145 1.579.157 1.579.265 0 .109-.603.253-1.615.241a7.23 7.23 0 0 1-3.821-1.132 5.215 5.215 0 0 1-2.205-3.339c-.157-1.036.132-1.651.205-1.627Z"/></g><path d="M293.821 187.279c-.325-.12-.747-.253-1.301-.398a17.18 17.18 0 0 0-5.773-.518 12.735 12.735 0 0 0-7.834 3.435 11.271 11.271 0 0 0-2.833 4.303 9.526 9.526 0 0 0-.53 2.699c0 .94.072 1.856 0 2.748a3.086 3.086 0 0 1-.94 2.254 7.21 7.21 0 0 1-2.23 1.205 8.024 8.024 0 0 0-2.302 1.326 6.48 6.48 0 0 0-2.024 6.665 16.256 16.256 0 0 0 1.723 3.615c.289.458.53.904.759 1.338.043.377.043.757 0 1.133a7.716 7.716 0 0 1-2.277 4.327 18.762 18.762 0 0 0-3.134 3.857 4.303 4.303 0 0 0 .205 4.7c1.205 1.398 3.338 1.398 5.194 1.35 6.444-.038 12.884.32 19.284 1.072l5.206-44.81a78.9 78.9 0 0 1-1.193-.301Zm-16.234 7.93c-.289 1.772 0 3.688-.88 5.267-.88 1.579-2.796 2.531-4.23 3.785a8.84 8.84 0 0 0-2.796 8.087c.132.747.373 1.482.578 2.229l-.072-.12a16.107 16.107 0 0 1-1.603-3.616 5.795 5.795 0 0 1 .458-4.242 5.729 5.729 0 0 1 1.446-1.832 7.365 7.365 0 0 1 2.158-1.205 7.94 7.94 0 0 0 2.41-1.338 3.719 3.719 0 0 0 1.133-2.676c0-.976-.085-1.892 0-2.76a8.808 8.808 0 0 1 .482-2.519 10.85 10.85 0 0 1 2.651-4.097 12.506 12.506 0 0 1 7.485-3.399 16.458 16.458 0 0 1 1.844-.097 14.053 14.053 0 0 0-4.17.784 10.395 10.395 0 0 0-6.894 7.749Z" fill="#263238"/><path d="M286.433 240.285c.374-2.061-.289-10.763-.289-10.763s-7.714-.976-8.051-8.858c-.338-7.883.458-26.021.458-26.021l14.197-6.822 12.402 14.138.229 38.205-18.946.121Z" fill="#FFBE9D"/><path d="M280.54 207.9a.989.989 0 1 0 1-.988 1 1 0 0 0-1 .988ZM278.925 206.792c.121.132.856-.495 1.916-.531 1.061-.036 1.844.494 1.953.35.108-.145-.072-.302-.41-.555a2.479 2.479 0 0 0-1.567-.446c-.561.021-1.1.229-1.53.591-.314.229-.422.53-.362.591ZM292.037 207.9a.989.989 0 1 0 1.001-.988.999.999 0 0 0-1.001.988Z" fill="#263238"/><path d="M290.64 206.996c.12.133.856-.494 1.916-.53 1.061-.036 1.844.494 1.953.35.108-.145-.073-.302-.41-.555a2.56 2.56 0 0 0-1.567-.458 2.584 2.584 0 0 0-1.53.591c-.314.289-.422.542-.362.602ZM286.663 216.072a6.8 6.8 0 0 0-1.724-.265c-.265 0-.518 0-.566-.253-.034-.299.021-.6.156-.868.253-.711.506-1.459.772-2.242a39.327 39.327 0 0 0 1.699-5.833 40.935 40.935 0 0 0-2.133 5.688c-.253.784-.494 1.531-.735 2.242-.164.358-.207.76-.121 1.145a.7.7 0 0 0 .458.41c.152.016.306.016.458 0 .577.066 1.16.058 1.736-.024Z" fill="#263238"/><path d="M286.144 229.522a18.83 18.83 0 0 0 10.22-3.35s-2.41 5.736-10.087 5.278l-.133-1.928Z" fill="#EB996E"/><path d="M324.47 212.456a4.623 4.623 0 0 1-1.494 0c-.892-1.398-2.495-2.41-3.688-3.7a6.195 6.195 0 0 1 .289-3.435c.224-.61.409-1.234.554-1.868a3.757 3.757 0 0 0-.108-2.121 5.662 5.662 0 0 0-3.097-2.832c-1.061-1.483-3.001-2.17-4.351-3.435a10.106 10.106 0 0 1-.603-2.121 14.443 14.443 0 0 0-.928-3.459 6.575 6.575 0 0 0-2.001-2.411 6.892 6.892 0 0 0-3.398-1.41 9.143 9.143 0 0 0-2.772-.916 9.633 9.633 0 0 0-8.124 2.639 16.59 16.59 0 0 0-12.799 1.977 9.641 9.641 0 0 0-4.05 4.098 12.657 12.657 0 0 0-.759 5.122v3.736c-.033.321.029.644.181.928a1.662 1.662 0 0 0 1.374.506l5.773.217c.391.051.788-.012 1.145-.18a2.005 2.005 0 0 0 .904-1.832v-1.965c.189.755.418 1.499.687 2.23a2.93 2.93 0 0 0 1.205 2.012 3.528 3.528 0 0 0 1.663.278h2.495c.423.026.844-.079 1.205-.302a1.935 1.935 0 0 0 .446-1.856 12.852 12.852 0 0 1-.398-2.579c.748 1.471 1.109 3.302 2.025 3.544a6.35 6.35 0 0 0 2.784-.205c.928-.29 1.579-.519 2.254-.736a6.205 6.205 0 0 1-.277 1.133c-.699 1.893-2.278 3.712-1.736 5.653.543 1.94 2.495 2.615 3.508 4.146a6.64 6.64 0 0 1 .216 5.773 52.243 52.243 0 0 0-2.133 5.58c-.446 1.94-.132 4.266 1.459 5.46a7.232 7.232 0 0 0 4.411 1l14.004.12a7.634 7.634 0 0 0 2.676-.289 2.576 2.576 0 0 0 1.784-1.868 3.295 3.295 0 0 0-1.278-2.784 8.823 8.823 0 0 1-2.133-2.41c-.735-1.579 0-3.423.795-4.954.796-1.53 1.76-3.194 1.459-4.905a3.864 3.864 0 0 0-.41-1.205c.455.023.912-.03 1.35-.157a3.12 3.12 0 0 0 1.121-.542c.216-.169.313-.278.301-.302a5.665 5.665 0 0 1-1.531.627Zm-17.897-26.25a6.81 6.81 0 0 1 2.193 1.206c.78.615 1.4 1.408 1.808 2.314a14.48 14.48 0 0 1 .832 3.35c0 .241.096.494.144.747-.675-1.205-1.012-2.567-1.603-3.808a9.563 9.563 0 0 0-3.374-3.797v-.012Zm10.847 13.258a4.349 4.349 0 0 1 2.012 2.073 5.578 5.578 0 0 1-.409 3.615 6.314 6.314 0 0 0-.386 2.845 4.84 4.84 0 0 1-.603-1.085c-.916-2.29.229-5.11-.602-7.388l-.012-.06Z" fill="#263238"/><path d="M287.048 218.856a2.062 2.062 0 0 1 1.205-1.507 1.635 1.635 0 0 1 1.362 0 1.208 1.208 0 0 1 .627 1.206 1.344 1.344 0 0 1-1.097 1.012 3.609 3.609 0 0 1-1.567-.097 1.176 1.176 0 0 1-.409-.156.36.36 0 0 1-.169-.374" fill="#EB996E"/><path d="M289.663 216.072c.085 0 .217.289.181.795a2.854 2.854 0 0 1-.868 1.796 2.818 2.818 0 0 1-1.844.759c-.518 0-.807-.144-.795-.217.012-.072 1.205-.084 2.206-1 1-.916.952-2.133 1.12-2.133Z" fill="#263238"/><path d="M271.32 244.069s-23.345 20.296-23.948 17.801c-3.29-13.438-2.41-30.588-1.832-37.145.362-.566.784-1.205 1.278-1.88a9.109 9.109 0 0 1 2.133-1.952 13.228 13.228 0 0 1 3.17-1.772c1.073-.313 1.205-1.748.313-2.085-.892-.338-3.917.422-6.689 2.736-2.772 2.314-1.639-3.182-1.265-5.195.374-2.012 1.205-8.28.711-8.87-.771-.856-1.868-.169-2.206 1.844-.337 2.013-1.735 8.003-2.784 7.786-1.048-.217 1.001-10.438 1.001-10.438s.795-2.121-.41-2.41c-2.194-.542-3.555 10.461-3.616 11.51-.072.723-1.205.53-1.109-.253.097-.784 2.278-10.148 0-10.715-1.699-.434-1.205 9.039-2.735 10.763-1.531 1.723.361-7.231-1.278-7.593-.615-.121-1.097-.133-1.434 5.146-.085 4.252.068 8.505.458 12.739-1.446 14.463-4.279 58.876 15.764 57.345 23.659-1.796 29.106-20.489 29.106-20.489l-4.628-16.873Z" fill="#FFBE9D"/><path d="m336.715 276.333-4.05-20.296c-2.977-16.62-26.273-17.765-26.273-17.765l-18.284-.301s-12.172-.386-21.923 7.605c-9.75 7.99-16.282 14.149-16.282 14.149l15.294 17.693 9.063-6.027s-3.266 5.882-2.723 10.847c.518 4.821 5.58 8.509 5.58 8.509l-3.809 40.821 59.707-2.41-7.689-52.825h11.389Z" fill="#FF5300"/><path d="M333.871 260.472a10.424 10.424 0 0 1-.699 1.495 16.754 16.754 0 0 1-9.34 7.568 17.081 17.081 0 0 1-9.871.109 14.071 14.071 0 0 1-5.147-2.712 8.237 8.237 0 0 1-3.013-5.508 6.274 6.274 0 0 1 3.098-5.857 4.462 4.462 0 0 1 3.615-.241 6.025 6.025 0 0 1 2.917 2.29 6.754 6.754 0 0 1 1.205 3.615 8.554 8.554 0 0 1-.819 3.773 15.02 15.02 0 0 1-5.171 5.893 21.03 21.03 0 0 1-15.788 3.399 18.717 18.717 0 0 1-7.689-3.314 13.726 13.726 0 0 1-4.906-6.46 10.955 10.955 0 0 1 .254-7.81 7.728 7.728 0 0 1 5.773-4.676 5.206 5.206 0 0 1 5.797 3.676 4.72 4.72 0 0 1-.603 3.458 6.687 6.687 0 0 1-2.41 2.411 9.64 9.64 0 0 1-6.243.795 31.861 31.861 0 0 1-5.593-1.53 19.149 19.149 0 0 1-8.28-5.412 11.469 11.469 0 0 1-2.687-6.93 8.805 8.805 0 0 1 1.036-4.604c.266-.486.599-.932.989-1.325 0 0-.362.446-.88 1.386a8.947 8.947 0 0 0-.892 4.531 11.29 11.29 0 0 0 2.7 6.713 18.72 18.72 0 0 0 8.171 5.219 31.783 31.783 0 0 0 5.508 1.47 9.133 9.133 0 0 0 5.905-.759 6.023 6.023 0 0 0 2.218-2.194 4.203 4.203 0 0 0 .518-3.097 4.636 4.636 0 0 0-5.182-3.218 7.141 7.141 0 0 0-5.303 4.339 10.289 10.289 0 0 0-.217 7.376 13.043 13.043 0 0 0 4.688 6.159 18.312 18.312 0 0 0 7.424 3.193 20.487 20.487 0 0 0 15.331-3.29 14.458 14.458 0 0 0 4.977-5.628 8.05 8.05 0 0 0 .772-3.52 6.11 6.11 0 0 0-1.109-3.278 5.476 5.476 0 0 0-2.615-2.097 3.972 3.972 0 0 0-3.17.193 5.792 5.792 0 0 0-2.832 5.351 7.632 7.632 0 0 0 2.82 5.159 13.272 13.272 0 0 0 4.953 2.651c3.144.949 6.498.949 9.642 0a16.43 16.43 0 0 0 6.352-3.676 17.466 17.466 0 0 0 2.976-3.616l.603-1.06.217-.41ZM331.376 322.493l-.325.144c-.217.073-.543.217-.977.338a16.687 16.687 0 0 1-3.929.675 18.543 18.543 0 0 1-6.267-.723 17.703 17.703 0 0 1-7.231-4.146 18.477 18.477 0 0 1-5.616-14.391 12.47 12.47 0 0 1 1.663-5.797 6.783 6.783 0 0 1 2.266-2.266 5.759 5.759 0 0 1 3.193-.795 4.252 4.252 0 0 1 3.074 1.41 4.823 4.823 0 0 1 1.205 3.242 6.025 6.025 0 0 1-1 3.339 9.025 9.025 0 0 1-2.495 2.47 16.777 16.777 0 0 1-6.581 2.519 19.948 19.948 0 0 1-13.414-2.699 17.476 17.476 0 0 1-4.905-4.424 12.349 12.349 0 0 1-2.531-5.821 7.42 7.42 0 0 1 1.639-5.785 5.413 5.413 0 0 1 2.411-1.687 5.001 5.001 0 0 1 2.88-.072 4.806 4.806 0 0 1 2.41 1.41 3.83 3.83 0 0 1 1.013 2.482 5.724 5.724 0 0 1-2.182 4.375 10.846 10.846 0 0 1-3.905 2.146c-1.255.418-2.56.673-3.88.759a14.876 14.876 0 0 1-6.231-.952 14.233 14.233 0 0 1-3.459-1.977 8.398 8.398 0 0 1-.796-.675c-.168-.156-.253-.241-.241-.253.012-.012.374.302 1.109.82a14.294 14.294 0 0 0 9.642 2.687 14.94 14.94 0 0 0 3.784-.795 10.25 10.25 0 0 0 3.736-2.097 5.261 5.261 0 0 0 1.989-4.014 3.795 3.795 0 0 0-3.061-3.41 4.429 4.429 0 0 0-2.567.072 4.948 4.948 0 0 0-2.194 1.531 6.972 6.972 0 0 0-1.494 5.363 11.754 11.754 0 0 0 2.41 5.532 16.877 16.877 0 0 0 4.749 4.266 19.417 19.417 0 0 0 12.98 2.604 16.352 16.352 0 0 0 6.339-2.411 6.493 6.493 0 0 0 3.23-5.291 4.326 4.326 0 0 0-.988-2.844 3.74 3.74 0 0 0-2.639-1.205 5.264 5.264 0 0 0-2.869.711 6.32 6.32 0 0 0-2.085 2.061 12.056 12.056 0 0 0-1.591 5.532 18.377 18.377 0 0 0 .494 5.495 18.154 18.154 0 0 0 4.882 8.533 17.529 17.529 0 0 0 7.014 4.146 18.765 18.765 0 0 0 10.063.253c.808-.253 1.266-.409 1.278-.385Z" fill="#fff"/><path d="M311.165 254.759c.164.414.273.848.325 1.29.193.976.422 2.169.699 3.616.615 3.157 1.41 7.231 2.278 11.751.868 4.519 1.627 8.774 2.109 11.799.229 1.518.41 2.748.506 3.615.08.441.105.891.073 1.338a5.766 5.766 0 0 1-.314-1.302c-.192-.976-.434-2.157-.711-3.555-.614-3.158-1.398-7.231-2.278-11.763-.879-4.532-1.627-8.762-2.097-11.799a83.247 83.247 0 0 1-.506-3.616 5.027 5.027 0 0 1-.084-1.374Z" fill="#263238"/><path d="M337.089 276.502a93.106 93.106 0 0 1-11.028.349 99.204 99.204 0 0 1-11.027-.265 94.611 94.611 0 0 1 11.027-.362c3.679-.108 7.36-.016 11.028.278ZM265.197 277.381a109.561 109.561 0 0 1-7.593-8.798 104.229 104.229 0 0 1-7.099-9.184 107.9 107.9 0 0 1 7.593 8.787 108.873 108.873 0 0 1 7.099 9.195ZM304.765 238.332c-.904.218-1.831.323-2.76.314a99.673 99.673 0 0 1-6.689.12 90.046 90.046 0 0 1-6.677-.325 11.151 11.151 0 0 1-2.748-.398 13.516 13.516 0 0 1 2.772 0l6.665.145 6.665.06a14.271 14.271 0 0 1 2.772.084ZM271.681 276.634c.25-.843.602-1.653 1.049-2.41l1.302-2.58c.651-.914.97-2.024.903-3.145-.445-2.411-.879-4.7-1.132-6.315a11.761 11.761 0 0 1-.29-2.664c.343.828.586 1.694.723 2.579.374 1.615.868 3.809 1.314 6.316.13.653.054 1.331-.217 1.94a15.373 15.373 0 0 1-.795 1.555 172.79 172.79 0 0 0-1.41 2.531 11.755 11.755 0 0 1-1.447 2.193Z" fill="#263238"/><path d="M223.268 464.191v-12.426l22.26-.145.193 18.585-1.386.096c-6.147.398-31.251 1.205-35.373-.108-4.604-1.422 14.306-6.002 14.306-6.002Z" fill="#FF5300"/><path d="M208.431 469.06c0 .205 8.328.373 18.609.373 10.281 0 18.597-.168 18.597-.373s-8.328-.386-18.597-.386c-10.268 0-18.609.181-18.609.386ZM222.87 466.758c.181-.097 0-.76-.446-1.398-.445-.639-1.06-1.001-1.205-.856-.144.145.157.699.591 1.302.434.602.88 1.024 1.06.952ZM221.448 467.553c.193-.072.096-.807-.338-1.591-.434-.783-1.012-1.205-1.205-1.108-.193.096.121.759.518 1.482.398.723.808 1.29 1.025 1.217Z" fill="#263238"/><path d="M238.936 468.975c.084.061.41-.265.892-.819a15.658 15.658 0 0 1 1.952-1.953 5.244 5.244 0 0 1 2.411-1.048c.674-.097 1.12 0 1.205-.097.084-.096-.386-.397-1.205-.446a4.506 4.506 0 0 0-2.857.989 8 8 0 0 0-1.916 2.241c-.398.639-.567 1.073-.482 1.133ZM222.81 464.347c-.109.169.265.603.904.844.638.241 1.205.145 1.205-.06s-.422-.446-.976-.651c-.555-.205-1.025-.265-1.133-.133ZM223.159 463.142c0 .205.567.386 1.326.398.759.012 1.35-.145 1.326-.362-.024-.217-.603-.385-1.326-.397-.723-.012-1.314.204-1.326.361Z" fill="#263238"/><path d="M270.271 464.191v-12.426l22.261-.145.193 18.585-1.386.096c-6.135.398-31.252 1.205-35.373-.108-4.604-1.422 14.305-6.002 14.305-6.002Z" fill="#FF5300"/><path d="M255.447 469.06c0 .205 8.328.373 18.597.373 10.268 0 18.596-.168 18.596-.373s-8.316-.386-18.596-.386c-10.281 0-18.597.181-18.597.386ZM269.874 466.758c.193-.097 0-.76-.446-1.398-.446-.639-1.06-1.001-1.205-.856-.145.145.157.699.59 1.302.434.602.88 1.024 1.061.952ZM268.464 467.553c.192-.072.084-.807-.35-1.591-.434-.783-1.012-1.205-1.205-1.108-.193.096.12.759.518 1.482s.808 1.29 1.037 1.217Z" fill="#263238"/><path d="M285.939 468.975c.085.061.422-.265.904-.819a14.191 14.191 0 0 1 1.953-1.953 5.145 5.145 0 0 1 2.41-1.048c.675-.097 1.121 0 1.205-.097.085-.096-.373-.397-1.205-.446a4.505 4.505 0 0 0-2.856.989 8.204 8.204 0 0 0-1.916 2.241c-.41.639-.579 1.073-.495 1.133ZM269.813 464.347c-.108.169.265.603.904.844s1.205.145 1.205-.06-.421-.446-.976-.651c-.554-.205-1.024-.265-1.133-.133ZM270.163 463.142c0 .205.566.386 1.326.398.759.012 1.349-.145 1.337-.362-.012-.217-.614-.385-1.325-.397-.711-.012-1.326.204-1.338.361Z" fill="#263238"/><path d="M339.21 292.579c-1.205-9.75-2.495-16.041-2.495-16.041l-21.224.325s1.905 10.715 1.314 13.583c-.506 2.507-41.472 4.158-52.15 4.327-.627-.47-1.555.325-2.41-.386a8.581 8.581 0 0 1-1.82-2.242 13.092 13.092 0 0 1-1.458-3.314 1.084 1.084 0 0 0-2.025-.458c-.434.916 0 3.953 2.073 6.894 2.073 2.941-3.278 1.41-5.231.892-1.952-.519-8.039-1.844-8.677-1.35-.916.711-.338 1.856 1.615 2.338 1.952.482 7.725 2.314 7.412 3.35-.314 1.037-10.184-1.759-10.184-1.759s-2.025-.952-2.411.241c-.735 2.145 9.979 4.327 11.004 4.507.711.121.41 1.266-.35 1.097-.759-.169-9.786-3.025-10.558-.843-.578 1.675 8.799 1.868 10.353 3.531 1.555 1.663-7.098-.904-7.593.723-.18.603 3.411.88 8.582 1.603 5.314.516 10.655.709 15.993.578 12.052.651 54.416 1.531 63.479.892 10.582-.747 7.159-15.137 6.761-18.488Z" fill="#FFBE9D"/><path d="M241.443 326.952a317.401 317.401 0 0 1 54.982-.699l-23.237 33.373-20.97.084-4.387 102.528h-27.805l2.652-114.363a21.61 21.61 0 0 1 18.765-20.923Z" fill="#263238"/><path opacity=".2" d="M241.443 326.952a317.401 317.401 0 0 1 54.982-.699l-23.237 33.373-20.97.084-4.387 102.528h-27.805l2.652-114.363a21.61 21.61 0 0 1 18.765-20.923Z" fill="#000"/><path d="M292.495 362.253s41.544 2.82 40.508-34.481c0 0-57.766-7.027-68.83 4.893-9.281 9.991-.796 129.573-.796 129.573l30.89-1.506" fill="#263238"/><path d="M301.137 325.747a3.4 3.4 0 0 1-.819 0l-2.35.096c-2.037.085-4.978.253-8.618.519l-5.941.458c-2.134.204-4.424.385-6.762.807a44.153 44.153 0 0 0-7.231 1.977c-2.41.928-4.821 2.314-6.026 4.82a25.319 25.319 0 0 0-2.061 7.714 75.352 75.352 0 0 0-.518 7.52c-.109 4.821-.338 9.16-.494 12.812-.157 3.652-.266 6.508-.35 8.617 0 .977-.06 1.748-.084 2.35a4.25 4.25 0 0 1-.061.82 3.318 3.318 0 0 1-.06-.82v-2.35c0-2.037 0-4.989.145-8.641a587.6 587.6 0 0 0 .361-12.8c.027-2.534.192-5.064.495-7.58a25.37 25.37 0 0 1 2.097-7.919 8.59 8.59 0 0 1 2.735-3.23 16.12 16.12 0 0 1 3.616-1.88 44.391 44.391 0 0 1 7.352-1.964c2.41-.41 4.7-.579 6.834-.76a186.97 186.97 0 0 1 5.965-.385c3.616-.205 6.593-.302 8.642-.326h2.35c.266.02.528.069.783.145ZM294.509 452.946a4.568 4.568 0 0 1-1.206.193c-.783.072-1.94.169-3.362.265-2.833.205-6.762.434-11.1.651-4.339.217-8.268.385-11.112.47-1.423 0-2.58.072-3.375.072a4.59 4.59 0 0 1-1.205-.06 5.01 5.01 0 0 1 1.205-.181 99.66 99.66 0 0 1 3.362-.265c2.833-.205 6.762-.434 11.101-.663 4.338-.229 8.267-.374 11.112-.47 1.422 0 2.579-.06 3.374-.06a5.072 5.072 0 0 1 1.206.048ZM248.746 454.344c0 .169-6.448.313-14.462.313-8.015 0-14.463-.144-14.463-.313s6.46-.313 14.463-.313c8.002 0 14.462.132 14.462.313Z" fill="#455A64"/><path d="M261.509 339.233a1.076 1.076 0 0 1-.349 0l-1.025-.084a75.042 75.042 0 0 0-3.929-.265c-1.711-.073-3.808-.145-6.231 0a32.59 32.59 0 0 0-3.856.398 11.933 11.933 0 0 0-4.062 1.301 3.472 3.472 0 0 0-1.518 1.567 17.416 17.416 0 0 0-.784 2.29 39.813 39.813 0 0 0-1 5.074c-.35 3.615-.663 7.412-.952 11.449-.579 8.087-1.001 16.982-1.338 26.322-.627 18.705-1.338 35.627-1.844 47.884-.265 6.086-.482 11.028-.639 14.463-.096 1.675-.157 3.001-.205 3.941 0 .421 0 .759-.072 1.024.014.116.014.234 0 .35a1.575 1.575 0 0 1 0-.35v-1.024c0-.953 0-2.266.096-3.954.097-3.471.253-8.436.434-14.462.434-12.293 1.025-29.203 1.663-47.884.338-9.34.784-18.247 1.386-26.334.306-4.017.643-7.846 1.013-11.485.232-1.735.587-3.45 1.06-5.135.208-.804.482-1.59.82-2.35a3.96 3.96 0 0 1 1.711-1.759 12.522 12.522 0 0 1 4.231-1.314 33.36 33.36 0 0 1 3.905-.35 62.456 62.456 0 0 1 6.255.133c1.711.12 3.037.277 3.929.386l1.024.156a1.28 1.28 0 0 1 .277.012ZM326.085 327.061c.018.14.018.281 0 .421 0 .278-.06.699-.157 1.206a13.788 13.788 0 0 1-1.675 4.507 13.917 13.917 0 0 1-10.076 6.653c-1.779.157-3.566.209-5.351.157h-22.562a8.968 8.968 0 0 0-3.422.819 9.245 9.245 0 0 0-4.821 5.243 10.162 10.162 0 0 0-.555 3.736v20.609c0 22.755-.072 43.388-.096 58.309 0 7.424-.072 13.462-.097 17.669v6.447a1.852 1.852 0 0 1 0-.421v-6.026c0-4.207 0-10.245-.096-17.669 0-14.957-.06-35.554-.096-58.309v-20.561c-.044-1.34.165-2.677.614-3.941a9.823 9.823 0 0 1 5.171-5.568 9.655 9.655 0 0 1 3.615-.856h10.413l12.197.073c1.765.063 3.531.026 5.291-.109a13.703 13.703 0 0 0 9.919-6.399 14.175 14.175 0 0 0 1.772-4.412c.108-.53.157-.94.205-1.205.048-.265-.193-.373-.193-.373Z" fill="#455A64"/><path d="M292.906 353.985a35.781 35.781 0 0 1-.543 9.534 18.525 18.525 0 0 1 0-4.821c-.02-1.588.163-3.171.543-4.713Z" fill="#455A64"/><path d="M120.415 285.119s-1.338-10.642-.29-10.642c1.049 0 1.7 10.642 1.7 10.642h-1.76" fill="#263238"/><path d="M123.885 285.119s-1.338-10.642-.277-10.642c1.06 0 1.687 10.642 1.687 10.642h-1.759" fill="#FF5300"/><path opacity=".3" d="M123.885 285.119s-1.338-10.642-.277-10.642c1.06 0 1.687 10.642 1.687 10.642h-1.759" fill="#000"/><path d="M129.201 285.119s-1.338-10.642-.277-10.642c1.06 0 1.687 10.642 1.687 10.642h-1.76" fill="#263238"/><path d="M126.091 285.673s0-10.714 1.06-10.582c1.061.133.338 10.763.338 10.763l-1.748-.217" fill="#455A64"/><path d="M122.837 285.119s-1.338-10.642-.277-10.642c1.06 0 1.687 10.642 1.687 10.642h-1.76" fill="#FF5300"/><path opacity=".5" d="M122.837 285.119s-1.338-10.642-.277-10.642c1.06 0 1.687 10.642 1.687 10.642h-1.76" fill="#fff"/><path d="m120.198 301.859-1.772-16.74h14.198v16.74h-12.426Z" fill="#FF5300"/><path d="M422.069 301.932H108.362v8.376h16.777l-8.69 159.861h4.785l8.689-159.861h275.032l7.412 159.836 5.291.278-7.918-160.114h12.329v-8.376Z" fill="#263238"/><path d="m211.059 252.457 17.404 50.837h78.773l-.591-2.628-31.854-.976-14.667-47.257-49.065.024Z" fill="#263238"/><path d="M245.974 276.333c.518 2.085-.373 4.122-2.001 4.556-1.627.433-3.35-.904-3.868-2.989-.519-2.085.373-4.122 1.988-4.556 1.615-.434 3.363.904 3.881 2.989Z" fill="#fff"/><path d="M398.398 286.384a7.238 7.238 0 0 0-4.881-1.398v-1.53h-26.72s-.831 17.608 12.643 18.235c6.026.277 9.497-2.411 11.474-5.834.986.242 1.997.367 3.013.374a7.03 7.03 0 0 0 4.206-1.205 5.284 5.284 0 0 0 2.001-4.508 5.195 5.195 0 0 0-1.736-4.134Zm-1.82 6.545c-1.205.855-3.182.723-4.507.482a23.866 23.866 0 0 0 1.301-5.785 5.027 5.027 0 0 1 3.339.771 2.623 2.623 0 0 1 .807 2.133 2.768 2.768 0 0 1-.952 2.399h.012Z" fill="#FF5300"/><path d="M391.263 281.6a3.566 3.566 0 0 1-.638-.748 7.135 7.135 0 0 1-1.097-2.603 7.531 7.531 0 0 1 .398-4.447 14.708 14.708 0 0 1 3.736-4.568 10.99 10.99 0 0 0 3.374-6.026 10.35 10.35 0 0 0-1.434-7.641 10.936 10.936 0 0 0-2.965-3.086 15.8 15.8 0 0 0-4.122-1.843 12.466 12.466 0 0 1-4.35-2.194 6.154 6.154 0 0 1-1.543-2.037 3.973 3.973 0 0 1-.325-2.615l.108-.362.398.398a4.137 4.137 0 0 0-2.411 3.616 8.432 8.432 0 0 0 .989 4.411c.662 1.386 1.482 2.687 2.073 4.098a8.635 8.635 0 0 1 .843 4.411 6.231 6.231 0 0 1-1.976 3.796 12.399 12.399 0 0 1-3.351 2.23c-2.338 1.06-4.64 1.687-6.472 2.784a9.146 9.146 0 0 0-3.76 4.17 10.203 10.203 0 0 0-.904 4.206c.038 1.235.274 2.456.699 3.616 0 0 0-.073-.121-.217a4.196 4.196 0 0 1-.289-.663 8.746 8.746 0 0 1-.53-2.748 10.2 10.2 0 0 1 .831-4.363 9.356 9.356 0 0 1 3.845-4.399 64.325 64.325 0 0 1 6.484-2.88 11.796 11.796 0 0 0 3.17-2.146 5.686 5.686 0 0 0 1.796-3.471 8.065 8.065 0 0 0-.808-4.11c-.578-1.349-1.398-2.651-2.085-4.085a8.76 8.76 0 0 1-1.048-4.737 5.739 5.739 0 0 1 .819-2.41 4 4 0 0 1 2.025-1.663l.566-.193-.168.59-.085.302a4.372 4.372 0 0 0 1.664 4.049 12.047 12.047 0 0 0 4.133 2.061 16.498 16.498 0 0 1 4.267 1.94 11.12 11.12 0 0 1 3.109 3.267 10.846 10.846 0 0 1 1.459 8.051 11.478 11.478 0 0 1-3.616 6.194 14.475 14.475 0 0 0-3.724 4.399 7.364 7.364 0 0 0-.482 4.255 8.087 8.087 0 0 0 1.518 3.411ZM145.061 258.11l-.157-11.522 40.387 3.423 1.145 10.28-41.375-2.181Z" fill="#263238"/><path d="M149.508 258.351a27.056 27.056 0 0 1-.542-5.677 26.495 26.495 0 0 1 .096-5.7 26.38 26.38 0 0 1 .53 5.676c.182 1.898.154 3.81-.084 5.701ZM151.027 247.106c.353 1.863.498 3.758.434 5.653a24.954 24.954 0 0 1-.193 5.676 26.558 26.558 0 0 1-.434-5.664c-.145-1.89-.08-3.789.193-5.665Z" fill="#455A64"/><path d="M154.703 252.228c7.038.772 15.306 1.206 22.465 1.856l-22.465-1.856Z" fill="#fff"/><path d="M177.168 254.036c-1.1.079-2.206.059-3.302-.06-2.049-.096-4.821-.277-7.955-.506a183.948 183.948 0 0 1-7.942-.735 16.356 16.356 0 0 1-3.266-.555 17.693 17.693 0 0 1 3.302.109l7.942.554c3.11.229 5.918.47 7.943.699 1.106.055 2.204.22 3.278.494ZM180.121 259.954a42.55 42.55 0 0 1-.506-10.305 42.55 42.55 0 0 1 .506 10.305ZM182.664 260.086a21.67 21.67 0 0 1-.819-5.134 21.303 21.303 0 0 1-.193-5.194c.47 1.674.745 3.397.819 5.134.269 1.718.334 3.461.193 5.194Z" fill="#455A64"/><path d="M160.693 254.759c4.447.302 7.834.519 11.377.603l-11.377-.603Z" fill="#fff"/><path d="M172.07 255.362a25.276 25.276 0 0 1-5.701 0 26.625 26.625 0 0 1-5.676-.615 25.393 25.393 0 0 1 5.701 0c1.908.001 3.811.207 5.676.615Z" fill="#455A64"/><path d="m152.871 302.076-1.097-11.473 40.519.072 2.206 11.257-41.628.144Z" fill="#FF5300"/><path opacity=".5" d="m152.871 302.076-1.097-11.473 40.519.072 2.206 11.257-41.628.144Z" fill="#fff"/><path d="m161.02 295.086-.003 2.073 25.346.044.003-2.073-25.346-.044ZM147.158 291.567l-.976-11.474 40.52.494 1.892 10.184-41.436.796Z" fill="#263238"/><path d="m146.314 281.648.639 7.749 39.411-.397-1.253-7.087-38.797-.265Z" fill="#fff"/><path d="M183.038 285.083a6.22 6.22 0 0 1-1.422.096h-3.881c-3.278 0-7.798 0-12.788-.12-4.989-.121-9.509-.205-12.787-.314l-3.869-.168a5.717 5.717 0 0 1-1.422-.145 6.002 6.002 0 0 1 1.422-.096h3.881c3.266 0 7.786-.001 12.788.12 5.001.121 9.509.205 12.787.313l3.869.169a5.67 5.67 0 0 1 1.422.145ZM183.038 286.059a5.918 5.918 0 0 1-1.435.145l-3.905.156c-3.29.109-7.846.205-12.871.277-5.026.073-9.642.097-12.884.085h-3.905a5.748 5.748 0 0 1-1.434-.109c.472-.091.953-.14 1.434-.144l3.905-.157c3.29-.096 7.846-.193 12.872-.265 5.025-.072 9.581-.109 12.883-.096h3.905a7.19 7.19 0 0 1 1.435.108Z" fill="#263238"/><path d="m147.761 280.611-.76-11.497 40.508 1.277 1.687 10.208-41.435.012Z" fill="#455A64"/><path d="m149.364 279.165 39.422-.566-1.096-7.159-39.062-.724.736 8.449Z" fill="#fff"/><path d="m148.87 269.33-.374-11.509 40.435 2.639 1.35 10.256-41.411-1.386Z" fill="#FF5300"/><path d="m157.151 260.895-.124 2.073 25.345 1.521.125-2.073-25.346-1.521ZM188.087 274.392a7.978 7.978 0 0 1-1.543.121l-4.218.12c-3.616.073-8.436.121-13.908.145-5.472.024-10.353 0-13.92 0l-4.207-.084a7.042 7.042 0 0 1-1.554-.121 7.967 7.967 0 0 1 1.542-.12l4.219-.121c3.615-.072 8.436-.12 13.92-.144 5.484-.025 10.353 0 13.908 0l4.218.084a6.884 6.884 0 0 1 1.543.12ZM188.558 276.622a7.547 7.547 0 0 1-1.567.096h-4.243c-3.615 0-8.545 0-14.016-.108-5.472-.108-10.413-.169-14.005-.277l-4.242-.157a9.207 9.207 0 0 1-1.555-.144 6.644 6.644 0 0 1 1.555-.109h4.242c3.616 0 8.545 0 14.017.096 5.471.097 10.425.181 14.017.29l4.242.156a6.836 6.836 0 0 1 1.555.157Z" fill="#263238"/></svg>