<svg width="139" height="109" fill="none" xmlns="http://www.w3.org/2000/svg"><path d="M18.215 40.767c2.387-8.748 7.058-16.77 13.726-23.348C41.973 7.515 55.31 2.063 69.497 2.063c14.188 0 27.524 5.453 37.555 15.357 6.662 6.578 11.339 14.6 13.727 23.348h2.153c-2.433-9.3-7.345-17.83-14.403-24.806C98.101 5.665 84.244 0 69.497 0 54.749 0 40.893 5.672 30.465 15.961c-7.065 6.976-11.97 15.506-14.403 24.806h2.153ZM120.779 68.232c-2.388 8.749-7.059 16.771-13.727 23.348-10.031 9.905-23.367 15.358-37.555 15.358-14.188 0-27.524-5.453-37.556-15.358-6.661-6.577-11.338-14.6-13.726-23.348h-2.153c2.433 9.301 7.344 17.83 14.403 24.806C40.893 103.335 54.749 109 69.497 109c14.747 0 28.604-5.672 39.032-15.962 7.065-6.975 11.97-15.505 14.403-24.806h-2.153Z" fill="#D7D7D7"/><path d="M114.267 68.232c-2.219 7.091-6.167 13.585-11.632 18.98-8.847 8.736-20.615 13.553-33.132 13.553-12.516 0-24.284-4.81-33.131-13.552-5.465-5.396-9.414-11.896-11.632-18.98h-4.346c2.336 8.195 6.773 15.704 13.037 21.89 9.635 9.512 22.45 14.753 36.079 14.753 13.629 0 26.444-5.241 36.079-14.754 6.264-6.185 10.694-13.694 13.036-21.89h-4.358ZM24.733 40.767c2.219-7.09 6.167-13.585 11.632-18.98C45.212 13.052 56.98 8.234 69.497 8.234c12.516 0 24.284 4.811 33.132 13.553 5.464 5.396 9.413 11.896 11.631 18.98h4.346c-2.336-8.196-6.772-15.704-13.037-21.89C95.934 9.365 83.119 4.124 69.49 4.124c-13.628 0-26.444 5.24-36.078 14.753-6.265 6.186-10.695 13.694-13.037 21.89h4.358Z" fill="#D7D7D7"/><path d="M124.051 69.26H14.949C6.707 69.26 0 62.638 0 54.5s6.707-14.76 14.95-14.76H124.05c8.242 0 14.949 6.622 14.949 14.76 0 8.145-6.707 14.76-14.949 14.76ZM14.949 41.802c-7.097 0-12.867 5.697-12.867 12.704 0 7.008 5.77 12.705 12.867 12.705h109.102c7.097 0 12.867-5.697 12.867-12.705 0-7.007-5.77-12.704-12.867-12.704H14.949ZM69.497 14.536l2.374 7.206h7.67l-6.206 4.452 2.368 7.206-6.206-4.45-6.206 4.45 2.368-7.206-6.207-4.452h7.677l2.368-7.206ZM37.94 79.57l.507-.868-1.171-1.541-.99.237-.435-.578 4.28-.944.352.462-2.108 3.803-.436-.572Zm-.066-2.55.885 1.162.924-1.593-1.809.43ZM40.164 81.528c0-.392.195-.783.586-1.162l1.69-1.657.502.5-1.718 1.683c-.247.238-.37.476-.383.713-.013.238.09.47.318.688.221.218.45.32.69.308.24-.013.481-.135.729-.373l1.717-1.682.5.5-1.684 1.658c-.384.379-.78.565-1.177.565-.404 0-.794-.193-1.178-.572-.403-.385-.592-.77-.592-1.169ZM44.412 85.87l2.082-2.653-1.028-.79.364-.462 2.635 2.023-.364.463-1.035-.79-2.081 2.652-.573-.443ZM52.03 86.147l.618.36-2.01 3.403-.618-.36.871-1.477-1.769-1.02-.872 1.477-.618-.354 2.01-3.404.618.353-.845 1.426 1.77 1.022.845-1.426ZM52.713 90.9l1.542-3.636 2.465 1.021-.221.52-1.809-.75-.429 1.008 1.705.706-.222.52-1.704-.706-.455 1.066 1.808.752-.221.52-2.46-1.021ZM60.812 89.512l.657.18-1.054 3.802-.52-.14-1.34-3.225-.742 2.665-.65-.173 1.054-3.803.52.142 1.334 3.218.741-2.666ZM63.61 94.047l.461-3.327-1.288-.174.078-.584 3.305.443-.078.585-1.294-.174-.462 3.327-.722-.096ZM67.48 94.42l.163-3.944.722.025-.163 3.944-.722-.026ZM71.188 94.24a1.662 1.662 0 0 1-.715-.668c-.176-.296-.274-.649-.3-1.054a2.307 2.307 0 0 1 .17-1.079c.136-.314.35-.558.63-.738.287-.18.618-.283 1.015-.309.267-.013.527.013.768.084.24.07.449.173.612.308l-.202.533a1.963 1.963 0 0 0-.553-.282 1.689 1.689 0 0 0-.573-.065c-.383.02-.676.161-.871.424-.195.257-.28.617-.254 1.08.026.462.156.815.377 1.053.221.237.527.347.918.321.201-.013.39-.058.559-.129.17-.07.345-.186.514-.346l.267.507a1.67 1.67 0 0 1-.573.379 2.227 2.227 0 0 1-.754.167 2.028 2.028 0 0 1-1.035-.186ZM81.642 92.679l-.735.192-.832-1.136c-.079-.11-.163-.174-.267-.193a.755.755 0 0 0-.371.026l-.703.186.43 1.586-.696.18-1.028-3.809 1.652-.436c.436-.116.794-.11 1.074.019.28.128.468.372.559.726.072.25.059.488-.026.7a1.123 1.123 0 0 1-.475.526c.24-.012.449.103.618.34l.8 1.093Zm-2.192-1.696c.267-.07.449-.167.546-.302.098-.128.124-.295.072-.488-.052-.193-.156-.321-.306-.379-.15-.064-.358-.058-.624.013l-.872.231.312 1.156.872-.23ZM83.607 91.992l-1.51-3.655 2.473-.996.214.52-1.821.733.416 1.008 1.711-.687.215.527-1.711.687.442 1.073 1.822-.733.214.52-2.465 1.003ZM88.538 89.557a1.747 1.747 0 0 1-.937-.289 2.355 2.355 0 0 1-.735-.822 2.357 2.357 0 0 1-.325-1.047c-.013-.34.065-.655.24-.938.176-.282.436-.52.775-.713.234-.128.475-.218.722-.257a1.55 1.55 0 0 1 .69.02l.051.565a1.872 1.872 0 0 0-.624-.013 1.59 1.59 0 0 0-.547.193c-.338.186-.533.436-.598.758-.065.314.02.68.247 1.079.228.404.501.668.807.783.305.116.63.084.97-.109.175-.096.324-.218.448-.36.124-.14.228-.32.312-.533l.462.34a1.632 1.632 0 0 1-.345.592c-.169.186-.364.347-.598.475-.332.186-.67.283-1.015.276ZM92.415 87.45l-2.296-3.23.592-.411 2.296 3.23-.592.412ZM92.194 82.742l1.314-1.117c.325-.276.65-.418.963-.411.319 0 .592.135.826.404.234.27.325.56.28.874-.046.314-.234.604-.553.88l-.768.648 1.087 1.247-.547.469-2.602-2.994Zm2.4.264c.19-.16.3-.322.332-.482.033-.16-.02-.315-.143-.456-.13-.148-.273-.218-.442-.218-.163.006-.345.09-.534.25l-.702.597.787.906.702-.597ZM98.602 82.306l-2.954-2.653 1.796-1.953.423.38-1.32 1.431.819.733 1.242-1.35.423.38-1.242 1.349.865.777 1.32-1.433.423.38-1.795 1.959ZM101.893 78.362a2.014 2.014 0 0 1-.683.347l-.286-.502c.234-.07.436-.173.618-.301.182-.129.338-.296.488-.495.163-.225.247-.424.254-.597a.459.459 0 0 0-.202-.418.393.393 0 0 0-.403-.032c-.15.064-.345.212-.586.424-.377.34-.702.552-.976.636-.273.083-.54.032-.813-.154a1.113 1.113 0 0 1-.403-.514 1.257 1.257 0 0 1-.04-.681c.053-.25.164-.495.346-.739.162-.224.351-.417.566-.571.214-.154.429-.25.644-.296l.286.495a1.89 1.89 0 0 0-1.034.7c-.15.206-.228.405-.228.584 0 .18.072.328.221.43a.41.41 0 0 0 .41.046c.143-.058.338-.2.585-.418a4.61 4.61 0 0 1 .683-.507c.196-.116.384-.18.566-.187a.881.881 0 0 1 .54.174c.196.135.326.308.397.514a1.2 1.2 0 0 1 .02.68c-.059.251-.182.502-.371.765-.176.244-.377.45-.599.617Z" fill="#D7D7D7"/><path d="M17.2 59.375h-4.853l.117-.809 1.373-.482v-6.699l-1.399-.289.085-.906c.611-.096 1.333-.18 2.16-.256a22.952 22.952 0 0 1 2.055-.116c1.38 0 2.42.193 3.136.578.709.385 1.067 1.028 1.067 1.927 0 .379-.098.751-.3 1.105a3.107 3.107 0 0 1-.793.931c-.332.27-.69.469-1.08.597l1.164 1.568c.32.423.58.758.788.995.208.238.435.443.69.623.253.18.546.308.884.398l.28.078-.176.764c-.384.122-.813.18-1.301.18-.729 0-1.347-.193-1.848-.578-.5-.386-.936-.938-1.32-1.645l-.956-1.753h-.957v2.44l1.275.45-.09.9Zm-1.19-8.53v3.591h1.353c.37-.154.67-.379.891-.661.221-.283.338-.636.338-1.06 0-.354-.078-.675-.24-.964a1.705 1.705 0 0 0-.69-.68c-.3-.168-.657-.251-1.06-.251-.15 0-.28.006-.39.013-.118.006-.183.013-.202.013ZM24.486 50.73l.117-.841h8.366l-.24 2.813-.996-.148-.481-1.663H28.11v3.263h1.815l.338-.983 1.112-.206-.26 3.231-1.073.174-.254-1.285h-1.672v3.134h3.311l.944-1.72.956.115-.234 2.755H24.57l.078-.81 1.275-.48v-6.925l-1.438-.424ZM38.29 59.555c-.696 0-1.313-.11-1.866-.321-.547-.212-.944-.482-1.178-.81l.176-2.395 1.08.16.305 1.426c.157.225.384.405.696.553.306.148.632.218.97.218.24 0 .468-.045.69-.141.214-.096.39-.231.52-.405.13-.18.195-.392.195-.63a.93.93 0 0 0-.234-.622 2.268 2.268 0 0 0-.586-.476 17.14 17.14 0 0 0-.97-.494c-.578-.276-1.053-.52-1.41-.745a3.193 3.193 0 0 1-.924-.893c-.26-.373-.39-.829-.39-1.362 0-.617.168-1.15.513-1.586.345-.437.787-.771 1.334-.99a4.65 4.65 0 0 1 1.743-.334c.43 0 .891.071 1.373.206.481.135.846.315 1.086.527 0 .051-.026.41-.084 1.079-.059.668-.098 1.13-.117 1.374l-1.048-.167-.247-1.265c-.124-.2-.325-.373-.612-.52a1.868 1.868 0 0 0-.865-.225c-.332 0-.605.096-.806.282-.202.193-.306.463-.306.81 0 .25.084.469.253.668.17.193.384.366.631.507.254.148.605.321 1.06.527.606.283 1.1.546 1.478.777.377.231.696.54.969.912.273.38.403.829.403 1.355 0 .65-.195 1.202-.592 1.651-.397.45-.891.784-1.483 1.009a4.818 4.818 0 0 1-1.756.34ZM44.002 49.895h9.16l-.254 2.993-1.073-.173-.397-1.812h-1.88v7.246l1.49.34-.117.887h-4.925l.078-.816 1.334-.443v-7.22H45.59l-.54 2.01-1.009-.147-.039-2.865ZM55.048 59.375l.11-.809 1.191-.604 3.195-7.894 1.912-.366 3.012 8.292 1.106.527-.085.86h-4.794l.11-.809 1.308-.603-.572-1.587h-3.123l-.572 1.6 1.444.52-.098.867h-4.144v.006Zm3.78-4.181h2.322l-1.125-3.32-1.197 3.32ZM68.918 51.199l-1.444-.443.162-.861h4.873l-.117.86-1.295.405v4.208c0 .924.221 1.612.664 2.055.442.443 1.047.668 1.821.668.71 0 1.262-.212 1.659-.642.397-.424.592-1.08.592-1.96l.007-4.29-1.38-.443.111-.861h4.105l-.11.86-1.282.405-.033 4.098c-.013 1.465-.37 2.55-1.06 3.257-.69.706-1.73 1.06-3.116 1.06-.748 0-1.418-.09-2.017-.27-.598-.18-1.106-.546-1.522-1.111-.416-.566-.625-1.381-.625-2.454v-4.541h.007ZM85.396 59.375h-4.853l.117-.809 1.373-.482v-6.699l-1.4-.289.086-.906c.611-.096 1.333-.18 2.16-.256a22.954 22.954 0 0 1 2.055-.116c1.38 0 2.42.193 3.136.578.709.385 1.066 1.028 1.066 1.927 0 .379-.097.751-.299 1.105a3.106 3.106 0 0 1-.794.931c-.331.27-.689.469-1.08.597l1.165 1.568c.319.423.58.758.787.995.208.238.436.443.69.623.254.18.546.308.885.398l.28.078-.176.764c-.384.122-.813.18-1.301.18-.729 0-1.347-.193-1.848-.578-.5-.386-.937-.938-1.32-1.645l-.957-1.753h-.956v2.44l1.275.45-.091.9Zm-1.19-8.53v3.591h1.352c.371-.154.67-.379.892-.661.22-.283.338-.636.338-1.06 0-.354-.078-.675-.24-.964a1.706 1.706 0 0 0-.69-.68c-.3-.168-.657-.251-1.06-.251-.15 0-.28.006-.391.013-.117.006-.182.013-.202.013ZM92.675 59.375l.11-.809 1.191-.604 3.195-7.894 1.912-.366 3.012 8.292 1.106.527-.085.86h-4.787l.11-.809 1.301-.603-.572-1.587h-3.123l-.572 1.6 1.444.52-.098.867h-4.144v.006Zm3.786-4.181h2.323l-1.126-3.32-1.197 3.32ZM105.185 50.775l.098-.886h3.051l4.528 6.416v-5.112l-1.438-.444.136-.86h4.06l-.156.86-1.288.405v8.15l-1.685.29-4.541-6.25v4.785l1.399.367-.091.867h-4.073l.078-.81 1.295-.481v-6.79l-1.373-.507ZM117.493 49.895h9.16l-.254 2.993-1.073-.173-.397-1.812h-1.88v7.246l1.49.34-.117.887h-4.925l.078-.816 1.334-.443v-7.22h-1.828l-.54 2.01-1.009-.147-.039-2.865Z" fill="#D7D7D7"/></svg>