<svg width="138" height="109" fill="none" xmlns="http://www.w3.org/2000/svg"><path d="M67.536 100.247h-.023a43.597 43.597 0 0 1-3.005-.201.626.626 0 0 1-.556-.69.621.621 0 0 1 .678-.565c.969.1 1.945.163 2.921.194.343.007.61.302.595.65a.615.615 0 0 1-.61.612Zm2.966 0a.63.63 0 0 1-.617-.604.632.632 0 0 1 .594-.65c.977-.032 1.953-.102 2.921-.194a.62.62 0 0 1 .679.565.634.634 0 0 1-.557.689 42.98 42.98 0 0 1-3.004.202c0-.008-.008-.008-.016-.008Zm-8.876-.589c-.03 0-.069 0-.1-.007a48.58 48.58 0 0 1-2.95-.605.623.623 0 0 1-.458-.75.607.607 0 0 1 .74-.466 45.81 45.81 0 0 0 2.867.589.624.624 0 0 1-.1 1.24Zm14.779-.007a.623.623 0 0 1-.61-.527.624.624 0 0 1 .503-.72c.961-.163 1.922-.364 2.867-.59a.626.626 0 0 1 .748.466.641.641 0 0 1-.458.759c-.976.232-1.967.441-2.951.604-.03 0-.061.008-.1.008Zm-20.552-1.38a.506.506 0 0 1-.183-.03 47.97 47.97 0 0 1-2.852-1 .623.623 0 0 1-.351-.813.617.617 0 0 1 .8-.364c.908.357 1.846.682 2.769.976a.62.62 0 0 1 .404.783.626.626 0 0 1-.587.449Zm26.332-.015a.605.605 0 0 1-.587-.441.629.629 0 0 1 .404-.782c.93-.295 1.861-.62 2.769-.977a.62.62 0 0 1 .8.357.636.636 0 0 1-.35.813c-.93.364-1.892.705-2.845 1.007-.069.008-.13.023-.19.023Zm-31.884-2.153a.532.532 0 0 1-.26-.062 46.478 46.478 0 0 1-2.691-1.379.632.632 0 0 1-.244-.852.612.612 0 0 1 .839-.248c.854.473 1.738.93 2.615 1.34a.63.63 0 0 1 .298.837.61.61 0 0 1-.557.364Zm37.42-.015a.598.598 0 0 1-.556-.365.636.636 0 0 1 .297-.836 48.856 48.856 0 0 0 2.609-1.34.612.612 0 0 1 .838.248.632.632 0 0 1-.244.852 44.01 44.01 0 0 1-2.684 1.379.636.636 0 0 1-.26.062Zm5.194-2.905a.604.604 0 0 1-.518-.287.633.633 0 0 1 .19-.867c.816-.535 1.632-1.1 2.41-1.689a.606.606 0 0 1 .862.132.628.628 0 0 1-.13.875c-.8.604-1.64 1.185-2.478 1.735a.606.606 0 0 1-.336.1Zm4.774-3.579a.627.627 0 0 1-.396-1.108c.74-.635 1.471-1.308 2.173-1.998a.617.617 0 0 1 .877.016.641.641 0 0 1-.015.89 47.31 47.31 0 0 1-2.235 2.053.62.62 0 0 1-.404.147Zm-73.05-37.436h-.037a.628.628 0 0 1-.58-.666c.069-1.015.168-2.037.297-3.044a.631.631 0 0 1 .694-.542c.336.046.58.364.534.705-.13.976-.221 1.967-.29 2.959a.627.627 0 0 1-.617.588Zm88.699-.162a.626.626 0 0 1-.618-.581 47.966 47.966 0 0 0-.298-2.96.627.627 0 0 1 .527-.704.616.616 0 0 1 .694.534c.137 1.007.236 2.03.305 3.045a.622.622 0 0 1-.572.666h-.038ZM25.41 46.189a.661.661 0 0 1-.122-.016.62.62 0 0 1-.48-.736c.198-.999.426-1.998.693-2.974a.615.615 0 0 1 .755-.442.627.627 0 0 1 .435.767c-.252.953-.48 1.921-.671 2.897a.63.63 0 0 1-.61.504Zm87.127-.155a.614.614 0 0 1-.603-.504 45.42 45.42 0 0 0-.686-2.889.629.629 0 0 1 .435-.775c.328-.093.671.101.762.442.267.976.504 1.975.702 2.974a.628.628 0 0 1-.481.744c-.045 0-.083.008-.129.008ZM26.973 40.37a.56.56 0 0 1-.198-.03.63.63 0 0 1-.381-.798c.328-.96.694-1.921 1.083-2.859a.616.616 0 0 1 .808-.333.633.633 0 0 1 .328.821 45.162 45.162 0 0 0-1.053 2.781.632.632 0 0 1-.587.418Zm83.985-.154a.615.615 0 0 1-.579-.419 45.458 45.458 0 0 0-1.06-2.765.626.626 0 0 1 .328-.821.61.61 0 0 1 .808.333c.389.93.755 1.89 1.09 2.85a.624.624 0 0 1-.381.798.926.926 0 0 1-.206.024ZM29.284 34.81a.635.635 0 0 1-.55-.914c.45-.906.939-1.813 1.45-2.688a.608.608 0 0 1 .846-.217.627.627 0 0 1 .214.86 47.562 47.562 0 0 0-1.411 2.61.6.6 0 0 1-.55.349Zm79.348-.124a.607.607 0 0 1-.549-.34 49.926 49.926 0 0 0-1.411-2.603.636.636 0 0 1 .214-.86.614.614 0 0 1 .846.217c.511.875.999 1.773 1.457 2.672.153.31.031.69-.267.844a.687.687 0 0 1-.29.07Zm-76.32-5.066a.645.645 0 0 1-.351-.108.638.638 0 0 1-.16-.876 46.816 46.816 0 0 1 1.784-2.463.612.612 0 0 1 .87-.1.635.635 0 0 1 .098.883c-.602.774-1.19 1.58-1.738 2.393a.61.61 0 0 1-.504.271Zm73.285-.116a.614.614 0 0 1-.511-.271 44.014 44.014 0 0 0-1.746-2.394.635.635 0 0 1 .099-.883.612.612 0 0 1 .869.101c.618.79 1.221 1.619 1.792 2.456a.64.64 0 0 1-.16.875.513.513 0 0 1-.343.116Zm-69.61-4.624a.604.604 0 0 1-.412-.163.632.632 0 0 1-.046-.883 47.055 47.055 0 0 1 2.09-2.2.617.617 0 0 1 .877.016.64.64 0 0 1-.015.89c-.702.69-1.38 1.41-2.036 2.138a.625.625 0 0 1-.458.202Zm65.919-.093a.604.604 0 0 1-.457-.21 49.155 49.155 0 0 0-2.044-2.137.64.64 0 0 1-.015-.891.617.617 0 0 1 .877-.016c.716.705 1.426 1.441 2.097 2.192a.625.625 0 0 1-.046.884.556.556 0 0 1-.412.178ZM40.25 20.68a.633.633 0 0 1-.404-1.108 46.126 46.126 0 0 1 2.356-1.897.605.605 0 0 1 .862.132.628.628 0 0 1-.13.875 43.81 43.81 0 0 0-2.295 1.851.555.555 0 0 1-.389.147Zm57.378-.085a.602.602 0 0 1-.397-.147 44.746 44.746 0 0 0-2.303-1.844.628.628 0 0 1-.13-.875.606.606 0 0 1 .862-.131c.809.604 1.602 1.239 2.365 1.89.259.224.297.62.076.883a.58.58 0 0 1-.473.224Zm-52.604-3.5a.604.604 0 0 1-.519-.288.638.638 0 0 1 .183-.867 41.843 41.843 0 0 1 2.586-1.565.612.612 0 0 1 .838.248.632.632 0 0 1-.244.852c-.854.48-1.7.992-2.516 1.518-.1.07-.214.101-.328.101Zm47.823-.07a.565.565 0 0 1-.328-.101 46.47 46.47 0 0 0-2.525-1.519.63.63 0 0 1-.244-.852.61.61 0 0 1 .84-.248 48.948 48.948 0 0 1 2.592 1.558.633.633 0 0 1-.335 1.161Zm-42.63-2.836a.597.597 0 0 1-.556-.364.636.636 0 0 1 .297-.836 51.594 51.594 0 0 1 2.768-1.2.62.62 0 0 1 .8.355.636.636 0 0 1-.35.814 43.49 43.49 0 0 0-2.692 1.162.492.492 0 0 1-.267.07Zm37.413-.062a.532.532 0 0 1-.259-.062 43.697 43.697 0 0 0-2.7-1.162.633.633 0 0 1-.358-.813.617.617 0 0 1 .8-.364c.939.364 1.87.767 2.777 1.193a.623.623 0 0 1 .297.829c-.1.248-.32.38-.557.38Zm-31.884-2.114a.612.612 0 0 1-.587-.442.63.63 0 0 1 .404-.782c.953-.302 1.93-.573 2.905-.813a.62.62 0 0 1 .748.464.635.635 0 0 1-.458.76c-.945.232-1.89.495-2.821.79a.802.802 0 0 1-.191.023Zm26.34-.047a.506.506 0 0 1-.183-.03c-.93-.295-1.883-.55-2.829-.783a.617.617 0 0 1-.458-.751.622.622 0 0 1 .74-.465c.969.232 1.952.503 2.906.798.328.1.51.449.411.782a.617.617 0 0 1-.587.45ZM61.52 10.612a.624.624 0 0 1-.61-.52.624.624 0 0 1 .503-.72c.984-.17 1.983-.31 2.982-.41a.62.62 0 0 1 .679.558.63.63 0 0 1-.55.689c-.968.1-1.944.232-2.905.395-.03.008-.06.008-.1.008Zm14.787-.024c-.03 0-.069 0-.1-.007a40.815 40.815 0 0 0-2.905-.387.623.623 0 0 1-.557-.682.624.624 0 0 1 .671-.566c1 .101 1.998.233 2.982.395.336.055.565.38.511.72a.61.61 0 0 1-.602.527Zm-8.877-.58a.625.625 0 0 1-.618-.605.621.621 0 0 1 .595-.65c.992-.039 2.021-.039 3.012-.008.344.008.61.302.595.65a.615.615 0 0 1-.617.605h-.023a41.002 41.002 0 0 0-2.929.008h-.015Z" fill="#D7D7D7"/><path d="M20.285 55.321c-.008-.271-.008-.542-.008-.821 0-27.281 21.857-49.48 48.715-49.48 26.86 0 48.715 22.199 48.715 49.48 0 1.24-.046 2.463-.137 3.672 1.502.457 3.088.89 4.858 1.254.145-1.626.221-3.276.221-4.926 0-14.554-5.582-28.241-15.717-38.536C96.797 5.67 83.322 0 68.992 0 54.663 0 41.188 5.67 31.053 15.964 21.025 26.15 15.458 39.667 15.343 54.058c1.8.364 3.417.798 4.942 1.263ZM106.169 86.436c-8.945 10.728-22.29 17.544-37.177 17.544-12.163 0-23.297-4.546-31.838-12.06-3.57-.488-6.398-1.24-8.999-2.068a56.52 56.52 0 0 0 2.898 3.183C41.188 103.33 54.663 109 68.993 109c14.329 0 27.804-5.67 37.939-15.965a55.744 55.744 0 0 0 4.407-5.057 64.068 64.068 0 0 0-5.17-1.542Z" fill="#D7D7D7"/><path d="M135.529 95.034c-11.5 0-17.334-2.03-22.977-3.989-5.506-1.913-10.699-3.718-21.376-3.718-10.676 0-15.877 1.805-21.375 3.718-5.644 1.96-11.477 3.99-22.977 3.99s-17.334-2.03-22.977-3.99c-5.507-1.913-10.7-3.718-21.376-3.718-1.365 0-2.471-1.123-2.471-2.51V52.912c0-1.386 1.106-2.51 2.47-2.51 11.5 0 17.335 2.03 22.978 3.99 5.506 1.913 10.7 3.717 21.376 3.717 10.676 0 15.877-1.804 21.375-3.718 5.644-1.96 11.477-3.989 22.977-3.989s17.334 2.03 22.977 3.99c5.506 1.913 10.7 3.717 21.376 3.717 1.365 0 2.471 1.124 2.471 2.51v31.905c0 1.38-1.106 2.51-2.471 2.51ZM4.926 82.34c9.891.27 15.283 2.138 20.507 3.958 5.506 1.913 10.699 3.718 21.375 3.718 10.677 0 15.878-1.805 21.376-3.718 5.643-1.96 11.477-3.99 22.977-3.99s17.334 2.03 22.977 3.99c5.064 1.758 9.861 3.431 18.913 3.687V63.098c-9.899-.271-15.283-2.138-20.507-3.958-5.506-1.913-10.699-3.718-21.375-3.718-10.677 0-15.877 1.805-21.376 3.718-5.643 1.96-11.477 3.989-22.977 3.989s-17.334-2.03-22.977-3.99c-5.064-1.758-9.86-3.43-18.905-3.686v26.886h-.008Z" fill="#D7D7D7"/><path d="m45.9 43.865 3.067-1.696 1.616 3.013-9.837 5.453-1.617-3.013 3.043-1.689-3.897-7.258-1.96 3.238-1.746-3.253 3.02-4.958 2.188-1.216 6.124 11.379ZM52.223 42.696c-1.388-1.131-2.41-3.021-3.081-5.67-.656-2.603-.648-4.733.038-6.398.679-1.658 1.99-2.742 3.92-3.246 1.937-.503 3.592-.194 4.972.93 1.38 1.123 2.402 2.982 3.066 5.592.67 2.65.663 4.803-.016 6.476-.678 1.665-1.982 2.75-3.92 3.253-1.936.503-3.599.186-4.98-.937Zm5.4-3.78c.106-.86-.062-2.184-.512-3.974-.442-1.743-.907-2.959-1.41-3.648-.504-.697-1.106-.945-1.808-.767-.702.186-1.113.705-1.22 1.557-.115.852.053 2.153.488 3.888.45 1.79.93 3.029 1.434 3.734.503.697 1.105.96 1.815.774.701-.178 1.105-.697 1.212-1.564ZM65.63 39.79c-1.068-1.44-1.61-3.523-1.617-6.258-.008-2.688.518-4.748 1.578-6.189 1.06-1.44 2.593-2.16 4.584-2.169 1.998-.007 3.53.705 4.598 2.138 1.068 1.433 1.609 3.494 1.617 6.181.007 2.735-.519 4.826-1.579 6.275-1.06 1.448-2.593 2.176-4.583 2.176-1.998.008-3.531-.712-4.599-2.153Zm6.146-2.307c.313-.806.473-2.13.465-3.974-.007-1.797-.168-3.09-.488-3.889-.32-.797-.846-1.192-1.57-1.192-.725 0-1.244.402-1.564 1.2-.313.798-.473 2.1-.465 3.896.007 1.844.167 3.169.488 3.974.32.806.839 1.208 1.57 1.208.733-.015 1.251-.418 1.564-1.223ZM80.767 33.958c-.465-1.069-.45-2.378.046-3.927.488-1.518 1.235-2.564 2.227-3.137.999-.573 2.135-.65 3.416-.225 1.281.426 2.15 1.17 2.616 2.239.465 1.069.457 2.362-.038 3.88-.496 1.55-1.251 2.611-2.243 3.184-.998.573-2.135.65-3.416.225-1.266-.419-2.143-1.17-2.608-2.239Zm3.53 9.559-3.278-1.093 13.955-12.617 3.257 1.084-13.933 12.626Zm.771-10.016c.252-.294.526-.883.808-1.758.267-.829.382-1.456.336-1.867-.046-.41-.221-.666-.541-.774-.313-.109-.61-.008-.878.302-.266.31-.533.875-.8 1.712-.275.86-.397 1.495-.359 1.89.038.402.214.65.534.759.343.123.648.03.9-.264Zm5.163 10.79c-.45-1.06-.427-2.37.069-3.92.488-1.517 1.227-2.563 2.211-3.144.984-.58 2.112-.65 3.394-.232 1.296.433 2.165 1.177 2.623 2.23.457 1.054.435 2.355-.061 3.881-.503 1.55-1.243 2.61-2.22 3.191-.983.581-2.12.651-3.416.225-1.288-.426-2.15-1.17-2.6-2.23Zm4.27-.48c.267-.302.534-.883.816-1.743.267-.829.382-1.456.336-1.867-.046-.41-.221-.666-.541-.774-.313-.109-.61 0-.877.302-.267.31-.534.875-.801 1.712-.275.86-.397 1.495-.359 1.89.038.403.214.65.534.759.328.116.626.015.892-.279ZM22.428 70.983l-1.136 5.066a7.9 7.9 0 0 1-1.907.155 10.017 10.017 0 0 1-2.066-.271c-1.083-.248-1.975-.674-2.677-1.279a4.472 4.472 0 0 1-1.434-2.223c-.252-.883-.26-1.85-.023-2.92.237-1.038.649-1.905 1.259-2.587a4.543 4.543 0 0 1 2.219-1.387c.877-.24 1.838-.24 2.882 0a7.33 7.33 0 0 1 1.968.752c.595.333 1.06.72 1.38 1.138l-1.25 1.697a5.671 5.671 0 0 0-1.175-.968 4.524 4.524 0 0 0-1.32-.52c-.884-.2-1.6-.1-2.15.303-.549.403-.938 1.13-1.167 2.169-.243 1.076-.198 1.928.138 2.556.335.627.976 1.045 1.914 1.262.435.101.885.155 1.342.163l.42-1.874-1.732-.403.405-1.805 4.11.976ZM23.877 77.846l3.188-9.845 2.562.86-2.509 7.738 4.095 1.37-.678 2.1-6.658-2.223ZM35.217 80.108c-.679-.844-.93-1.999-.77-3.463l.655-5.956 2.608.294-.67 6.058c-.085.743.015 1.332.304 1.766.282.433.733.681 1.335.751.595.07 1.083-.078 1.449-.442.366-.364.595-.914.67-1.642l.672-6.057 2.631.302-.656 5.957c-.16 1.448-.67 2.51-1.525 3.183-.862.682-2.013.938-3.47.767-1.48-.17-2.555-.674-3.233-1.518ZM49.47 81.905l-.374-8.141-3.035.147-.1-2.208 8.786-.418.1 2.208-3.036.147.374 8.14-2.715.125ZM58.987 81.037 56.47 70.991l7.055-1.82.51 2.029-4.514 1.17.473 1.89 4.225-1.093.51 2.03-4.224 1.092.518 2.06 4.515-1.162.51 2.03-7.061 1.82ZM72.416 66.096l2.433-.736 2.92 9.93-1.906.581-6.093-4.283 1.663 5.63-2.403.729-2.92-9.93 1.883-.573 6.086 4.26-1.662-5.608ZM85.945 74.314l-.221-10.364 7.122-.155.046 2.138-4.469.1.038 1.89 4.187-.093.046 2.123-4.187.093.092 4.206-2.654.062ZM104.232 75.204l-2.837-.325-.93-3.578c-.107-.403-.442-.636-1.007-.705l-.968-.109-.45 4.005-2.631-.302 1.151-10.294 4.713.542c1.228.14 2.113.51 2.669 1.123.557.604.778 1.402.671 2.401-.076.697-.328 1.27-.747 1.735-.419.465-.976.767-1.662.899.274.093.518.255.724.495.206.24.351.543.442.914l.862 3.2Zm-2.585-6.676c.274-.148.435-.411.48-.79.046-.396-.053-.698-.282-.9-.229-.2-.64-.34-1.22-.402l-1.678-.194-.244 2.216 1.678.194c.572.061.991.023 1.266-.124ZM106.505 75.832l3.042-9.892 6.948 2.208-.618 1.998-4.446-1.41-.572 1.86 4.156 1.316-.617 1.999-4.157-1.317-.625 2.03 4.446 1.41-.618 1.998-6.939-2.2ZM116.403 79.217l2.578-10.023 7.038 1.874-.518 2.03-4.507-1.2-.488 1.89 4.217 1.122-.519 2.03-4.217-1.123-.526 2.052 4.507 1.2-.519 2.03-7.046-1.882Z" fill="#D7D7D7"/></svg>