<svg width="145" height="107" fill="none" xmlns="http://www.w3.org/2000/svg"><path d="m5.918 74.79 4.45-10.335a2.434 2.434 0 0 0 0-1.914l-4.45-10.334h7.978v-4.768H2.342c-.79 0-1.527.407-1.96 1.08a2.415 2.415 0 0 0-.186 2.257l5.475 12.719L.196 76.213a2.415 2.415 0 0 0 .186 2.258 2.333 2.333 0 0 0 1.96 1.08h27.022a50.82 50.82 0 0 1-2.455-4.768H5.919v.007ZM139.329 63.502l5.475-12.719a2.417 2.417 0 0 0-.186-2.258 2.332 2.332 0 0 0-1.96-1.08h-11.554v4.769h7.978l-4.45 10.334a2.429 2.429 0 0 0 0 1.914l4.45 10.335h-20.991a50.054 50.054 0 0 1-2.455 4.768h27.022c.791 0 1.527-.407 1.96-1.08a2.417 2.417 0 0 0 .186-2.258l-5.475-12.725ZM51.145 39.824C55.615 32.596 63.518 27.78 72.5 27.78c8.982 0 16.884 4.817 21.355 12.045h2.716C91.853 31.23 82.831 25.395 72.5 25.395c-10.33 0-19.353 5.826-24.071 14.43h2.716ZM93.855 67.176C89.385 74.404 81.482 79.22 72.5 79.22c-8.982 0-16.884-4.817-21.355-12.045H48.43c4.718 8.596 13.74 14.43 24.071 14.43 10.33 0 19.353-5.827 24.071-14.43h-2.716Z" fill="#D7D7D7"/><path d="M26.62 39.824C32.43 19.59 50.8 4.774 72.5 4.774s40.069 14.823 45.88 35.05h4.869a53.478 53.478 0 0 0-13.645-24.154C99.694 5.567 86.516 0 72.5 0 58.484 0 45.306 5.567 35.396 15.67A53.415 53.415 0 0 0 21.75 39.824h4.869ZM118.38 67.176c-5.811 20.234-24.181 35.049-45.88 35.049s-40.069-14.822-45.88-35.05h-4.87A53.488 53.488 0 0 0 35.397 91.33C45.306 101.433 58.484 107 72.5 107c14.016 0 27.194-5.567 37.104-15.67a53.405 53.405 0 0 0 13.645-24.154h-4.869Z" fill="#D7D7D7"/><path d="M131.104 69.56H13.896c-1.293 0-2.338-1.066-2.338-2.385v-27.35c0-1.319 1.046-2.385 2.338-2.385h117.208c1.293 0 2.338 1.066 2.338 2.384v27.352c0 1.318-1.045 2.383-2.338 2.383Zm-114.87-4.761h112.538V42.215H16.235V64.8Z" fill="#D7D7D7"/><path d="M29.756 60.48V46.492h3.095c.818 0 1.554.218 2.208.66.564.37.963.946 1.203 1.731.131.414.2.911.2 1.486 0 .94-.248 1.69-.736 2.251-.206.239-.447.42-.722.547.46.175.852.533 1.169 1.059.213.357.371.82.468 1.38.048.288.075.61.075.968 0 .884-.165 1.634-.495 2.251-.254.484-.619.87-1.08 1.157-.523.33-1.045.49-1.568.49h-3.817v.008Zm2.228-8.274h.867c.64 0 1.073-.322 1.293-.96.083-.239.117-.533.117-.884 0-.581-.138-1.016-.413-1.318-.254-.273-.584-.413-.997-.413h-.867v3.575Zm0 6.191h.867c.702 0 1.183-.364 1.458-1.107.096-.253.145-.54.145-.87 0-.778-.145-1.346-.44-1.703-.262-.33-.647-.491-1.163-.491h-.867v4.171ZM44.852 60.634c-.914 0-1.685-.323-2.317-.968-.633-.645-.95-1.43-.95-2.355V46.498h2.022v10.783c0 .337.117.618.351.856.234.231.516.35.84.35.33 0 .605-.119.838-.35a1.18 1.18 0 0 0 .344-.855V46.498h2.153V57.31c0 .94-.323 1.725-.963 2.363-.64.645-1.417.96-2.318.96ZM55.065 48.624h-2.2v-2.118h6.458v2.118h-2.188V60.48h-2.07V48.624ZM67.108 60.662a3.125 3.125 0 0 1-2.325-.975c-.64-.652-.956-1.437-.956-2.355v-7.629c0-.932.324-1.718.963-2.37a3.132 3.132 0 0 1 2.318-.974c.915 0 1.685.33 2.318.981.632.652.949 1.445.949 2.363v1.599h-2.146v-1.64c0-.337-.117-.625-.35-.863a1.142 1.142 0 0 0-.847-.358c-.33 0-.605.12-.839.358a1.209 1.209 0 0 0-.343.862v7.65c0 .336.116.617.343.855.227.231.51.35.84.35.33 0 .611-.119.845-.35a1.16 1.16 0 0 0 .351-.855v-1.928h2.146v1.949c0 .932-.323 1.717-.963 2.362-.64.638-1.41.968-2.304.968ZM77.225 54.555v5.925h-2.07V46.506h2.07v5.932h2.497v-5.932h2.07V60.48h-2.07v-5.925h-2.497ZM86.716 60.48V46.492h5.887v2.118h-3.817v3.814h2.792v2.117h-2.792v3.814h3.817v2.118h-5.887v.007ZM100.368 46.506c1.155 0 2.001.323 2.538.968.474.568.708 1.353.708 2.363v2.033c0 .989-.371 1.823-1.107 2.51l1.533 6.1h-2.235l-1.251-5.265h-1.376v5.265h-2.07V46.506h3.26Zm1.238 3.366c0-.813-.392-1.213-1.183-1.213h-1.245v4.473h1.245c.33 0 .605-.12.839-.357.227-.239.344-.526.344-.856v-2.047ZM110.395 54.625l-2.771-8.133h2.276l1.534 5.02 1.52-5.02h2.29l-2.779 8.133v5.855h-2.07v-5.855ZM44.515 26.608l-.234-.323 2.758-2.7.77 1.08-.37.267-.647-.442-1.025.996 1.162 1.234.599-.582-.207-.456.303-.448.99 1.262-.275.406-.523-.385-.557.547.812.862.736-.414.24.33-1.726 1.683-.227-.309.262-.575-2.229-2.363-.612.33ZM53.133 24.518l-1.843 1.27-.166-.344.4-.547-1.748-2.622-.605.252-.206-.378c.206-.197.46-.421.75-.666.295-.246.543-.442.75-.582.522-.365.969-.561 1.34-.596.372-.035.674.119.908.476.096.148.158.323.172.512.02.19 0 .386-.062.575a1.58 1.58 0 0 1-.254.519l.853.308c.234.085.42.148.557.183.137.042.282.056.426.063.145 0 .289-.021.44-.077l.124-.042.13.343a1.86 1.86 0 0 1-.446.414c-.275.19-.564.28-.853.26-.289-.022-.598-.12-.929-.302l-.818-.435-.364.253.632.953.599-.154.213.364Zm-2.676-3.028.936 1.409.516-.35a.972.972 0 0 0 .165-.491.801.801 0 0 0-.152-.505.877.877 0 0 0-.344-.316.79.79 0 0 0-.44-.084.977.977 0 0 0-.467.182 3.232 3.232 0 0 1-.145.105.491.491 0 0 0-.069.05ZM54.928 18.615l-.11-.385 3.5-1.606.434 1.262-.447.126-.516-.624-1.314.603.62 1.41.756-.351-.048-.49.426-.302.502 1.444-.413.28-.35-.504-.702.322.599 1.353 1.382-.63.069-.926.42-.133.426 1.234-3.563 1.633-.124-.364.44-.45-1.32-2.993-.667.091ZM63.167 19.828c-.31.084-.591.112-.866.084-.269-.028-.475-.105-.62-.224l-.22-1.115.496-.063.316.61a.76.76 0 0 0 .378.168c.152.028.31.021.454-.02.11-.029.2-.078.29-.148a.585.585 0 0 0 .178-.253.493.493 0 0 0 .007-.315.44.44 0 0 0-.179-.252.93.93 0 0 0-.316-.14 4.347 4.347 0 0 0-.489-.106 5.86 5.86 0 0 1-.715-.168 1.451 1.451 0 0 1-.523-.295 1.166 1.166 0 0 1-.343-.575 1.242 1.242 0 0 1 .027-.792c.096-.245.255-.449.468-.617.213-.168.454-.294.729-.364.192-.056.399-.078.633-.078.226 0 .412.036.543.106.007.02.041.189.096.504.055.316.096.526.117.638l-.481.057-.269-.547a.728.728 0 0 0-.337-.162.819.819 0 0 0-.412.008.54.54 0 0 0-.324.23c-.068.113-.075.246-.034.408a.478.478 0 0 0 .193.273c.096.07.213.12.343.154.131.035.31.07.53.112.303.056.55.113.75.169.192.063.378.16.543.294.165.14.282.33.344.568.082.295.062.575-.055.827-.117.253-.296.47-.53.645-.22.19-.467.309-.722.38ZM65.966 14.829l.02-.414 2.23-.231-.014.414-.571.252.13 1.29 1.892-.196-.124-1.276-.66-.14.007-.414 2.242-.232-.014.414-.571.252.33 3.289.653.105v.413l-2.228.232.007-.386.564-.287-.13-1.332-1.892.196.138 1.36.66.105-.014.414-2.215.231v-.385l.571-.288-.323-3.246-.688-.14ZM76.276 18.503l.137-.393.626-.105.853-3.141-.598-.309.123-.4 1.754.358.124.758.296 2.334 1.252-2.082.364-.596 1.726.35-.13.4-.606.05-.42 3.26.585.308-.123.414-2.043-.414.144-.393.523-.126.31-2.559-1.644 2.79-.73-.049-.412-3.267-.653 2.461.502.295-.145.413-1.815-.357ZM85.285 16.512l.2-.344 3.549 1.493-.599 1.185-.399-.238.09-.813-1.335-.561-.577 1.43.77.322.316-.371.51.105-.682 1.367-.488-.112.124-.61-.709-.301-.556 1.367 1.403.589.701-.59.385.218-.584 1.164-3.611-1.521.179-.337.626.014 1.23-3.029-.543-.427ZM88.91 22.576l.24-.294.613.056 3.205-2.349.832.337-.908 4.066.296.484-.248.323-1.85-1.2.24-.294.654.084.172-.778-1.21-.785-.62.498.427.568-.254.322-1.59-1.038Zm2.503-.715.901.582.392-1.612-1.293 1.03ZM97.218 22.934l3.088 2.896-1.025.96-.31-.4.44-.757-.632-.595-2.276 2.524.392.588-.317.274-1.664-1.556.282-.26.591.267 2.27-2.518-.62-.581-.81.532-.296-.371.887-1.003ZM42.768 79.137l-1.203-1.48.254-.153.44.266 1.871-1.585-.234-.455.269-.183c.22.204.42.386.584.554.165.168.337.35.51.568.281.344.44.66.48.954.042.287-.082.56-.37.799-.166.14-.352.217-.558.245a1.202 1.202 0 0 1-.619-.098 1.438 1.438 0 0 1-.543-.428 2.88 2.88 0 0 1-.152-.203l.227-.28.062.077c.158.19.323.294.495.315.172.021.337-.035.496-.175a.786.786 0 0 0 .288-.477c.028-.182-.027-.364-.178-.546-.02-.029-.048-.057-.083-.092l-.076-.077-1.953 1.655.296.617-.303.182ZM45.863 82.453l-1.258-1.199.227-.189.474.21 1.644-1.794-.289-.421.248-.225a12.281 12.281 0 0 1 1.19.94c.357.343.584.652.674.925.089.28.027.54-.193.779a.802.802 0 0 1-.35.224 1.121 1.121 0 0 1-.434.056 1.415 1.415 0 0 1-.426-.105l-.083.708c-.02.196-.034.344-.041.463-.007.112.007.224.027.336.02.113.069.218.13.323l.056.091-.234.161a1.63 1.63 0 0 1-.385-.273 1.048 1.048 0 0 1-.337-.61 1.878 1.878 0 0 1 .062-.764l.179-.709-.248-.238-.598.652.22.435-.255.224Zm1.782-2.58-.88.96.35.337c.138.05.268.063.392.042a.613.613 0 0 0 .344-.203.716.716 0 0 0 .172-.316.61.61 0 0 0-.014-.35.754.754 0 0 0-.213-.33c-.041-.035-.076-.07-.103-.09l-.048-.05ZM50.368 82.278l.206-.224 2.415 1.767-.66.785-.255-.253.213-.596-.908-.659-.68.975.522.386.303-.225.364.175-.75.905-.343-.175.199-.435-.481-.35-.654.932.956.701.633-.315.254.238-.646.771-2.455-1.795.192-.224.468.126 1.451-2.061-.344-.449ZM52.528 87.67l.185-.26.489.057 1.293-2.153-.386-.357.172-.274 1.232.645-.07.59-.274 1.801 1.368-1.276.392-.365 1.21.638-.178.267-.46-.098-.998 2.334.371.358-.179.28-1.43-.757.185-.26.413.022.764-1.837-1.81 1.718-.536-.197.379-2.517-1.004 1.69.316.33-.193.273-1.251-.652ZM59.37 87.523l.145-.28 1.637.61-.144.294-.495-.028-.853 2.376.42.302-.145.301-1.616-.603.123-.273h.502l.846-2.37-.42-.33ZM62.727 88.862l-.46-.28.13-.295 1.685.407-.11.294-.482.035-.35 1.5c-.076.33-.055.59.062.786.117.196.31.323.57.393.248.056.454.028.626-.091.172-.12.296-.337.365-.653l.357-1.528-.44-.274.11-.301 1.417.344-.11.301-.474.035-.351 1.459c-.124.518-.337.876-.633 1.072-.296.197-.688.232-1.162.12a2.35 2.35 0 0 1-.674-.267 1.029 1.029 0 0 1-.434-.526c-.096-.238-.103-.547-.013-.925l.371-1.606ZM67.101 92.893l.069-.315.475-.14.364-2.496-.488-.176.055-.322 1.382.105.165.575.44 1.767.77-1.718.228-.49 1.361.104-.061.323-.461.091-.028 2.545.482.183-.055.329-1.61-.126.076-.316.392-.147v-1.998l-1.004 2.3-.564.035-.62-2.468-.281 1.956.412.175-.075.33-1.424-.106ZM77.885 92.9c-.35.05-.66.022-.928-.09a1.454 1.454 0 0 1-.654-.54 2.079 2.079 0 0 1-.323-.884 2.02 2.02 0 0 1 .096-.981c.117-.302.303-.547.564-.744.262-.196.578-.322.956-.378a1.84 1.84 0 0 1 .929.084c.268.105.488.28.66.533.172.245.282.56.33.925.041.274.02.54-.041.793-.069.252-.179.47-.344.666-.158.189-.358.336-.591.434.11.168.26.288.467.365.2.077.468.126.805.14v.147c0 .084 0 .133-.007.147a1.676 1.676 0 0 1-.605.204 1.237 1.237 0 0 1-.537-.035.882.882 0 0 1-.426-.28.996.996 0 0 1-.206-.527.598.598 0 0 0-.145.022Zm-.392-3.154c-.296.041-.495.175-.612.406-.117.231-.144.54-.09.926.035.238.104.462.207.68.11.217.254.392.447.532s.426.197.702.183a.961.961 0 0 0 .391-.344 1.02 1.02 0 0 0 .152-.455 2.787 2.787 0 0 0-.02-.575 2.479 2.479 0 0 0-.2-.68 1.495 1.495 0 0 0-.4-.533.725.725 0 0 0-.577-.14ZM81.083 89.184l-.536-.014-.028-.322 1.658-.491.048.315-.399.274.42 1.48c.089.322.233.546.433.658.192.112.426.127.688.05.24-.07.412-.204.502-.393.09-.19.096-.442.007-.75l-.427-1.515-.516-.014-.048-.315 1.403-.414.048.315-.398.274.398 1.444c.138.52.131.933-.034 1.255-.165.316-.482.547-.956.687a2.237 2.237 0 0 1-.715.106 1.076 1.076 0 0 1-.633-.239c-.2-.154-.35-.428-.454-.8l-.46-1.59ZM86.805 90.482l-.082-.288.296-.378-.138-3.113.564-.407 2.2 2.32.434.015.103.301-1.547.715-.083-.287.33-.393-.42-.442-1.01.463.055.617.543-.042.096.309-1.34.61Zm.605-1.957.75-.343-.86-.94.11 1.283ZM91.702 88.076l-.124-.273.29-.386-1.28-2.11-.53.084-.123-.288 1.506-.953.123.287-.323.442 1.314 2.167.846-.498-.02-.842.316-.14.447.968-2.442 1.542ZM93.662 83.007l-.158-.273 1.382-1.087.172.28-.289.414 1.52 2.005.475-.203.172.287-1.362 1.073-.165-.252.268-.435-1.513-1.991-.502.182ZM95.877 80.827l2.352-2.293.68.856-.316.224-.55-.379-.481.47 1.802 1.921.467-.28.193.266-1.266 1.234-.185-.238.234-.449-1.795-1.914-.468.456.365.666-.296.217-.736-.757ZM99.302 77.833l-.207-.252 1.005-1.27.213.246-.096.336 1.196.225-.467-1.129-.351.21-.22-.238.791-.996.213.246-.09.343.626 1.711.736.61.413-.26.213.218-1.045 1.311-.2-.217.131-.442-.695-.575-1.822-.287-.344.21Z" fill="#D7D7D7"/></svg>