<svg width="104" height="109" fill="none" xmlns="http://www.w3.org/2000/svg"><path d="M17.74 44.094c-.73-.33-1.59-.426-2.572-.29-.983.135-1.842.47-2.572 1.006a5.255 5.255 0 0 0-1.692 2.07c-.397.851-.599 1.813-.605 2.883 0 1.078.195 1.987.585 2.735.39.748.957 1.29 1.686 1.613.73.329 1.595.425 2.578.29.99-.135 1.843-.47 2.578-1.006a5.167 5.167 0 0 0 1.68-2.084c.39-.858.585-1.825.585-2.896 0-1.07-.188-1.98-.579-2.722a3.456 3.456 0 0 0-1.673-1.6Zm-.88 7.166c-.41.613-.983.967-1.705 1.064-.723.103-1.29-.097-1.693-.587s-.605-1.27-.605-2.335c0-1.058.208-1.883.618-2.477.41-.6.977-.948 1.7-1.051.722-.103 1.295.097 1.705.58.41.49.612 1.258.612 2.303-.013 1.064-.222 1.897-.632 2.503ZM28.91 48.422a1.262 1.262 0 0 0-.73-.303c.632-.304 1.127-.73 1.479-1.29.351-.555.52-1.181.527-1.878 0-1-.293-1.722-.879-2.18-.586-.451-1.465-.6-2.63-.438l-4.492.625-.02 10.34 2.514-.348.006-4.025.925-.13c.533-.077.872.072 1.015.44l1.243 3.263 2.702-.374-1.133-2.922c-.137-.335-.312-.593-.527-.78Zm-1.478-2.18c-.247.212-.638.36-1.178.432l-1.602.225.007-2.218 1.601-.226c.554-.078.95-.045 1.185.096.241.142.358.413.358.807 0 .374-.123.67-.37.883ZM37.067 47.228l1.68-.232-.007 1.916a6.166 6.166 0 0 1-1.276.322c-.912.13-1.589-.045-2.025-.516-.436-.47-.657-1.258-.657-2.36 0-1.065.215-1.884.638-2.465.423-.574 1.06-.922 1.92-1.044a3.916 3.916 0 0 1 1.321.025c.41.084.84.252 1.283.497l.807-2.045c-.39-.284-.892-.477-1.51-.587a6.112 6.112 0 0 0-1.973-.013c-1.015.142-1.9.478-2.662 1.02a5.445 5.445 0 0 0-1.77 2.09c-.417.857-.626 1.818-.632 2.883 0 1.096.202 2.012.618 2.754a3.52 3.52 0 0 0 1.784 1.587c.775.316 1.686.406 2.734.258a9.755 9.755 0 0 0 1.96-.478 8.734 8.734 0 0 0 1.731-.819l.007-5.186-3.978.555.007 1.838ZM46.695 39.546l-4.538 10.965 2.552-.355.86-2.25 4.29-.6.852 2.012 2.513-.348-4.518-9.708-2.011.284Zm-.3 6.199 1.322-3.451 1.308 3.083-2.63.368ZM56.837 42.603l4.374 5.257 1.888-.264.02-10.34-2.402.336-.013 5.837-4.375-5.224-1.855.258-.02 10.34 2.376-.336.007-5.864ZM68.099 36.566l-2.552.355-.02 10.34 2.552-.355.02-10.34ZM78.469 44.455l-.768-1.826c-.788.716-1.602 1.136-2.448 1.258-.781.11-1.374-.077-1.79-.548-.417-.477-.625-1.232-.619-2.277 0-1.039.209-1.845.632-2.432.416-.587 1.015-.935 1.79-1.038.84-.116 1.653.077 2.441.574l.781-2.038c-.358-.297-.84-.51-1.432-.633a5.494 5.494 0 0 0-1.842-.045c-1.003.142-1.881.484-2.63 1.026a5.391 5.391 0 0 0-1.725 2.096c-.404.858-.605 1.806-.612 2.851 0 1.058.202 1.954.599 2.703.403.748.976 1.29 1.718 1.625.743.336 1.621.432 2.624.297a6.328 6.328 0 0 0 1.842-.561c.599-.29 1.074-.632 1.439-1.032ZM29.34 57.155c-.606-.484-1.459-.645-2.565-.49l-4.603.638-.02 10.34 2.552-.355.007-4.038 2.05-.283c1.088-.149 1.94-.555 2.553-1.213.618-.658.924-1.464.924-2.425.013-.968-.293-1.69-.898-2.174Zm-2.91 3.825-1.712.239.006-2.206 1.712-.24c.495-.07.86-.025 1.094.136.228.155.345.42.345.787-.007.716-.482 1.148-1.445 1.284ZM38.89 61.38a1.262 1.262 0 0 0-.73-.303c.632-.304 1.127-.73 1.478-1.29.352-.555.527-1.18.527-1.884 0-.993-.293-1.722-.879-2.18-.585-.458-1.464-.6-2.63-.439l-4.491.626-.02 10.34 2.513-.349.006-4.025.925-.129c.534-.077.872.071 1.016.439l1.243 3.27 2.701-.374-1.132-2.922c-.137-.342-.313-.6-.528-.78Zm-1.478-2.187c-.248.213-.638.355-1.185.432l-1.601.226.006-2.219 1.601-.226c.554-.077.95-.045 1.185.097.241.142.358.413.358.806.007.381-.117.671-.364.884ZM49.63 53.995c-.729-.33-1.581-.426-2.57-.29-.99.135-1.843.47-2.579 1.006a5.255 5.255 0 0 0-1.692 2.07c-.404.851-.6 1.813-.606 2.883 0 1.077.196 1.987.586 2.735.39.748.957 1.29 1.686 1.613.73.329 1.595.425 2.578.29.99-.136 1.842-.471 2.571-1.006a5.166 5.166 0 0 0 1.68-2.084c.39-.858.586-1.825.592-2.896 0-1.07-.188-1.98-.58-2.722a3.416 3.416 0 0 0-1.666-1.6Zm-.878 7.172c-.417.613-.983.968-1.706 1.064-.722.104-1.289-.096-1.693-.587-.41-.49-.605-1.27-.605-2.334 0-1.058.208-1.884.619-2.477.41-.6.976-.949 1.699-1.052.722-.103 1.288.097 1.705.58.41.491.612 1.259.612 2.303-.013 1.058-.221 1.89-.631 2.503ZM60.775 52.543c-.774-.303-1.692-.38-2.76-.232l-3.951.548-.02 10.34 3.952-.548c1.074-.149 1.998-.484 2.78-1.007a5.17 5.17 0 0 0 1.776-2.032c.41-.838.612-1.793.619-2.863 0-1.065-.202-1.955-.612-2.67a3.452 3.452 0 0 0-1.784-1.536Zm-.84 6.915c-.468.56-1.171.91-2.115 1.038l-1.224.168.013-5.98 1.224-.167c1.875-.258 2.806.6 2.806 2.586 0 1.007-.235 1.787-.704 2.355ZM71.36 56.536c0 .735-.156 1.329-.469 1.767-.306.445-.748.71-1.315.787-.579.084-1.022-.058-1.334-.406-.313-.355-.462-.903-.462-1.651l.013-6.083-2.487.348-.013 5.98c0 1.47.358 2.535 1.08 3.199.723.658 1.79.89 3.203.69 1.387-.193 2.448-.729 3.184-1.6.742-.87 1.113-2.031 1.113-3.49l.013-5.978-2.513.348-.013 6.089ZM80.981 51.13c.84-.116 1.654.071 2.442.574l.78-2.038c-.357-.296-.839-.51-1.431-.632a5.33 5.33 0 0 0-1.843-.045c-1.002.142-1.88.484-2.63 1.026a5.439 5.439 0 0 0-1.725 2.096c-.403.858-.605 1.806-.612 2.85 0 1.059.202 1.955.6 2.703.403.749.976 1.29 1.718 1.626.748.335 1.62.438 2.623.297a6.328 6.328 0 0 0 1.843-.562c.592-.283 1.074-.625 1.432-1.025l-.768-1.826c-.788.716-1.602 1.136-2.448 1.258-.781.11-1.374-.077-1.79-.548-.417-.477-.625-1.232-.619-2.277 0-1.038.209-1.845.632-2.432.423-.587 1.015-.935 1.796-1.045ZM85.369 48.505v2.206l2.877-.4-.02 8.127 2.579-.354.02-8.134 2.876-.4.007-2.206-8.339 1.161ZM52.794 96.753c1.465-3.154 4.277-5.58 7.454-7.05 3.177-1.471 6.705-2.052 10.207-2.213-.228 4.219-.495 8.598-2.558 12.294-1.797 3.212-8.098 8.65-12.167 8.36a3.543 3.543 0 0 1-.364-.045 28.984 28.984 0 0 1 7.004-9.947c.423-.387.45-1.045.052-1.464a1.048 1.048 0 0 0-1.477-.051 30.975 30.975 0 0 0-7.454 10.539c-2.383-2.283-1.836-7.972-.697-10.423ZM45.731 92.889c2.539 2.806 5.84 10.507 4.323 14.081a3.31 3.31 0 0 1-.684 1.032c-3.73-3.361-6.594-7.721-8.15-12.462a1.05 1.05 0 0 0-1.322-.665 1.034 1.034 0 0 0-.67 1.31c1.582 4.805 4.413 9.249 8.105 12.765-3.002.413-7.35-1.8-9.127-3.509-2.585-2.483-4.056-5.921-4.498-9.334-.443-3.412.071-6.824.99-10.049 3.983 1.748 8.117 3.606 11.033 6.83Z" fill="#D7D7D7"/><path d="M80.91 93.94a1.942 1.942 0 0 1-1.575-.806 1.894 1.894 0 0 1 .462-2.664c6.158-4.322 11.275-10.088 14.79-16.687a47.465 47.465 0 0 0 5.553-22.266c0-12.739-5.006-24.717-14.1-33.727C76.945 8.779 64.857 3.818 52 3.818S27.055 8.778 17.96 17.79C8.866 26.8 3.86 38.778 3.86 51.517c0 7.76 1.92 15.455 5.553 22.266a48.29 48.29 0 0 0 14.79 16.687 1.902 1.902 0 0 1 .463 2.664 1.942 1.942 0 0 1-2.689.458C15.331 88.928 9.804 82.698 6.002 75.576A51.274 51.274 0 0 1 0 51.524c0-13.765 5.41-26.704 15.233-36.43C25.056 5.36 38.115 0 52 0c13.892 0 26.95 5.36 36.767 15.093C98.59 24.827 104 37.766 104 51.523a51.279 51.279 0 0 1-6.002 24.053c-3.802 7.122-9.322 13.352-15.975 18.016a1.941 1.941 0 0 1-1.113.348Z" fill="#D7D7D7"/><path d="M77.87 25.02c.475-.064.86.29.86.8s-.385.974-.86 1.038l-54.851 7.637c-.476.065-.86-.29-.86-.8 0-.509.384-.973.86-1.038l54.85-7.637ZM77.87 67.153c.475-.065.86.29.86.8 0 .509-.385.973-.86 1.038l-54.851 7.637c-.476.064-.86-.29-.86-.8s.384-.974.86-1.038l54.85-7.637Z" fill="#D7D7D7"/></svg>