<svg xmlns="http://www.w3.org/2000/svg" width="335" height="225" fill="none"><g clip-path="url(#a)"><path fill="#2F2E41" d="m266.872 99.572.994-7.99a10.8 10.8 0 0 1 4.071-7.181 10.744 10.744 0 0 1 15.105 1.889 10.81 10.81 0 0 1 2.186 7.963l-.994 7.991a1.447 1.447 0 0 1-1.614 1.259l-18.492-2.313a1.448 1.448 0 0 1-1.256-1.618Z"/><path fill="#FFB8B8" d="M275.73 101.957c4.358 0 7.892-3.543 7.892-7.912 0-4.37-3.534-7.912-7.892-7.912-4.358 0-7.892 3.542-7.892 7.912s3.534 7.912 7.892 7.912Z"/><path fill="#2F2E41" d="M265.26 91.904a8.553 8.553 0 0 1 3.222-5.677 8.51 8.51 0 0 1 6.281-1.737l1.594.2a8.52 8.52 0 0 1 5.663 3.23 8.563 8.563 0 0 1 1.732 6.297l-.02.16-3.369-.421-.747-3.37-.632 3.197-1.741-.217-.377-1.7-.318 1.613-11.308-1.415.02-.16Z"/><path fill="#FFB8B8" d="M237.133 122.268a3.645 3.645 0 0 0 2.424 1.897 3.63 3.63 0 0 0 3.008-.645l7.168 4.21 3.614-3.744-10.206-5.802a3.653 3.653 0 0 0-2.286-1.234 3.654 3.654 0 0 0-4.019 2.731c-.22.87-.115 1.79.297 2.587Z"/><path fill="#3F3D56" d="M260.625 129.832c-5.288 0-14.591-2.373-15.106-2.506l-.163-.042 1.464-7.432 14.211 2.814 7.72-10.899 8.863-.904-.248.327c-.115.152-11.54 15.23-13.318 17.76-.449.638-1.73.882-3.423.882Z"/><path fill="#3F3D56" d="m262.042 157.728-.212-.101c-.045-.022-4.537-2.212-6.863-6.489-2.316-4.256 8.524-22.31 9.282-23.563l.011-5.734 3.9-10.554 4.973-2.818-4.27 9.987-6.821 39.272Z"/><path fill="#FFB8B8" d="M257.06 219.353h-4.753l-2.261-18.38 7.015.001-.001 18.379Z"/><path fill="#2F2E41" d="m258.272 223.972-15.325-.001v-.194c0-1.586.629-3.107 1.747-4.229a5.96 5.96 0 0 1 4.218-1.751h9.36v6.175Z"/><path fill="#FFB8B8" d="m308.11 215.177-4.516 1.483-7.857-16.759 6.665-2.189 5.708 17.465Z"/><path fill="#2F2E41" d="m310.697 219.188-14.563 4.784-.061-.185a6 6 0 0 1 .347-4.564 5.97 5.97 0 0 1 3.464-2.981h.001l8.894-2.922 1.918 5.868ZM298.908 212.172l-13.549-22.677-11.437-24.228-10.293 21.402-4.088 27.718-14.339.199.057-.224 21.942-87.412 17.186 2.574-.783 11.373.466.664c3.882 5.529 7.896 11.246 5.594 17.408l6.526 19.428 14.447 32.35-11.729 1.425Z"/><path fill="#FF5300" d="M267.987 145.895c-2.491 0-5.332-2.851-3.858-7.717l-.095-.07 3.54-15.681c-3.09-4.43.984-8.086 1.366-8.412l1.944-3.509 8.579-5.455 4.341 36.158-.065.062c-3.135 3.007-13.664 4.624-15.752 4.624Z"/><path fill="#3F3D56" d="M285.556 154.054a4.26 4.26 0 0 1-1.013-.107c-.334-.084-.874-.51-1.709-3.235-3.318-10.831-7.236-43.422-4.39-46.612l.065-.073 4.674.781c.388-.287 2.427-1.714 4.308-1.466a2.854 2.854 0 0 1 1.954 1.158l.032.042 1.489 21.235 5.454 24.99-.131.06c-.317.144-7.128 3.227-10.733 3.227Z"/><path fill="#FFB8B8" d="M282.413 145.754a3.64 3.64 0 0 0 2.742-1.397 3.649 3.649 0 0 0 .692-3.005l6.842-4.724-1.85-4.868-9.568 6.807a3.663 3.663 0 0 0-2.613 4.102 3.67 3.67 0 0 0 1.293 2.258 3.645 3.645 0 0 0 2.462.827Z"/><path fill="#3F3D56" d="m290.431 140.414-6.094-4.481 8.566-11.71-6.573-11.63 2.941-8.431.19.363c.088.169 8.867 16.935 10.398 19.622 1.594 2.795-8.875 15.593-9.321 16.136l-.107.131Z"/><path fill="#E6E6E6" d="m153.357 193.121-5.187-2.189-3.558-26.066H97.233l-3.856 25.959-4.64 2.326a1.109 1.109 0 0 0-.58 1.242 1.102 1.102 0 0 0 1.072.851h63.7a1.1 1.1 0 0 0 1.08-.886 1.102 1.102 0 0 0-.652-1.237Z"/><path fill="#CCC" d="M237.552 168.334H4.813a4.605 4.605 0 0 1-3.254-1.358 4.628 4.628 0 0 1-1.347-3.265v-32.903h241.941v32.903a4.626 4.626 0 0 1-1.347 3.265 4.605 4.605 0 0 1-3.254 1.358Z"/><path fill="#3F3D56" d="M242.396 146.359H0V5.573a5.586 5.586 0 0 1 1.63-3.939A5.558 5.558 0 0 1 5.559 0h231.279a5.557 5.557 0 0 1 3.928 1.634 5.584 5.584 0 0 1 1.63 3.939v140.786Z"/><path fill="#fff" d="M227.919 136.14H14.477a4.284 4.284 0 0 1-3.028-1.259 4.309 4.309 0 0 1-1.257-3.037V14.514a4.307 4.307 0 0 1 1.257-3.036 4.284 4.284 0 0 1 3.028-1.26H227.92a4.286 4.286 0 0 1 3.029 1.26 4.307 4.307 0 0 1 1.256 3.036v117.33a4.309 4.309 0 0 1-1.256 3.037 4.286 4.286 0 0 1-3.029 1.259Z"/><path fill="#CCC" d="M181.058 195.516H61.122a.56.56 0 0 1-.547-.404.547.547 0 0 1 .525-.684h119.913a.58.58 0 0 1 .362.112.581.581 0 0 1 .213.314.55.55 0 0 1-.53.662Z"/><path fill="#F2F2F2" d="M225.64 29.187h-51.534v39.471h51.534V29.187Z"/><path fill="#fff" d="M223.08 31.148h-46.413v35.55h46.413v-35.55Z"/><path fill="#3F3D56" d="M200.688 57.517h.019a12.36 12.36 0 0 0 8.281-3.8 12.426 12.426 0 0 0 .19-16.978 12.362 12.362 0 0 0-8.195-3.984.282.282 0 0 0-.304.28l-.271 24.195a.282.282 0 0 0 .28.286Z"/><path fill="#E6E6E6" d="M190.983 36.756c.097.001.189.04.256.11l8.308 8.518a.356.356 0 0 1 .104.258l-.13 11.578a.358.358 0 0 1-.117.264.367.367 0 0 1-.274.095 12.435 12.435 0 0 1-6.399-2.355 12.483 12.483 0 0 1-4.204-5.38 12.519 12.519 0 0 1 2.179-12.964.369.369 0 0 1 .264-.123h.013Z"/><path fill="#FF5300" d="M199.432 32.656a.365.365 0 0 1 .36.369l-.117 10.446a.364.364 0 0 1-.622.25l-7.25-7.433a.36.36 0 0 1-.103-.268.369.369 0 0 1 .122-.26 12.467 12.467 0 0 1 7.61-3.104ZM195.697 62.534a2.228 2.228 0 0 1-2.681 2.155 2.22 2.22 0 0 1-1.726-1.77 2.23 2.23 0 0 1 .97-2.277 2.22 2.22 0 0 1 2.803.31c.412.422.64.991.634 1.582Z"/><path fill="#3F3D56" d="M202.047 62.605a2.228 2.228 0 0 1-2.681 2.156 2.22 2.22 0 0 1-1.726-1.77 2.23 2.23 0 0 1 2.209-2.638 2.224 2.224 0 0 1 2.198 2.252Z"/><path fill="#E6E6E6" d="M208.396 62.677a2.227 2.227 0 0 1-2.68 2.155 2.234 2.234 0 0 1-1.586-3.056 2.23 2.23 0 0 1 2.069-1.352 2.222 2.222 0 0 1 1.563.67c.412.423.64.992.634 1.583Z"/><path fill="#F2F2F2" d="M225.098 74.87h-51.535v39.472h51.535V74.871Z"/><path fill="#fff" d="M222.537 76.832h-46.413v35.549h46.413v-35.55Z"/><path fill="#3F3D56" d="M183.999 88.516a1.93 1.93 0 0 0 1.927-1.932 1.93 1.93 0 0 0-1.927-1.932 1.93 1.93 0 0 0-1.927 1.932 1.93 1.93 0 0 0 1.927 1.932ZM214.962 85.08a1.305 1.305 0 0 1 1.309 1.31 1.309 1.309 0 0 1-1.309 1.31h-20.268a1.306 1.306 0 0 1-1.307-1.31 1.313 1.313 0 0 1 1.307-1.31h20.268Zm0-.32h-20.268a1.627 1.627 0 0 0-1.629 1.63 1.633 1.633 0 0 0 1.006 1.508c.198.082.41.124.623.124h20.268a1.626 1.626 0 0 0 1.63-1.632 1.633 1.633 0 0 0-1.006-1.507 1.628 1.628 0 0 0-.624-.124Z"/><path fill="#FF5300" d="M206.965 88.022h-15.258a1.634 1.634 0 0 1-1.15-2.785 1.625 1.625 0 0 1 1.15-.478h15.258a1.634 1.634 0 0 1 1.15 2.785 1.625 1.625 0 0 1-1.15.478Z"/><path fill="#3F3D56" d="M183.999 96.538a1.93 1.93 0 0 0 1.927-1.932 1.93 1.93 0 0 0-1.927-1.932 1.93 1.93 0 0 0-1.927 1.932 1.93 1.93 0 0 0 1.927 1.932ZM214.962 93.103a1.305 1.305 0 0 1 1.21.808 1.31 1.31 0 0 1-1.21 1.813h-20.268a1.306 1.306 0 0 1-1.307-1.31 1.313 1.313 0 0 1 1.307-1.311h20.268Zm0-.321h-20.268a1.634 1.634 0 0 0-1.15 2.785c.305.305.719.477 1.15.477h20.268a1.625 1.625 0 0 0 1.627-1.63 1.625 1.625 0 0 0-1.627-1.631Z"/><path fill="#FF5300" d="M212.727 96.044h-21.02c-.431 0-.845-.171-1.15-.477a1.634 1.634 0 0 1 0-2.307 1.625 1.625 0 0 1 1.15-.478h21.02a1.634 1.634 0 0 1 1.15 2.785 1.625 1.625 0 0 1-1.15.477Z"/><path fill="#3F3D56" d="M183.999 104.561a1.93 1.93 0 0 0 1.927-1.932 1.93 1.93 0 0 0-1.927-1.932 1.93 1.93 0 0 0-1.927 1.932 1.93 1.93 0 0 0 1.927 1.932ZM214.962 101.126a1.294 1.294 0 0 1 1.21.808 1.31 1.31 0 0 1-1.21 1.812h-20.268a1.311 1.311 0 0 1 0-2.62h20.268Zm0-.321h-20.268a1.631 1.631 0 0 0 0 3.262h20.268a1.625 1.625 0 0 0 1.627-1.631 1.63 1.63 0 0 0-1.627-1.631Z"/><path fill="#FF5300" d="M200.243 104.067h-8.536a1.628 1.628 0 0 1-1.629-1.631 1.636 1.636 0 0 1 1.006-1.508c.198-.082.409-.124.623-.123h8.536a1.626 1.626 0 0 1 1.625 1.631 1.634 1.634 0 0 1-1.625 1.631Z"/><path fill="#F2F2F2" d="M162.172 36.17H18.193v73.978h143.979V36.17Z"/><path fill="#fff" d="M157.372 39.846H22.992v66.626h134.38V39.846Z"/><path fill="#3F3D56" d="M140.706 96.307h-97.96A.306.306 0 0 1 42.44 96V48.928a.308.308 0 0 1 .306-.308.306.306 0 0 1 .307.308v46.765h97.653a.305.305 0 0 1 .307.307.306.306 0 0 1-.307.307Z"/><path fill="#FF5300" d="M63.676 92.927h-8.91a.91.91 0 0 1-.91-.913V79.701a.915.915 0 0 1 .91-.913h8.91a.91.91 0 0 1 .91.913v12.313a.915.915 0 0 1-.91.913ZM79.924 92.927h-8.91a.91.91 0 0 1-.91-.913V68.021a.915.915 0 0 1 .91-.912h8.91a.91.91 0 0 1 .91.912v23.993a.915.915 0 0 1-.91.913ZM96.172 92.927h-8.91a.91.91 0 0 1-.91-.913V79.701a.915.915 0 0 1 .91-.913h8.91a.91.91 0 0 1 .91.913v12.313a.915.915 0 0 1-.91.913ZM112.421 92.927h-8.91a.891.891 0 0 1-.91-.872V63.37a.891.891 0 0 1 .91-.871h8.91a.894.894 0 0 1 .91.871v28.686a.894.894 0 0 1-.91.871ZM128.669 92.927h-8.91a.91.91 0 0 1-.91-.913V55.112a.912.912 0 0 1 .91-.912h8.91a.91.91 0 0 1 .91.912v36.902a.912.912 0 0 1-.91.913Z"/><path fill="#3F3D56" d="M59.221 75.1c1.016 0 1.84-.826 1.84-1.844a1.842 1.842 0 0 0-1.84-1.844c-1.016 0-1.84.825-1.84 1.844 0 1.018.824 1.844 1.84 1.844ZM75.47 63.113c1.015 0 1.839-.825 1.839-1.844a1.842 1.842 0 0 0-1.84-1.844c-1.016 0-1.84.826-1.84 1.844 0 1.019.824 1.844 1.84 1.844ZM91.718 75.1c1.016 0 1.839-.826 1.839-1.844a1.842 1.842 0 0 0-1.84-1.844c-1.015 0-1.839.825-1.839 1.844 0 1.018.824 1.844 1.84 1.844ZM107.966 57.273a1.841 1.841 0 0 0 1.839-1.844 1.841 1.841 0 0 0-1.839-1.844c-1.016 0-1.84.826-1.84 1.844 0 1.019.824 1.844 1.84 1.844ZM124.214 50.512c1.016 0 1.84-.826 1.84-1.845a1.842 1.842 0 0 0-1.84-1.844 1.841 1.841 0 0 0-1.839 1.844c0 1.019.823 1.845 1.839 1.845Z"/><path fill="#3F3D56" d="M91.756 73.669 75.47 61.439 59.405 73.502l-.368-.492L75.47 60.67l16.21 12.172 16.108-17.672.064-.026 16.248-6.563.23.57-16.184 6.537-16.389 17.98Z"/><path fill="#CCC" d="M334.645 225H199.23a.359.359 0 0 1-.252-.104.359.359 0 0 1 .252-.609h135.415a.355.355 0 0 1 .355.357.357.357 0 0 1-.355.356Z"/></g><defs><clipPath id="a"><path fill="#fff" d="M0 0h335v225H0z"/></clipPath></defs></svg>