<svg width="263" height="169" fill="none" xmlns="http://www.w3.org/2000/svg"><g opacity=".1"><path opacity=".1" d="M109.6 106.733c1.961 0 3.551-2.1 3.551-4.692 0-2.591-1.59-4.692-3.551-4.692s-3.551 2.1-3.551 4.692 1.59 4.692 3.551 4.692z" fill="#3F3D56"/><path opacity=".1" d="M112.411 81.965a5.704 5.704 0 0 0 .743-2.87c0-2.591-1.591-4.692-3.554-4.692-1.963 0-3.564 2.107-3.564 4.699a5.715 5.715 0 0 0 .743 2.869 5.9 5.9 0 0 0-.742 2.867 5.9 5.9 0 0 0 .742 2.868 5.9 5.9 0 0 0-.742 2.867 5.9 5.9 0 0 0 .742 2.868 5.693 5.693 0 0 0-.743 2.868c0 2.59 1.592 4.693 3.551 4.693 1.96 0 3.555-2.104 3.555-4.692a5.693 5.693 0 0 0-.743-2.87 5.9 5.9 0 0 0 .742-2.867 5.9 5.9 0 0 0-.742-2.867 5.9 5.9 0 0 0 .742-2.868 5.9 5.9 0 0 0-.742-2.867l.012-.006z" fill="#3F3D56"/><path opacity=".1" d="M109.6 78.06c1.961 0 3.551-2.101 3.551-4.693 0-2.591-1.59-4.692-3.551-4.692s-3.551 2.1-3.551 4.692 1.59 4.693 3.551 4.693z" fill="#3F3D56"/><path opacity=".1" d="M109.6 72.324c1.961 0 3.551-2.1 3.551-4.692s-1.59-4.693-3.551-4.693-3.551 2.101-3.551 4.693c0 2.591 1.59 4.692 3.551 4.692z" fill="#3F3D56"/><path opacity=".1" d="M96.307 28.383a16.715 16.715 0 0 1-1.323-1.965l9.33-1.546-10.091.075a17.333 17.333 0 0 1-.313-13.604l13.54 7.088-12.482-9.265a17.124 17.124 0 0 1 4.611-5.27 16.95 16.95 0 0 1 6.317-2.963 16.866 16.866 0 0 1 6.965-.16 16.927 16.927 0 0 1 6.444 2.669 17.098 17.098 0 0 1 4.845 5.052 17.277 17.277 0 0 1 2.432 6.588c.352 2.342.22 4.732-.387 7.02a17.242 17.242 0 0 1-3.143 6.275c.757.97 1.408 2.02 1.941 3.13l-12.116 6.368 12.915-4.374a17.32 17.32 0 0 1 .653 8.413 17.25 17.25 0 0 1-3.396 7.71 17.304 17.304 0 0 1 1.932 18.117 17.106 17.106 0 0 1-6.276 7.053 16.895 16.895 0 0 1-9.027 2.616c-3.193 0-6.321-.906-9.027-2.616a17.116 17.116 0 0 1-6.276-7.052 17.309 17.309 0 0 1-1.612-9.339 17.257 17.257 0 0 1 3.544-8.778 17.27 17.27 0 0 1-3.642-10.616c0-3.851 1.283-7.59 3.642-10.617v-.009z" fill="#FF5300"/><path opacity=".1" d="M126.691 39a17.19 17.19 0 0 1-3.642 10.615 17.304 17.304 0 0 1 1.932 18.117 17.11 17.11 0 0 1-6.275 7.052 16.9 16.9 0 0 1-9.028 2.617c-3.193 0-6.321-.907-9.027-2.617a17.115 17.115 0 0 1-6.276-7.052 17.31 17.31 0 0 1-1.612-9.338 17.256 17.256 0 0 1 3.544-8.779c-2.28-2.922 30.384-12.543 30.384-10.616z" fill="#000"/></g><g opacity=".1"><path opacity=".1" d="M151.232 95.055c1.467 0 2.656-1.57 2.656-3.505 0-1.936-1.189-3.505-2.656-3.505-1.466 0-2.655 1.57-2.655 3.505 0 1.936 1.189 3.505 2.655 3.505z" fill="#3F3D56"/><path opacity=".1" d="M153.329 76.55c.369-.652.56-1.39.553-2.141 0-1.937-1.189-3.509-2.653-3.509-1.463 0-2.655 1.575-2.655 3.509-.008.75.184 1.49.555 2.141a4.41 4.41 0 0 0 0 4.286 4.41 4.41 0 0 0 0 4.286 4.235 4.235 0 0 0-.555 2.142c0 1.937 1.189 3.508 2.655 3.508 1.467 0 2.653-1.574 2.653-3.508a4.267 4.267 0 0 0-.553-2.142 4.443 4.443 0 0 0 0-4.286 4.444 4.444 0 0 0 0-4.286z" fill="#3F3D56"/><path opacity=".1" d="M151.232 73.628c1.467 0 2.656-1.569 2.656-3.505s-1.189-3.505-2.656-3.505c-1.466 0-2.655 1.57-2.655 3.505 0 1.936 1.189 3.505 2.655 3.505z" fill="#3F3D56"/><path opacity=".1" d="M151.232 69.342c1.467 0 2.656-1.569 2.656-3.505s-1.189-3.505-2.656-3.505c-1.466 0-2.655 1.57-2.655 3.505 0 1.936 1.189 3.505 2.655 3.505z" fill="#3F3D56"/><path opacity=".1" d="M141.297 36.508a12.307 12.307 0 0 1-.989-1.468l6.974-1.155-7.542.056a12.975 12.975 0 0 1-.244-10.169l10.12 5.3-9.333-6.928a12.793 12.793 0 0 1 3.453-3.907 12.663 12.663 0 0 1 4.712-2.19 12.606 12.606 0 0 1 9.984 1.883c1.447.99 2.676 2.27 3.611 3.76a12.948 12.948 0 0 1 1.553 10.13 12.88 12.88 0 0 1-2.316 4.685c.565.725 1.051 1.51 1.451 2.34l-9.049 4.746 9.651-3.27c.678 2.023.846 4.183.488 6.287a12.89 12.89 0 0 1-2.538 5.763 12.93 12.93 0 0 1 1.452 13.541 12.788 12.788 0 0 1-4.689 5.273 12.628 12.628 0 0 1-6.748 1.956c-2.387 0-4.725-.678-6.748-1.956a12.79 12.79 0 0 1-4.69-5.273 12.94 12.94 0 0 1-1.201-6.981 12.896 12.896 0 0 1 2.653-6.56 12.91 12.91 0 0 1-2.721-7.933c0-2.878.959-5.672 2.721-7.933l-.015.003z" fill="#FF5300"/><path opacity=".1" d="M164.001 44.44a12.85 12.85 0 0 1-2.721 7.934 12.898 12.898 0 0 1 2.654 6.56 12.94 12.94 0 0 1-1.202 6.98 12.795 12.795 0 0 1-4.689 5.274 12.63 12.63 0 0 1-6.748 1.956c-2.387 0-4.725-.678-6.748-1.956a12.79 12.79 0 0 1-4.69-5.273 12.93 12.93 0 0 1 1.452-13.541c-1.71-2.183 22.692-9.372 22.692-7.933z" fill="#000"/></g><g opacity=".1"><path opacity=".1" d="M249.801 93.623c1.467 0 2.656-1.57 2.656-3.506 0-1.935-1.189-3.505-2.656-3.505-1.466 0-2.655 1.57-2.655 3.505 0 1.936 1.189 3.506 2.655 3.506z" fill="#3F3D56"/><path opacity=".1" d="M247.704 75.118a4.266 4.266 0 0 1-.552-2.141c0-1.937 1.189-3.508 2.652-3.508 1.464 0 2.656 1.574 2.656 3.508a4.235 4.235 0 0 1-.555 2.141 4.41 4.41 0 0 1 0 4.287 4.41 4.41 0 0 1 0 4.286c.371.65.563 1.39.555 2.141 0 1.937-1.189 3.509-2.656 3.509-1.466 0-2.652-1.575-2.652-3.509-.007-.75.183-1.49.552-2.141a4.443 4.443 0 0 1 0-4.286 4.442 4.442 0 0 1 0-4.287z" fill="#3F3D56"/><path opacity=".1" d="M249.801 72.196c1.467 0 2.656-1.57 2.656-3.505 0-1.936-1.189-3.505-2.656-3.505-1.466 0-2.655 1.569-2.655 3.505 0 1.935 1.189 3.505 2.655 3.505z" fill="#3F3D56"/><path opacity=".1" d="M249.801 67.91c1.467 0 2.656-1.57 2.656-3.505 0-1.936-1.189-3.506-2.656-3.506-1.466 0-2.655 1.57-2.655 3.505 0 1.936 1.189 3.506 2.655 3.506z" fill="#3F3D56"/><path opacity=".1" d="M259.737 35.075a12.3 12.3 0 0 0 .989-1.467l-6.974-1.156 7.542.057a12.958 12.958 0 0 0 .243-10.169l-10.119 5.3 9.333-6.928a12.794 12.794 0 0 0-3.453-3.907 12.665 12.665 0 0 0-4.712-2.19 12.606 12.606 0 0 0-5.187-.109 12.655 12.655 0 0 0-4.798 1.992 12.792 12.792 0 0 0-3.61 3.759 12.93 12.93 0 0 0 .763 14.815 12.933 12.933 0 0 0-1.451 2.34l9.049 4.746-9.633-3.266a12.96 12.96 0 0 0-.488 6.287 12.9 12.9 0 0 0 2.538 5.762 12.93 12.93 0 0 0-1.452 13.541 12.79 12.79 0 0 0 4.69 5.273 12.625 12.625 0 0 0 6.748 1.957c2.386 0 4.725-.678 6.747-1.957a12.79 12.79 0 0 0 4.69-5.273 12.93 12.93 0 0 0-1.452-13.54 12.905 12.905 0 0 0 2.721-7.934c0-2.877-.958-5.671-2.721-7.933h-.003z" fill="#FF5300"/><path opacity=".1" d="M237.033 43.008a12.844 12.844 0 0 0 2.721 7.933 12.93 12.93 0 0 0-1.452 13.541 12.788 12.788 0 0 0 4.689 5.273 12.628 12.628 0 0 0 6.748 1.957c2.387 0 4.725-.678 6.748-1.957a12.797 12.797 0 0 0 4.69-5.273 12.94 12.94 0 0 0 1.201-6.98 12.89 12.89 0 0 0-2.654-6.56c1.71-2.183-22.691-9.373-22.691-7.934z" fill="#000"/></g><g opacity=".1"><path opacity=".1" d="M13.497 93.623c1.466 0 2.655-1.57 2.655-3.506 0-1.935-1.189-3.505-2.655-3.505-1.467 0-2.656 1.57-2.656 3.505 0 1.936 1.19 3.506 2.656 3.506z" fill="#3F3D56"/><path opacity=".1" d="M15.597 75.118c.369-.651.56-1.39.552-2.141 0-1.937-1.186-3.508-2.652-3.508-1.467 0-2.656 1.574-2.656 3.508a4.26 4.26 0 0 0 .556 2.141 4.41 4.41 0 0 0 0 4.287 4.41 4.41 0 0 0 0 4.286 4.26 4.26 0 0 0-.556 2.141c0 1.937 1.19 3.509 2.656 3.509 1.466 0 2.652-1.575 2.652-3.509a4.26 4.26 0 0 0-.552-2.141 4.441 4.441 0 0 0 0-4.286 4.44 4.44 0 0 0 0-4.287z" fill="#3F3D56"/><path opacity=".1" d="M13.497 72.196c1.466 0 2.655-1.57 2.655-3.505 0-1.936-1.189-3.505-2.655-3.505-1.467 0-2.656 1.569-2.656 3.505 0 1.935 1.19 3.505 2.656 3.505z" fill="#3F3D56"/><path opacity=".1" d="M13.497 67.91c1.466 0 2.655-1.57 2.655-3.505 0-1.936-1.189-3.506-2.655-3.506-1.467 0-2.656 1.57-2.656 3.505 0 1.936 1.19 3.506 2.656 3.506z" fill="#3F3D56"/><path opacity=".1" d="M3.561 35.075a12.662 12.662 0 0 1-.989-1.467l6.974-1.156-7.542.057a12.96 12.96 0 0 1-.243-10.17l10.12 5.3-9.334-6.927A12.795 12.795 0 0 1 6 16.805a12.663 12.663 0 0 1 4.712-2.19 12.603 12.603 0 0 1 5.187-.109 12.652 12.652 0 0 1 4.798 1.992 12.78 12.78 0 0 1 3.61 3.759 12.907 12.907 0 0 1 1.823 4.902 12.95 12.95 0 0 1-.27 5.228 12.88 12.88 0 0 1-2.316 4.685 12.658 12.658 0 0 1 1.452 2.34l-9.05 4.746 9.652-3.269a12.95 12.95 0 0 1 .487 6.287 12.896 12.896 0 0 1-2.537 5.762A12.934 12.934 0 0 1 25 64.48a12.791 12.791 0 0 1-4.69 5.273 12.627 12.627 0 0 1-6.748 1.957c-2.386 0-4.725-.678-6.748-1.957a12.79 12.79 0 0 1-4.69-5.273 12.934 12.934 0 0 1 1.453-13.54 12.906 12.906 0 0 1-2.721-7.934c0-2.877.958-5.671 2.72-7.933l-.015.003z" fill="#FF5300"/><path opacity=".1" d="M26.265 43.008a12.85 12.85 0 0 1-2.72 7.933 12.934 12.934 0 0 1 1.452 13.541 12.79 12.79 0 0 1-4.69 5.273 12.627 12.627 0 0 1-6.748 1.957c-2.386 0-4.725-.678-6.748-1.957a12.79 12.79 0 0 1-4.69-5.273 12.934 12.934 0 0 1 1.453-13.54c-1.717-2.183 22.691-9.373 22.691-7.934z" fill="#000"/></g><path opacity=".1" d="M128.096 146.294c70.385 0 127.444-1.307 127.444-2.92 0-1.612-57.059-2.919-127.444-2.919S.653 141.762.653 143.374c0 1.613 57.058 2.92 127.443 2.92zM128.096 169c70.385 0 127.444-1.307 127.444-2.92 0-1.612-57.059-2.919-127.444-2.919S.653 164.468.653 166.08c0 1.613 57.058 2.92 127.443 2.92zM128.096 98.287c70.385 0 127.444-1.307 127.444-2.92 0-1.612-57.059-2.919-127.444-2.919S.653 93.755.653 95.368c0 1.612 57.058 2.919 127.443 2.919zM128.096 122.29c70.385 0 127.444-1.307 127.444-2.919 0-1.613-57.059-2.92-127.444-2.92S.653 117.758.653 119.371c0 1.612 57.058 2.919 127.443 2.919zM212.378 22.759a5.663 5.663 0 0 0-3.308.365 4.845 4.845 0 0 1-3.975 0 5.536 5.536 0 0 0-4.681.091 2.861 2.861 0 0 1-1.345.34c-1.897 0-3.473-1.927-3.8-4.468.373-.281.69-.63.936-1.03 1.111-1.808 2.83-2.97 4.765-2.97 1.934 0 3.632 1.146 4.743 2.935.33.54.794.985 1.346 1.291a3.62 3.62 0 0 0 1.802.454h.05c1.526-.016 2.833 1.206 3.467 2.992z" fill="#FF5300"/><path opacity=".1" d="M218.154 14.775l-3.065 1.959 1.873-3.414a3.012 3.012 0 0 0-1.854-.665h-.05a3.514 3.514 0 0 1-.624-.047l-1.055.665.447-.82a3.682 3.682 0 0 1-1.82-1.391l-1.872 1.19 1.173-2.154c-1.085-1.316-2.552-2.122-4.162-2.122-1.935 0-3.654 1.159-4.768 2.966a3.58 3.58 0 0 1-1.346 1.285c-.553.3-1.175.448-1.803.428h-.103c-2.134 0-3.863 2.441-3.863 5.452 0 3.01 1.729 5.454 3.863 5.454.469-.003.93-.12 1.345-.34a5.534 5.534 0 0 1 4.681-.094 4.813 4.813 0 0 0 3.975 0 5.554 5.554 0 0 1 4.637.091c.411.217.866.331 1.33.334 2.134 0 3.863-2.444 3.863-5.455a6.957 6.957 0 0 0-.802-3.322zM82.09 21.054a3.974 3.974 0 0 0-2.318.255 3.38 3.38 0 0 1-2.78 0 3.863 3.863 0 0 0-3.274.066c-.289.152-.61.233-.936.236-1.326 0-2.43-1.347-2.662-3.127.265-.196.49-.44.665-.72.777-1.26 1.981-2.08 3.336-2.08 1.354 0 2.543.804 3.32 2.054.232.378.557.69.944.904.386.214.821.323 1.262.318h.034c1.049-.007 1.963.85 2.41 2.094z" fill="#FF5300"/><path opacity=".1" d="M86.131 15.47l-2.144 1.374 1.302-2.39a2.095 2.095 0 0 0-1.295-.467h-.038a2.324 2.324 0 0 1-.443-.034l-.727.466.312-.573a2.593 2.593 0 0 1-1.273-.973l-1.301.83.824-1.504a3.82 3.82 0 0 0-1.291-1.076 3.782 3.782 0 0 0-1.624-.414c-1.354 0-2.559.813-3.336 2.079-.23.378-.555.688-.943.9-.387.21-.823.313-1.263.3h-.072c-1.494 0-2.705 1.706-2.705 3.816s1.21 3.817 2.705 3.817c.327-.002.648-.084.937-.24a3.87 3.87 0 0 1 3.27-.062c.44.202.917.31 1.4.315.477-.001.948-.102 1.383-.296a3.881 3.881 0 0 1 3.246.063c.288.152.61.232.936.233 1.491 0 2.702-1.71 2.702-3.817a4.864 4.864 0 0 0-.562-2.346zM44.124 45.747a3.967 3.967 0 0 1 2.315.255 3.388 3.388 0 0 0 2.784 0 3.877 3.877 0 0 1 3.273.063c.288.156.61.238.936.24 1.326 0 2.43-1.351 2.659-3.13a2.56 2.56 0 0 1-.662-.722c-.78-1.26-1.985-2.075-3.336-2.075-1.35 0-2.543.8-3.323 2.053-.232.378-.556.69-.942.904-.386.213-.82.323-1.26.318h-.035c-1.052.006-1.97.86-2.41 2.094z" fill="#FF5300"/><path opacity=".1" d="M40.08 40.173l2.147 1.374-1.305-2.387a2.107 2.107 0 0 1 1.298-.47h.035c.149.002.298-.008.446-.031l.727.463-.312-.57a2.59 2.59 0 0 0 1.27-.973l1.301.831-.811-1.508c.346-.451.787-.818 1.291-1.075a3.78 3.78 0 0 1 1.623-.412c1.352 0 2.56.813 3.336 2.078.23.379.555.689.942.9.387.21.822.314 1.261.3h.075c1.492 0 2.702 1.71 2.702 3.817s-1.21 3.817-2.702 3.817a2.01 2.01 0 0 1-.936-.236 3.865 3.865 0 0 0-3.274-.066 3.364 3.364 0 0 1-1.397.315c-.478 0-.95-.102-1.386-.296a3.878 3.878 0 0 0-3.242.063c-.289.153-.61.232-.936.233-1.495 0-2.706-1.707-2.706-3.817a4.899 4.899 0 0 1 .553-2.35z" fill="#FF5300"/><path d="M167.294 142.396c.814-1.525-.109-3.389-1.17-4.746-1.061-1.358-2.359-2.772-2.331-4.501.04-2.484 2.655-3.955 4.743-5.272a23.188 23.188 0 0 0 4.259-3.464 6.331 6.331 0 0 0 1.308-1.77c.433-.97.421-2.078.393-3.149-.09-3.546-.263-7.09-.521-10.632" stroke="#3F3D56" stroke-width="4" stroke-miterlimit="10"/><path d="M177.947 108.686a3.901 3.901 0 0 0-.557-1.836 3.856 3.856 0 0 0-1.362-1.342l-.861 1.717.028-2.079a3.806 3.806 0 0 0-2.382.07 3.844 3.844 0 0 0-1.882 1.473 3.905 3.905 0 0 0 .157 4.569 3.84 3.84 0 0 0 1.979 1.338 3.811 3.811 0 0 0 2.381-.097 3.853 3.853 0 0 0 1.866-1.495 3.903 3.903 0 0 0 .633-2.318zM171.094 134.926a3.849 3.849 0 0 1-1.773 1.73 3.806 3.806 0 0 1-2.45.286 3.83 3.83 0 0 1-2.117-1.277 3.895 3.895 0 0 1-.662-3.889 3.88 3.88 0 0 1 1.422-1.798 3.818 3.818 0 0 1 4.354.025 3.87 3.87 0 0 1 1.401 1.814l-2.399 1.972 2.639-.63a3.871 3.871 0 0 1-.415 1.767zM169.197 127.399a3.814 3.814 0 0 1-2.601-.863 3.884 3.884 0 0 1-1.372-2.392 3.91 3.91 0 0 1 .556-2.706 3.848 3.848 0 0 1 2.2-1.645l-.022 1.597.871-1.738a3.825 3.825 0 0 1 2.767 1.006 3.898 3.898 0 0 1 .253 5.478 3.825 3.825 0 0 1-2.661 1.263h.009zM178.524 121.134a3.834 3.834 0 0 1-3.148-1.389 3.894 3.894 0 0 1-.788-3.375 3.89 3.89 0 0 1 .79-1.593 3.833 3.833 0 0 1 3.15-1.386 3.824 3.824 0 0 1 1.694.5l-.677 1.889 1.382-1.379c.559.517.954 1.19 1.135 1.934a3.911 3.911 0 0 1-.119 2.244 3.871 3.871 0 0 1-1.333 1.8c-.61.454-1.34.716-2.098.752l.012.003z" fill="#FF5300"/><path opacity=".1" d="M177.429 109.719c-.886.097-1.747.374-2.64.431-.892.057-1.872-.16-2.428-.856a12.68 12.68 0 0 1-.711-1.26 2.757 2.757 0 0 0-.967-.92 3.904 3.904 0 0 0 .755 4.554 3.827 3.827 0 0 0 2.987 1.072 3.844 3.844 0 0 0 2.768-1.558 3.9 3.9 0 0 0 .667-1.492 4.873 4.873 0 0 0-.431.029zM178.524 121.135a3.826 3.826 0 0 1-3.377-1.722 3.906 3.906 0 0 1-.277-3.809c.305.208.566.473.771.781.229.442.484.87.761 1.282.599.709 1.623.945 2.55.898.926-.047 1.822-.315 2.746-.394.128 0 .256-.019.387-.022a3.88 3.88 0 0 1-1.285 2.095 3.822 3.822 0 0 1-2.276.891zM169.197 127.398a3.81 3.81 0 0 1-1.895-.404 3.851 3.851 0 0 1-1.459-1.285 3.905 3.905 0 0 1-.331-3.769c.317.211.593.478.815.788.251.452.529.888.833 1.307.646.727 1.738.985 2.718.944.979-.04 1.872-.255 2.808-.314a3.884 3.884 0 0 1-1.317 1.922 3.826 3.826 0 0 1-2.172.811zM171.094 134.925a3.849 3.849 0 0 1-1.773 1.73 3.806 3.806 0 0 1-2.45.286 3.83 3.83 0 0 1-2.117-1.277 3.895 3.895 0 0 1-.662-3.889c.317.21.601.466.843.759.365.448.605.945 1.029 1.377.784.777 2.054 1.099 3.18 1.127.652.002 1.303-.036 1.95-.113z" fill="#000"/><path d="M10.607 119.721c.815-1.525-.109-3.389-1.17-4.746-1.06-1.358-2.359-2.778-2.33-4.5.04-2.485 2.655-3.956 4.742-5.272a23.196 23.196 0 0 0 4.26-3.465 6.331 6.331 0 0 0 1.307-1.77c.434-.97.421-2.078.393-3.149a230.04 230.04 0 0 0-.52-10.632" stroke="#3F3D56" stroke-width="4" stroke-miterlimit="10"/><path d="M21.26 86.011a3.903 3.903 0 0 0-.557-1.836 3.858 3.858 0 0 0-1.362-1.341l-.86 1.716.027-2.079a3.807 3.807 0 0 0-2.381.07 3.846 3.846 0 0 0-1.883 1.473 3.903 3.903 0 0 0 .157 4.57 3.84 3.84 0 0 0 1.98 1.337 3.808 3.808 0 0 0 2.38-.097 3.847 3.847 0 0 0 1.866-1.495c.45-.685.671-1.497.633-2.318zM14.408 112.251a3.86 3.86 0 0 1-1.773 1.731 3.808 3.808 0 0 1-2.45.285 3.834 3.834 0 0 1-2.118-1.277 3.898 3.898 0 0 1-.91-2.314 3.807 3.807 0 0 1 .249-1.574 3.877 3.877 0 0 1 1.421-1.799 3.819 3.819 0 0 1 4.354.025 3.879 3.879 0 0 1 1.402 1.814l-2.4 1.972 2.64-.63c.003.614-.14 1.22-.415 1.767zM12.51 104.724a3.818 3.818 0 0 1-2.6-.862 3.906 3.906 0 0 1-.816-5.098 3.844 3.844 0 0 1 2.2-1.645l-.022 1.596.87-1.738a3.81 3.81 0 0 1 2.767 1.006 3.906 3.906 0 0 1 .254 5.478 3.811 3.811 0 0 1-2.661 1.263h.009zM21.838 98.46a3.809 3.809 0 0 1-1.737-.32 3.844 3.844 0 0 1-1.412-1.069 3.891 3.891 0 0 1-.788-3.375 3.89 3.89 0 0 1 .79-1.593 3.844 3.844 0 0 1 1.413-1.068 3.811 3.811 0 0 1 3.431.182l-.677 1.89 1.383-1.38a3.91 3.91 0 0 1 1.016 4.178 3.874 3.874 0 0 1-1.333 1.8 3.82 3.82 0 0 1-2.099.752l.013.003z" fill="#FF5300"/><path opacity=".1" d="M20.742 87.044c-.886.097-1.747.375-2.64.431-.892.057-1.872-.16-2.427-.856a12.438 12.438 0 0 1-.712-1.26 2.744 2.744 0 0 0-.967-.92 3.904 3.904 0 0 0 .755 4.554 3.81 3.81 0 0 0 4.537.594 3.85 3.85 0 0 0 1.218-1.08c.325-.444.552-.952.667-1.491a4.98 4.98 0 0 0-.43.028zM21.838 98.46a3.812 3.812 0 0 1-1.914-.412 3.854 3.854 0 0 1-1.464-1.31 3.9 3.9 0 0 1-.276-3.808c.304.207.566.472.77.78.23.442.484.87.762 1.283.599.708 1.622.944 2.55.897.926-.047 1.822-.315 2.745-.394.128 0 .256-.019.387-.022a3.882 3.882 0 0 1-1.285 2.095 3.821 3.821 0 0 1-2.275.89zM12.51 104.724a3.82 3.82 0 0 1-3.353-1.689 3.899 3.899 0 0 1-.331-3.768c.316.21.592.477.814.787.252.452.53.888.833 1.307.646.727 1.738.986 2.718.945.98-.041 1.872-.255 2.808-.315a3.883 3.883 0 0 1-1.317 1.922 3.827 3.827 0 0 1-2.171.811zM14.408 112.251a3.86 3.86 0 0 1-1.773 1.731 3.808 3.808 0 0 1-2.45.285 3.834 3.834 0 0 1-2.118-1.277 3.895 3.895 0 0 1-.661-3.888c.316.209.6.465.842.759.365.447.606.944 1.03 1.376.783.778 2.053 1.099 3.18 1.127.652.002 1.303-.036 1.95-.113z" fill="#000"/><path d="M103.702 93.78c-.814-1.521.11-3.386 1.174-4.743 1.064-1.357 2.356-2.771 2.327-4.5-.037-2.488-2.652-3.956-4.743-5.272a23.154 23.154 0 0 1-4.256-3.464 6.225 6.225 0 0 1-1.31-1.767c-.431-.973-.419-2.078-.394-3.15.094-3.545.268-7.09.521-10.631" stroke="#3F3D56" stroke-width="4" stroke-miterlimit="10"/><path d="M93.052 60.074a3.9 3.9 0 0 1 .556-1.837 3.856 3.856 0 0 1 1.36-1.341l.862 1.716-.025-2.078a3.82 3.82 0 0 1 3.365.598 3.875 3.875 0 0 1 1.333 1.804 3.905 3.905 0 0 1-1.026 4.181 3.81 3.81 0 0 1-4.22.644 3.854 3.854 0 0 1-1.656-1.506 3.905 3.905 0 0 1-.549-2.181zM99.902 86.313a3.853 3.853 0 0 0 1.869 1.777 3.81 3.81 0 0 0 2.561.191 3.843 3.843 0 0 0 2.108-1.48 3.902 3.902 0 0 0-.288-4.876 3.811 3.811 0 0 0-4.787-.72 3.866 3.866 0 0 0-1.647 1.987l2.399 1.972-2.64-.63c-.002.619.144 1.229.425 1.78zM101.799 78.787c.943.046 1.87-.26 2.603-.86a3.902 3.902 0 0 0 .818-5.1 3.843 3.843 0 0 0-2.201-1.645l.019 1.596-.871-1.738a3.82 3.82 0 0 0-2.768 1 3.891 3.891 0 0 0-1.092 4.004c.23.765.69 1.44 1.315 1.93a3.818 3.818 0 0 0 2.177.813zM92.475 72.517a3.81 3.81 0 0 0 1.736-.32 3.845 3.845 0 0 0 1.41-1.07 3.892 3.892 0 0 0 .787-3.376 3.891 3.891 0 0 0-.79-1.592 3.845 3.845 0 0 0-1.413-1.068 3.811 3.811 0 0 0-3.43.183l.68 1.89-1.398-1.352a3.874 3.874 0 0 0-1.248 2.677c-.019.359.014.718.096 1.068.196.817.65 1.549 1.294 2.083a3.818 3.818 0 0 0 2.276.877z" fill="#FF5300"/><path opacity=".1" d="M93.57 61.106c.887.098 1.748.375 2.637.432.89.056 1.872-.16 2.43-.857.261-.405.498-.826.71-1.26.243-.382.576-.698.97-.919a3.908 3.908 0 0 1-.755 4.556 3.835 3.835 0 0 1-1.38.862 3.807 3.807 0 0 1-3.16-.27 3.854 3.854 0 0 1-1.217-1.082 3.894 3.894 0 0 1-.665-1.493c.14.003.284.016.43.031zM92.475 72.516c.662.031 1.32-.111 1.912-.413a3.856 3.856 0 0 0 1.463-1.31 3.904 3.904 0 0 0 .28-3.807 2.87 2.87 0 0 0-.775.781c-.23.442-.483.87-.761 1.282-.596.709-1.62.945-2.546.898-.927-.048-1.823-.315-2.746-.394-.128 0-.26-.019-.387-.022.19.82.641 1.556 1.284 2.095a3.818 3.818 0 0 0 2.276.89zM101.799 78.787a3.805 3.805 0 0 0 1.896-.402 3.84 3.84 0 0 0 1.46-1.286 3.899 3.899 0 0 0 .329-3.77c-.316.21-.591.477-.811.787-.252.453-.53.889-.833 1.307-.649.728-1.738.986-2.721.945-.983-.04-1.873-.255-2.809-.315a3.875 3.875 0 0 0 1.316 1.924c.624.49 1.383.772 2.173.81zM99.902 86.313a3.853 3.853 0 0 0 2.141 1.874 3.81 3.81 0 0 0 2.832-.117 3.864 3.864 0 0 0 1.981-2.046 3.912 3.912 0 0 0 .051-2.86 3.68 3.68 0 0 0-.842.759c-.365.447-.624.945-1.03 1.376-.786.778-2.053 1.1-3.183 1.128-.652 0-1.303-.038-1.95-.114z" fill="#000"/><path d="M203.31 94.49c17.227 0 31.192-14.095 31.192-31.48 0-17.387-13.965-31.48-31.192-31.48s-31.192 14.093-31.192 31.48c0 17.385 13.965 31.48 31.192 31.48z" fill="#3F3D56"/><path d="M216.7 71.127c-1.086-1.096-3.698-2.749-4.993-3.366-1.495-.724-2.044-.712-3.102.06-.88.63-1.451 1.237-2.462 1.014-1.011-.224-3.014-1.748-4.952-3.697-1.938-1.95-3.442-3.96-3.657-4.995-.215-1.036.378-1.6 1.008-2.488.761-1.068.783-1.622.059-3.13-.624-1.307-2.243-3.937-3.339-5.04-1.095-1.102-1.332-.859-1.931-.63a11.15 11.15 0 0 0-1.77.946c-1.085.733-1.694 1.344-2.121 2.264-.428.92-.912 2.627 1.575 7.095a39.564 39.564 0 0 0 6.897 9.281 39.3 39.3 0 0 0 9.227 6.973c4.425 2.519 6.119 2.018 7.03 1.59.911-.428 1.517-1.036 2.241-2.142.365-.565.678-1.163.936-1.785.206-.605.449-.85-.646-1.95z" fill="#FF5300"/><path opacity=".1" d="M203.31 31.532a31.002 31.002 0 0 0-17.342 5.301 31.434 31.434 0 0 0-11.5 14.133 31.756 31.756 0 0 0-1.779 18.199 31.578 31.578 0 0 0 8.54 16.128 31.12 31.12 0 0 0 15.981 8.62 30.942 30.942 0 0 0 18.033-1.796 31.267 31.267 0 0 0 14.003-11.606 31.698 31.698 0 0 0 5.253-17.502c-.005-8.347-3.292-16.35-9.14-22.253a31.06 31.06 0 0 0-22.049-9.224zm0 58.772c-5.349 0-10.578-1.601-15.025-4.6a27.24 27.24 0 0 1-9.961-12.25 27.525 27.525 0 0 1-1.539-15.77 27.37 27.37 0 0 1 7.401-13.975 26.97 26.97 0 0 1 13.848-7.47 26.812 26.812 0 0 1 15.625 1.553 27.103 27.103 0 0 1 12.138 10.053 27.517 27.517 0 0 1 2.499 25.61 27.302 27.302 0 0 1-5.863 8.854 27.019 27.019 0 0 1-8.774 5.917 26.83 26.83 0 0 1-10.349 2.078z" fill="#000"/><path d="M131.649 142.304c17.227 0 31.192-14.094 31.192-31.48 0-17.386-13.965-31.48-31.192-31.48s-31.192 14.094-31.192 31.48c0 17.386 13.965 31.48 31.192 31.48z" fill="#3F3D56"/><path d="M149.389 101.313l-9.34 9.589a.18.18 0 0 0-.052.123.171.171 0 0 0 .052.123l6.553 7.032a1.151 1.151 0 0 1 .242 1.239 1.14 1.14 0 0 1-.413.51 1.117 1.117 0 0 1-1.423-.139l-6.519-7.008a.178.178 0 0 0-.25 0l-1.588 1.619a6.935 6.935 0 0 1-4.993 2.12 7.091 7.091 0 0 1-5.08-2.18l-1.526-1.574a.177.177 0 0 0-.124-.052.177.177 0 0 0-.125.052l-6.503 6.991a1.122 1.122 0 0 1-1.84-.369 1.142 1.142 0 0 1 .245-1.24l6.528-7.017a.19.19 0 0 0 0-.245l-9.339-9.59a.178.178 0 0 0-.088-.048.18.18 0 0 0-.1.01.178.178 0 0 0-.077.064.178.178 0 0 0-.029.097v19.188c.003.742.296 1.453.816 1.977a2.764 2.764 0 0 0 1.958.823h30.54a2.768 2.768 0 0 0 1.959-.823c.52-.524.813-1.235.815-1.977v-19.172a.17.17 0 0 0-.107-.168.165.165 0 0 0-.192.045z" fill="#FF5300"/><path d="M131.649 114.244a4.72 4.72 0 0 0 3.408-1.417l13.602-13.974a2.702 2.702 0 0 0-1.717-.63h-30.561a2.68 2.68 0 0 0-1.716.63l13.605 13.974a4.698 4.698 0 0 0 3.379 1.417z" fill="#FF5300"/><path opacity=".1" d="M131.256 79.347a31.001 31.001 0 0 0-17.342 5.3 31.433 31.433 0 0 0-11.5 14.133 31.757 31.757 0 0 0-1.779 18.199 31.576 31.576 0 0 0 8.54 16.129 31.116 31.116 0 0 0 15.981 8.619 30.935 30.935 0 0 0 18.033-1.796 31.264 31.264 0 0 0 14.003-11.605 31.702 31.702 0 0 0 5.253-17.503c-.005-8.346-3.292-16.35-9.14-22.252a31.06 31.06 0 0 0-22.049-9.224zm0 58.771a26.868 26.868 0 0 1-15.025-4.6 27.24 27.24 0 0 1-9.961-12.249 27.525 27.525 0 0 1-1.539-15.77 27.37 27.37 0 0 1 7.401-13.976 26.971 26.971 0 0 1 13.848-7.47 26.812 26.812 0 0 1 15.625 1.554 27.101 27.101 0 0 1 12.138 10.052 27.472 27.472 0 0 1 4.558 15.164c0 7.239-2.85 14.182-7.922 19.301a26.92 26.92 0 0 1-19.123 7.994z" fill="#000"/><path d="M57.623 118.795c17.227 0 31.192-14.094 31.192-31.48 0-17.386-13.965-31.48-31.192-31.48s-31.192 14.094-31.192 31.48c0 17.386 13.965 31.48 31.192 31.48z" fill="#3F3D56"/><path d="M57.623 72.252l-12.435 28.954 1.16 1.172 11.278-5.02 11.277 5.02 1.161-1.172-12.441-28.954z" fill="#FF5300"/><path opacity=".1" d="M57.623 55.825a31 31 0 0 0-17.34 5.3 31.432 31.432 0 0 0-11.5 14.13A31.763 31.763 0 0 0 27 93.452a31.585 31.585 0 0 0 8.537 16.129 31.12 31.12 0 0 0 15.977 8.623 30.936 30.936 0 0 0 18.031-1.79 31.267 31.267 0 0 0 14.007-11.598 31.702 31.702 0 0 0 5.26-17.498c0-8.35-3.286-16.358-9.134-22.263a31.06 31.06 0 0 0-22.055-9.23zm0 58.772a26.877 26.877 0 0 1-15.027-4.602 27.236 27.236 0 0 1-9.96-12.252 27.529 27.529 0 0 1-1.537-15.772 27.373 27.373 0 0 1 7.406-13.975 26.969 26.969 0 0 1 13.851-7.466 26.816 26.816 0 0 1 15.627 1.56 27.1 27.1 0 0 1 12.134 10.06 27.475 27.475 0 0 1 4.55 15.168c0 7.238-2.85 14.18-7.922 19.298a26.92 26.92 0 0 1-19.122 7.993v-.012z" fill="#000"/><path d="M206.181 126.961c-.283-.697-.573-1.392-.871-2.085a6.21 6.21 0 0 0-1.064-1.855 1.949 1.949 0 0 0-.624-.472 2.668 2.668 0 0 0-.815-.164 6.432 6.432 0 0 0-1.279-.034 6.686 6.686 0 0 1-.537-.192 4.45 4.45 0 0 0 2.342-1.534 4.523 4.523 0 0 0 .979-2.639v-.192a4.534 4.534 0 0 0-.332-1.719 4.464 4.464 0 0 0-2.396-2.439 4.344 4.344 0 0 0-4.025.322 4.141 4.141 0 0 0-2.735.313 4.194 4.194 0 0 0-1.946 1.964 5.236 5.236 0 0 0-1.591 3.873v.199c.081 2.447 1.647 4.409 3.626 4.607a2.072 2.072 0 0 0-.574.387c-.606.589-.706 1.525-.771 2.375l-.047.63-1.048.378a.195.195 0 0 0-.047.343l1.001.721v.18c0 .06 0 .135.019.204a1.456 1.456 0 0 0-.387.558c-.097.33-.128.677-.09 1.02l.037.879c-.005.661.085 1.32.265 1.956.131.39.699 1.332 1.108 1.338-.377 1.732-.477 5.385-.477 5.385-.047.047.084.092.312.129.224 1.739.958 6.614 2.259 8.758.205.7.368 1.411.49 2.129 0 0 .371 4.633.861 6.009.418 1.172.749 4.063.84 4.9a.478.478 0 0 0-.347.359c-.246.75-1.844 1.89-1.844 1.89-.49.247-.952.546-1.379.891-.503.457-.484.869 1.747.611 4.306-.501 5.043-1.889 5.043-1.889s-.069-.234-.172-.536a5.82 5.82 0 0 0-.565-1.345c-.062-.059-.124.041-.199.199a27.21 27.21 0 0 1-.294-6.081s.122-2.129-.493-3.631a6.981 6.981 0 0 1 0-2.378c.247-1.002-.983-5.886-.983-5.886l-.705-3.597c.096.123.164.266.197.419l.018.073.019.104c.007.036.025.07.05.097.481 2.016 1.798 7.599 1.798 8.418 0 1.002 1.229 3.505 1.229 3.505s.49 4.132 1.351 5.757c.655 1.238.671 3.052.64 3.852 0 0-.147 1.03-.393 1.278a3.042 3.042 0 0 0-.465.816l-.028.06s-.369.752-.122.878c.938.372 1.952.5 2.952.375 0 0 .493-.63.493-.875-.01-.15-.029-.3-.056-.447a64.087 64.087 0 0 0-.262-1.534c.103-.403-.312-1.524-.312-1.524l-.125-3.506a16.32 16.32 0 0 0-.862-7.013s-.624-2.252-.489-2.878c.134-.627-.247-7.263-.247-7.263l-.037-.094a7.203 7.203 0 0 1 .037-1.408c.122-1.502-.368-4.632-.493-4.755a4.193 4.193 0 0 1-.175-1.036c.028-.262.113-1.027.228-1.978a34.936 34.936 0 0 0 3.626-.315.45.45 0 0 0 .312-.126.448.448 0 0 0 .072-.255c.143-1.886-.54-3.719-1.248-5.464zm-2.475 3.971a38.7 38.7 0 0 1 .403-2.412l.018.057c.237.649.435 1.311.593 1.984a6.613 6.613 0 0 1-1.014.371z" fill="url(#paint0_linear_152_779)"/><path d="M194.148 141.07s.737 6.686 2.331 9.284c.205.691.369 1.393.49 2.104 0 0 .369 4.579.858 5.939.49 1.361.859 5.077.859 5.077s1.716 1.977 2.33.371a26.347 26.347 0 0 1-.368-6.437s.122-2.104-.49-3.59a6.813 6.813 0 0 1 0-2.349c.244-.992-.983-5.817-.983-5.817l-.979-4.828-4.048.246z" fill="#BE6F72"/><path d="M201.874 165.082s-.736 1.36-5.027 1.855c-2.228.255-2.243-.151-1.741-.605a7.769 7.769 0 0 1 1.373-.882s1.595-1.111 1.838-1.855c.244-.743 1.105-.122 1.105-.122 1.226 1.854 1.473-.498 1.716-.249.244.415.434.861.565 1.326.103.299.171.532.171.532z" fill="#FF6F61"/><path opacity=".1" d="M201.874 165.082s-.736 1.361-5.027 1.855c-2.228.255-2.243-.151-1.741-.605.35.224 1.055.315 2.475-.261a52.692 52.692 0 0 1 4.122-1.521c.103.299.171.532.171.532zM200.648 157.408s.122-2.104-.49-3.59a6.764 6.764 0 0 1 0-2.349c.244-.992-.983-5.817-.983-5.817l-.98-4.828-.848.051.97 4.777s1.226 4.825.983 5.817a6.764 6.764 0 0 0 0 2.349c.624 1.486.49 3.59.49 3.59a26.298 26.298 0 0 0 .368 6.437c-.066.202-.19.379-.356.51.456.208.937.199 1.214-.51a26.347 26.347 0 0 1-.368-6.437z" fill="#000"/><path d="M199.849 113.904a4.345 4.345 0 0 0-2.315.665 4.13 4.13 0 0 0-2.73.301 4.186 4.186 0 0 0-1.951 1.951 5.165 5.165 0 0 0-1.588 3.829c0 2.633 1.757 4.765 3.922 4.765 1.561 0 2.927-1.121 3.555-2.743.36.096.731.145 1.104.145 1.171 0 2.294-.47 3.122-1.305a4.48 4.48 0 0 0 0-6.302 4.394 4.394 0 0 0-3.122-1.306h.003z" fill="#3F3D56"/><path d="M203.469 141.689l.368.989s.368 6.56.244 7.181c-.125.62.493 2.834.493 2.834a15.978 15.978 0 0 1 .858 6.928l.121 3.464s.49 1.361.247 1.61c-.243.248-2.094-.221-2.094-.221s.247-2.598-.624-4.207-1.348-5.694-1.348-5.694-1.226-2.475-1.226-3.464c0-.989-1.963-9.035-1.963-9.035l4.924-.385z" fill="#BE6F72"/><path d="M193.902 141.567s.125-4.457.624-5.817a9.317 9.317 0 0 0 .546-1.975s7.423 1.355 8.038.86c0 0 .122 1.732.247 1.855s.624 3.219.49 4.705c-.135 1.486 0 1.483 0 1.483s-5.031.744-5.152 0c-.122-.743-.49-.74-.49-.74s-4.547-.138-4.303-.371z" fill="#3F3D56"/><g opacity=".1" fill="#000"><path opacity=".1" d="M197.949 141.566s-3.102-.085-4.038-.255v.255c-.243.245 4.294.371 4.294.371.062.006.12.03.168.07-.165-.441-.424-.441-.424-.441zM203.347 136.49c-.125-.123-.246-1.855-.246-1.855a.526.526 0 0 1-.209.075c.043.523.127 1.326.209 1.408.081.082.624 3.219.49 4.705-.135 1.486 0 1.483 0 1.483s-3.979.589-4.943.196c0 .053.028.113.037.176.122.743 5.152 0 5.152 0s-.125 0 0-1.483c.125-1.484-.368-4.579-.49-4.705z"/></g><path d="M199.306 121.701c.106.239.266.448.468.611.13.098.281.163.44.192-.274.161-.574.281-.848.441-.432.293-.849.609-1.249.945a2.526 2.526 0 0 1-1.432.561 1.78 1.78 0 0 0 .2-1.761 1.647 1.647 0 0 1-.218-.611c0-.356.312-.63.602-.819.234-.16.474-.315.717-.469.191-.12.478-.371.718-.362.24.009.268.224.312.444.062.287.159.566.29.828z" fill="#BE6F72"/><path opacity=".1" d="M199.306 121.701c.106.239.266.448.468.611.13.098.281.163.44.192-.274.161-.574.281-.848.441-.432.293-.849.609-1.249.945a2.526 2.526 0 0 1-1.432.561 1.78 1.78 0 0 0 .2-1.761 1.647 1.647 0 0 1-.218-.611c0-.356.312-.63.602-.819.234-.16.474-.315.717-.469.191-.12.478-.371.718-.362.24.009.268.224.312.444.062.287.159.566.29.828z" fill="#000"/><path d="M202.18 129.004c1.558 0 2.821-1.274 2.821-2.847 0-1.572-1.263-2.846-2.821-2.846-1.558 0-2.821 1.274-2.821 2.846 0 1.573 1.263 2.847 2.821 2.847z" fill="#BE6F72"/><path d="M206.165 166.565c0 .249-.49.866-.49.866a6.017 6.017 0 0 1-2.942-.371c-.247-.123.121-.866.121-.866l.028-.06c.113-.292.27-.564.465-.807.244-.245.39-1.259.39-1.259.762-1.26 2.113.545 2.113.545s.172.944.262 1.518c.031.204.053.371.053.434z" fill="#FF6F61"/><path opacity=".1" d="M206.165 166.566c0 .249-.49.866-.49.866a6.017 6.017 0 0 1-2.942-.372c-.247-.122.121-.866.121-.866l.028-.06a5.887 5.887 0 0 0 2.672.555l.558-.564c.031.211.053.378.053.441z" fill="#000"/><path d="M196.538 122.999c1.524 0 2.759-1.247 2.759-2.784 0-1.538-1.235-2.784-2.759-2.784-1.523 0-2.758 1.246-2.758 2.784 0 1.537 1.235 2.784 2.758 2.784zM194.314 125.783c-.606.582-.705 1.505-.768 2.346l-.093 1.231a6.173 6.173 0 0 0-.022.999c0 .204.05.412.068.63.019.217.025.491.028.74v1.82c-.029.375.04.752.2 1.093a.74.74 0 0 0 .936.34c.194-.151.331-.365.387-.605a9.477 9.477 0 0 0 .624-2.305c.025-.274.028-.548.053-.822.025-.274.072-.561.113-.838.174-1.159.252-2.33.33-3.499.022-.346.331-1.71-.118-1.861-.219-.072-.671.154-.88.23a2.457 2.457 0 0 0-.858.501z" fill="#BE6F72"/><path opacity=".1" d="M194.314 125.783c-.606.582-.705 1.505-.768 2.346l-.093 1.231a6.173 6.173 0 0 0-.022.999c0 .204.05.412.068.63.019.217.025.491.028.74v1.82c-.029.375.04.752.2 1.093a.74.74 0 0 0 .936.34c.194-.151.331-.365.387-.605a9.477 9.477 0 0 0 .624-2.305c.025-.274.028-.548.053-.822.025-.274.072-.561.113-.838.174-1.159.252-2.33.33-3.499.022-.346.331-1.71-.118-1.861-.219-.072-.671.154-.88.23a2.457 2.457 0 0 0-.858.501z" fill="#000"/><path d="M200.033 122.01s-2.084 1.609-3.31 1.981c0 0-.727.837-.852 1.039-.125.201-.375 2.425-.624 2.922-.25.498-.859 1.61 0 2.721 0 0 .243 1.115.121 1.487-.121.371-.568 1.732-.162 1.795.406.063 1.635.926 2.737.68 1.101-.246 5.214.945 5.214.945s.68-6.377 1.173-7.505l-1.104-.371s-3.065-1.855-1.227-4.702c-.003 0-1.725-.372-1.966-.992z" fill="#FF6F61"/><path d="M192.423 129.464l2.533 1.811a.186.186 0 0 0 .111.036c.04 0 .079-.012.111-.036l.686-.52a.196.196 0 0 0 0-.296l-1.95-1.748a.18.18 0 0 0-.09-.045.18.18 0 0 0-.1.008l-1.251.453a.195.195 0 0 0-.127.153.2.2 0 0 0 .013.103c.013.032.035.06.064.081z" fill="#3F3D56"/><path d="M193.275 134.919a6.88 6.88 0 0 1-.266-1.93l-.037-.873a2.546 2.546 0 0 1 .09-1.008 1.654 1.654 0 0 1 1.052-.929c.466-.13.953-.165 1.432-.103a.36.36 0 0 1 .184.05.348.348 0 0 1 .1.17 1.14 1.14 0 0 1 .056.91.932.932 0 0 1-.287.299c-.34.246-.736.41-1.058.677a.391.391 0 0 0-.143.183.414.414 0 0 0 0 .198c.04.174.094.343.162.507a.502.502 0 0 0 .141.215c.059.05.137.069.199.116.135.11.415.255.4.428-.047.63-.422 1.336-.568 1.959-.281 1.219-1.276-.337-1.457-.869z" fill="#BE6F72"/><g opacity=".1" fill="#000"><path opacity=".1" d="M197.216 134.635h-.069c.265.052.537.052.802 0h.078a2.825 2.825 0 0 0-.811 0zM203.653 127.89c-.44.998-1.089 6.405-1.204 7.479.43.113.714.195.714.195s.674-6.361 1.167-7.489l-.677-.185z"/></g><path d="M202.277 126.246a.959.959 0 0 0 .403.614c.26.22.499.465.714.73.309.438.548.921.709 1.433.234.641.431 1.295.589 1.959-1.56.731-3.332.696-4.992 1.178a3.978 3.978 0 0 0-1.873 1.118 2.606 2.606 0 0 0-.689 2.05.267.267 0 0 0 .037.123.259.259 0 0 0 .219.088c.414-.001.817-.14 1.145-.397a5.46 5.46 0 0 0 .877-.869c.16-.211.377-.373.624-.466.902-.277 1.872-.261 2.808-.277 1.4-.028 2.798-.139 4.185-.334.05.006.102 0 .15-.016a.345.345 0 0 0 .208-.21.342.342 0 0 0 .016-.152c.137-1.858-.546-3.672-1.248-5.395-.281-.69-.57-1.378-.868-2.062a6.14 6.14 0 0 0-1.06-1.833 1.869 1.869 0 0 0-.625-.466 2.619 2.619 0 0 0-.836-.158 5.868 5.868 0 0 0-1.37-.025 3.045 3.045 0 0 0-.131.715c.025.85.393 1.647.755 2.415.047.117.181.123.253.237z" fill="#BE6F72"/><path opacity=".1" d="M197.281 127.839a2.327 2.327 0 0 0-.312 1.203c.001.167.027.332.078.491a1.588 1.588 0 0 0 .995.945" stroke="#000" stroke-miterlimit="10"/><path d="M198.869 117.494a1.42 1.42 0 0 0-.452.072c-.409-.629-1.37-1.064-2.496-1.064-1.492 0-2.7.778-2.7 1.735 0 .958 1.208 1.732 2.7 1.732a3.773 3.773 0 0 0 1.619-.346c.114.238.29.442.508.589a1.456 1.456 0 0 0 1.491.082 1.494 1.494 0 0 0 .61-2.035 1.465 1.465 0 0 0-1.286-.765h.006z" fill="#3F3D56"/><path opacity=".1" d="M198.991 120.092a1.46 1.46 0 0 1-1.323-.841 3.76 3.76 0 0 1-1.619.347c-1.489 0-2.696-.775-2.696-1.732a1.011 1.011 0 0 1 0-.174 1.19 1.19 0 0 0-.138.545c0 .945 1.208 1.732 2.7 1.732a3.773 3.773 0 0 0 1.619-.346 1.461 1.461 0 0 0 2.334.433c.224-.214.376-.495.434-.802a1.459 1.459 0 0 1-1.311.838z" fill="#000"/><path opacity=".1" d="M192.856 117.551a4.184 4.184 0 0 1 1.951-1.95 4.13 4.13 0 0 1 2.73-.302 4.388 4.388 0 0 1 2.129-.66 4.387 4.387 0 0 1 2.177.474 4.427 4.427 0 0 1 1.671 1.486c.421.631.676 1.361.738 2.12v-.371a4.473 4.473 0 0 0-.611-2.252 4.428 4.428 0 0 0-1.656-1.63 4.383 4.383 0 0 0-4.464.103 4.128 4.128 0 0 0-2.729.301 4.184 4.184 0 0 0-1.951 1.95 5.137 5.137 0 0 0-1.588 3.83v.371a5.059 5.059 0 0 1 1.603-3.47z" fill="#000"/><path d="M220.99 118.496c.815-1.521-.109-3.389-1.173-4.746-1.064-1.357-2.356-2.768-2.328-4.5.038-2.485 2.653-3.953 4.743-5.272a23.101 23.101 0 0 0 4.257-3.464 6.285 6.285 0 0 0 1.31-1.767c.431-.973.418-2.079.393-3.15a228.642 228.642 0 0 0-.521-10.631" stroke="#3F3D56" stroke-width="4" stroke-miterlimit="10"/><path d="M231.64 84.777a3.907 3.907 0 0 0-.555-1.835 3.853 3.853 0 0 0-1.361-1.34l-.861 1.716.025-2.078a3.822 3.822 0 0 0-3.366.599 3.87 3.87 0 0 0-1.332 1.804 3.907 3.907 0 0 0 1.027 4.181 3.811 3.811 0 0 0 4.221.642 3.855 3.855 0 0 0 1.655-1.507 3.894 3.894 0 0 0 .547-2.182zM224.791 111.019a3.855 3.855 0 0 1-1.87 1.776 3.8 3.8 0 0 1-2.56.191 3.844 3.844 0 0 1-2.108-1.48 3.908 3.908 0 0 1 .287-4.876 3.83 3.83 0 0 1 2.267-1.217 3.808 3.808 0 0 1 2.52.495 3.869 3.869 0 0 1 1.648 1.987l-2.4 1.972 2.64-.63a3.882 3.882 0 0 1-.424 1.782zM222.894 103.489a3.815 3.815 0 0 1-2.603-.86 3.903 3.903 0 0 1-.818-5.1 3.843 3.843 0 0 1 2.201-1.645l-.019 1.597.871-1.736a3.822 3.822 0 0 1 2.765 1.008 3.897 3.897 0 0 1 1.028 4.182 3.85 3.85 0 0 1-1.979 2.194 3.81 3.81 0 0 1-1.455.363l.009-.003zM232.218 97.229c-.596.03-1.19-.08-1.736-.32a3.85 3.85 0 0 1-1.411-1.07 3.892 3.892 0 0 1-.786-3.376c.137-.585.408-1.13.79-1.592a3.846 3.846 0 0 1 1.413-1.068 3.81 3.81 0 0 1 3.43.183l-.68 1.89 1.398-1.355c.373.341.675.753.889 1.213.214.46.336.957.359 1.464.019.359-.014.718-.096 1.068a3.884 3.884 0 0 1-1.294 2.084 3.822 3.822 0 0 1-2.276.879z" fill="#FF5300"/><path opacity=".1" d="M231.126 85.81c-.887.1-1.751.377-2.64.434-.89.057-1.873-.16-2.431-.86a12.091 12.091 0 0 1-.709-1.26 2.765 2.765 0 0 0-.967-.919 3.908 3.908 0 0 0 .755 4.557 3.809 3.809 0 0 0 4.54.592 3.86 3.86 0 0 0 1.882-2.576 6.611 6.611 0 0 0-.43.031zM232.218 97.228a3.814 3.814 0 0 1-1.912-.413 3.856 3.856 0 0 1-1.464-1.31 3.911 3.911 0 0 1-.278-3.807c.305.207.568.47.773.778.228.442.483.87.762 1.282.596.712 1.619.945 2.546.9.927-.044 1.822-.314 2.746-.393.128 0 .259-.022.387-.025a3.883 3.883 0 0 1-1.284 2.096 3.82 3.82 0 0 1-2.276.892zM222.894 103.489a3.81 3.81 0 0 1-1.899-.401 3.852 3.852 0 0 1-1.462-1.288 3.9 3.9 0 0 1-.324-3.775c.314.212.589.478.811.788.312.425.484.916.833 1.307.649.73 1.738.985 2.721.963.983-.022 1.872-.258 2.809-.33a3.878 3.878 0 0 1-1.316 1.925 3.814 3.814 0 0 1-2.173.811zM224.791 111.019a3.854 3.854 0 0 1-2.143 1.841 3.81 3.81 0 0 1-2.812-.125 3.867 3.867 0 0 1-1.973-2.026 3.913 3.913 0 0 1-.077-2.839c.317.209.601.465.842.759.368.45.609.945 1.03 1.379.786.778 2.053 1.096 3.183 1.128a16.73 16.73 0 0 0 1.95-.117z" fill="#000"/><path d="M233.23 166.364c.814-1.521-.109-3.389-1.173-4.746-1.065-1.357-2.356-2.768-2.328-4.5.037-2.485 2.652-3.952 4.743-5.272a23.095 23.095 0 0 0 4.256-3.464 6.26 6.26 0 0 0 1.311-1.767c.43-.973.418-2.078.393-3.149a224.6 224.6 0 0 0-.521-10.632" stroke="#3F3D56" stroke-width="4" stroke-miterlimit="10"/><path d="M243.88 132.645a3.892 3.892 0 0 0-.556-1.834 3.853 3.853 0 0 0-1.36-1.34l-.861 1.716.025-2.079a3.77 3.77 0 0 0-1.249-.154 3.82 3.82 0 0 0-2.101.753 3.862 3.862 0 0 0-1.333 1.805 3.907 3.907 0 0 0 1.027 4.181 3.815 3.815 0 0 0 4.221.642 3.855 3.855 0 0 0 1.656-1.508 3.901 3.901 0 0 0 .546-2.182h-.015zM237.031 158.888a3.855 3.855 0 0 1-1.87 1.776 3.809 3.809 0 0 1-2.561.19 3.838 3.838 0 0 1-2.107-1.48 3.899 3.899 0 0 1-.713-2.489 3.892 3.892 0 0 1 1-2.387 3.83 3.83 0 0 1 2.267-1.217 3.809 3.809 0 0 1 2.52.495 3.867 3.867 0 0 1 1.648 1.988l-2.4 1.971 2.64-.63a3.886 3.886 0 0 1-.424 1.783zM235.133 151.357a3.815 3.815 0 0 1-2.603-.86 3.906 3.906 0 0 1-.818-5.099 3.844 3.844 0 0 1 2.201-1.646l-.019 1.597.871-1.736a3.824 3.824 0 0 1 2.766 1.009 3.893 3.893 0 0 1 1.25 2.686 3.9 3.9 0 0 1-.996 2.791 3.835 3.835 0 0 1-2.661 1.262l.009-.004zM244.457 145.097a3.81 3.81 0 0 1-3.147-1.391 3.915 3.915 0 0 1-.786-3.375c.138-.585.408-1.13.791-1.592a3.814 3.814 0 0 1 4.843-.885l-.68 1.889 1.398-1.354a3.884 3.884 0 0 1 1.151 3.745 3.885 3.885 0 0 1-1.294 2.084 3.825 3.825 0 0 1-2.276.879z" fill="#FF5300"/><path opacity=".1" d="M243.365 133.678c-.886.1-1.751.378-2.64.434-.889.057-1.872-.16-2.431-.859a12.161 12.161 0 0 1-.708-1.26 2.775 2.775 0 0 0-.967-.92 3.911 3.911 0 0 0-.15 3.197 3.844 3.844 0 0 0 2.284 2.221 3.811 3.811 0 0 0 3.16-.269 3.887 3.887 0 0 0 1.883-2.576 6.245 6.245 0 0 0-.431.032zM244.457 145.097a3.812 3.812 0 0 1-1.912-.413 3.859 3.859 0 0 1-1.463-1.31 3.908 3.908 0 0 1-.279-3.807c.306.207.568.471.774.778.228.443.482.871.761 1.282.597.712 1.62.945 2.547.901.927-.044 1.822-.315 2.746-.394.128 0 .259-.022.387-.025a3.892 3.892 0 0 1-1.284 2.097 3.821 3.821 0 0 1-2.277.891zM235.133 151.358a3.808 3.808 0 0 1-1.898-.402 3.845 3.845 0 0 1-1.462-1.288 3.893 3.893 0 0 1-.325-3.774c.315.211.59.478.811.787.313.425.484.916.834 1.307.649.73 1.738.986 2.721.963.983-.022 1.872-.258 2.808-.33a3.882 3.882 0 0 1-1.315 1.925 3.828 3.828 0 0 1-2.174.812zM237.031 158.888a3.857 3.857 0 0 1-2.143 1.841 3.814 3.814 0 0 1-2.812-.126 3.861 3.861 0 0 1-1.973-2.025 3.916 3.916 0 0 1-.078-2.84c.317.209.601.465.843.759.368.451.624.945 1.03 1.38.786.777 2.053 1.096 3.182 1.127.652-.001 1.303-.04 1.951-.116z" fill="#000"/><path d="M109.157 121.931a3.116 3.116 0 0 0-.316-1.394 3.084 3.084 0 0 0-.904-1.1 3.642 3.642 0 0 0-.857-2.329 3.584 3.584 0 0 0-2.142-1.224 3.625 3.625 0 0 0-.836-1.668 3.576 3.576 0 0 0-1.551-1.024 2.937 2.937 0 0 0-.443-.104h-.527a3.495 3.495 0 0 0-2.247.888 3.558 3.558 0 0 0-1.148 2.141c-1.096-.255-2.097.076-2.282.775a.954.954 0 0 0 .032.561c.187.541.795 1.061 1.61 1.316l.106.032.16.041h.033a2.804 2.804 0 0 0-.262 1.193 2.772 2.772 0 0 0 .393 1.437c.26.433.632.786 1.077 1.02l-.072.044a.988.988 0 0 0-.237.333 5.03 5.03 0 0 0-.459 1.115c-.078.334-.09.681-.187 1.011-.18.608-.643 1.121-.696 1.754-.025.284.022.63-.178.813a.952.952 0 0 1-.159.113 1.298 1.298 0 0 0-.346.369c-.06.131-.142.25-.243.352-.181.136-.478.123-.565.334-.088.211.14.46.087.69-.053.23-.246.274-.387.403a1.401 1.401 0 0 0-.334.63 2.028 2.028 0 0 1-1.685-.435c.08.204.138.415.175.63a2.735 2.735 0 0 0-.908-.46c-.37-.169-.7-.416-.967-.724l.518-.072-2.288-3.524-.677-.142.606 1.174a.383.383 0 0 0-.206.249c-.033.131-.04.267-.022.4.03.318.083.634.156.945l.174.825c.016.076.035.154.057.23a2.12 2.12 0 0 0-.677.076 5.786 5.786 0 0 0-1.408-.337.746.746 0 0 0-.312 0 .806.806 0 0 0-.296.242 9.658 9.658 0 0 0-1.046 1.487c-1.248 2.16-2.874 4.046-4.412 5.999-1.06.434-2.131.847-3.201 1.26l-2.303.888c-.45.205-.936.313-1.43.315-.218 0-.49-.048-.624.141-.06.099-.107.205-.14.315l-.237.025a2.755 2.755 0 0 0-.552-1.026.352.352 0 0 0-.26.201c-.056.104-.09.218-.156.315-.121.183-.337.271-.49.425-.152.155-.249.394-.417.552-.23.171-.5.28-.784.314-.427.101-.84.259-1.226.47a1.99 1.99 0 0 1-.453.211 1.706 1.706 0 0 1-.533.019l-1.217-.092a.976.976 0 0 0-.328.016.624.624 0 0 0-.387.63.996.996 0 0 0 .387.677c.21.157.445.279.693.362 1.053.414 2.139.738 3.245.97v.249a5.49 5.49 0 0 0 2.497.598.377.377 0 0 0 .187-.034.42.42 0 0 0 .156-.246c.259-.781.422-1.591.487-2.412.152-.011.301-.049.44-.114.418-.116.836.173 1.27.221.533.06 1.026-.255 1.532-.448l.218-.072a2.406 2.406 0 0 1-.505.488c-.21.151-.443.265-.646.422-.172.157-.356.3-.55.428a3.362 3.362 0 0 1-.42.164c-.213.08-.416.186-.603.315a1.23 1.23 0 0 0-.409.403.615.615 0 0 0-.034.567.593.593 0 0 0 .402.284c.165.025.332.025.497 0 .661-.051 1.32-.111 1.978-.17.278-.018.555-.058.827-.12.143-.035.287-.082.43-.123.247-.063.499-.101.752-.113a.598.598 0 0 1 .219.022c.153.05.262.208.418.239a.616.616 0 0 0 .312-.041 6.925 6.925 0 0 1 1.464-.157c.215 0 .468-.054.567-.255.1-.202-.08-.526-.162-.794a2.452 2.452 0 0 1-.068-.523 3.299 3.299 0 0 0-.362-1.241 3.21 3.21 0 0 1-.272-.567 14.102 14.102 0 0 0 2.693-1.379 4.78 4.78 0 0 1 1.535-.746 4.137 4.137 0 0 1 1.929.226c1.5.439 2.976.959 4.422 1.556.69.287 1.376.589 2.087.806.208.281.458.527.743.728a3.413 3.413 0 0 0 1.607.444c.752.069 1.507.098 2.262.085a3.784 3.784 0 0 0 1.685-.315 1.74 1.74 0 0 0 .353-.236 1.4 1.4 0 0 0 1.111-.413c.409-.353.703-.823.845-1.348.184-.718.044-1.574.481-2.147.115-.158.268-.284.384-.441.139-.216.209-.47.199-.728a.173.173 0 0 1 .019-.028c.096-.231.159-.475.187-.724.054-.196.122-.388.203-.574.222-.555.416-1.122.58-1.697.113-.383.203-.772.269-1.165.047-.315.075-.63.1-.945.033-.496.128-.986.284-1.458.39-1.123.611-2.3.655-3.489v-.07a2.31 2.31 0 0 0 1.484-.788c.38-.441.583-1.009.569-1.593 0-.35-.073-.697-.215-1.017.276-.482.42-1.03.418-1.587zm-11.165 13.69c.034.123.075.242.115.362-.184-.18-.361-.365-.546-.548.072.025.147.047.216.076.072.029.14.066.206.11h.01zm-.883-.605c-1.08-.945-2.328-1.678-3.432-2.595.602.299 1.188.649 1.769.983.688.397 1.386.778 2.094 1.143a1.719 1.719 0 0 1-.44.469h.009zm.459-2.381l.053-.053v.374l-.29-.1c.08-.069.156-.143.227-.221h.01zm-9.496 2.551a9.006 9.006 0 0 0 1.148-1.653c.428.752 1.124 1.297 1.714 1.93a38.294 38.294 0 0 0-2.862-.277z" fill="url(#paint1_linear_152_779)"/><path d="M89.607 126.016l.68.138 2.32 3.461-1.021.139-1.979-3.738z" fill="#2F2E41"/><path d="M73.113 140.055c.184.611.412 1.207.68 1.786a16.793 16.793 0 0 0 2.262-.652 7.13 7.13 0 0 0-.47-.63 2.334 2.334 0 0 0-.64-.495 1.757 1.757 0 0 0-.777 0c-.35-.009-.703-.003-1.055-.009z" fill="#FBBEBE"/><path d="M74.948 140.978a1.422 1.422 0 0 1-.774-.888 2.865 2.865 0 0 0-.59-1.062.335.335 0 0 0-.262.199c-.056.1-.09.214-.153.315-.125.179-.343.267-.5.418-.155.152-.249.388-.418.542a1.653 1.653 0 0 1-.789.315 5.113 5.113 0 0 0-1.248.463 2.152 2.152 0 0 1-.459.208 1.788 1.788 0 0 1-.537 0l-1.23-.088a.96.96 0 0 0-.311 0 .606.606 0 0 0-.39.63.939.939 0 0 0 .39.667c.213.155.45.276.699.359 1.07.407 2.172.723 3.295.945v.246a5.66 5.66 0 0 0 2.512.588.414.414 0 0 0 .187-.031.414.414 0 0 0 .156-.246c.296-.869.47-1.777.515-2.695.02-.234.002-.469-.053-.696-.069-.224.162-.129-.05-.218" fill="#2F2E41"/><path d="M98.526 136.301c-3.645.22-7.246-.857-10.897-.97a5.258 5.258 0 0 0-1.354.085 6.759 6.759 0 0 0-1.342.526c-1.957.919-3.982 1.682-6.004 2.441l-2.325.872a3.503 3.503 0 0 1-1.438.315c-.222 0-.493-.047-.624.138-.378.567-.2 1.395.05 2.032.08.204.218.428.437.45.153-.01.303-.049.443-.113.421-.114.842.173 1.28.22.536.057 1.035-.252 1.544-.441.842-.315 1.76-.315 2.646-.453 1.482-.249 2.858-.945 4.144-1.736.467-.336.99-.585 1.544-.736a4.23 4.23 0 0 1 1.945.223c1.511.431 3 .942 4.459 1.531.758.333 1.535.62 2.327.859a8.344 8.344 0 0 0 5.221-.315c.583-.233 1.217-.629 1.248-1.278.022-.362-.259-.68-.443-.992-.119-.199-.24-.397-.368-.589-.624-.913-1.386-2.135-2.493-2.069z" fill="#2F2E41"/><path opacity=".1" d="M98.526 136.301c-3.645.22-7.246-.857-10.897-.97a5.258 5.258 0 0 0-1.354.085 6.759 6.759 0 0 0-1.342.526c-1.957.919-3.982 1.682-6.004 2.441l-2.325.872a3.503 3.503 0 0 1-1.438.315c-.222 0-.493-.047-.624.138-.378.567-.2 1.395.05 2.032.08.204.218.428.437.45.153-.01.303-.049.443-.113.421-.114.842.173 1.28.22.536.057 1.035-.252 1.544-.441.842-.315 1.76-.315 2.646-.453 1.482-.249 2.858-.945 4.144-1.736.467-.336.99-.585 1.544-.736a4.23 4.23 0 0 1 1.945.223c1.511.431 3 .942 4.459 1.531.758.333 1.535.62 2.327.859a8.344 8.344 0 0 0 5.221-.315c.583-.233 1.217-.629 1.248-1.278.022-.362-.259-.68-.443-.992-.119-.199-.24-.397-.368-.589-.624-.913-1.386-2.135-2.493-2.069z" fill="#000"/><path d="M80.112 140.226c.57.195 1.145.376 1.726.541.312-.538.936-.913 1.07-1.53a.147.147 0 0 0 0-.082.153.153 0 0 0-.066-.06 3.247 3.247 0 0 0-1.354-.4c-.374-.022-.546.372-.714.649-.066.123-.509.942-.662.882z" fill="#FBBEBE"/><path d="M80.91 139.841a1.237 1.237 0 0 1-.839-.557c-.078-.142-.165-.334-.327-.315-.163.019-.216.189-.25.337a9.533 9.533 0 0 1-.471 1.635 3.066 3.066 0 0 1-1.008 1.338c-.212.148-.446.258-.655.416a4.673 4.673 0 0 1-.553.422c-.137.062-.28.115-.424.157a2.95 2.95 0 0 0-.605.315c-.169.098-.311.235-.416.4a.58.58 0 0 0-.03.557.592.592 0 0 0 .402.278c.166.025.336.025.502 0 .665-.048 1.33-.108 1.994-.167a5.85 5.85 0 0 0 .833-.117l.434-.12c.248-.066.502-.104.758-.113a.592.592 0 0 1 .222.022c.153.05.262.205.421.236a.678.678 0 0 0 .312-.041c.485-.105.98-.156 1.476-.154.219 0 .474-.057.574-.252.125-.246-.08-.52-.165-.784a2.54 2.54 0 0 1-.069-.513 3.143 3.143 0 0 0-.365-1.222c-.168-.315-.4-.662-.28-.995a.958.958 0 0 0 .112-.344c-.047-.541-1.276-.349-1.582-.419z" fill="#2F2E41"/><path d="M93.062 130.399a2.856 2.856 0 0 1-1.454-1.455c-.06-.138-.11-.286-.169-.425a3.235 3.235 0 0 0-.867-1.219.435.435 0 0 0-.312-.135.345.345 0 0 0-.234.255.984.984 0 0 0-.025.394c.031.309.084.617.156.919l.178.813c.023.124.06.246.109.362.076.136.176.257.296.356.163.151.328.296.493.441.096.084.2.157.312.217.175.084.361.139.553.164a4.675 4.675 0 0 1 2.072.806v-.605a.803.803 0 0 0-.156-.437 2.77 2.77 0 0 0-.952-.451z" fill="#FBBEBE"/><path opacity=".1" d="M93.062 130.399a2.856 2.856 0 0 1-1.454-1.455c-.06-.138-.11-.286-.169-.425a3.235 3.235 0 0 0-.867-1.219.435.435 0 0 0-.312-.135.345.345 0 0 0-.234.255.984.984 0 0 0-.025.394c.031.309.084.617.156.919l.178.813c.023.124.06.246.109.362.076.136.176.257.296.356.163.151.328.296.493.441.096.084.2.157.312.217.175.084.361.139.553.164a4.675 4.675 0 0 1 2.072.806v-.605a.803.803 0 0 0-.156-.437 2.77 2.77 0 0 0-.952-.451z" fill="#000"/><path d="M100.482 124.183c.49 0 .886-.403.886-.9a.893.893 0 0 0-.886-.901.893.893 0 0 0-.886.901c0 .497.397.9.886.9z" fill="#2F2E41"/><path d="M99.933 122.741a.948.948 0 0 0-.7.1.981.981 0 0 0-.24.331 4.84 4.84 0 0 0-.461 1.096c-.078.315-.09.671-.19.995-.181.598-.646 1.106-.7 1.729-.024.28.022.608-.18.797a1.16 1.16 0 0 1-.16.116c-.14.095-.26.218-.35.363a1.197 1.197 0 0 1-.246.343c-.18.135-.48.123-.568.315-.087.192.14.453.088.68-.053.227-.25.271-.39.397a1.376 1.376 0 0 0-.337.63 2.08 2.08 0 0 1-.895-.024 2.082 2.082 0 0 1-.803-.402c.206.632.296 1.295.266 1.959a.811.811 0 0 1-.156.605c.703.053 1.4.175 2.08.365.296.099.614.099.909 0a1.5 1.5 0 0 0 .418-.334c.374-.384.768-.803.858-1.335.022-.301.028-.602.016-.904a5.15 5.15 0 0 1 .228-1.099c.197-.74.33-1.497.396-2.261.04-.472.446-.85.658-1.26.4-.796.812-1.625.84-2.519.012-.29-.088-.652-.381-.683z" fill="#2F2E41"/><path opacity=".1" d="M99.933 122.741a.948.948 0 0 0-.7.1.981.981 0 0 0-.24.331 4.84 4.84 0 0 0-.461 1.096c-.078.315-.09.671-.19.995-.181.598-.646 1.106-.7 1.729-.024.28.022.608-.18.797a1.16 1.16 0 0 1-.16.116c-.14.095-.26.218-.35.363a1.197 1.197 0 0 1-.246.343c-.18.135-.48.123-.568.315-.087.192.14.453.088.68-.053.227-.25.271-.39.397a1.376 1.376 0 0 0-.337.63 2.08 2.08 0 0 1-.895-.024 2.082 2.082 0 0 1-.803-.402c.206.632.296 1.295.266 1.959a.811.811 0 0 1-.156.605c.703.053 1.4.175 2.08.365.296.099.614.099.909 0a1.5 1.5 0 0 0 .418-.334c.374-.384.768-.803.858-1.335.022-.301.028-.602.016-.904a5.15 5.15 0 0 1 .228-1.099c.197-.74.33-1.497.396-2.261.04-.472.446-.85.658-1.26.4-.796.812-1.625.84-2.519.012-.29-.088-.652-.381-.683z" fill="#000"/><path d="M99.103 137.076c-.758-.365-1.314-1.042-1.928-1.625-1.17-1.112-2.603-1.889-3.836-2.938-.817-.69-1.56-1.493-2.443-2.072a6.06 6.06 0 0 0-2.618-.923.685.685 0 0 0-.312 0 .714.714 0 0 0-.296.236 9.5 9.5 0 0 0-1.058 1.464c-1.56 2.677-3.78 4.926-5.617 7.414a.472.472 0 0 0-.09.176.44.44 0 0 0 .068.274l.375.737c.209.416.546.898.995.816.202-.059.383-.176.521-.337l1.679-1.622 1.76-1.698c1.03-.992 2.078-2.009 2.752-3.281.524.92 1.457 1.521 2.094 2.362.243.315.443.671.661 1.011.347.541.743 1.052 1.136 1.574l2.02 2.599c.255.366.572.686.935.944a3.539 3.539 0 0 0 1.62.438c.758.068 1.52.096 2.28.082a3.899 3.899 0 0 0 1.702-.315 1.554 1.554 0 0 0 .92-1.383 2.031 2.031 0 0 0-.29-.859c-.73-1.314-1.673-2.422-3.03-3.074z" fill="#2F2E41"/><path d="M101.028 124.599a.688.688 0 0 0 .683-.693.687.687 0 0 0-.683-.693.688.688 0 0 0-.683.693c0 .382.306.693.683.693z" fill="#E8E8F0"/><path d="M100.879 123.386c.152.309.179.666.074.995a4.01 4.01 0 0 1-.44.917c-.158.294-.35.569-.57.819 1.054.05 2.074-.366 3.001-.87.749-.406 1.495-.907 1.894-1.666a.855.855 0 0 1-.699-.132 2.46 2.46 0 0 1-.533-.501l-.528-.598a2.452 2.452 0 0 1-.312-.431 1.204 1.204 0 0 1-.14-.696c-.21.221-.445.417-.699.585-.378.249-.793.429-1.173.674-.131.089-.431.227-.353.403.078.177.371.312.478.501z" fill="#FBBEBE"/><path opacity=".1" d="M100.879 123.386c.152.309.179.666.074.995a4.01 4.01 0 0 1-.44.917c-.158.294-.35.569-.57.819 1.054.05 2.074-.366 3.001-.87.749-.406 1.495-.907 1.894-1.666a.855.855 0 0 1-.699-.132 2.46 2.46 0 0 1-.533-.501l-.528-.598a2.452 2.452 0 0 1-.312-.431 1.204 1.204 0 0 1-.14-.696c-.21.221-.445.417-.699.585-.378.249-.793.429-1.173.674-.131.089-.431.227-.353.403.078.177.371.312.478.501z" fill="#000"/><path d="M100.891 123.49a.904.904 0 0 0 0 1.04c.031.038.143.274.19.277a.192.192 0 0 0 .066-.019.186.186 0 0 0 .053-.044 8.01 8.01 0 0 0 .668-.803c.209-.282.509-.48.848-.561a1.82 1.82 0 0 1 1.17.369c.157.072.295.18.403.315.075.138.12.292.131.45.102.951.142 1.907.119 2.863.018.69-.027 1.38-.135 2.062-.068.35-.168.693-.215 1.049a6.938 6.938 0 0 0-.044.945v1.316c-.008.242.009.483.05.721.063.287.197.555.288.835.093.322.157.652.19.986l.178 1.36c.056.429.1.898-.159 1.26-.116.154-.269.28-.387.435-.44.579-.312 1.407-.484 2.116-.145.518-.443.98-.855 1.322a1.407 1.407 0 0 1-1.127.407c-.549-.104-.876-.681-1.026-1.225-.15-.545-.203-1.137-.528-1.597a4.201 4.201 0 0 0-1.042-.879 1.813 1.813 0 0 1-.814-1.067c-.035-.199 0-.403-.035-.605a1.431 1.431 0 0 0-.87-1.156c-.28-.11-.624-.151-.787-.409.402-.254.695-.651.821-1.112.124-.458.191-.93.2-1.404l.094-1.575c.043-.709.062-1.408.37-2.044.138-.283.313-.551.453-.831.19-.394.352-.801.484-1.219.225-.649.45-1.297.65-1.953.077-.318.197-.624.355-.91.168-.296.412-.652.727-.715z" fill="#E8E8F0"/><path d="M97.412 133.77h.415l.087-.63c.011-.126.04-.25.087-.368a2.15 2.15 0 0 1 .24-.353c.406-.583.378-1.354.478-2.063.181-.936.488-1.843.911-2.696l.805-1.81c.074-.149.132-.304.175-.463.034-.177.051-.356.05-.536 0-.28.087-1.3.097-1.574 0-.104-.228-.048-.275-.139-.1-.202-.237.343-.427.463-.18.138-.31.33-.372.548-.174.453-.28.945-.443 1.395-.14.47-.4.895-.752 1.235-.165.144-.356.261-.511.418-.5.498-.55 1.288-.565 2-.013.435-.094 4.573 0 4.573zM103.384 122.738a1.433 1.433 0 0 0-.739 1.024 5.261 5.261 0 0 1-.375 1.259c-.505.888-1.794 1.147-2.153 2.107-.09.323-.139.657-.144.992-.062.69-.287 1.354-.355 2.041a9.172 9.172 0 0 0 .037 1.603l.453 5.423a7.325 7.325 0 0 1-.135 2.387c.464.067.937-.013 1.355-.227.421-.195.808-.463 1.217-.69.699-.39 1.473-.664 2.087-1.184.11-.088.205-.195.281-.315.094-.227.157-.467.187-.711.053-.192.121-.38.203-.561a16.78 16.78 0 0 0 .587-1.675 9.74 9.74 0 0 0 .268-1.147 12.1 12.1 0 0 0 .103-.944c.033-.489.129-.971.287-1.433a11.63 11.63 0 0 0 .659-3.439c.012-.169 0-.339-.035-.504a2.647 2.647 0 0 0-.274-.576c-.187-.356-.312-.747-.475-1.109a5.423 5.423 0 0 0-1.844-1.956c-.362-.248-.786-.513-1.195-.365z" fill="#2F2E41"/><path d="M93.957 131.587a3.241 3.241 0 0 1-.858-.658c-.112-.132-.206-.28-.312-.412a2.114 2.114 0 0 0-1.08-.63 5.239 5.239 0 0 0-1.248-.123 2.24 2.24 0 0 0-.833.101.848.848 0 0 0-.552.598 1.001 1.001 0 0 0 .421.882c.244.202.531.342.84.409.25.045.503.076.758.092 1.491.157 2.824.976 4.131 1.722a51.066 51.066 0 0 0 3.514 1.839c.046-.36.066-.723.059-1.086 0-.271-.022-.687-.275-.847a5.455 5.455 0 0 0-1.117-.337 17.436 17.436 0 0 1-2.25-.92 11.06 11.06 0 0 1-1.198-.63zM100.482 123.077c1.468 0 2.659-1.208 2.659-2.698 0-1.491-1.191-2.699-2.659-2.699-1.468 0-2.659 1.208-2.659 2.699 0 1.49 1.19 2.698 2.659 2.698z" fill="#FBBEBE"/><path d="M104.142 125.795a4.359 4.359 0 0 0-.515.973c-.312.681-.842 1.26-1.101 1.981-.259.721-.262 1.647-.796 2.236a.79.79 0 0 0-.234.34c-.002.083-.01.165-.025.246-.078.214-.424.224-.49.444-.018.063 0 .132-.031.195-.053.142-.24.164-.362.249-.259.176-.206.586-.39.841a.694.694 0 0 1-.665.236 2.34 2.34 0 0 1-.69-.261.65.65 0 0 0-.249-.079.515.515 0 0 0-.287.101 1.786 1.786 0 0 0-.718 1.527c.036.59.176 1.169.412 1.71a.681.681 0 0 0 .134.255.59.59 0 0 0 .662.051 3.08 3.08 0 0 1 .646-.293c.412-.076.814.211 1.233.186.304-.046.591-.173.83-.369a4.616 4.616 0 0 0 1.117-.945c.181-.242.312-.516.474-.774.206-.314.43-.616.671-.904l1.535-1.89c.153-.179.29-.371.412-.573a4.09 4.09 0 0 0 .312-.866 6.684 6.684 0 0 0 .312-1.54 5.95 5.95 0 0 0-.112-1.291 4.637 4.637 0 0 0-.312-1.232c-.334-.711-1.145-1.291-1.773-.554z" fill="#2F2E41"/><path d="M109.485 122.275a3.027 3.027 0 0 0-1.23-2.457 3.609 3.609 0 0 0-.877-2.308 3.546 3.546 0 0 0-2.147-1.19 3.493 3.493 0 0 0-1.233-2.041 3.433 3.433 0 0 0-4.45.121 3.495 3.495 0 0 0-1.122 2.105c-1.105-.251-2.116.076-2.3.763-.184.686.596 1.574 1.76 1.889.367.104.75.142 1.13.114a3.458 3.458 0 0 0 2.377 1.495c.142.65.46 1.246.918 1.723a3.53 3.53 0 0 0 1.679.979c.177.431.452.814.801 1.118v.262a2.294 2.294 0 0 0 .659 1.605 2.235 2.235 0 0 0 3.182 0 2.264 2.264 0 0 0 .659-1.605 2.45 2.45 0 0 0-.215-1.005 3.064 3.064 0 0 0 .409-1.568z" fill="#F86D70"/><path opacity=".1" d="M96.875 117.412c.184-.686 1.195-1.014 2.3-.762a3.56 3.56 0 0 1 1.175-2.126 3.493 3.493 0 0 1 2.257-.859h.228a3.326 3.326 0 0 0-.98-.148 3.491 3.491 0 0 0-2.257.859 3.558 3.558 0 0 0-1.175 2.126c-1.105-.252-2.116.076-2.3.762-.184.687.596 1.575 1.76 1.89.218.061.442.1.668.116-1.115-.337-1.86-1.156-1.676-1.858zM105.528 124.98a2.22 2.22 0 0 1 0-.258 2.959 2.959 0 0 1-.802-1.118 3.53 3.53 0 0 1-1.68-.98 3.575 3.575 0 0 1-.916-1.726 3.416 3.416 0 0 1-1.348-.491 3.46 3.46 0 0 1-1.033-1.001 3.016 3.016 0 0 1-.665-.019 3.468 3.468 0 0 0 2.294 1.376c.141.649.459 1.246.918 1.723a3.54 3.54 0 0 0 1.678.979c.178.43.452.813.802 1.118v.261c-.01.611.219 1.2.639 1.641.419.44.994.695 1.598.709a2.335 2.335 0 0 1-1.085-.873 2.369 2.369 0 0 1-.4-1.341z" fill="#000"/><path d="M101.701 121.369c.18-.137.178-.446-.005-.688-.182-.242-.476-.327-.655-.189-.18.137-.178.446.004.688.183.242.476.327.656.189z" fill="#FBBEBE"/><defs><linearGradient id="paint0_linear_152_779" x1="199.359" y1="167.492" x2="199.359" y2="113.287" gradientUnits="userSpaceOnUse"><stop stop-color="gray" stop-opacity=".25"/><stop offset=".54" stop-color="gray" stop-opacity=".12"/><stop offset="1" stop-color="gray" stop-opacity=".1"/></linearGradient><linearGradient id="paint1_linear_152_779" x1="19434.3" y1="21099.1" x2="19434.3" y2="17891.2" gradientUnits="userSpaceOnUse"><stop stop-color="gray" stop-opacity=".25"/><stop offset=".54" stop-color="gray" stop-opacity=".12"/><stop offset="1" stop-color="gray" stop-opacity=".1"/></linearGradient></defs></svg>