<svg width="622" height="388" fill="none" xmlns="http://www.w3.org/2000/svg"><path d="m535.599 216.169 6.141 10.675 6.131 10.676 6.182-10.655 6.182-10.656-8.52-.01.091-41.168-7.605-.01-.091 41.158-8.511-.01ZM557.458 187.903l3.651 6.365 3.66 6.375 3.691-6.355 3.68-6.354-5.073-.01.051-24.544-4.535-.011-.051 24.544-5.074-.01ZM136.417 21.352l-6.131-10.676L124.145 0l-6.171 10.655-6.182 10.656 8.51.01-.081 41.168 7.605.01.081-41.158 8.51.01ZM112.18 48.427l-3.711-6.456-3.712-6.456-3.731 6.446-3.742 6.436 5.145.01-.041 24.88 4.596.01.051-24.88 5.145.01Z" fill="#E0E0E0"/><path d="M561.224 352.859c-15.251-9.954-19.064-29.018-18.901-46.231 0-2.878-.366-5.897.956-8.449 1.321-2.552 4.514-4.352 7.117-3.203 2.186.946 3.192 3.406 4.453 5.429a16.9 16.9 0 0 0 7.026 6.274c1.881.904 4.189 1.423 5.988.386 2.481-1.423 2.695-4.85 2.603-7.707l-.457-15.973a26.122 26.122 0 0 1 .661-8.5c.833-2.735 2.755-5.297 5.49-6.1 2.735-.803 6.182.661 6.832 3.447.14 1.177.197 2.363.173 3.548a2.995 2.995 0 0 0 1.851 2.786c1.159.305 2.297-.529 3.141-1.383 2.918-2.959 4.85-6.721 6.66-10.462 1.81-3.742 3.548-7.565 6.182-10.778 2.633-3.212 6.324-5.795 10.462-6.1 4.138-.305 8.612 2.033 9.761 6.1 1.149 4.067-1.129 8.134-3.64 11.469a64.103 64.103 0 0 1-13.147 12.974 5.28 5.28 0 0 0-2.186 2.44c-.579 1.922 1.292 3.762 3.213 4.352 2.176.65 4.515.376 6.772.579 2.257.203 4.738 1.139 5.643 3.223 1.25 2.888-1.149 6.009-3.528 8.073a55.578 55.578 0 0 1-16.156 9.72c-2.105.824-4.332 1.546-6.009 3.05-1.678 1.505-2.654 4.118-1.576 6.101 1.077 1.982 3.772 2.572 5.988 2.104 2.217-.467 4.189-1.698 6.294-2.541 3.945-1.576 9.079-1.434 11.713 1.901a8.954 8.954 0 0 1 1.169 7.971 20.747 20.747 0 0 1-4.209 7.168 55.621 55.621 0 0 1-23.385 17.041c-9.151 3.385-17.681 4.443-26.934 1.352" fill="#F0F0F0"/><path d="M616.887 252.049c-.084.098-.176.19-.274.275l-.844.772c-.742.682-1.84 1.678-3.213 3.051a106.63 106.63 0 0 0-10.777 12.028c-2.095 2.704-4.26 5.754-6.528 9.069-2.267 3.315-4.646 6.883-7.025 10.727a128.753 128.753 0 0 0-6.843 12.302c-1.068 2.217-2.034 4.525-2.959 6.883-.925 2.359-1.921 4.738-2.898 7.118a257.153 257.153 0 0 0-9.587 27.807 125.772 125.772 0 0 0-4.24 23.558 90.702 90.702 0 0 0 .142 16.146c.193 1.901.387 3.375.549 4.362l.163 1.138c.009.129.009.258 0 .387 0 0-.478-2.034-.925-5.867a88.857 88.857 0 0 1-.275-16.186 124.35 124.35 0 0 1 4.148-23.66 256.158 256.158 0 0 1 9.588-27.777l2.908-7.117c.956-2.349 1.901-4.677 2.969-6.894a127.56 127.56 0 0 1 6.894-12.414c2.389-3.843 4.788-7.402 7.066-10.716 2.277-3.315 4.463-6.355 6.578-9.049a102.3 102.3 0 0 1 10.9-11.967 115.71 115.71 0 0 1 3.273-2.949l.875-.742.335-.285Z" fill="#E0E0E0"/><path d="M581.11 300.08a6.615 6.615 0 0 1-.295-1.21 92.579 92.579 0 0 1-.6-3.355c-.478-2.837-1.017-6.772-1.556-11.113-.539-4.342-1.149-8.266-1.688-11.083a101.424 101.424 0 0 0-.65-3.334 6.198 6.198 0 0 1-.214-1.231c.149.391.271.792.366 1.2.224.773.488 1.901.793 3.304.61 2.817 1.251 6.741 1.81 11.093.559 4.352 1.017 8.195 1.423 11.123.194 1.363.346 2.491.468 3.366.085.408.132.823.143 1.24Z" fill="#E0E0E0"/><path d="m618.147 292.332-.376.072-1.108.122c-.946.091-2.328.233-4.067.467-3.406.437-8.083 1.21-13.218 2.288-5.134 1.078-9.709 2.267-13.004 3.233-1.647.468-2.979.874-3.894 1.159l-1.016.326c-.244.071-.377.101-.377.081.106-.072.223-.127.346-.163l1.017-.396a76.791 76.791 0 0 1 3.853-1.302c3.284-1.016 7.87-2.267 13.004-3.365 5.135-1.098 9.832-1.8 13.218-2.166a66.74 66.74 0 0 1 4.067-.335h1.108c.315-.041.447-.041.447-.021ZM565.941 341.278c-.1-.14-.185-.29-.255-.447l-.66-1.322c-.57-1.139-1.353-2.817-2.298-4.901-1.891-4.168-4.321-10.005-6.924-16.481-2.603-6.477-4.992-12.323-6.812-16.512l-2.166-4.962c-.244-.549-.437-1.016-.59-1.352a2.79 2.79 0 0 1-.183-.478s.102.143.265.448l.66 1.311c.57 1.149 1.353 2.827 2.298 4.911 1.891 4.169 4.321 10.005 6.924 16.481 2.603 6.477 4.992 12.313 6.802 16.512l2.176 4.962c.234.549.437 1.017.59 1.342.071.157.129.321.173.488ZM614.958 324.37a2.776 2.776 0 0 1-.488.203l-1.424.498-5.256 1.8c-4.444 1.535-10.544 3.721-17.285 6.1-6.741 2.38-12.862 4.586-17.284 6.04a259.692 259.692 0 0 1-5.298 1.677l-1.454.417a2.955 2.955 0 0 1-.518.122c.154-.086.318-.154.488-.203l1.434-.498 5.256-1.81c4.433-1.525 10.544-3.711 17.285-6.151s12.861-4.576 17.284-6.03a256.813 256.813 0 0 1 5.308-1.677l1.453-.417c.162-.049.33-.073.499-.071Z" fill="#E0E0E0"/><path d="M616.623 386.147c0 .142-137.87.264-307.909.264S.785 386.289.785 386.147c0-.143 137.839-.265 307.929-.265 170.09 0 307.909.112 307.909.265Z" fill="#263238"/><path d="M64.128 354.587a19.048 19.048 0 0 0-11.815-1.444c-2.135.356-4.372 1.017-5.826 2.603-1.454 1.586-1.738 4.443-.06 5.826a5.592 5.592 0 0 0 3.67.935c3.131 0 6.588-.589 9.09 1.292 1.423 1.067 2.369 2.847 4.066 3.375a4.07 4.07 0 0 0 4.433-1.962 6.945 6.945 0 0 0 .499-5.084 7.77 7.77 0 0 0-4.057-5.541ZM72.363 338.696c-2.196 3.141-6.466 2.094-8.45.183-1.982-1.912-2.816-4.688-3.578-7.341-1.739-6.05-3.498-12.394-2.196-18.546a10.224 10.224 0 0 1 2.369-5.083 5.341 5.341 0 0 1 5.083-1.698c2.146.559 3.488 2.674 4.454 4.677a44.146 44.146 0 0 1 4.372 18.982c0 3.05-.356 6.263-2.034 8.785" fill="#FF5300"/><path opacity=".2" d="M72.365 338.696c-2.196 3.141-6.466 2.094-8.45.183-1.982-1.912-2.816-4.688-3.578-7.341-1.739-6.05-3.498-12.394-2.196-18.546a10.223 10.223 0 0 1 2.369-5.083 5.34 5.34 0 0 1 5.083-1.698c2.146.559 3.488 2.674 4.454 4.677a44.145 44.145 0 0 1 4.372 18.982c0 3.05-.356 6.263-2.034 8.785" fill="#000"/><path d="M78.391 343.2a11.43 11.43 0 0 1-1.769-10.513 20.213 20.213 0 0 1 6.222-9.019 33.493 33.493 0 0 1 11.185-6.578c1.589-.645 3.299-.937 5.012-.854a5.268 5.268 0 0 1 4.199 2.542c1.18 2.237.051 4.951-1.169 7.168a83.82 83.82 0 0 1-7.32 11.184c-2.187 2.826-4.708 5.622-8.043 6.893-3.335 1.271-6.822 1.129-8.591-1.189" fill="#FF5300"/><path d="M72.507 386.025a6.975 6.975 0 0 1-.193-1.424c-.102-1.017-.224-2.338-.376-3.894a53.776 53.776 0 0 0-.875-5.704 45.029 45.029 0 0 0-2.033-6.731 24.553 24.553 0 0 0-3.447-6.1 12.969 12.969 0 0 0-4.342-3.62 12.513 12.513 0 0 0-3.67-1.138 6.746 6.746 0 0 1-1.413-.204c.48-.055.964-.055 1.444 0 1.322.105 2.614.45 3.812 1.017a12.82 12.82 0 0 1 4.596 3.64 24.406 24.406 0 0 1 3.558 6.222 42.023 42.023 0 0 1 2.034 6.843c.369 1.911.62 3.843.752 5.785.133 1.647.173 2.989.194 3.915.036.464.022.931-.041 1.393Z" fill="#263238"/><path d="M72.241 383.035a3.047 3.047 0 0 1 0-.66v-1.892c0-1.647 0-4.016-.081-6.954-.153-5.867-.651-13.97-1.627-22.866-.976-8.897-2.288-16.919-3.477-22.674a99.908 99.908 0 0 0-.834-3.873c-.275-1.139-.468-2.115-.671-2.908a70.135 70.135 0 0 1-.448-1.841c-.062-.211-.1-.43-.111-.65.099.197.174.405.223.62l.55 1.81c.243.793.498 1.759.782 2.897.285 1.139.61 2.42.915 3.864a215.602 215.602 0 0 1 3.65 22.683c1.017 8.927 1.424 17.051 1.454 22.928 0 2.948 0 5.328-.101 6.964 0 .773-.082 1.393-.112 1.892a2.596 2.596 0 0 1-.112.66Z" fill="#263238"/><path d="M72.2 367.377a12.807 12.807 0 0 1 0-1.982c.072-1.261.245-3.101.6-5.348a71.316 71.316 0 0 1 1.739-7.799 68.87 68.87 0 0 1 3.264-9.232 48.887 48.887 0 0 1 9.588-14.915 23.062 23.062 0 0 1 2.247-2.105c.345-.284.65-.579.965-.813l.875-.6a11.914 11.914 0 0 1 1.667-1.017 60.187 60.187 0 0 0-5.46 4.87 51.859 51.859 0 0 0-9.343 14.865 74.673 74.673 0 0 0-3.274 9.151c-.854 2.867-1.424 5.5-1.86 7.727-.438 2.227-.641 4.067-.784 5.297a11.84 11.84 0 0 1-.224 1.901Z" fill="#263238"/><path d="M465.151 36.653H152.636v243.173h312.515V36.653Z" fill="#fff"/><path d="M465.153 279.826c0-1.82-.092-96.387-.224-243.173l.224.214H152.669l.264-.265v243.173l-.234-.244 312.515.244-312.515.234h-.234V36.338h312.993v.224c-.173 146.877-.305 241.444-.305 243.264Z" fill="#263238"/><path d="M238.55 259.4c-.152 0-.264-26.435-.264-59.032 0-32.596.112-59.042.264-59.042.153 0 .265 26.435.265 59.042s-.102 59.032-.265 59.032ZM374.194 259.4c-.152 0-.264-26.435-.264-59.032 0-32.596.112-59.042.264-59.042.153 0 .264 26.435.264 59.042s-.122 59.032-.264 59.032ZM284.863 259.4c-.142 0-.264-33.786-.264-75.462s.122-75.483.264-75.483c.142 0 .264 33.787.264 75.483 0 41.696-.112 75.462-.264 75.462ZM191.018 259.4c-.152 0-.264-33.786-.264-75.462s.112-75.483.264-75.483c.153 0 .264 33.787.264 75.483 0 41.696-.122 75.462-.264 75.462ZM427.419 259.4c-.143 0-.265-33.786-.265-75.462s.122-75.483.265-75.483c.142 0 .264 33.787.264 75.483 0 41.696-.112 75.462-.264 75.462ZM325.471 259.4c-.153 0-.265-39.012-.265-87.134s.112-87.155.265-87.155c.152 0 .264 39.012.264 87.155 0 48.142-.122 87.134-.264 87.134Z" fill="#263238"/><path d="M239.68 141.326a1.107 1.107 0 1 1-2.215 0 1.107 1.107 0 0 1 2.215 0ZM284.864 109.563a1.108 1.108 0 1 0 0-2.216 1.108 1.108 0 0 0 0 2.216Z" fill="#263238"/><path d="M284.864 112.339a3.886 3.886 0 0 1-.758-7.693 3.881 3.881 0 0 1 3.987 1.651c.427.639.655 1.39.655 2.158a3.897 3.897 0 0 1-3.884 3.884Zm0-7.514a3.63 3.63 0 1 0 3.63 3.63 3.64 3.64 0 0 0-3.63-3.63ZM325.469 86.22a1.108 1.108 0 1 0 0-2.217 1.108 1.108 0 0 0 0 2.216ZM374.195 143.543a1.108 1.108 0 1 0 0-2.216 1.108 1.108 0 0 0 0 2.216ZM427.451 109.563a1.108 1.108 0 1 0 0-2.216 1.108 1.108 0 0 0 0 2.216ZM192.116 109.563a1.108 1.108 0 1 1-1.098-1.108 1.098 1.098 0 0 1 1.098 1.108Z" fill="#263238"/><path d="M437.913 161.875c-.28.127-.573.223-.875.284-.856.23-1.695.519-2.511.864a24.21 24.21 0 0 0-8.073 6.101c-3.05 3.274-6.05 7.829-9.842 12.953a63.446 63.446 0 0 1-6.69 7.768 38.036 38.036 0 0 1-4.342 3.589 30.461 30.461 0 0 1-5.236 2.857 29.485 29.485 0 0 1-12.526 2.105 32.988 32.988 0 0 1-6.741-.844 17.546 17.546 0 0 1-6.527-2.867 20.953 20.953 0 0 1-5.084-5.318c-1.403-2.033-2.664-4.189-3.884-6.375-2.44-4.402-4.962-8.835-7.839-13.289-2.877-4.453-5.44-9.252-8.358-13.929a66.386 66.386 0 0 0-10.238-13.218 30.087 30.087 0 0 0-6.873-4.921 22.892 22.892 0 0 0-8.134-2.389 28.661 28.661 0 0 0-16.929 3.62 42.704 42.704 0 0 0-12.892 12.028 132.676 132.676 0 0 0-9.222 14.814 149.872 149.872 0 0 1-8.927 14.529 70.737 70.737 0 0 1-10.808 12.312 38.419 38.419 0 0 1-3.131 2.502 36.132 36.132 0 0 1-3.325 2.165 28.882 28.882 0 0 1-7.199 2.969 25.281 25.281 0 0 1-3.762.702c-.627.079-1.259.113-1.891.101h-1.881a28.579 28.579 0 0 1-7.208-1.342 48.773 48.773 0 0 1-12.201-6.364c-3.62-2.491-6.924-5.084-10.168-7.402a53.45 53.45 0 0 0-9.648-5.847 32.289 32.289 0 0 0-9.609-2.735 23.725 23.725 0 0 0-8.632.56c-.636.158-1.261.359-1.87.599-.601.183-1.186.414-1.749.692a23.368 23.368 0 0 0-3.051 1.688 33.451 33.451 0 0 0-4.585 3.67l-1.596 1.749c-.461.468-.889.967-1.281 1.494l-1.617 2.125a4.57 4.57 0 0 1-.6.702 3.66 3.66 0 0 1 .468-.793l1.494-2.227c.375-.545.786-1.065 1.231-1.555l1.565-1.82a31.467 31.467 0 0 1 4.586-3.864 22.937 22.937 0 0 1 3.05-1.789 11.16 11.16 0 0 1 1.779-.743 14.675 14.675 0 0 1 1.922-.66 24.281 24.281 0 0 1 8.927-.712 32.899 32.899 0 0 1 9.923 2.694 54.707 54.707 0 0 1 9.903 5.857c3.274 2.318 6.599 4.87 10.168 7.3a47.69 47.69 0 0 0 11.896 6.1 27.213 27.213 0 0 0 6.873 1.23h1.779a11.63 11.63 0 0 0 1.779-.111 23.653 23.653 0 0 0 3.559-.682 32.364 32.364 0 0 0 13.096-7.32 69.68 69.68 0 0 0 10.533-12.089 151.132 151.132 0 0 0 8.815-14.387 133.237 133.237 0 0 1 9.303-14.997 44.407 44.407 0 0 1 13.38-12.465 31.047 31.047 0 0 1 8.704-3.294 30.556 30.556 0 0 1 9.15-.519 24.332 24.332 0 0 1 8.714 2.573 30.787 30.787 0 0 1 7.229 5.185 68.474 68.474 0 0 1 10.462 13.533c2.928 4.728 5.531 9.496 8.307 13.959a281.755 281.755 0 0 1 7.818 13.381c2.4 4.382 4.81 8.673 8.531 11.306a16.272 16.272 0 0 0 6.1 2.704c2.125.5 4.295.786 6.477.854a28.533 28.533 0 0 0 12.058-1.921 29.522 29.522 0 0 0 5.084-2.705 36.605 36.605 0 0 0 4.25-3.436 61.782 61.782 0 0 0 6.68-7.575c3.843-5.084 6.965-9.578 10.106-12.831a23.383 23.383 0 0 1 8.399-5.999 13.548 13.548 0 0 1 2.592-.722c.283-.081.572-.136.865-.162Z" fill="#FF5300"/><path d="M244.4 63.943h-54.487v3.03H244.4v-3.03ZM216.836 71.04h-26.923v3.03h26.923v-3.03ZM156.845 16.817h303.72a4.585 4.585 0 0 1 4.585 4.585v15.251H152.259v-15.25a4.585 4.585 0 0 1 4.586-4.586Z" fill="#263238"/><path d="M168.476 27.116a2.133 2.133 0 0 1-1.318 1.973 2.136 2.136 0 1 1 1.318-1.973ZM177.802 27.116a2.14 2.14 0 0 1-1.319 1.973 2.133 2.133 0 0 1-2.911-1.556 2.135 2.135 0 1 1 4.23-.417ZM187.114 27.116a2.133 2.133 0 0 1-2.551 2.094 2.136 2.136 0 1 1 2.551-2.094Z" fill="#fff"/><path d="M157.161 179.749H35.407a3.284 3.284 0 0 0-3.284 3.284v29.414a3.284 3.284 0 0 0 3.284 3.284H157.16a3.284 3.284 0 0 0 3.284-3.284v-29.414a3.284 3.284 0 0 0-3.284-3.284Z" fill="#E6E6E6"/><path d="M59.167 203.734a7.824 7.824 0 0 1-8.284 2.617 7.82 7.82 0 0 1-1.581-14.361 7.822 7.822 0 0 1 11.275 9.037 7.818 7.818 0 0 1-1.41 2.707Z" fill="#fff"/><path d="M57.468 196.19a37.102 37.102 0 0 1-4.24 4.494c-.346.345-.692.681-1.017 1.016l-.183.183-.183-.183a24.566 24.566 0 0 1-3.162-3.528 24.598 24.598 0 0 1 3.528 3.162h-.356l1.017-1.016a36.354 36.354 0 0 1 4.596-4.128ZM147.919 195.102c0 .142-16.267.264-36.429.264-20.162 0-36.43-.122-36.43-.264 0-.143 16.268-.265 36.43-.265s36.429.112 36.429.265ZM118.036 202.219c0 .142-9.435.264-21.067.264-11.631 0-21.097-.122-21.097-.264 0-.143 9.425-.265 21.057-.265 11.631 0 21.107.112 21.107.265Z" fill="#263238"/><path d="M193.843 93.062H72.658a2.664 2.664 0 0 0-2.664 2.664v47.207a2.664 2.664 0 0 0 2.664 2.664h121.185a2.664 2.664 0 0 0 2.664-2.664V95.726a2.664 2.664 0 0 0-2.664-2.664Z" fill="#E0E0E0"/><path d="M96.28 109.665a5.895 5.895 0 0 1-7.048 5.784 5.898 5.898 0 1 1 7.047-5.784ZM143.273 105.588h-41.097v2.278h41.097v-2.278Z" fill="#FF5300"/><path d="M182.112 110.773h-79.936v2.278h79.936v-2.278Z" fill="#fff"/><path d="M96.28 127.793a5.898 5.898 0 1 1-3.64-5.45 5.876 5.876 0 0 1 3.639 5.45ZM123.162 123.727h-20.986v2.277h20.986v-2.277Z" fill="#FF5300"/><path d="M182.112 128.902h-79.936v2.277h79.936v-2.277Z" fill="#fff"/><path d="M251.494 231.226H96.319a4.027 4.027 0 0 0-4.026 4.027v61.329a4.026 4.026 0 0 0 4.026 4.026h155.175a4.026 4.026 0 0 0 4.026-4.026v-61.329a4.027 4.027 0 0 0-4.026-4.027Z" fill="#E0E0E0"/><path d="m122.153 264.748-.091-14.072a17.987 17.987 0 0 0-11.622 4.535 16.627 16.627 0 0 0-5.592 14.57c.072.671.183 1.352.326 2.033a.089.089 0 0 1 0 .051l16.959-3.813.02-3.304ZM139.632 260.417a16.705 16.705 0 0 0-13.685-9.578l-.539-.051H123.954l.092 14.072v3.304l16.979 3.64c.263-1.198.389-2.423.376-3.65a18.188 18.188 0 0 0-1.769-7.737Z" fill="#FF5300"/><path opacity=".2" d="M139.632 260.417a16.705 16.705 0 0 0-13.685-9.578l-.539-.051H123.954l.092 14.072v3.304l16.979 3.64c.263-1.198.389-2.423.376-3.65a18.188 18.188 0 0 0-1.769-7.737Z" fill="#000"/><path d="m123.06 269.771-16.949 3.823a17.387 17.387 0 0 0 33.939-.112l-16.959-3.701" fill="#FF5300"/><path opacity=".1" d="m123.06 269.771-16.949 3.823a17.387 17.387 0 0 0 33.939-.112l-16.959-3.701" fill="#000"/><path d="M238.938 254.886H152.79v3.904h86.148v-3.904ZM238.938 265.175H152.79v3.904h86.148v-3.904ZM199.357 276.552H152.79v3.905h46.567v-3.905Z" fill="#fff"/><path d="M444.197 182.026h-153.09a8.551 8.551 0 0 0-8.551 8.551v146.766a8.55 8.55 0 0 0 8.551 8.551h153.09a8.55 8.55 0 0 0 8.551-8.551V190.577a8.551 8.551 0 0 0-8.551-8.551Z" fill="#E6E6E6"/><path d="M300.033 294.284h-5.582v1.607h5.582v-1.607ZM314.236 302.896h-7.148v1.607h7.148v-1.607ZM339.108 302.896h-7.148v1.607h7.148v-1.607ZM363.965 302.896h-7.147v1.607h7.147v-1.607ZM388.835 302.896h-7.148v1.607h7.148v-1.607ZM413.705 302.896h-7.148v1.607h7.148v-1.607ZM438.574 302.896h-7.147v1.607h7.147v-1.607ZM300.033 272.791h-5.582v1.606h5.582v-1.606ZM300.033 232.324h-5.582v1.607h5.582v-1.607ZM300.033 212h-5.582v1.606h5.582V212ZM300.318 252.557h-5.582v1.607h5.582v-1.607ZM438.371 295.901h-2.359l-6.762.051-24.859.081-82.01.081h-19.694v-.254c0-27.452.071-51.559.092-68.853 0-8.632.061-15.546.081-20.335v-6.893a4.235 4.235 0 0 1 0-.478c.009.159.009.318 0 .478v6.893c0 4.789.051 11.703.081 20.335 0 17.284.051 41.432.092 68.853l-.265-.264h19.43l82.01.071 24.859.081 6.762.051h1.759l.783.102Z" fill="#263238"/><path d="M439.936 253.361c0 .152-29.485.264-65.783.264-36.297 0-65.803-.112-65.803-.264 0-.153 29.485-.265 65.803-.265s65.783.122 65.783.265ZM439.936 233.168c0 .143-29.485.265-65.783.265-36.297 0-65.803-.122-65.803-.265 0-.142 29.485-.264 65.803-.264s65.783.081 65.783.264ZM439.936 212.833c0 .143-29.485.265-65.783.265-36.297 0-65.803-.122-65.803-.265 0-.142 29.485-.264 65.803-.264s65.783.081 65.783.264ZM439.936 273.594c0 .142-29.485.264-65.783.264-36.297 0-65.803-.122-65.803-.264 0-.143 29.485-.265 65.803-.265s65.783.122 65.783.265Z" fill="#263238"/><path d="M309.722 291.539v-17.945l11.184-17.366 7.595 5.826 15.577-24.209 9.15 6.477 12.791-22.368 10.391 8.459 15.576-29.618 16.787 33.105 13.583-16.562 15.983-4.576v78.736l-128.617.041Z" fill="#FF5300"/><path d="M439.936 206.428h-4.352l-12.262.061h.112l-13.136 17.173-.071.081h-.102l-32.902.051.224-.122-13.838 23.06-13.583 22.571-.194.325-.233-.305-17.814-24.513h.356l-16.268 25.337c-1.942 3.05-3.477 5.368-4.534 6.995-.509.793-.915 1.393-1.2 1.83-.285.437-.427.61-.427.61s.122-.223.376-.64c.254-.417.651-1.068 1.149-1.871l4.433-7.066 16.105-25.419.163-.264.193.254c5.328 7.29 11.357 15.546 17.884 24.463h-.427l13.564-22.582 13.858-23.019.071-.122H410.125l-.163.081 13.218-17.101v-.061h.081l12.262.071h4.077l.336.122Z" fill="#263238"/><path d="M337.348 250.453a1.265 1.265 0 0 1-.749 1.193 1.26 1.26 0 1 1-.512-2.413 1.236 1.236 0 0 1 .886.345 1.24 1.24 0 0 1 .375.875ZM375.303 228.867c.008.251-.059.499-.192.712a1.26 1.26 0 0 1-2.301-.41 1.259 1.259 0 0 1 1.233-1.522 1.255 1.255 0 0 1 .883.349 1.256 1.256 0 0 1 .377.871ZM404.807 223.57a1.272 1.272 0 1 1-1.261-1.22 1.229 1.229 0 0 1 .883.349 1.237 1.237 0 0 1 .378.871Z" fill="#263238"/><path d="M315.253 332.259c4.509 0 8.164-3.518 8.164-7.859s-3.655-7.859-8.164-7.859-8.165 3.518-8.165 7.859 3.656 7.859 8.165 7.859ZM431.426 319.133h-95.899v2.939h95.899v-2.939ZM375.342 326.484h-39.815v2.939h39.815v-2.939Z" fill="#fff"/><path d="M505.944 54.751H402.989a5.022 5.022 0 0 0-5.022 5.023v83.677a5.022 5.022 0 0 0 5.022 5.023h102.955a5.023 5.023 0 0 0 5.023-5.023V59.774a5.023 5.023 0 0 0-5.023-5.023Z" fill="#E6E6E6"/><path d="M423.78 92.279h-6.091v45.987h6.091V92.279ZM451.464 88.547h-6.09v49.719h6.09V88.548ZM480.138 82.234h-6.09v56.032h6.09V82.234ZM466.673 115.867h-6.09v22.389h6.09v-22.389Z" fill="#FF5300"/><path opacity=".2" d="M466.678 115.867h-6.091v22.389h6.091v-22.389Z" fill="#000"/><path d="M430.875 87.348h-6.09v50.918h6.09V87.348Z" fill="#FF5300"/><path opacity=".1" d="M430.879 87.348h-6.09v50.918h6.09V87.348Z" fill="#000"/><path d="M459.059 76.682h-6.09v61.584h6.09V76.682Z" fill="#FF5300"/><path opacity=".1" d="M459.062 76.682h-6.091v61.584h6.091V76.682Z" fill="#000"/><path d="M495.857 76.682h-6.09v61.584h6.09V76.682Z" fill="#FF5300"/><path opacity=".2" d="M495.855 76.682h-6.09v61.584h6.09V76.682Z" fill="#000"/><path d="M487.906 64.522h-6.09v73.744h6.09V64.522Z" fill="#FF5300"/><path opacity=".1" d="M487.906 64.522h-6.09v73.744h6.09V64.522Z" fill="#000"/><path d="M438.329 105.954h-6.09v32.312h6.09v-32.312Z" fill="#FF5300"/><path opacity=".2" d="M438.331 105.954h-6.09v32.312h6.09v-32.312Z" fill="#000"/><path d="M504.57 141.052c0 .152-21.738.264-48.539.264-26.802 0-48.55-.112-48.55-.264 0-.153 21.728-.265 48.55-.265 26.821 0 48.539.122 48.539.265ZM408.375 130.081h-3.721v1.23h3.721v-1.23ZM408.375 113.722h-3.721v1.23h3.721v-1.23ZM408.375 82.915h-3.721v1.23h3.721v-1.23ZM408.375 67.44h-3.721v1.23h3.721v-1.23ZM408.569 98.318h-3.721v1.23h3.721v-1.23Z" fill="#263238"/><path d="M380.468 47.136H271.129a3.285 3.285 0 0 0-3.285 3.284v25.927a3.285 3.285 0 0 0 3.285 3.284h109.339a3.285 3.285 0 0 0 3.285-3.284V50.42a3.285 3.285 0 0 0-3.285-3.284Z" fill="#FF5300"/><path d="M292.275 68.802a7.066 7.066 0 1 1-1.088-9.933 7.114 7.114 0 0 1 1.088 9.933Z" fill="#fff"/><path d="M286.752 71.507a7.118 7.118 0 0 1-.763-14.133c.261-.015.523-.015.783 0a7.118 7.118 0 0 1 5.521 11.52 7.02 7.02 0 0 1-4.758 2.613 6.863 6.863 0 0 1-.783 0Zm0-14.123a6.863 6.863 0 0 0-.783 0 7.034 7.034 0 0 0-5.389 10.382 7.034 7.034 0 1 0 6.172-10.422v.04Z" fill="#263238"/><path d="M290.73 61.98a29.006 29.006 0 0 1-3.802 4.067l-.925.895-.194.183-.172-.183a20.503 20.503 0 0 1-2.837-3.203 20.62 20.62 0 0 1 3.203 2.837h-.366l.925-.915a30.41 30.41 0 0 1 4.168-3.68Z" fill="#FF5300"/><path d="M372.434 61.004c0 .142-14.733.264-32.902.264s-32.912-.122-32.912-.264c0-.142 14.733-.264 32.912-.264s32.902.112 32.902.264ZM345.441 67.44c0 .142-8.51.264-19.023.264s-19.023-.121-19.023-.264c0-.142 8.52-.264 19.023-.264s19.023.101 19.023.264Z" fill="#fff"/><path d="M561.515 108.964s-.132.173-.427.488-.701.793-1.291 1.372a24.806 24.806 0 0 1-5.897 4.067 19.43 19.43 0 0 1-2.268 1.017l-1.25.448-1.342.355c-.955.237-1.923.42-2.898.549-.508.061-1.017.082-1.556.133-.538.035-1.078.035-1.616 0a24.406 24.406 0 0 1-13.899-4.464h.173l-12.109 2.4-.682.132.458-.519 6.649-7.666v.315a27.144 27.144 0 0 1-2.979-5.297 26.537 26.537 0 0 1-1.606-6.1 24.397 24.397 0 0 1 28.672-27.127 24.278 24.278 0 0 1 12.536 6.467 24.145 24.145 0 0 1 4.982 28.041c-.234.468-.467.915-.681 1.332-.213.417-.488.763-.702 1.108a13.052 13.052 0 0 1-1.189 1.688l-.803 1.017a2.846 2.846 0 0 1-.285.325c.065-.129.147-.249.244-.356l.763-1.016c.421-.541.802-1.112 1.138-1.709.204-.345.458-.701.681-1.118.224-.417.417-.864.651-1.332a23.975 23.975 0 0 0 1.241-17.284 23.749 23.749 0 0 0-6.345-10.31 23.368 23.368 0 0 0-5.511-3.976 23.004 23.004 0 0 0-6.801-2.328 23.956 23.956 0 0 0-28.073 26.629c.284 2.044.81 4.047 1.566 5.968a26.66 26.66 0 0 0 2.908 5.195l.112.163-.122.152-6.67 7.504-.224-.397 12.1-2.287h.162a24.184 24.184 0 0 0 13.655 4.473c.528.036 1.058.036 1.586 0 .529 0 1.017 0 1.546-.111a26.65 26.65 0 0 0 2.857-.519l1.332-.336 1.24-.437c.77-.259 1.52-.572 2.247-.935a25.32 25.32 0 0 0 5.917-3.986c.61-.559 1.017-1.016 1.342-1.321.326-.305.468-.407.468-.407Z" fill="#263238"/><path d="m543.552 87.999-4.077-1.352-4.087-1.353.874 4.21.865 4.209 2.226-1.973 9.558 10.737 1.982-1.759-9.557-10.747L543.552 88Z" fill="#263238"/><path d="m523.754 371.221-6.579-6.609 12.303-12.414 9.73 9.578-.712.813c-3.202 3.62-16.552 18.149-19.511 19.745-3.314 1.789 4.769-11.113 4.769-11.113Z" fill="#FF5300"/><path d="M534.651 366.178a6.1 6.1 0 0 1-1.078-4.21 5.879 5.879 0 0 1 1.972-3.792l3.478 3.437-4.372 4.565Z" fill="#263238"/><path d="M519.992 377.708s-2.603 4.748-1.535 4.89c1.067.142 15.109-14.031 20.751-20.823l-.294-.254-16.268 16.675s-1.912-1.18-2.654-.488Z" fill="#263238"/><path d="M539.096 361.277a2.3 2.3 0 0 1-.183.234c-.173.193-.366.407-.57.651l-2.145 2.348a312.402 312.402 0 0 1-14.743 14.916l-2.287 2.186-.651.579a1.403 1.403 0 0 1-.234.194l.203-.224.621-.61 2.287-2.206a566.437 566.437 0 0 0 7.453-7.382 498.167 498.167 0 0 0 7.29-7.534l2.186-2.308.6-.62c.048-.082.106-.157.173-.224Z" fill="#455A64"/><path d="M522.868 378.379a6.885 6.885 0 0 0-1.495-.641 7.9 7.9 0 0 0-1.626-.091 2.408 2.408 0 0 1 1.677-.122c.57.096 1.085.4 1.444.854ZM524.637 372.878c-.291.038-.586.01-.865-.081a2.04 2.04 0 0 1-.813-.285c0-.061.397 0 .864.081.468.082.834.224.814.285ZM525.106 371.343c0 .061-.325.122-.722.152a1.51 1.51 0 0 1-.742-.061c0-.061.325-.132.722-.152.396-.021.742 0 .742.061ZM524.57 369.543c0 .051-.214.376-.56.732-.345.356-.671.631-.711.59-.041-.041.203-.376.559-.732.193-.245.435-.446.712-.59ZM523.958 368.516c-.072.353-.25.676-.509.926a1.82 1.82 0 0 1-.844.65c0-.051.315-.356.681-.783.366-.427.61-.823.672-.793Z" fill="#455A64"/><path d="M523.144 372.227a3.551 3.551 0 0 1-.793.793 6.513 6.513 0 0 1-1.017.661 2.784 2.784 0 0 1-.681.285.612.612 0 0 1-.438 0 .458.458 0 0 1-.203-.437 2.037 2.037 0 0 1 2.227-1.393c.277.037.543.13.783.274.172.102.244.183.233.194a2.738 2.738 0 0 0-1.016-.316 2.045 2.045 0 0 0-1.119.244 1.773 1.773 0 0 0-.874 1.017c0 .214.163.315.386.254.201-.088.392-.197.57-.325.351-.183.69-.386 1.016-.61.6-.407.895-.671.926-.641Z" fill="#455A64"/><path d="M522.98 372.461s-.325-.061-.651-.457a1.865 1.865 0 0 1-.366-.793 1.134 1.134 0 0 1 .001-.54c.044-.178.131-.341.254-.477.097-.063.215-.085.329-.063a.448.448 0 0 1 .281.185c.109.144.185.311.223.488.073.279.111.566.112.854.016.264-.029.529-.132.773v-.773a3.846 3.846 0 0 0-.152-.803c-.061-.275-.285-.651-.519-.488a1.019 1.019 0 0 0-.183.864c.043.263.143.513.295.732.153.182.323.349.508.498ZM535.434 358.227s-.386.315-.874.945a5.465 5.465 0 0 0-.631 5.816c.346.722.692 1.098.661 1.119-.03.02-.112-.072-.254-.244a4.482 4.482 0 0 1-.539-.804 5.322 5.322 0 0 1 .651-5.978 4.52 4.52 0 0 1 .691-.671c.09-.075.189-.136.295-.183ZM529.01 354.373a29.942 29.942 0 0 1 2.653 2.42c.89.805 1.729 1.664 2.512 2.573a31.671 31.671 0 0 1-2.654-2.42 30.19 30.19 0 0 1-2.511-2.573ZM531.897 366.534a10.039 10.039 0 0 1-1.616 2.033 9.898 9.898 0 0 1-1.952 1.678s.813-.814 1.799-1.82c.986-1.007 1.719-1.922 1.769-1.891Z" fill="#455A64"/><path d="M534.296 364.104c.061 0 .112.233.214.498.102.264.224.478.183.518-.041.041-.264-.132-.386-.437s-.061-.59-.011-.579ZM534.063 362.05c.061 0 .112.213.112.467 0 .255 0 .468-.102.468-.101 0-.101-.203-.111-.468-.011-.264.05-.467.101-.467ZM534.845 360.26s-.133.214-.255.458c-.122.244-.142.467-.203.478-.061.01-.132-.275 0-.57.132-.295.427-.447.458-.366ZM535.527 359.05v.295c0 .143-.152.244-.203.214-.051-.031 0-.153 0-.295s.112-.244.203-.214Z" fill="#455A64"/><path d="m473.415 382.151.223-9.324 17.468.305-.183 13.655-1.088.051c-4.819.173-24.554.579-27.757-.458-3.589-1.149 11.337-4.229 11.337-4.229Z" fill="#FF5300"/><path d="M484.598 386.533a6.105 6.105 0 0 1 2.298-3.691 5.867 5.867 0 0 1 4.067-1.189l-.082 4.88h-6.283Z" fill="#263238"/><path d="M466.104 383.91s-5.236 1.413-4.596 2.277c.641.864 20.579 1.21 29.394.6v-.397l-23.273-.203s-.508-2.216-1.525-2.277Z" fill="#263238"/><path d="M491.156 386.391h-1.169l-3.172.081c-2.684.051-6.395.071-10.493 0a308.68 308.68 0 0 1-10.482-.346l-3.173-.183-.864-.071h-.295c.098-.011.197-.011.295 0h.864l3.183.112c2.674.101 6.385.223 10.482.295 4.098.071 7.799.061 10.483.051h4.067a.99.99 0 0 1 .274.061Z" fill="#455A64"/><path d="M467.609 386.462a4.637 4.637 0 0 0-1.626-2.756c.539.204.982.604 1.24 1.119.325.48.462 1.062.386 1.637ZM472.804 383.94s-.285-.274-.539-.681c-.254-.407-.406-.763-.356-.793.051-.031.295.275.539.681.244.407.407.753.356.793ZM474.238 383.208c0 .051-.315-.142-.61-.417-.295-.274-.509-.539-.468-.579.041-.041.315.142.61.427.295.284.508.528.468.569ZM475.164 381.612a2.182 2.182 0 0 1-.915.091c-.308.03-.62-.004-.915-.101a1.89 1.89 0 0 1 .915-.102c.31-.033.623.005.915.112ZM475.449 380.422a1.783 1.783 0 0 1-1.017.275c-.347.049-.7-.004-1.017-.153.337-.05.677-.07 1.017-.061a5.092 5.092 0 0 1 1.017-.061Z" fill="#455A64"/><path d="M472.246 382.405a3.623 3.623 0 0 1-1.129 0 6.405 6.405 0 0 1-1.19-.285 3.16 3.16 0 0 1-.681-.295.609.609 0 0 1-.264-.356.407.407 0 0 1 .173-.437 2.036 2.036 0 0 1 2.531.641c.174.221.296.478.356.752a.746.746 0 0 1 0 .305 3.408 3.408 0 0 0-.498-.966 2.04 2.04 0 0 0-.946-.64 1.76 1.76 0 0 0-1.342.071c-.183.132-.111.335.082.457.196.116.404.211.62.285.377.136.765.242 1.159.315.702.102 1.129.112 1.129.153Z" fill="#455A64"/><path d="M471.951 382.456a1.123 1.123 0 0 1-.112-.783c.037-.296.145-.579.315-.824a1.13 1.13 0 0 1 .946-.549c.057.011.11.033.158.066a.42.42 0 0 1 .177.453c-.024.179-.09.349-.193.498-.149.25-.334.476-.549.671a1.564 1.564 0 0 1-.651.447s.234-.203.549-.549c.181-.204.341-.425.478-.66.163-.244.275-.661 0-.722-.274-.061-.569.244-.742.467-.163.214-.278.46-.335.722a4.749 4.749 0 0 0-.041.763ZM490.881 381.612s-.498-.061-1.291 0a5.45 5.45 0 0 0-4.636 3.569c-.285.742-.315 1.25-.356 1.24a.915.915 0 0 1 0-.346c.034-.321.102-.638.203-.945a5.31 5.31 0 0 1 4.769-3.671c.318-.03.638-.03.956 0 .233.092.355.153.355.153Z" fill="#455A64"/><path d="M489.194 374.291c.104 1.197.135 2.399.092 3.6.03 1.197-.01 2.396-.122 3.589a29.25 29.25 0 0 1-.092-3.589 30.68 30.68 0 0 1 .122-3.6ZM482.402 384.794c-.841.178-1.703.246-2.562.204a10.248 10.248 0 0 1-2.542-.244c0-.061 1.139 0 2.552 0 1.414 0 2.542-.021 2.552.04ZM485.831 384.845s-.101.244-.223.498-.183.488-.244.488-.092-.274 0-.579c.091-.305.427-.448.467-.407ZM487.141 383.259s-.071.224-.254.407c-.183.183-.366.295-.407.244-.041-.051.071-.214.254-.397.183-.183.366-.295.407-.254ZM489.003 382.557c0 .061-.244.051-.498.143-.254.091-.447.213-.498.173-.051-.041.112-.275.427-.377.315-.101.59.011.569.061ZM490.322 382.232c0 .061-.082.143-.224.204-.142.061-.285.05-.305 0-.02-.051.081-.143.224-.194.142-.051.285-.061.305-.01Z" fill="#455A64"/><path d="M482.76 182.24c-6.477 19.125-18.149 53.765-18.149 53.765a29.705 29.705 0 0 1-4.84 2.318 13.069 13.069 0 0 1-3.558.356 1.11 1.11 0 0 0-1.349 1.171c.019.231.11.452.261.629.712.691 3.711 1.189 7.117.172 3.406-1.016.874 4.128-.244 5.837-1.118 1.708-4.27 7.279-4.067 8.042.366 1.108 1.729.64 2.806-1.078 1.078-1.718 4.301-6.741 4.769-6.476.925.508-4.647 9.404-4.647 9.404s-1.281 1.556-.305 2.319c1.78 1.372 7.229-8.185 7.728-9.151.345-.641.803-.142.396.529-.407.671-5.165 8.5-3.731 9.394 1.433.895 4.809-6.903 6.171-8.357 1.556-1.637-3.111 6.527-1.759 7.503.498.366.925.57 3.274-4.158a138.857 138.857 0 0 0 5.267-14.174c4.982-9.984 19.247-40.832 23.964-61.827" fill="#E5BAAB"/><path d="M486.196 135.562s13.868-4.006 16.603 17.213c1.708 13.289 5.613 45.397 7.117 61.909.133 1.556-.843.946-.721 2.227.132 1.494 1.454 2.704 1.454 3.772 0 3.406-3.895 3.345-3.895 3.345l-36.236 1.728s-3.365.072-3.376-2.867c0-2.226 1.454-3.213 1.556-4.606 1.545-19.846 1.515-69.28 3.752-76.072 2.125-6.507 3.487-6.649 13.746-6.649Z" fill="#FF5300"/><path d="M488.943 136.578c.304.276.586.575.844.895.508.569 1.22 1.352 1.983 2.237a31.256 31.256 0 0 1 1.84 2.359c.25.318.471.659.661 1.016a6.99 6.99 0 0 1-.783-.966 60.142 60.142 0 0 0-1.881-2.308 108.52 108.52 0 0 1-1.932-2.277 7.707 7.707 0 0 1-.732-.956Z" fill="#263238"/><path d="M490.536 136.212a6.184 6.184 0 0 1-.58.265l-1.596.66a190.966 190.966 0 0 1-5.369 2.034c-2.115.773-4.067 1.342-5.449 1.759l-1.668.478c-.203.06-.411.108-.62.142a3.58 3.58 0 0 1 .6-.224l1.647-.539a239.961 239.961 0 0 0 5.419-1.809 294.318 294.318 0 0 0 5.379-1.932l1.626-.6c.193-.104.398-.182.611-.234ZM475.449 137.595c.149 1.284.149 2.58 0 3.864a18.483 18.483 0 0 1 0-3.864Z" fill="#263238"/><path d="M500.206 143.126c0 .061-6.151.102-13.756.102-7.606 0-13.747 0-13.747-.102s6.152-.102 13.747-.102 13.756.041 13.756.102ZM501.986 147.65a1.297 1.297 0 0 1-.305 0h-.895l-3.264-.122-10.777-.335-10.777-.204H471.504c.102-.008.204-.008.305 0h4.159c2.765 0 6.578 0 10.787.133 4.21.132 8.022.264 10.778.396l3.263.193.885.061.305-.122ZM502.411 151.646c0 .061-6.955.112-15.536.112s-15.546-.051-15.546-.112c0-.061 6.955-.101 15.546-.101s15.536.05 15.536.101ZM503.204 155.977c0 .061-7.209.112-16.105.112s-16.105-.051-16.105-.112c0-.061 7.209-.101 16.105-.101s16.105.02 16.105.101ZM503.918 160.736c0 .061-7.372.101-16.472.101-9.099 0-16.471 0-16.471-.101 0-.102 7.372-.102 16.471-.102 9.1 0 16.472.041 16.472.102ZM504.394 165.494c0 .051-7.483.102-16.705.102-9.222 0-16.695 0-16.695-.102s7.473-.112 16.695-.112c9.222 0 16.705.051 16.705.112ZM504.934 170.588c0 .061-7.616.102-16.99.102-9.374 0-16.99 0-16.99-.102s7.606-.112 16.99-.112c9.384 0 16.99.051 16.99.112ZM505.544 175.001c0 .061-7.737.101-17.284.101-9.547 0-17.285 0-17.285-.101 0-.102 7.728-.102 17.285-.102s17.284.041 17.284.102ZM506.275 179.85c0 .061-7.9.102-17.641.102-9.74 0-17.64 0-17.64-.102 0-.101 7.89-.111 17.64-.111 9.751 0 17.641.05 17.641.111ZM506.681 184.7s-7.991.102-17.843.102c-9.853 0-17.844-.051-17.844-.102s7.991-.112 17.844-.112c9.852 0 17.843.051 17.843.112ZM507.241 189.54c0 .061-8.134.112-18.119.112-9.984 0-18.128-.051-18.128-.112 0-.061 8.134-.102 18.128-.102 9.995 0 18.119.01 18.119.102ZM507.79 194.39c0 .061-8.236.112-18.393.112s-18.403-.051-18.403-.112c0-.061 8.235-.102 18.403-.102 10.167 0 18.393.041 18.393.102ZM508.329 199.24c0 .061-8.551.101-19.094.101-10.544 0-19.095 0-19.095-.101 0-.102 8.541-.102 19.095-.102 10.553 0 19.094.041 19.094.102ZM508.847 204.089c0 .061-8.825.102-19.704.102-10.879 0-19.715 0-19.715-.102 0-.101 8.825-.111 19.715-.111 10.889 0 19.704.05 19.704.111ZM509.346 208.939c0 .051-8.968.102-20.03.102-11.062 0-20.04 0-20.04-.102 0-.101 8.968-.112 20.04-.112 11.073 0 20.03.051 20.03.112ZM509.824 213.779c0 .061-9.08.112-20.274.112s-20.274-.051-20.274-.112c0-.061 9.08-.102 20.274-.102s20.274.051 20.274.102ZM509.548 218.629c0 .061-9.151 0-20.426-.082-11.276-.081-20.437-.223-20.437-.284 0-.061 9.151 0 20.437.081 11.285.081 20.426.224 20.426.285ZM509.55 223.102c0 .061-9.476.194-21.169.316-11.692.122-21.178.152-21.178.101 0-.051 9.476-.203 21.168-.315 11.693-.112 21.179-.203 21.179-.102Z" fill="#E0E0E0"/><path d="M482.22 200.389a9.31 9.31 0 0 0 6.629-1.729 20.265 20.265 0 0 0 4.718-5.216 48.677 48.677 0 0 0 8.215-24.025c.245-4.376.218-8.764-.081-13.137a107.188 107.188 0 0 1-6.385 24.819 63.167 63.167 0 0 1-11.062 18.362" fill="#FF5300"/><path opacity=".2" d="M482.22 200.389a9.31 9.31 0 0 0 6.629-1.729 20.265 20.265 0 0 0 4.718-5.216 48.677 48.677 0 0 0 8.215-24.025c.245-4.376.218-8.764-.081-13.137a107.188 107.188 0 0 1-6.385 24.819 63.167 63.167 0 0 1-11.062 18.362" fill="#000"/><path d="M505.075 204.791a37.113 37.113 0 0 1-3.61 3.416 47.49 47.49 0 0 1-4.341 3.233 47.76 47.76 0 0 1-11.937 5.664 48.512 48.512 0 0 1-5.246 1.311 38.013 38.013 0 0 1-4.941.631l.345-.061 1.017-.122c.854-.102 2.034-.295 3.589-.6a48.756 48.756 0 0 0 5.216-1.352 53.9 53.9 0 0 0 6.101-2.42 54.949 54.949 0 0 0 5.754-3.213 51.588 51.588 0 0 0 4.342-3.183c1.189-1.016 2.115-1.799 2.735-2.399l.722-.681.254-.224ZM495.132 181.853s-.081 0-.203-.05l-.58-.183-2.084-.722-6.823-2.542a79.96 79.96 0 0 0-6.903-2.278l-2.125-.599-.58-.173-.193-.072h.203l.59.133c.509.112 1.241.295 2.145.528 1.8.488 4.261 1.251 6.935 2.237 2.674.986 5.083 1.932 6.802 2.593l2.033.793.559.213.224.122Z" fill="#263238"/><path d="M495.134 181.853s.081-.274.274-.782l.824-2.268c.701-1.962 1.718-4.809 2.694-8.418a118.272 118.272 0 0 0 2.369-12.882 16.273 16.273 0 0 0-.325-7.616 10.319 10.319 0 0 0-2.034-3.477 18.02 18.02 0 0 0-1.474-1.464 6.088 6.088 0 0 0-1.728-1.159 6.941 6.941 0 0 0-4.067-.427 9.708 9.708 0 0 0-3.722 1.535c-2.287 1.464-3.345 4.006-4.128 6.294a8214.332 8214.332 0 0 1-4.148 12.455l-2.806 8.388c-.325.945-.58 1.708-.773 2.277-.193.57-.285.783-.285.783l.244-.803.733-2.288c.671-2.033 1.606-4.89 2.745-8.408 1.138-3.518 2.562-7.778 4.067-12.465a19.254 19.254 0 0 1 1.504-3.488 8.687 8.687 0 0 1 2.695-2.918 9.762 9.762 0 0 1 3.802-1.566 7.125 7.125 0 0 1 4.189.427 6.397 6.397 0 0 1 1.78 1.2c.533.462 1.032.962 1.494 1.495a10.444 10.444 0 0 1 2.034 3.538c.723 2.51.834 5.156.325 7.717-.562 4.34-1.37 8.644-2.42 12.892a110.119 110.119 0 0 1-2.755 8.409c-.722 1.962-1.108 3.019-1.108 3.019ZM503.724 240.052l.803 59.113a65.747 65.747 0 0 0 1.271 12.14c1.088 5.459 3.05 12.566 6.182 16.979 4.789 6.69 21.666 25.622 21.666 25.622l-14.234 16.603s-30.126-23.995-32.068-46.149c-1.017-11.256 0-78.564 0-78.564l16.38-5.744Z" fill="#263238"/><path d="m470.506 225.736-.366 152.937h23.538l4.138-133.06s6.812-4.494 8.012-10.228c1.627-7.758.895-11.378.895-11.378l-36.217 1.729Z" fill="#263238"/><path d="M494.656 374.983h-25.582v3.691h25.582v-3.691ZM533.17 350.475l-17.602 18.562 2.678 2.539 17.602-18.562-2.678-2.539Z" fill="#455A64"/><path d="M532.184 351.832a1.47 1.47 0 0 1-.142.183l-.447.478-1.627 1.748c-1.373 1.485-3.233 3.569-5.379 5.796-2.145 2.226-4.067 4.067-5.571 5.602l-1.708 1.678-.478.447a.894.894 0 0 1-.173.152.81.81 0 0 1 .142-.183l.448-.477 1.657-1.719 5.531-5.653 5.419-5.744 1.678-1.708.478-.448a.919.919 0 0 1 .172-.152Z" fill="#263238"/><path d="M488.441 224.933s0 .132-.071.386a6.451 6.451 0 0 1-1.363 2.694 21.137 21.137 0 0 1-1.799 1.83c-.785.72-1.503 1.51-2.146 2.359-.691 1.017-.63 2.329-.701 3.671-.092 2.745-.193 5.866-.315 9.303-.122 3.436-.244 7.229-.377 11.275-.132 4.047-.233 8.389-.355 12.944-.244 9.15-.59 19.135-.804 29.658-.355 21.036-.671 40.08-.904 53.887-.255 13.472-.397 20.894-.428 22.368v-1.556c0-1.016 0-2.531.051-4.443 0-3.884.133-9.455.234-16.328l.834-53.888c.213-10.523.569-20.548.813-29.658.143-4.565.265-8.896.387-12.943.122-4.046.274-7.829.406-11.275.132-3.447.234-6.558.336-9.304.081-1.342 0-2.714.742-3.721a17.319 17.319 0 0 1 2.176-2.369 22.941 22.941 0 0 0 1.8-1.81 6.748 6.748 0 0 0 1.016-1.565c.158-.352.287-.716.387-1.088l.081-.427ZM474.371 226.773s-.194-.142-.336-.397c-.142-.254-.193-.477-.142-.498.051-.02.203.153.335.397.132.244.204.467.143.498ZM475.723 228.288s-.234-.082-.438-.275c-.203-.193-.335-.396-.294-.437.04-.041.244.092.437.285.193.193.325.386.295.427ZM477.482 229.366c0 .05-.244-.001-.498-.143s-.427-.285-.396-.335c.03-.051.254 0 .498.142s.396.285.396.336ZM479.392 229.915c0 .05-.234.05-.518 0-.285-.051-.488-.153-.478-.204.01-.051.254-.061.518 0 .265.061.488.143.478.204ZM481.415 229.833c0 .061-.203.143-.488.173-.284.031-.518 0-.518-.051s.224-.112.498-.152c.275-.041.498-.021.508.03ZM483.327 229.101s-.163.193-.427.305c-.264.112-.488.173-.498.112-.01-.061.162-.193.417-.305.254-.112.477-.112.508-.112ZM484.954 227.932s-.102.224-.315.417c-.214.193-.427.295-.458.244-.03-.051.112-.224.316-.407.203-.183.416-.295.457-.254ZM486.185 226.315c.051 0 0 .244-.193.488s-.315.407-.366.366c-.051-.04 0-.254.193-.488.194-.234.315-.396.366-.366ZM486.712 225.034s.071.112 0 .204c-.071.091-.102.162-.152.142-.051-.02-.082-.112-.051-.203a.216.216 0 0 1 .203-.143ZM480.462 233.819c-.061 0-.101-.234-.091-.508.01-.275.061-.509.122-.509s.102.234.091.519c-.01.284-.05.498-.122.498ZM480.389 235.852c-.061 0-.101-.233-.091-.508.01-.274.071-.508.122-.508.051 0 .102.234.091.508-.01.275-.061.508-.122.508ZM480.318 237.886s-.091-.234-.081-.508c.01-.275.061-.509.122-.509s.091.234.091.509c0 .274-.071.508-.132.508ZM480.256 239.919c-.061 0-.102-.233-.091-.508.01-.274.071-.508.122-.508.05 0 .101.234.091.508-.01.275-.061.508-.122.508ZM480.196 241.953c-.061 0-.102-.234-.092-.519.011-.284.061-.498.122-.498s.102.224.092.508c-.01.285-.061.509-.122.509ZM480.136 243.986c-.061 0-.102-.234-.092-.518.01-.285.061-.499.122-.499s.102.224.092.509c-.011.285-.061.508-.122.508ZM480.075 246.02c-.061 0-.101-.234-.091-.509.01-.274.061-.508.122-.508s.101.234.091.508c-.01.275-.061.509-.122.509ZM480.013 248.053c-.061 0-.102-.234-.092-.508.01-.275.061-.509.122-.509s.102.234.092.509c-.01.274-.061.508-.122.508ZM479.951 250.087s-.092-.234-.092-.509c0-.274.061-.508.122-.508s.102.234.092.508c-.011.275-.061.509-.122.509ZM479.902 252.12c-.061 0-.101-.234-.091-.508.01-.275.061-.509.122-.509s.091.234.091.509c0 .274-.071.508-.122.508ZM479.842 254.154c-.051 0-.102-.224-.092-.509.01-.284.061-.508.122-.508s.102.234.092.519c-.011.284-.061.508-.122.498ZM479.79 256.197c-.061 0-.102-.234-.092-.518.011-.285.061-.509.122-.509s.092.234.092.519c0 .284-.061.508-.122.508ZM479.74 258.231c-.061 0-.102-.234-.091-.509.01-.274.061-.508.111-.508.051 0 .102.224.092.508-.01.285-.051.509-.112.509ZM479.688 260.264c-.061 0-.102-.234-.092-.508.01-.275 0-.508.112-.508s.102.233.092.508c-.011.274-.061.508-.112.508ZM479.638 262.298c-.061 0-.101-.224-.101-.509 0-.284.061-.508.122-.508s.101.234.091.519c-.01.284-.061.508-.112.498ZM479.586 264.341c-.061 0-.102-.234-.092-.518.01-.285 0-.509.112-.498.112.01.102.223.092.508-.011.285-.051.508-.112.508ZM479.515 266.375c-.061 0-.101-.234-.091-.508.01-.275.061-.509.112-.509.05 0 .101.234.101.509 0 .274-.04.508-.122.508ZM479.515 268.419c-.051 0-.102-.234-.092-.519.011-.285.061-.508.122-.508s.092.233.092.518c0 .285-.122.509-.122.509ZM479.447 270.452c-.061 0-.102-.234-.102-.508 0-.275.061-.509.122-.509s.102.224.091.509c-.01.284-.04.508-.111.508ZM479.394 272.485c-.061 0-.101-.223-.091-.508.01-.285.061-.508.112-.508.051 0 .101.234.101.518 0 .285-.061.509-.122.498ZM479.351 274.529c-.061 0-.102-.234-.102-.508 0-.275.061-.509.122-.509s.102.224.092.509c-.01.285-.061.508-.112.508ZM479.302 276.563s-.102-.224-.092-.509c.011-.284.061-.508.112-.508.051 0 .102.234.102.508 0 .275-.061.509-.122.509ZM479.261 278.606c-.061 0-.102-.234-.091-.518.01-.285.05-.509.111-.498.061.01.102.223.092.508-.01.285-.051.508-.112.508ZM479.22 280.64c-.061 0-.102-.224-.102-.509 0-.284.061-.508.122-.508s.102.234.091.508c-.01.275-.061.509-.111.509ZM479.18 282.683c-.061 0-.102-.234-.102-.508 0-.275.061-.519.122-.508.061.01.102.223.092.508-.01.285-.061.508-.112.508ZM479.128 284.717s-.091-.224-.091-.509c0-.284.061-.508.122-.508s.091.234.091.508c0 .275-.061.519-.122.509ZM479.088 286.76c-.051 0-.102-.233-.092-.508.011-.274.061-.508.112-.508.051 0 .102.223.102.508 0 .285-.061.508-.122.508ZM479.048 288.804s-.102-.234-.092-.519c.01-.284.061-.508.112-.508.051 0 .102.234.102.519 0 .284-.061.508-.122.508ZM479.006 290.838s-.092-.234-.092-.509c0-.274.061-.508.112-.508.051 0 .102.223.102.508 0 .285-.061.509-.122.509ZM478.976 292.881c-.061 0-.101-.234-.101-.519 0-.284.061-.508.122-.508s.101.234.091.519c-.01.284-.061.508-.112.508ZM478.937 294.915c-.061 0-.102-.224-.102-.509 0-.284.061-.508.122-.508s.102.234.091.508c-.01.275-.061.509-.111.509ZM478.895 296.958c-.061 0-.102-.233-.102-.508s.061-.508.122-.508.102.223.092.508c-.01.285-.051.508-.112.508ZM478.853 299.002c-.061 0-.102-.234-.091-.519.01-.284 0-.508.111-.508.112 0 .102.234.092.519-.01.284-.051.508-.112.508ZM478.815 301.035s-.102-.223-.092-.508c.01-.285 0-.508.112-.508s.102.223.102.508c0 .285-.061.508-.122.508ZM478.783 303.079c-.061 0-.102-.234-.102-.519 0-.284.061-.508.112-.508.051 0 .101.234.101.519 0 .284-.061.508-.111.508ZM478.743 305.113c-.061 0-.102-.224-.102-.509 0-.284.061-.508.122-.508s.102.234.092.508c-.01.275-.051.519-.112.509ZM478.701 307.156c-.061 0-.102-.234-.092-.508.011-.275 0-.509.112-.509s.102.224.102.509c0 .284-.061.508-.122.508ZM478.672 309.2c-.061 0-.101-.234-.101-.519 0-.284.061-.508.111-.508.051 0 .102.234.102.518 0 .285-.061.509-.112.509ZM478.63 311.233c-.061 0-.101-.223-.101-.508 0-.285.061-.508.122-.508s.101.234.091.508c-.01.275-.051.508-.112.508ZM478.589 313.277c-.061 0-.102-.234-.092-.508.01-.275 0-.519.112-.509.112.01.102.224.102.509 0 .284-.061.508-.122.508ZM478.56 315.321c-.061 0-.102-.234-.102-.519 0-.284.061-.508.112-.508.051 0 .101.234.101.518 0 .285-.061.509-.111.509ZM478.497 317.354c-.061 0-.101-.234-.101-.508 0-.275.061-.509.122-.509s.101.224.091.509c-.01.284-.031.508-.112.508ZM478.497 319.398c-.061 0-.102-.234-.092-.519.011-.285.051-.508.112-.508.061 0 .102.234.102.518 0 .285-.122.509-.122.509ZM478.436 321.431c-.05 0-.101-.223-.091-.508.01-.285.061-.508.112-.508.051 0 .101.233.101.508 0 .274-.061.508-.122.508ZM478.406 323.475c-.061 0-.102-.234-.102-.509 0-.274.061-.508.122-.508s.102.224.091.508c-.01.285-.02.509-.111.509ZM478.368 325.508c-.061 0-.102-.223-.092-.508.011-.285.051-.508.112-.508.061 0 .102.234.092.518-.01.285-.051.509-.112.498ZM478.326 327.552c-.051 0-.102-.234-.092-.508.011-.275 0-.509.112-.509s.102.224.102.509c0 .284-.061.508-.122.508ZM478.295 329.596c-.061 0-.101-.234-.101-.519 0-.285.061-.508.111-.508.051 0 .102.233.102.518 0 .285-.061.509-.112.509ZM478.256 331.629c-.061 0-.102-.224-.102-.508 0-.285.061-.509.122-.509s.102.234.092.509c-.011.274-.061.508-.112.508ZM478.214 333.673c-.061 0-.102-.234-.102-.519 0-.284.061-.508.122-.508s.102.234.092.518c-.01.285-.051.509-.112.509ZM478.172 335.706c-.061 0-.102-.224-.091-.508.01-.285 0-.509.111-.509.112 0 .102.234.092.509-.01.274-.051.508-.112.508ZM478.13 337.75c-.061 0-.101-.234-.091-.519.01-.284.051-.508.112-.508.061 0 .101.234.091.519-.01.284-.051.508-.112.508ZM478.091 339.783c-.061 0-.102-.234-.092-.508.011-.275 0-.508.112-.508s.102.233.102.508c0 .274-.061.508-.122.508ZM478.051 341.827c-.061 0-.101-.234-.091-.519.01-.284 0-.508.112-.508s.101.234.091.519c-.01.284-.051.508-.112.508ZM478.012 343.861c-.061 0-.102-.234-.092-.509.01-.274.051-.508.112-.508.061 0 .102.224.092.508-.011.285-.051.509-.112.509ZM477.968 345.894c-.061 0-.101-.224-.101-.509 0-.284.061-.508.122-.508s.101.234.091.518c-.01.285-.051.509-.112.499ZM477.929 347.938c-.061 0-.102-.234-.102-.519 0-.285.061-.508.122-.498.061.01.102.224.092.508-.011.285-.061.509-.112.509ZM477.88 349.971s-.102-.234-.092-.508c.01-.275.061-.509.122-.509s.092.234.092.509c0 .274-.061.508-.122.508ZM477.837 352.004c-.061 0-.102-.223-.092-.508.011-.285 0-.508.112-.508s.102.234.102.518c0 .285-.061.509-.122.498ZM477.798 354.048c-.061 0-.102-.234-.102-.518 0-.285.061-.509.122-.499.061.011.102.224.092.509-.011.285-.061.508-.112.508ZM477.747 356.082c-.061 0-.101-.234-.091-.509.01-.274.061-.508.112-.508.051 0 .101.234.101.508 0 .275-.061.509-.122.509ZM477.704 358.115c-.061 0-.102-.224-.102-.508 0-.285.061-.509.122-.509s.102.234.092.509c-.01.274-.061.508-.112.508ZM477.654 360.148c-.061 0-.102-.223-.092-.508.011-.285 0-.508.112-.508s.102.234.092.518c-.01.285-.051.509-.112.498ZM477.604 362.192c-.061 0-.102-.234-.092-.518.01-.285.061-.509.112-.499.051.011.102.224.102.509 0 .284-.061.508-.122.508ZM477.552 364.226c-.061 0-.102-.234-.092-.519.01-.284.061-.498.122-.498s.092.224.092.508c0 .285-.061.509-.122.509ZM477.483 366.259c-.061 0-.102-.234-.092-.508.011-.275.062-.509.123-.509s.101.224.091.509c-.01.284-.041.508-.122.508ZM477.483 368.293c-.061 0-.102-.234-.092-.509.011-.274.062-.508.123-.508s.101.234.091.508c-.01.275-.122.509-.122.509ZM477.402 370.326c-.061 0-.102-.234-.092-.508.011-.275.061-.509.122-.509s.092.234.092.509c0 .274-.041.508-.122.508ZM477.35 372.36c-.061 0-.102-.234-.092-.509.01-.274.061-.508.112-.508.051 0 .102.234.091.508-.01.275-.061.509-.111.509ZM477.298 374.292c-.061 0-.102-.204-.102-.458s.061-.458.122-.458.102.204.092.458c-.01.254-.061.468-.112.458Z" fill="#455A64"/><path d="M475.641 140.92c-.111-2.034-.671-11.042-.671-11.042s-6.364-.396-7.025-6.66c-.661-6.263-.925-20.782-.925-20.782a22.109 22.109 0 0 1 22.225.631l1.587 1.016.172 7.372-.366 6.629-.274 18.037-14.692 4.86s-.031-.041-.031-.061Z" fill="#E5BAAB"/><path d="M467.996 112.502a.807.807 0 0 0 .524.723.805.805 0 0 0 1.032-.474.797.797 0 0 0-.207-.868.8.8 0 0 0-.881-.141.804.804 0 0 0-.468.76Z" fill="#263238"/><path d="M467.936 112.227c.112.102.682-.437 1.546-.518.864-.082 1.525.305 1.616.183.092-.122-.071-.244-.366-.427a2.174 2.174 0 0 0-1.311-.275c-.454.043-.88.236-1.21.549-.254.234-.326.437-.275.488ZM477.857 111.455a.777.777 0 0 0-.314.526.785.785 0 0 0 .162.592.81.81 0 0 0 1.128.163.823.823 0 0 0 .304-.547.794.794 0 0 0-.026-.318.821.821 0 0 0-.693-.588.815.815 0 0 0-.601.172h.04Z" fill="#263238"/><path d="M477.534 111.8c.112.102.682-.427 1.546-.518.864-.092 1.535.305 1.616.183.082-.122-.071-.234-.366-.417a2.026 2.026 0 0 0-1.301-.285 2.105 2.105 0 0 0-1.22.549c-.254.234-.325.448-.275.488ZM474.739 119.294a4.753 4.753 0 0 1-1.424.172.743.743 0 0 1-.803-.335 1.378 1.378 0 0 1 0-.935c.163-.641.315-1.221.478-1.831a25.338 25.338 0 0 1 1.515-4.626 26.07 26.07 0 0 1-1.068 4.748c-.172.6-.335 1.19-.518 1.82-.1.209-.135.443-.102.671 0 .133.224.163.448.163.496-.025.993.027 1.474.153Z" fill="#263238"/><path d="M477.633 119.944c.844-.62-2.359 1.556-4.128 1.627a2.392 2.392 0 0 0 2.908.692c1.81-.865 1.22-2.319 1.22-2.319Z" fill="#fff"/><path d="M474.971 130a15.723 15.723 0 0 0 8.205-3.182s-1.688 4.697-8.002 4.717l-.203-1.535Z" fill="#D78776"/><path d="M487.528 98.755a24.757 24.757 0 0 0-5.785-3.64 8.45 8.45 0 0 0-6.67-.101c-.945.447-1.779 1.129-2.765 1.515-2.034.803-4.596.203-6.396 1.484a4.348 4.348 0 0 0-1.016 5.46 6.454 6.454 0 0 0 4.941 3.111 13.212 13.212 0 0 0 5.958-.864 5.087 5.087 0 0 1 3.457-.437c1.017.417 1.789 1.576 2.918 1.678 1.129.101 2.145-.641 2.867 0 .259.312.418.694.458 1.098.386 2.165 1.657 6.537 2.033 8.693 1.424.62 2.095-1.291 3.64-1.322.244-4.779 2.308-9.588 1.098-14.234a4.87 4.87 0 0 0-1.82-2.949 2.419 2.419 0 0 0-3.192.356" fill="#263238"/><path d="M488.504 110.458c.112-.071 4.199-1.576 4.931 3.487.732 5.064-4.626 4.128-4.657 3.986-.03-.142-.274-7.473-.274-7.473Z" fill="#E5BAAB"/><path d="M490.079 115.928s.091.051.254.092a.844.844 0 0 0 .661-.082 2.19 2.19 0 0 0 .722-2.104 3.058 3.058 0 0 0-.427-1.231 1.025 1.025 0 0 0-.763-.579.47.47 0 0 0-.488.315v.264c0 .011-.122-.071-.112-.284a.61.61 0 0 1 .153-.346.708.708 0 0 1 .468-.203 1.268 1.268 0 0 1 1.016.661c.282.404.456.872.509 1.362a2.322 2.322 0 0 1-1.017 2.379 1.015 1.015 0 0 1-.834 0c-.122-.122-.162-.234-.142-.244Z" fill="#D78776"/><path d="M486.449 95.37c.143 0 .448.762.681 1.79.234 1.026.316 1.88.173 1.91-.142.031-.457-.772-.691-1.789-.234-1.016-.305-1.88-.163-1.911Z" fill="#263238"/><path d="M488.664 95.614c.132 0-.092.874-.509 1.83-.416.956-.854 1.688-1.016 1.627-.163-.061.101-.885.508-1.84.407-.956.895-1.678 1.017-1.617Z" fill="#263238"/><path d="M476.394 175.489a11.184 11.184 0 0 1-1.8 3.995c-2.877 3.152-27.848-23.974-27.848-23.974a29.772 29.772 0 0 1-.193-5.297 13.153 13.153 0 0 1 1.077-3.356c.57-.925-.284-2.033-1.199-1.687-.916.345-2.542 2.887-2.949 6.364-.407 3.478-4.067-.844-5.196-2.521-1.128-1.678-4.91-6.731-5.693-6.792-1.159-.102-1.271 1.301-.132 2.959 1.138 1.657 4.402 6.537 3.985 6.853-.834.63-6.69-7.901-6.69-7.901s-.905-1.769-1.983-1.179c-1.942 1.017 4.566 9.751 5.206 10.564.447.559-.193.783-.64.152-.448-.63-5.664-8.022-7.036-7.117-1.373.905 4.362 7.117 5.134 8.876.875 2.034-4.677-5.388-6.1-4.555-.529.316-.885.621 2.471 4.596a137.681 137.681 0 0 0 10.777 10.31c7.117 8.429 31.61 36.47 43.079 34.894a8.47 8.47 0 0 0 6.304-3.935 88.669 88.669 0 0 0 7.798-15.017l-18.372-6.232Z" fill="#E5BAAB"/><path d="m206.52 380.25-.223-9.334-17.478.315.193 13.645 1.078.051c4.83.183 24.554.589 27.757-.448 3.579-1.149-11.327-4.229-11.327-4.229Z" fill="#FF5300"/><path d="M195.265 384.662a6.031 6.031 0 0 0-2.298-3.68 5.868 5.868 0 0 0-4.067-1.2l.092 4.88h6.273Z" fill="#263238"/><path d="M213.809 382.009s5.226 1.413 4.595 2.277c-.63.864-20.589 1.21-29.394.59v-.386l23.274-.204s.508-2.216 1.525-2.277Z" fill="#263238"/><path d="M188.728 384.479h4.341c2.684 0 6.385 0 10.483-.061 4.097-.061 7.798-.183 10.482-.284l3.172-.112h.865c.101-.012.203-.012.305 0h-.295l-.864.071-3.173.183a285.15 285.15 0 0 1-10.492.346c-4.098.061-7.799 0-10.483 0l-3.182-.082h-.865l-.294-.061Z" fill="#455A64"/><path d="M212.304 384.561a2.365 2.365 0 0 1 .386-1.637 2.401 2.401 0 0 1 1.241-1.129 7.663 7.663 0 0 0-1.017 1.241 6.913 6.913 0 0 0-.61 1.525ZM207.102 382.029c-.051 0 .112-.376.366-.783.255-.407.488-.712.539-.681.051.03-.112.386-.366.783-.254.396-.488.711-.539.681ZM205.675 381.307s.163-.295.468-.58c.305-.284.569-.457.6-.416.03.04-.163.305-.458.579-.295.275-.569.458-.61.417ZM204.751 379.67c.294-.097.606-.131.915-.101.308-.036.62-.004.915.091a1.98 1.98 0 0 1-.915.112 1.888 1.888 0 0 1-.915-.102ZM204.426 378.562a5.02 5.02 0 0 1 1.017.061c.339-.01.679.007 1.016.051a1.691 1.691 0 0 1-1.016.162 1.757 1.757 0 0 1-1.017-.274Z" fill="#455A64"/><path d="M207.667 380.494s.427 0 1.099-.173a7.118 7.118 0 0 0 1.148-.315c.219-.074.431-.17.631-.285.193-.122.264-.335.081-.457a1.756 1.756 0 0 0-1.342-.072c-.37.119-.698.341-.945.641a3.262 3.262 0 0 0-.499.966.655.655 0 0 1 0-.305 2.13 2.13 0 0 1 .356-.753 2.036 2.036 0 0 1 2.542-.65.462.462 0 0 1 .173.447.592.592 0 0 1-.275.356 3.138 3.138 0 0 1-.671.295 7.6 7.6 0 0 1-1.199.284c-.362.074-.734.08-1.099.021Z" fill="#455A64"/><path d="M207.963 380.595c.02-.25.02-.502 0-.752a1.844 1.844 0 0 0-.335-.722c-.173-.224-.468-.498-.743-.468-.274.031-.173.478 0 .712.135.24.295.465.478.671.315.346.559.519.539.549a1.806 1.806 0 0 1-.651-.447 3.25 3.25 0 0 1-.538-.671 1.315 1.315 0 0 1-.204-.499.446.446 0 0 1 .346-.518 1.133 1.133 0 0 1 .945.549c.172.244.28.527.316.824.044.267-.01.542-.153.772ZM189.033 379.701s.112-.051.336-.092c.321-.03.645-.03.966 0a5.401 5.401 0 0 1 2.948 1.098 5.321 5.321 0 0 1 1.82 2.573c.1.303.168.617.204.935.015.118.015.238 0 .356 0 0-.082-.498-.356-1.241a5.454 5.454 0 0 0-4.636-3.568 11.206 11.206 0 0 0-1.282-.061ZM190.759 372.39c.106 1.194.147 2.392.122 3.589a35.157 35.157 0 0 1-.122 3.6 30.287 30.287 0 0 1-.122-3.589 29.439 29.439 0 0 1 .122-3.6ZM197.511 382.893c0-.061 1.149 0 2.552 0 1.404 0 2.542-.091 2.552 0-.837.188-1.694.27-2.552.244a10.43 10.43 0 0 1-2.552-.244Z" fill="#455A64"/><path d="M194.085 382.944s.265.112.407.407c.142.295.122.579.061.579s-.122-.234-.244-.488-.264-.457-.224-.498ZM192.795 381.358s.223.071.406.254c.183.183.305.356.265.397-.041.04-.224-.072-.407-.244-.183-.173-.335-.366-.264-.407ZM190.914 380.656c0-.05.244-.162.559-.061.315.102.478.346.427.377-.051.03-.224-.092-.488-.173-.265-.082-.488-.082-.498-.143ZM189.592 380.331c0-.051.152-.051.295 0 .142.051.254.142.234.193-.021.051-.163.061-.305 0-.143-.061-.244-.132-.224-.193Z" fill="#455A64"/><path d="M267.728 118.572s14.905-15.404 16.267-14.722c1.363.681-5.47 6.954-4.565 7.768.905.813 8.134 6.273-3.487 14.935l-8.215-7.981Z" fill="#E5BAAB"/><path d="M280.558 114.108a3.027 3.027 0 0 1-.234.448c-.234.386-.478.783-.722 1.2-.244.416-.722 1.138-1.098 1.748a2.463 2.463 0 0 1-.874.905 1.1 1.1 0 0 1-1.332-.193 1.172 1.172 0 0 1 .081-1.342c.224-.376.448-.702.661-1.017.397-.6.773-1.169 1.129-1.728l.783-1.159a2.47 2.47 0 0 1 .305-.407 1.835 1.835 0 0 1-.234.458l-.722 1.189c-.356.559-.712 1.149-1.098 1.759l-.641 1.017a1.015 1.015 0 0 0-.101 1.108.898.898 0 0 0 1.016.142c.336-.202.616-.485.814-.823l1.128-1.729.783-1.159c.099-.154.219-.294.356-.417Z" fill="#D78776"/><path d="M281.319 115.796c0 .148-.02.295-.061.438a6.302 6.302 0 0 1-.376 1.149 6.683 6.683 0 0 1-.966 1.515 2.68 2.68 0 0 1-.823.701.925.925 0 0 1-1.16-.102 1.143 1.143 0 0 1-.152-1.179c.143-.33.331-.638.559-.915.376-.539.692-1.017.956-1.485.202-.35.423-.689.661-1.016.083-.125.178-.241.284-.346a2.457 2.457 0 0 1-.213.386c-.203.346-.407.692-.6 1.017-.193.325-.549.966-.925 1.525a4.53 4.53 0 0 0-.529.875 1.02 1.02 0 0 0 .112.966.743.743 0 0 0 .915.061c.297-.165.56-.386.773-.651.382-.442.706-.931.966-1.454.225-.482.418-.978.579-1.485Z" fill="#D78776"/><path d="m272.333 115.39 5.46-.366a.975.975 0 0 1 .305 0c.285.101.336.498.264.803a3.035 3.035 0 0 1-.705 1.246c-.33.354-.74.624-1.196.787a8.96 8.96 0 0 1-2.806.478l-2.623.153" fill="#E5BAAB"/><path d="M271.084 118.47a3.76 3.76 0 0 1 .589-.071l1.607-.132a18.688 18.688 0 0 0 2.359-.264 3.678 3.678 0 0 0 2.359-1.465c.254-.396.467-.945.244-1.291-.102-.173-.336-.122-.58-.112l-.691.051-2.38.132-1.616.082a2.426 2.426 0 0 1-.59 0c.194-.04.392-.064.59-.071l1.606-.143 2.379-.193h.692c.122-.011.244-.011.366 0a.526.526 0 0 1 .396.193 1.019 1.019 0 0 1 .092.814 2.943 2.943 0 0 1-.325.732 3.885 3.885 0 0 1-2.502 1.535c-.79.13-1.588.205-2.389.224l-1.606.061a2.582 2.582 0 0 1-.6-.082ZM282.267 117.26s-.051.112-.133.326a7.924 7.924 0 0 0-.274.905 5.009 5.009 0 0 1-.508 1.331 2.041 2.041 0 0 1-.61.631.778.778 0 0 1-.489.112.68.68 0 0 1-.249-.102.678.678 0 0 1-.188-.193 1.094 1.094 0 0 1-.14-.466c-.01-.164.017-.328.079-.48.102-.284.234-.528.336-.783l.59-1.281c.167-.399.36-.786.579-1.159-.111.42-.261.828-.447 1.22l-.539 1.302c-.183.478-.58 1.016-.275 1.535a.433.433 0 0 0 .478.196.437.437 0 0 0 .163-.084 1.89 1.89 0 0 0 .549-.549 5.27 5.27 0 0 0 .529-1.281c.088-.431.276-.835.549-1.18Z" fill="#D78776"/><path d="M275.325 122.842c-.061 0 .233-1.016.305-2.328.071-1.312-.072-2.328 0-2.338a6.22 6.22 0 0 1 .213 2.358 5.964 5.964 0 0 1-.518 2.308Z" fill="#D78776"/><path d="M204.427 113.437a11.629 11.629 0 0 0 5.531 9.873c.95.486 1.867 1.033 2.746 1.637a3.439 3.439 0 0 1 1.474 2.694c-.071 1.657-1.759 2.715-3.233 3.467a4.13 4.13 0 0 1 1.29 2.975 4.125 4.125 0 0 1-1.263 2.986 4.11 4.11 0 0 1-3.032 1.147 4.128 4.128 0 0 1-2.923-1.404 7.6 7.6 0 0 1-5.572 6.721 10.577 10.577 0 0 1-8.855-1.81 17.878 17.878 0 0 1-5.633-7.32" fill="#263238"/><path d="M196.862 142.506c-.275-1.566.366-8.134.366-8.134s6.029-.64 6.395-6.619c.366-5.978 0-19.786 0-19.786l-10.981-5.368-12.089 9.151 1.831 29.902 14.478.854Z" fill="#E5BAAB"/><path d="M202.443 117.982a.761.761 0 0 1-1.302.539.76.76 0 0 1 .539-1.301.762.762 0 0 1 .763.762ZM203.185 117.148c-.091.102-.661-.376-1.484-.427-.824-.05-1.444.356-1.535.244-.092-.111.061-.233.335-.416a2.03 2.03 0 0 1 1.23-.326c.434.029.848.197 1.18.478.244.214.325.407.274.447ZM193.577 117.982a.764.764 0 0 1-.104.441.766.766 0 0 1-.782.374.77.77 0 0 1-.637-.587.77.77 0 0 1 .309-.81.772.772 0 0 1 1.214.582ZM194.056 117.148c-.102.102-.671-.376-1.495-.427-.823-.05-1.443.356-1.525.244-.081-.111.061-.233.326-.416a2.027 2.027 0 0 1 1.23-.326c.434.029.847.197 1.179.478.244.214.326.407.285.447ZM197.021 124.062c.44-.104.89-.159 1.342-.162.204 0 .417 0 .468-.193a1.019 1.019 0 0 0-.112-.661l-.559-1.698c-.397-1.21-.732-2.308-.966-3.111a5.983 5.983 0 0 1-.305-1.312c.217.394.391.809.518 1.24a58.75 58.75 0 0 1 1.017 3.051c.183.589.356 1.148.539 1.708.122.268.147.569.071.854a.678.678 0 0 1-.701.315 6.19 6.19 0 0 1-1.312-.031Z" fill="#263238"/><path d="M194.3 124.896c-.834-.559 2.308 1.373 3.985 1.373a2.285 2.285 0 0 1-2.735.772c-1.738-.742-1.25-2.145-1.25-2.145Z" fill="#fff"/><path d="M197.248 134.331a14.933 14.933 0 0 1-7.921-2.684s1.79 4.393 7.788 4.149l.133-1.465Z" fill="#D78776"/><path d="M201.132 103.534c-5.938-6.161-10.005-4.88-12.333-4.88a18.674 18.674 0 0 0-12.953 7.493c-1.658 1.729-4.067 7.331-4.291 9.304a47.103 47.103 0 0 0 0 5.988c0 2.034-.468 4.148-1.962 5.47-.946.844-2.278 1.332-2.847 2.461a3.172 3.172 0 0 0 1.312 3.833 7.178 7.178 0 0 0 4.27.874 6.1 6.1 0 0 0 4.88 6.426 5.865 5.865 0 0 0 4.291-1.129 34.633 34.633 0 0 0 3.182 2.746c.244-8.71.061-17.417-.549-26.12 3.996-.702 11.184-2.857 12.394-9.253 1.596 3.64 4.016 5.623 7.229 8.388.051-.01 3.274-5.439-2.623-11.601Z" fill="#263238"/><path d="M184.661 113.682a9.478 9.478 0 0 1 2.45 0c1.918.21 3.858-.02 5.674-.671a5.282 5.282 0 0 0 2.369-1.922 6.541 6.541 0 0 0 .945-2.349c.285-1.454.143-2.399.234-2.399.261.794.31 1.642.143 2.46a6.539 6.539 0 0 1-.915 2.562 5.582 5.582 0 0 1-2.563 2.136c-1.891.695-3.93.884-5.917.549a12.14 12.14 0 0 1-2.42-.366ZM169.044 128.333c.343-.01.684-.057 1.017-.143a2.638 2.638 0 0 0 1.626-1.942 6.538 6.538 0 0 0-.732-3.873 15.165 15.165 0 0 1-.843-2.329 7.903 7.903 0 0 1-.173-2.694 11.017 11.017 0 0 1 1.789-4.819 18.928 18.928 0 0 1 2.694-3.183 30.095 30.095 0 0 1 2.105-1.84c.249-.237.53-.439.834-.6.061.061-1.017 1.017-2.674 2.705a20.309 20.309 0 0 0-2.552 3.182 10.987 10.987 0 0 0-1.668 4.616 7.651 7.651 0 0 0 .143 2.511c.211.775.479 1.533.803 2.268a6.702 6.702 0 0 1 .64 4.148 2.813 2.813 0 0 1-1.931 2.033 1.948 1.948 0 0 1-.783 0 .646.646 0 0 1-.295-.04ZM212.5 119.782s.193.214.183.712a2.237 2.237 0 0 1-1.017 1.759 3.055 3.055 0 0 1-3 0 6.313 6.313 0 0 1-2.531-2.644 16.274 16.274 0 0 1-2.095-6.182 8.074 8.074 0 0 1 0-2.704c.092 0 .112 1.017.407 2.654.378 2.1 1.118 4.12 2.186 5.968a6.096 6.096 0 0 0 2.298 2.47 2.715 2.715 0 0 0 2.582.082 2.116 2.116 0 0 0 1.017-1.454c.02-.397-.071-.651-.03-.661ZM203.245 213.85s20.335 66.16 19.095 87.531c-1.241 21.372-16.207 74.415-16.207 74.415l-2.888-161.946Z" fill="#263238"/><path d="M174.491 202.585c-.448-.122-9.395 13.014-9.69 24.31a30.82 30.82 0 0 0 .122 3.315 42.097 42.097 0 0 0 2.817 11.519c7.564 19.085 15.352 41.687 15.485 46.872.355 15.892 3.467 88.944 3.467 88.944l21.961-1.555-.722-87.358-5.348-86.748-28.092.701Z" fill="#263238"/><path d="M186.46 202.209c.132 0 .183 2.44.183 6.873s-.203 10.848.092 18.759c.081 1.982.152 4.067.325 6.212.173 2.145.336 4.402.569 6.71a281.653 281.653 0 0 0 1.973 14.743c.823 5.175 1.759 10.595 2.552 16.268.793 5.673 1.413 11.52 1.749 17.569.335 6.05.274 11.947.386 17.651.112 5.704.224 11.184.376 16.44a1909.7 1909.7 0 0 0 1.017 27.818l.691 18.759c.072 2.196.122 3.915.163 5.084.041 1.169 0 1.779 0 1.779-.051-1.434-.407-10.086-1.017-25.632-.325-7.92-.711-17.345-1.016-27.828a1256.54 1256.54 0 0 1-.377-16.441c-.091-5.704 0-11.611-.396-17.64-.397-6.029-.936-11.906-1.779-17.529-.844-5.622-1.719-11.072-2.542-16.267a272.657 272.657 0 0 1-1.952-14.753 172.196 172.196 0 0 1-.56-6.721c-.132-2.166-.233-4.23-.315-6.212-.274-7.931 0-14.346 0-18.779v-5.084a7.972 7.972 0 0 0-.122-1.779Z" fill="#455A64"/><path d="M208.646 374.373h-22.084v3.325h22.084v-3.325ZM187.955 202.88c-.061 0-.112-.224-.122-.508-.01-.285 0-.509.092-.509.091 0 .112.224.122.509.01.284-.041.508-.092.508ZM188.004 204.913c-.05 0-.111-.223-.111-.508 0-.285 0-.509.091-.509.092 0 .112.224.112.509 0 .285-.031.508-.092.508ZM188.066 206.947c-.051 0-.112-.224-.122-.509-.011-.284 0-.508.091-.508.092 0 .112.224.122.508.01.285-.03.509-.091.509ZM188.126 208.98c-.061 0-.112-.223-.122-.508-.01-.285 0-.508.091-.508.092 0 .112.223.122.508.011.285-.03.508-.091.508ZM188.188 211.014c-.061 0-.111-.224-.122-.509-.01-.284 0-.508.092-.508.091 0 .112.224.122.508.01.285-.031.509-.092.509ZM188.249 213.047c-.061 0-.112-.223-.122-.508-.01-.285 0-.508.091-.508.092 0 .112.223.122.498.01.274-.03.518-.091.518ZM188.311 215.081c-.061 0-.112-.224-.122-.509-.01-.284 0-.508.092-.508.091 0 .112.224.122.498.01.275-.041.509-.092.519ZM188.371 217.114c-.061 0-.122-.234-.122-.508 0-.275 0-.508.091-.508.092 0 .112.223.122.498.01.274-.041.508-.091.518ZM188.421 219.137c-.051 0-.112-.223-.112-.498 0-.274 0-.508.081-.518.082-.01.122.234.122.508 0 .275-.03.508-.091.508ZM188.484 221.171c-.061 0-.112-.224-.122-.498-.01-.275 0-.509.092-.519.091-.01.111.224.122.508.01.285-.031.509-.092.509ZM188.544 223.204c-.061 0-.111-.223-.122-.498-.01-.274 0-.518.092-.518.091 0 .112.223.122.508.01.285-.031.508-.092.508ZM188.555 225.248c-.061 0-.102-.234-.112-.508-.01-.275 0-.509.112-.519.112-.01.102.234.102.519 0 .284-.041.508-.102.508ZM188.585 227.282c-.061 0-.112-.224-.112-.509 0-.285 0-.508.092-.508.091 0 .112.223.112.508 0 .285-.031.509-.092.509ZM188.625 229.315s-.112-.224-.112-.498c0-.275 0-.519.091-.519.092 0 .112.224.112.509 0 .284.01.508-.091.508ZM188.728 231.359c-.061 0-.112-.224-.122-.509-.01-.285 0-.508.081-.518.081-.011.122.233.132.508.01.274-.091.508-.091.519ZM188.778 233.392c-.051 0-.112-.224-.122-.508-.011-.285 0-.509.081-.509s.112.224.132.499c.02.274-.03.508-.091.518ZM188.888 235.426c-.061 0-.112-.224-.132-.509-.021-.285 0-.508.081-.508s.112.213.132.498c.02.285-.02.508-.081.519ZM189.023 237.449c-.061 0-.122-.214-.142-.498-.021-.285 0-.509.071-.519.071-.01.122.224.142.509.02.284-.01.508-.071.508ZM189.175 239.482c-.061 0-.122-.223-.142-.498-.021-.274 0-.508.061-.518.061-.011.122.223.152.498.031.274-.01.508-.071.518ZM189.356 241.506c-.061 0-.132-.214-.153-.498-.02-.285 0-.509.061-.509s.122.214.143.498c.02.285 0 .509-.051.509ZM189.549 243.529c-.061 0-.122-.214-.152-.488-.031-.275 0-.519 0-.519s.132.214.152.499c.021.284.061.508 0 .508ZM189.743 245.552c-.061 0-.132-.213-.162-.488-.031-.274 0-.518.051-.518.05 0 .132.213.162.488.031.274.041.518-.051.518ZM190.018 247.576c-.061 0-.133-.214-.173-.498-.041-.285 0-.509 0-.519 0-.01.132.214.162.498.031.285.072.509.011.519ZM190.282 249.589c-.061 0-.132-.214-.173-.488-.041-.275 0-.519 0-.519s.132.204.173.488c.041.285.061.509 0 .519ZM190.565 251.592c-.061 0-.142-.214-.183-.488-.041-.275 0-.509 0-.519 0-.01.132.214.173.488.04.275.061.509.01.519ZM190.863 253.595c-.051 0-.132-.204-.183-.488-.051-.285 0-.509 0-.509s.142.204.183.478c.041.275.061.509 0 .519ZM191.177 255.608c-.051 0-.142-.214-.183-.488-.041-.275 0-.509 0-.519 0-.01.132.214.183.488.051.275.061.509 0 .519ZM191.5 257.57c-.051 0-.142-.203-.183-.488-.041-.285 0-.508 0-.518 0-.011.142.213.193.488.051.274.051.518-.01.518ZM191.837 259.603c-.051 0-.142-.213-.183-.488-.041-.274 0-.508 0-.518 0-.01.142.213.183.488.041.274.061.518 0 .518ZM192.185 261.637c-.061 0-.142-.213-.193-.488-.051-.274 0-.508 0-.518 0-.011.142.203.193.488.051.284.051.518 0 .518ZM192.52 263.61c-.061 0-.142-.204-.183-.478-.041-.275 0-.509 0-.519 0-.01.142.203.193.478.051.275.051.508-.01.519ZM192.855 265.613c-.051 0-.142-.214-.183-.488-.041-.275 0-.509 0-.519 0-.01.142.214.183.488.041.275.061.508 0 .519ZM193.191 267.605c-.061 0-.143-.203-.194-.478-.05-.274 0-.508 0-.518 0-.01.143.203.183.488.041.285.061.498.011.508ZM193.505 269.608c-.061 0-.143-.203-.183-.478-.041-.274 0-.508 0-.518 0-.01.132.203.183.478.051.274.061.508 0 .518ZM193.811 271.611c-.051 0-.132-.203-.173-.478-.04-.274 0-.508 0-.518 0-.01.143.203.183.478.041.274.051.508-.01.518ZM194.104 273.624c-.061 0-.142-.213-.183-.488-.04-.274 0-.508 0-.518 0-.01.133.213.173.488.041.274.061.508.01.518ZM194.371 275.627c-.051 0-.132-.203-.163-.488-.03-.284 0-.508 0-.518 0-.01.143.213.173.488.031.274.051.518-.01.518ZM194.623 277.64c-.061 0-.132-.213-.163-.488-.03-.274 0-.508 0-.518 0-.01.132.213.163.498.03.285.061.508 0 .508ZM194.826 279.664c-.061 0-.132-.214-.163-.498-.03-.285 0-.509.051-.519.051-.01.122.214.152.498.031.285.041.509-.04.519ZM195.063 281.677c-.061 0-.132-.214-.153-.488-.02-.275 0-.509.051-.519.051-.01.132.214.153.498.02.285.01.509-.051.509ZM195.244 283.7c-.061 0-.122-.213-.152-.498-.031-.285 0-.508.061-.508s.132.213.152.498c.02.285 0 .508-.061.508ZM195.407 285.734c-.061 0-.122-.224-.143-.508-.02-.285 0-.509.061-.509s.122.214.143.498c.02.285-.011.509-.061.519ZM195.54 287.757c-.061 0-.122-.224-.132-.498-.01-.275 0-.509.071-.519.071-.01.122.224.132.498.01.275-.01.519-.071.519ZM195.65 289.78c-.051 0-.112-.223-.132-.498-.02-.274 0-.508.081-.518.082-.011.122.223.133.498.01.274-.021.508-.082.518ZM195.742 291.804s-.112-.224-.122-.499c-.01-.274 0-.508.081-.518.082-.01.122.224.132.508.011.285.011.509-.091.509ZM195.844 293.837c-.051 0-.112-.224-.122-.508-.01-.285 0-.509.091-.509.092 0 .112.224.122.499.011.274-.091.508-.091.518ZM195.843 295.861s-.112-.224-.112-.499c0-.274 0-.508.092-.518.091-.01.112.234.122.508.01.275-.02.509-.102.509ZM195.894 297.894c-.051 0-.101-.224-.112-.508-.01-.285 0-.509.102-.509s.112.234.112.509c0 .274-.041.508-.102.508ZM195.916 299.937c-.061 0-.112-.233-.112-.508 0-.274 0-.508.102-.508s.112.223.112.508c0 .285-.041.508-.102.508ZM195.937 301.971c-.061 0-.112-.234-.112-.508 0-.275 0-.509.102-.509.101 0 .101.224.101.498 0 .275-.04.519-.091.519ZM195.956 304.004c-.061 0-.112-.233-.112-.508 0-.274 0-.508.101-.508.102 0 .102.223.112.498.01.274-.051.508-.101.518ZM195.975 306.038c-.051 0-.101-.234-.112-.508-.01-.275 0-.509.102-.509s.112.224.112.498c0 .275-.041.509-.102.519ZM196.017 308.072c-.061 0-.112-.234-.122-.509-.01-.274 0-.508.101-.508.102 0 .112.223.112.498s-.04.508-.091.519ZM196.049 310.095c-.061 0-.111-.224-.111-.499 0-.274-.001-.508.091-.518.092-.01.112.234.122.508.01.275-.041.509-.102.509ZM196.089 312.128c-.061 0-.112-.223-.112-.498 0-.274 0-.508.092-.518.091-.011.111.233.111.508 0 .274-.03.508-.091.508ZM196.129 314.162s-.101-.224-.111-.498c-.011-.275 0-.509.091-.519.092-.01.112.234.122.508.01.275-.041.509-.102.509ZM196.18 316.195c-.061 0-.111-.223-.111-.498 0-.274 0-.518.091-.518.092 0 .112.223.112.508 0 .285-.031.508-.092.508ZM196.231 318.229c-.061 0-.112-.224-.122-.499-.01-.274 0-.518.102-.518s.112.224.112.508c0 .285-.031.509-.092.509ZM196.289 320.262c-.061 0-.111-.224-.122-.508-.01-.285 0-.509.092-.509.091 0 .112.224.122.509.01.284-.041.508-.092.508ZM196.342 322.296c-.061 0-.112-.224-.122-.509-.01-.285 0-.508.091-.508.092 0 .112.223.122.508.01.285-.03.509-.091.509ZM196.402 324.329c-.061 0-.112-.224-.122-.508-.01-.285 0-.509.092-.509.091 0 .111.224.122.509.01.284-.031.508-.092.508ZM196.465 326.363c-.051 0-.112-.224-.122-.509-.011-.284 0-.508.091-.508.092 0 .112.224.122.508.01.285-.03.509-.091.509ZM196.535 328.396c-.061 0-.111-.224-.122-.508-.01-.285 0-.509.092-.509.091 0 .112.224.122.509.01.284-.031.508-.092.508ZM196.608 330.43c-.061 0-.122-.224-.132-.509-.011-.284 0-.508.091-.508.092 0 .112.224.122.498.01.275-.03.519-.081.519ZM196.668 332.463c-.05 0-.111-.224-.122-.508-.01-.285 0-.509.092-.509.091 0 .112.224.122.498.01.275-.031.509-.092.519ZM196.752 334.486c-.061 0-.122-.223-.133-.498-.01-.274 0-.508.092-.508.091 0 .112.224.122.498.01.275-.031.508-.081.508ZM196.862 336.52c-.061 0-.112-.224-.122-.498-.01-.275 0-.509.082-.519.081-.01.111.224.122.508.01.285-.082.509-.082.509ZM196.862 338.553c-.061 0-.112-.224-.122-.498-.01-.275 0-.519.082-.519.081 0 .122.224.132.509.01.284 0 .508-.092.508ZM196.972 340.587c-.061 0-.122-.224-.132-.509-.01-.284 0-.508.092-.508.091 0 .111.224.122.508.01.285-.031.509-.082.509ZM197.045 342.62c-.05 0-.111-.224-.122-.508-.01-.285 0-.509.092-.509.091 0 .112.224.122.509.01.284-.031.508-.092.508ZM197.125 344.654c-.061 0-.112-.224-.122-.509-.011-.284 0-.508.081-.508s.122.224.132.498c.01.275-.03.519-.091.519ZM197.208 346.687c-.061 0-.112-.223-.122-.508-.01-.285 0-.508.081-.508s.112.223.122.498c.01.274-.02.508-.081.518ZM197.287 348.711c-.061 0-.112-.214-.122-.499-.01-.284 0-.508.081-.508.082 0 .112.214.122.498.01.285-.02.509-.081.509ZM197.368 350.744c-.061 0-.112-.224-.133-.498-.02-.275 0-.509.092-.519.091-.01.112.224.122.509.01.284-.02.508-.081.508ZM197.451 352.777c-.061 0-.122-.223-.132-.498-.01-.274 0-.518.091-.518.092 0 .112.223.122.508.011.285-.02.508-.081.508ZM197.53 354.811c-.061 0-.122-.224-.132-.509-.01-.284 0-.508.091-.508.092 0 .112.224.122.508.011.285-.03.509-.081.509ZM197.613 356.844c-.061 0-.122-.223-.132-.508-.01-.285 0-.508.092-.508.091 0 .112.223.122.498.01.274-.031.518-.082.518ZM197.697 358.878c-.061 0-.122-.224-.132-.508-.01-.285 0-.509.091-.509.092 0 .112.224.122.498.01.275-.03.509-.081.519ZM197.766 360.911c-.051 0-.112-.223-.122-.508-.01-.285 0-.508.081-.508.082 0 .122.223.132.498.011.274.021.508-.091.518ZM197.878 362.935c-.061 0-.112-.224-.122-.499-.01-.274 0-.508.082-.518.081-.01.122.224.132.508.01.285-.092.509-.092.509ZM197.928 364.968c-.061 0-.122-.223-.132-.498-.011-.274 0-.508.091-.519.092-.01.112.224.122.509.01.285-.03.508-.081.508ZM197.999 367.002c-.061 0-.112-.224-.122-.499-.01-.274 0-.518.081-.518.082 0 .122.224.133.508.01.285-.031.509-.092.509ZM198.08 369.035c-.061 0-.122-.224-.132-.508-.01-.285 0-.509.091-.509.092 0 .112.224.122.509.01.284-.03.508-.081.508ZM198.153 371.068c-.061 0-.122-.223-.132-.508-.011-.285 0-.508.091-.508.092 0 .112.223.122.508.01.285-.031.508-.081.508ZM198.223 373.112c-.061 0-.122-.234-.122-.508 0-.275 0-.519.081-.519s.112.224.122.509c.01.284-.031.508-.081.518Z" fill="#455A64"/><path d="M198.284 375.146s-.112-.224-.122-.509c-.01-.284 0-.508.092-.508.091 0 .111.224.122.498.01.275-.031.519-.092.519ZM198.335 376.62c-.061 0-.112-.102-.112-.224 0-.122 0-.234.102-.234s.102.102.112.224c.01.122-.041.234-.102.234ZM204.141 225.116a1.085 1.085 0 0 1-.935.051 1.827 1.827 0 0 1-.895-.682 3.278 3.278 0 0 1-.478-1.413c-.173-2.176-.325-5.175-.508-8.5-.183-3.324-.315-6.181-.437-8.5l-.102-2.582v-.702a.906.906 0 0 1 0-.244.768.768 0 0 1 0 .244c0 .224 0 .448.061.702.051.732.112 1.586.173 2.572.132 2.318.305 5.257.498 8.5.193 3.244.325 6.172.447 8.49a3 3 0 0 0 .427 1.362c.198.305.486.54.824.671.296.113.622.124.925.031ZM167.567 240.733c.276-.044.546-.123.803-.234a3.242 3.242 0 0 0 1.495-1.657c.36-1.08.481-2.225.356-3.356a33.999 33.999 0 0 0-.417-4.188 35.79 35.79 0 0 0-1.952-7.219l.081.05-2.389.397-.661.092h-.224a.65.65 0 0 1 .224-.061l.64-.143 2.39-.457h.061v.061a33.27 33.27 0 0 1 2.033 7.239c.223 1.393.359 2.799.407 4.209a7.877 7.877 0 0 1-.427 3.427 3.18 3.18 0 0 1-1.596 1.667 1.702 1.702 0 0 1-.824.173Z" fill="#455A64"/><path d="M168.695 227.129a8.993 8.993 0 0 1-1.932.549 9.99 9.99 0 0 1-2.033.336 9.17 9.17 0 0 1 1.942-.549c.663-.174 1.34-.287 2.023-.336ZM278.82 126.97l-11.388-9.323c-30.949 27.919-70.856 24.747-70.856 24.747v.071c-1.789-.295-11.184-1.799-14.295-1.86-2.43 0-8.053-.488-12.028 3.263-.103.09-.202.185-.295.285-3.599 3.518-39.653 39.022-35.81 47.787 4.067 9.262 38.27 29.373 38.27 29.373l8.297-15.068s-2.583-1.688-6.1-4.067l27.96-.722 1.23-20.934s4.779-5.338 4.779-9.151c0-2.664-1.475-7.117-3.366-11.631 44.086-3.661 73.602-32.77 73.602-32.77ZM154.9 186.958c.325-1.098 7.493-8.937 13.96-15.851 2.237 13.675 5.277 29.434 5.572 30.99-7.779-5.277-19.949-13.777-19.532-15.149v.01Z" fill="#455A64"/><path d="M206.929 175.987c-.339.017-.678.017-1.017 0-.991.016-1.98-.104-2.938-.356a5.423 5.423 0 0 1-3.589-2.867 3.294 3.294 0 0 1 0-2.898 2.922 2.922 0 0 1 2.694-1.728 3.053 3.053 0 0 1 2.562 2.389 4.508 4.508 0 0 1-1.017 3.752 8.883 8.883 0 0 1-7.768 3.193 9.162 9.162 0 0 1-4.433-1.505 6.987 6.987 0 0 1-2.928-3.884 3.964 3.964 0 0 1 .143-2.542 3.443 3.443 0 0 1 1.891-1.779 2.53 2.53 0 0 1 2.582.325 2.81 2.81 0 0 1 .915 2.491 5.633 5.633 0 0 1-.884 2.511 8.443 8.443 0 0 1-1.81 1.892 9.894 9.894 0 0 1-4.677 1.921 9.318 9.318 0 0 1-8.673-3.192 4.937 4.937 0 0 1-.956-2.085 3.698 3.698 0 0 1 .275-2.226 2.72 2.72 0 0 1 1.606-1.454 2.95 2.95 0 0 1 2.105.183 3.676 3.676 0 0 1 2.166 3.172 4.762 4.762 0 0 1-1.393 3.315 7.288 7.288 0 0 1-5.684 2.175 8.866 8.866 0 0 1-4.433-1.423 7.646 7.646 0 0 1-2.135-2.034 6.078 6.078 0 0 1-.529-.884s.173.305.58.844a7.753 7.753 0 0 0 2.155 1.972 8.804 8.804 0 0 0 4.372 1.353 7.129 7.129 0 0 0 5.501-2.115 4.548 4.548 0 0 0 1.312-3.162 3.423 3.423 0 0 0-2.034-2.929 2.652 2.652 0 0 0-1.911-.172 2.451 2.451 0 0 0-1.434 1.321 3.444 3.444 0 0 0-.254 2.034 4.71 4.71 0 0 0 .915 1.952 9.026 9.026 0 0 0 8.398 3.05 9.48 9.48 0 0 0 4.525-1.86 7.92 7.92 0 0 0 1.728-1.81 5.315 5.315 0 0 0 .844-2.369 2.503 2.503 0 0 0-.803-2.217 2.2 2.2 0 0 0-2.268-.274 3.171 3.171 0 0 0-1.718 1.606 3.714 3.714 0 0 0-.122 2.349 6.64 6.64 0 0 0 2.796 3.701 9.009 9.009 0 0 0 4.291 1.474 8.647 8.647 0 0 0 7.534-3.05 4.263 4.263 0 0 0 .966-3.528 2.79 2.79 0 0 0-2.349-2.227 2.727 2.727 0 0 0-2.501 1.596 3.105 3.105 0 0 0 0 2.735 5.307 5.307 0 0 0 3.457 2.817c.947.261 1.925.401 2.908.417h1.016l.021.03ZM202.961 195.295l-.508.346c-.336.213-.824.539-1.475.935-.781.503-1.617.915-2.491 1.23a8.344 8.344 0 0 1-3.66.326 6.932 6.932 0 0 1-4.128-1.647 3.802 3.802 0 0 1-1.149-2.247 2.642 2.642 0 0 1 .186-1.35c.178-.427.465-.799.831-1.08a2.39 2.39 0 0 1 1.332-.509 2.038 2.038 0 0 1 1.393.488 2.875 2.875 0 0 1 .864 2.766 4.693 4.693 0 0 1-1.667 2.532 9.677 9.677 0 0 1-2.685 1.555c-1.934.724-4.04.855-6.049.376a7.504 7.504 0 0 1-4.698-3.05 2.88 2.88 0 0 1-.254-2.643 2.639 2.639 0 0 1 2.034-1.475 1.59 1.59 0 0 1 1.199.346 1.9 1.9 0 0 1 .631 1.017 2.608 2.608 0 0 1-.427 2.125 6.327 6.327 0 0 1-3.05 2.094 7.767 7.767 0 0 1-2.746.417 6.773 6.773 0 0 1-1.738-.264 4.244 4.244 0 0 1-.58-.204 9.324 9.324 0 0 0 2.318.346 7.57 7.57 0 0 0 2.685-.468 6.094 6.094 0 0 0 2.887-2.033 2.346 2.346 0 0 0 .386-1.932 1.45 1.45 0 0 0-1.565-1.149 2.377 2.377 0 0 0-1.8 1.332 2.602 2.602 0 0 0 .254 2.379 7.18 7.18 0 0 0 4.525 2.908c1.945.462 3.984.334 5.856-.366a9.412 9.412 0 0 0 2.593-1.505 4.377 4.377 0 0 0 1.545-2.358 2.593 2.593 0 0 0-.762-2.481 1.83 1.83 0 0 0-2.349 0 2.342 2.342 0 0 0-.925 2.176 3.564 3.564 0 0 0 1.017 2.084 6.667 6.667 0 0 0 3.965 1.606 8.135 8.135 0 0 0 3.579-.274 12.848 12.848 0 0 0 2.491-1.159l1.505-.885c.416-.213.63-.305.63-.305ZM218.214 141.062c.416.197.798.462 1.128.783a5.388 5.388 0 0 1 1.678 3.315 5.687 5.687 0 0 1-.315 2.582 5.881 5.881 0 0 1-1.77 2.42 6.325 6.325 0 0 1-3.05 1.332 5.413 5.413 0 0 1-1.769 0 2.477 2.477 0 0 1-1.627-.895 1.22 1.22 0 0 1-.172-1.016c.101-.318.3-.596.569-.794a2.903 2.903 0 0 1 1.728-.498 4.185 4.185 0 0 1 3.051 1.342 4.449 4.449 0 0 1 1.169 2.746 5.361 5.361 0 0 1-.448 2.572 6.258 6.258 0 0 1-2.501 2.765c-.289.18-.591.336-.905.468a1.6 1.6 0 0 1-.345.112s.457-.203 1.179-.681a6.448 6.448 0 0 0 2.4-2.735 5.183 5.183 0 0 0 .386-2.451 4.172 4.172 0 0 0-1.118-2.582 3.926 3.926 0 0 0-2.797-1.23 2.614 2.614 0 0 0-1.535.447 1.018 1.018 0 0 0-.325 1.342c.353.431.86.708 1.413.773a5.489 5.489 0 0 0 1.678 0 6.18 6.18 0 0 0 2.887-1.251 5.36 5.36 0 0 0 2.06-3.893 5.358 5.358 0 0 0-1.562-4.119c-.347-.303-.71-.588-1.087-.854ZM233.108 137.443c.209.168.379.379.498.62.145.289.201.614.162.935a3.33 3.33 0 0 1-.406 1.169 11.18 11.18 0 0 1-1.861 2.593 19.807 19.807 0 0 0-2.501 2.908 11.082 11.082 0 0 0-1.667 6.629c.094.963.271 1.915.528 2.847a3.413 3.413 0 0 1-.315-.732 10.19 10.19 0 0 1-.437-2.095 10.805 10.805 0 0 1 1.627-6.812 18.1 18.1 0 0 1 2.552-2.948 11.545 11.545 0 0 0 1.87-2.491 3.21 3.21 0 0 0 .438-1.098 1.618 1.618 0 0 0-.102-.854c-.214-.448-.417-.651-.386-.671ZM244.323 149.45a3.315 3.315 0 0 1-1.515.315 4.424 4.424 0 0 1-3.66-1.942 6.598 6.598 0 0 1-.203-6.1 7.295 7.295 0 0 1 2.247-2.979 4.429 4.429 0 0 1 3.894-.803 3.05 3.05 0 0 1 2.267 3.131 2.405 2.405 0 0 1-.854 1.759 2.761 2.761 0 0 1-1.749.641 4.333 4.333 0 0 1-3.142-1.21 5.677 5.677 0 0 1-1.525-2.511 6.1 6.1 0 0 1 .255-4.189c.207-.482.504-.92.874-1.292a8.873 8.873 0 0 0-.752 1.342 6.029 6.029 0 0 0-.163 4.067 5.5 5.5 0 0 0 1.494 2.39 4.082 4.082 0 0 0 2.939 1.118 2.556 2.556 0 0 0 1.576-.579 2.121 2.121 0 0 0 .732-1.546 2.79 2.79 0 0 0-.524-1.764 2.793 2.793 0 0 0-1.51-1.052 4.129 4.129 0 0 0-3.609.742 7.042 7.042 0 0 0-2.166 2.847 6.383 6.383 0 0 0 .122 5.897 4.327 4.327 0 0 0 3.467 1.942 5.849 5.849 0 0 0 1.505-.224ZM252.362 128.902c.217.057.426.143.621.254a8.2 8.2 0 0 1 1.525 1.017 7.647 7.647 0 0 1 1.748 2.084c.549.976.937 2.033 1.149 3.132a9.935 9.935 0 0 1-.671 5.948 9.437 9.437 0 0 1-.915 1.586 2.94 2.94 0 0 1-.437.508c.421-.706.802-1.436 1.139-2.186.754-1.834.955-3.848.579-5.795a10.79 10.79 0 0 0-1.098-3.05 8.351 8.351 0 0 0-1.637-2.034 19.305 19.305 0 0 0-2.003-1.464ZM269.049 135.043a4.05 4.05 0 0 1-1.291.305 4.645 4.645 0 0 1-1.566-.142 3.857 3.857 0 0 1-1.759-1.118 6.253 6.253 0 0 1-1.555-5.084 3.925 3.925 0 0 1 1.647-2.735 3.04 3.04 0 0 1 1.647-.549 2.501 2.501 0 0 1 1.698.579c.488.384.809.941.895 1.556a2.214 2.214 0 0 1-.509 1.667 3.319 3.319 0 0 1-2.979 1.088 5.997 5.997 0 0 1-2.567-.876 6 6 0 0 1-1.917-1.92 3.3 3.3 0 0 1-.6-2.033 4.54 4.54 0 0 1 .417-1.515c.173-.397.326-.692.427-.895.047-.104.105-.203.173-.295a1.72 1.72 0 0 1-.112.326c-.112.264-.234.569-.366.905-.206.466-.33.965-.366 1.474 0 .672.214 1.327.61 1.871a5.889 5.889 0 0 0 4.321 2.633 3.056 3.056 0 0 0 2.715-1.017 1.936 1.936 0 0 0 .447-1.433 2.155 2.155 0 0 0-.793-1.353 2.46 2.46 0 0 0-2.968 0 3.654 3.654 0 0 0-1.526 2.522 6.04 6.04 0 0 0 1.424 4.87 3.842 3.842 0 0 0 3.152 1.291c.435-.017.87-.057 1.301-.122ZM203.074 185.382a4.553 4.553 0 0 1-.946.844 9.056 9.056 0 0 1-3.162 1.423 15.876 15.876 0 0 1-5.134.295 43.241 43.241 0 0 1-6.162-1.23 31.585 31.585 0 0 0-6.1-1.017 12.863 12.863 0 0 0-5.043.702 9.02 9.02 0 0 0-2.938 1.708c-.59.549-.854.925-.885.905.223-.373.493-.714.803-1.017a8.56 8.56 0 0 1 2.939-1.84 13 13 0 0 1 5.083-.783 31 31 0 0 1 6.202 1.016c2.003.554 4.041.968 6.101 1.241 1.695.2 3.412.125 5.084-.224a9.937 9.937 0 0 0 4.158-2.023ZM160.014 154.269a2.51 2.51 0 0 1 1.902-.366A5.083 5.083 0 0 1 164 154.92c.742.519 1.474 1.21 2.369 1.901.895.692 1.718 1.627 2.745 2.43a8.785 8.785 0 0 0 3.752 1.668 17.16 17.16 0 0 0 9.354-1.342c3.162-1.271 6.1-2.806 8.978-3.579a14.81 14.81 0 0 1 4.199-.61c1.24.032 2.468.255 3.64.661a8.134 8.134 0 0 1 4.25 3.121c.166.227.306.473.417.732.099.18.177.371.233.57.061.158.109.321.143.488a10.39 10.39 0 0 0-.895-1.719 8.198 8.198 0 0 0-4.219-2.989 12.51 12.51 0 0 0-3.569-.6 15.072 15.072 0 0 0-4.118.62c-2.857.783-5.755 2.319-8.947 3.6a17.296 17.296 0 0 1-9.517 1.332 8.985 8.985 0 0 1-3.863-1.749c-1.017-.834-1.881-1.739-2.725-2.471-.844-.732-1.627-1.403-2.329-1.921a5.067 5.067 0 0 0-2.033-1.017 3.139 3.139 0 0 0-1.851.223ZM206.214 142.374c.075.269.126.545.152.823.079.8.028 1.607-.152 2.39a8.206 8.206 0 0 1-1.688 3.375 7.213 7.213 0 0 1-4.29 2.491 8.13 8.13 0 0 1-5.857-1.291 6.294 6.294 0 0 1-2.257-2.562 1.785 1.785 0 0 1 .193-1.81 2.347 2.347 0 0 1 1.668-.854 2.266 2.266 0 0 1 1.83.6c.461.491.738 1.127.783 1.8a4.073 4.073 0 0 1-1.658 3.538 10.325 10.325 0 0 1-3.731 1.708 12.52 12.52 0 0 1-4.179.529 7.018 7.018 0 0 1-3.955-1.475 4.692 4.692 0 0 1-1.33-1.601 4.696 4.696 0 0 1-.51-2.018 3.712 3.712 0 0 1 1.85-3.416 3.373 3.373 0 0 1 3.701.406 3.05 3.05 0 0 1 .58 3.467 4.698 4.698 0 0 1-2.43 2.379 11.022 11.022 0 0 1-5.999.773 12.815 12.815 0 0 1-7.666-4.067 11.191 11.191 0 0 1-1.403-1.921 18.358 18.358 0 0 1-.387-.743 15.538 15.538 0 0 0 1.881 2.583 12.85 12.85 0 0 0 7.605 3.884c1.987.285 4.014.014 5.857-.783a4.482 4.482 0 0 0 2.287-2.247 2.781 2.781 0 0 0-.528-3.152 3.057 3.057 0 0 0-3.355-.346 3.363 3.363 0 0 0-1.678 3.132 4.375 4.375 0 0 0 1.728 3.386 6.702 6.702 0 0 0 3.772 1.403 12.191 12.191 0 0 0 4.067-.519 10.151 10.151 0 0 0 3.62-1.647 3.812 3.812 0 0 0 1.545-3.264 2.519 2.519 0 0 0-.691-1.616 1.963 1.963 0 0 0-1.586-.529c-.283.02-.558.096-.811.224a2.131 2.131 0 0 0-.663.518 1.54 1.54 0 0 0-.153 1.536 6.11 6.11 0 0 0 2.135 2.44 7.883 7.883 0 0 0 5.674 1.291 7.01 7.01 0 0 0 4.199-2.379 8.306 8.306 0 0 0 1.698-3.294 8.015 8.015 0 0 0 .132-3.142ZM154.33 160.146a2.2 2.2 0 0 1 .407-.162 13.38 13.38 0 0 1 1.19-.377 7.123 7.123 0 0 1 4.555.183 6.821 6.821 0 0 1 2.623 1.831 5.431 5.431 0 0 1 1.383 3.375 4.984 4.984 0 0 1-1.643 3.835 4.994 4.994 0 0 1-3.98 1.249 3.624 3.624 0 0 1-2.033-.915 2.156 2.156 0 0 1-.661-2.034c.2-.694.634-1.298 1.23-1.708a4.88 4.88 0 0 1 1.83-.834 7.059 7.059 0 0 1 6.446 1.627 7.116 7.116 0 0 1 2.145 4.067 5.253 5.253 0 0 1 0 1.688 11.505 11.505 0 0 0-.142-1.668 7.11 7.11 0 0 0-2.166-3.883 6.845 6.845 0 0 0-2.929-1.525 6.848 6.848 0 0 0-3.303.02 4.695 4.695 0 0 0-1.718.793c-.537.367-.929.91-1.109 1.535a1.827 1.827 0 0 0 .57 1.779c.523.47 1.181.762 1.881.834a4.692 4.692 0 0 0 4.898-2.787 4.704 4.704 0 0 0 .389-1.961 5.085 5.085 0 0 0-1.292-3.213 6.449 6.449 0 0 0-2.501-1.789 7.027 7.027 0 0 0-4.443-.275 20.17 20.17 0 0 0-1.2.315 2.767 2.767 0 0 1-.427 0ZM158.692 182.199c.107-.278.138-.58.091-.874a5.46 5.46 0 0 0-1.016-2.227 3.308 3.308 0 0 0-3.162-1.261c-1.363 0-2.837.661-4.505.529a5.442 5.442 0 0 1-5.185-5.612 4.231 4.231 0 0 1 .641-2.42c.16-.266.379-.492.64-.661 0 0-.244.224-.539.722a4.38 4.38 0 0 0-.518 2.359 5.614 5.614 0 0 0 1.159 3.355 5.54 5.54 0 0 0 3.823 1.942c1.566.122 3.05-.458 4.473-.508a4.73 4.73 0 0 1 2.034.294 2.874 2.874 0 0 1 1.362 1.129c.491.697.801 1.503.905 2.349a1.1 1.1 0 0 1-.203.884ZM147.466 204.913a4.211 4.211 0 0 0 1.393-.366 2.56 2.56 0 0 0 1.139-1.179c.27-.695.344-1.452.213-2.186a13.946 13.946 0 0 0-.661-2.654 8.052 8.052 0 0 0-1.352-2.786 3.053 3.053 0 0 0-2.969-1.087 1.838 1.838 0 0 0-1.24 1.098 2.546 2.546 0 0 0 0 1.759 2.885 2.885 0 0 0 2.816 1.809 4.941 4.941 0 0 0 3.132-1.159 14.51 14.51 0 0 0 3.548-4.626 11.316 11.316 0 0 0 1.149-3.782c.092-.936 0-1.464.071-1.464.078.487.095.982.051 1.474a10.808 10.808 0 0 1-1.068 3.864 14.235 14.235 0 0 1-3.578 4.758 5.082 5.082 0 0 1-3.305 1.24 3.75 3.75 0 0 1-1.85-.488 2.711 2.711 0 0 1-1.261-1.525 2.829 2.829 0 0 1 0-1.982 2.164 2.164 0 0 1 1.444-1.281 3.325 3.325 0 0 1 3.274 1.209 8.146 8.146 0 0 1 1.382 2.888c.297.883.508 1.792.631 2.715a4.28 4.28 0 0 1-.275 2.287c-.27.532-.71.958-1.25 1.21a2.77 2.77 0 0 1-1.068.265 1.36 1.36 0 0 1-.366-.011ZM160.828 212.742c.268-.031.532-.096.783-.193a2.812 2.812 0 0 0 1.444-1.576 4.363 4.363 0 0 0-.152-3.182c-.417-1.169-1.17-2.349-1.627-3.772a5.247 5.247 0 0 1-.275-2.156c.079-.685.331-1.34.732-1.901a4.92 4.92 0 0 1 2.827-1.84 6.608 6.608 0 0 1 2.277-.133c.281.013.559.068.824.163a9.89 9.89 0 0 0-3.05.193 4.7 4.7 0 0 0-2.644 1.79 3.597 3.597 0 0 0-.671 1.759 5.072 5.072 0 0 0 .275 2.033c.427 1.363 1.179 2.552 1.596 3.762a4.505 4.505 0 0 1 .081 3.366 2.885 2.885 0 0 1-1.596 1.616 1.441 1.441 0 0 1-.824.071Z" fill="#fff"/><path d="M167.102 172.978c.304-.454.644-.882 1.016-1.282.641-.793 1.607-1.931 2.817-3.314 1.21-1.383 2.653-3.05 4.199-4.891.773-.935 1.566-1.921 2.369-2.969a19.363 19.363 0 0 0 2.206-3.385 17.03 17.03 0 0 0 2.034-7.443 8.301 8.301 0 0 0-2.115-5.765 6.682 6.682 0 0 0-3.65-2.033c-.52-.069-1.042-.11-1.566-.122 0 0 .132 0 .407-.092a4.64 4.64 0 0 1 1.189 0 6.761 6.761 0 0 1 3.894 1.983 8.687 8.687 0 0 1 2.329 6.029 17.087 17.087 0 0 1-2.034 7.687 19.361 19.361 0 0 1-2.257 3.457 179.653 179.653 0 0 1-2.41 2.969 156.715 156.715 0 0 1-4.3 4.819l-2.939 3.203c-.364.414-.762.799-1.189 1.149ZM155.752 186.958a13.69 13.69 0 0 1-3.518 1.332 13.216 13.216 0 0 1-3.671.823 13.69 13.69 0 0 1 3.518-1.332 13.216 13.216 0 0 1 3.671-.823Z" fill="#263238"/><path d="M155.295 186.826c.081.132-1.129.884-2.288 2.155-1.159 1.271-1.83 2.522-1.972 2.45a6.89 6.89 0 0 1 4.26-4.605ZM206.52 162.709a9.801 9.801 0 0 1-1.179-2.105 51.308 51.308 0 0 1-2.217-5.368 50.89 50.89 0 0 1-1.627-5.572 9.25 9.25 0 0 1-.396-2.369 12.5 12.5 0 0 1 .752 2.277c.427 1.414 1.017 3.366 1.769 5.491a146.893 146.893 0 0 0 2.034 5.388c.359.724.648 1.479.864 2.258ZM195.772 172.449a6.255 6.255 0 0 1-1.332 2.033 13.582 13.582 0 0 1-10.676 4.616 6.325 6.325 0 0 1-2.42-.447c0-.092.936.091 2.43.071a14.692 14.692 0 0 0 10.381-4.494c1.037-1.047 1.536-1.83 1.617-1.779Z" fill="#263238"/><path d="M188.727 222.696s-7.026 1.525-7.961.752c-.936-.772 1.342-1.606 1.342-1.606s-2.034.244-2.034-.488.733-1.251.733-1.251l7.92 2.593Z" fill="#E5BAAB"/><path d="M179.199 209.062s9.873 4.453 9.995 4.799c.122.345.427 7.381-.509 8.835-.935 1.454-13.888-5.643-13.888-5.643l4.402-7.991Z" fill="#E5BAAB"/><path d="M186.5 221.049a1.541 1.541 0 0 1-.498 0l-1.343-.173a28.402 28.402 0 0 1-4.372-.935 13.231 13.231 0 0 1-4.066-1.942l-1.119-.773c-.264-.183-.407-.285-.396-.305.152.069.298.15.437.244l1.159.702a14.46 14.46 0 0 0 4.006 1.87c1.423.421 2.869.761 4.331 1.017l1.332.234c.178.005.355.025.529.061ZM186.461 221.222a7.953 7.953 0 0 1-2.268.579 8.606 8.606 0 0 1-2.338.122c0-.061 1.016-.142 2.308-.335 1.291-.193 2.277-.417 2.298-.366Z" fill="#D78776"/></svg>