<svg width="50" height="50" fill="none" xmlns="http://www.w3.org/2000/svg"><g clip-path="url(#a)" fill="#fff"><path d="M49.714 9.171 40.827.286a.976.976 0 0 0-.69-.286H11.133a2.933 2.933 0 0 0-2.93 2.93V4.79C3.406 6.673 0 11.35 0 16.806c0 .539.437.976.977.976h11.922c.54 0 .977-.437.977-.976V4.883a.977.977 0 0 0-.976-.977c-.942 0-1.86.102-2.744.295V2.93c0-.539.438-.977.977-.977H39.16V7.91a2.933 2.933 0 0 0 2.93 2.93h5.957v36.23a.978.978 0 0 1-.977.977H11.133a.978.978 0 0 1-.977-.977v-8.366a.977.977 0 0 0-1.953 0v8.366a2.933 2.933 0 0 0 2.93 2.93H47.07A2.933 2.933 0 0 0 50 47.07V9.862a.976.976 0 0 0-.286-.69ZM11.923 5.903v9.926H1.996c.467-5.258 4.668-9.46 9.927-9.926ZM42.09 8.887a.978.978 0 0 1-.977-.977V3.334l5.554 5.553H42.09Z"/><path d="M9.87 34.466a.983.983 0 0 0-.69-.286.984.984 0 0 0-.69.286.984.984 0 0 0-.287.69c0 .257.105.509.286.69a.984.984 0 0 0 .69.287.983.983 0 0 0 .691-.286.983.983 0 0 0 .286-.69.983.983 0 0 0-.286-.691ZM16.398 7.404a.977.977 0 0 0-.977.977v10.946H4.475a.977.977 0 0 0-.976.977c0 7.113 5.786 12.9 12.899 12.9 7.113 0 12.9-5.788 12.9-12.9 0-7.113-5.787-12.9-12.9-12.9Zm.977 1.997a10.897 10.897 0 0 1 6.038 2.507l-6.038 6.038V9.401Zm-.977 21.85c-5.707 0-10.408-4.39-10.903-9.97h10.903c.27 0 .513-.11.69-.287l7.706-7.706a10.898 10.898 0 0 1 2.55 7.016c0 6.036-4.91 10.946-10.946 10.946ZM42.781 30.82a2.933 2.933 0 0 0-2.698 4.072l-5.626 5.627a2.912 2.912 0 0 0-2.53-.014l-3.736-3.736a2.933 2.933 0 0 0-2.728-3.995 2.933 2.933 0 0 0-2.93 2.93c0 .437.097.852.27 1.226l-3.583 3.583a2.933 2.933 0 0 0-4.19 2.645 2.933 2.933 0 0 0 2.93 2.93 2.933 2.933 0 0 0 2.642-4.195l3.564-3.564a2.91 2.91 0 0 0 2.743-.08l3.631 3.631a2.933 2.933 0 0 0 2.638 4.203 2.933 2.933 0 0 0 2.93-2.93c0-.444-.1-.866-.279-1.244l5.574-5.574c.411.22.88.345 1.378.345a2.933 2.933 0 0 0 2.93-2.93 2.933 2.933 0 0 0-2.93-2.93Zm-24.82 13.315a.978.978 0 0 1 0-1.954c.261 0 .5.105.675.274l.011.012.015.013a.978.978 0 0 1-.701 1.654Zm7.502-7.455a.978.978 0 0 1 0-1.953.978.978 0 0 1 0 1.953Zm7.715 7.45a.978.978 0 0 1 0-1.953.978.978 0 0 1 0 1.953Zm9.603-9.403a.978.978 0 0 1 0-1.953.978.978 0 0 1 0 1.953ZM37.9 22.95h-5.154a.977.977 0 0 0 0 1.952H37.9a.977.977 0 0 0 0-1.953ZM43.037 23.235a.984.984 0 0 0-.69-.286.983.983 0 0 0-.691.286.984.984 0 0 0-.286.69c0 .258.104.51.286.691a.982.982 0 0 0 .69.286.983.983 0 0 0 .69-.286.984.984 0 0 0 .287-.69.984.984 0 0 0-.286-.69ZM44.675 13.574h-11.93a.977.977 0 0 0 0 1.953h11.93a.977.977 0 0 0 0-1.953ZM44.675 18.262h-11.93a.977.977 0 0 0 0 1.953h11.93a.977.977 0 0 0 0-1.953Z"/></g><defs><clipPath id="a"><path fill="#fff" d="M0 0h50v50H0z"/></clipPath></defs></svg>