<svg width="14" height="14" fill="none" xmlns="http://www.w3.org/2000/svg"><path fill-rule="evenodd" clip-rule="evenodd" d="M8.167 4.083a1.168 1.168 0 0 0-2.334 0 1.168 1.168 0 0 0 2.334 0Zm1.166 0A2.336 2.336 0 0 1 7 6.417a2.336 2.336 0 0 1-2.333-2.334A2.336 2.336 0 0 1 7 1.75a2.336 2.336 0 0 1 2.333 2.333Zm-6.416 7.584A4.088 4.088 0 0 1 7 7.583a4.088 4.088 0 0 1 4.083 4.084.583.583 0 1 1-1.166 0A2.92 2.92 0 0 0 7 8.75a2.92 2.92 0 0 0-2.917 2.917.583.583 0 1 1-1.166 0Z" fill="#373737"/><mask id="a" style="mask-type:alpha" maskUnits="userSpaceOnUse" x="2" y="1" width="10" height="12"><path fill-rule="evenodd" clip-rule="evenodd" d="M8.167 4.083a1.168 1.168 0 0 0-2.334 0 1.168 1.168 0 0 0 2.334 0Zm1.166 0A2.336 2.336 0 0 1 7 6.417a2.336 2.336 0 0 1-2.333-2.334A2.336 2.336 0 0 1 7 1.75a2.336 2.336 0 0 1 2.333 2.333Zm-6.416 7.584A4.088 4.088 0 0 1 7 7.583a4.088 4.088 0 0 1 4.083 4.084.583.583 0 1 1-1.166 0A2.92 2.92 0 0 0 7 8.75a2.92 2.92 0 0 0-2.917 2.917.583.583 0 1 1-1.166 0Z" fill="#fff"/></mask><g mask="url(#a)"><path fill="#373737" d="M0 0h14v14H0z"/></g></svg>