<svg width="40" height="40" fill="none" xmlns="http://www.w3.org/2000/svg"><g clip-path="url(#clip0_3129_88)"><path d="M30.052 27.695l7.138 7.137-2.358 2.358-7.137-7.138a14.933 14.933 0 0 1-9.362 3.281c-8.28 0-15-6.72-15-15 0-8.28 6.72-15 15-15 8.28 0 15 6.72 15 15a14.933 14.933 0 0 1-3.281 9.362zm-3.344-1.237A11.628 11.628 0 0 0 30 18.333c0-6.446-5.222-11.666-11.667-11.666-6.446 0-11.666 5.22-11.666 11.666C6.667 24.778 11.887 30 18.333 30a11.629 11.629 0 0 0 8.125-3.292l.25-.25z" fill="#fff"/></g><defs><clipPath id="clip0_3129_88"><path fill="#fff" d="M0 0h40v40H0z"/></clipPath></defs></svg>