<svg width="50" height="50" fill="none" xmlns="http://www.w3.org/2000/svg"><path d="M47.656 43.75h-.781V15.625a.781.781 0 0 0-.781-.781h-12.27a23.744 23.744 0 0 0 1.213-5.47h4.026a.782.782 0 0 0 .552-1.333l-6.25-6.25a.781.781 0 0 0-1.105 0l-6.25 6.25a.78.78 0 0 0 .552 1.334h2.467a16.875 16.875 0 0 1-3.873 5.469H3.906a.781.781 0 0 0-.781.78V43.75h-.781a.781.781 0 0 0-.781.781v1.563a2.344 2.344 0 0 0 2.343 2.343h42.188a2.344 2.344 0 0 0 2.343-2.343V44.53a.781.781 0 0 0-.78-.781ZM30.92 8.86a.781.781 0 0 0-.735-1.048h-1.736l4.364-4.364 4.365 4.364h-2.86a.781.781 0 0 0-.781.73A22.476 22.476 0 0 1 14.14 29.254l-2.422.322v-8.568a18.676 18.676 0 0 0 19.2-12.148ZM4.687 16.406h18.539a16.994 16.994 0 0 1-12.004 2.974l-.178-.025a.78.78 0 0 0-.888.774v10.34a.781.781 0 0 0 .885.774l3.303-.44a24.046 24.046 0 0 0 18.87-14.397h12.099V43.75H43.75v-25a.781.781 0 0 0-.781-.781h-8.594v1.562h7.813V43.75H7.812V19.53h1.563V17.97H7.031a.781.781 0 0 0-.781.78v25H4.687V16.407Zm42.188 29.688a.781.781 0 0 1-.781.78H3.906a.781.781 0 0 1-.781-.78v-.782h43.75v.782Z" fill="#fff"/><path d="M9.375 42.969h31.25v-1.563H37.5V23.438a.781.781 0 0 0-.781-.782H32.03a.781.781 0 0 0-.781.782v17.968h-3.125V29.688a.781.781 0 0 0-.781-.782h-4.688a.781.781 0 0 0-.781.782v11.718H18.75v-7.812a.781.781 0 0 0-.781-.782H13.28a.781.781 0 0 0-.781.782v7.812H9.375v1.563Zm23.438-18.75h3.124v17.187h-3.124V24.22Zm-9.376 6.25h3.125v10.937h-3.125V30.47Zm-9.375 3.906h3.126v7.031h-3.125v-7.031ZM21.094 1.563h1.562v1.562h-1.562V1.562ZM22.656 3.125h1.563v1.563h-1.563V3.125Z" fill="#fff"/><path d="M21.094 4.688h1.562V6.25h-1.562V4.687ZM19.531 3.125h1.563v1.563H19.53V3.125ZM17.969 7.813h1.562v1.562H17.97V7.812ZM46.875 9.375h1.563v1.563h-1.563V9.374ZM45.313 10.938h1.562V12.5h-1.563v-1.563Z" fill="#fff"/><path d="M43.75 9.375h1.563v1.563H43.75V9.374Z" fill="#fff"/><path d="M45.313 7.813h1.562v1.562h-1.563V7.812ZM42.188 4.688h1.562V6.25h-1.563V4.687ZM14.063 25H12.5v2.344a.781.781 0 0 0 .781.781 14.399 14.399 0 0 0 7.465-2.475l-.867-1.3a13.345 13.345 0 0 1-5.817 2.173V25ZM12.5 21.875h1.563v1.563H12.5v-1.563Z" fill="#fff"/></svg>