<svg width="50" height="50" fill="none" xmlns="http://www.w3.org/2000/svg"><path d="M47.656 5.469h-6.71l-3.673-3.68a.807.807 0 0 0-.555-.226H3.907a.781.781 0 0 0-.781.78v1.024A6.788 6.788 0 0 0 6.25 9.07v.305h-.781a2.35 2.35 0 0 0-2.344 2.344v.781a2.35 2.35 0 0 0 2.344 2.344h.78v1.562a7.01 7.01 0 0 0 2.055 4.977c.332.322.69.614 1.07.875v.617a3.108 3.108 0 0 1-2.226 2.992l-1.687.508a5.443 5.443 0 0 0-3.899 5.234v16.047a.781.781 0 0 0 .782.782h45.312a.782.782 0 0 0 .781-.782V6.25a.781.781 0 0 0-.781-.781ZM6.25 13.28h-.781a.781.781 0 0 1-.782-.781v-.781a.781.781 0 0 1 .782-.781h.78v2.343ZM37.5 4.227l4.367 4.367H37.5V4.227Zm-1.563-1.102v6.25a.781.781 0 0 0 .782.781h6.25V42.97h-17.97v-11.36a5.443 5.443 0 0 0-3.898-5.234l-1.687-.508a3.108 3.108 0 0 1-2.227-2.992v-.625a7.04 7.04 0 0 0 3.125-5.844v-1.562h.781a2.35 2.35 0 0 0 2.344-2.344v-.781a2.351 2.351 0 0 0-2.344-2.344h-.78V7.031a5.446 5.446 0 0 0-1.65-3.906h17.274ZM13.281 26.508l-3.07-1.149a4.636 4.636 0 0 0 .71-2.336 7.07 7.07 0 0 0 2.36.415c.804-.001 1.603-.141 2.36-.415.023.829.269 1.635.71 2.336l-3.07 1.149Zm.758 2.695-.367.485h-.782l-.367-.485.758-.758.758.758Zm3.445-2.601c.155.115.317.222.484.32l-1.085 2.914-2.196-2.188 2.797-1.046Zm2.828-13.32v-2.345h.781a.782.782 0 0 1 .782.782v.781a.781.781 0 0 1-.782.781h-.78ZM4.687 3.366v-.242h10.157a3.906 3.906 0 0 1 3.906 3.906v1.563H9.914a5.234 5.234 0 0 1-5.227-5.227Zm3.125 13.04V9.82a6.69 6.69 0 0 0 2.102.336h8.836v6.25a5.468 5.468 0 1 1-10.938 0Zm1.274 10.195 2.789 1.046-2.196 2.188-1.085-2.914c.164-.102.335-.203.492-.32ZM7.03 46.875v-12.5H5.469v12.5H3.125V31.609a3.874 3.874 0 0 1 2.789-3.734l1.226-.367 1.5 4.015a.79.79 0 0 0 .57.493c.055.009.11.014.165.015.207 0 .407-.08.554-.226l1.477-1.485.274.36-2.204 16.195H7.031Zm4.024 0L13.18 31.25h.203l2.125 15.625h-4.453Zm12.382 0h-2.344v-12.5h-1.562v12.5h-2.445L14.883 30.68l.273-.36 1.477 1.485a.786.786 0 0 0 1.289-.282l1.5-4.015 1.226.367a3.874 3.874 0 0 1 2.79 3.734v15.266Zm23.438 0H25v-2.344h18.75a.781.781 0 0 0 .781-.781V9.375a.807.807 0 0 0-.227-.555l-1.796-1.789h4.367v39.844Z" fill="#fff"/><path d="M25.054 17.969h-2.398v1.562h2.398a6.256 6.256 0 0 0 5.415 5.415v2.398h1.562v-2.398a6.256 6.256 0 0 0 5.415-5.415h2.398V17.97h-2.398a6.256 6.256 0 0 0-5.415-5.415v-2.398H30.47v2.398a6.256 6.256 0 0 0-5.415 5.415Zm5.415-3.836v1.492h1.562v-1.492a4.694 4.694 0 0 1 3.836 3.836h-1.492v1.562h1.492a4.694 4.694 0 0 1-3.836 3.836v-1.492H30.47v1.492a4.694 4.694 0 0 1-3.836-3.836h1.492V17.97h-1.492a4.694 4.694 0 0 1 3.836-3.836ZM39.844 29.688H26.562v1.562h13.282v-1.563ZM28.906 32.813h-2.343v1.562h2.343v-1.563ZM39.844 32.813h-9.375v1.562h9.375v-1.563ZM39.844 35.938H26.562V37.5h13.282v-1.563ZM13.281 20.313c1.753 0 3.125-1.03 3.125-2.344h-1.562c0 .319-.609.781-1.563.781s-1.562-.462-1.562-.781h-1.563c0 1.314 1.373 2.343 3.125 2.343ZM10.938 14.844a.781.781 0 0 0 .78-.781v-.782a.781.781 0 0 0-1.562 0v.781a.781.781 0 0 0 .781.782ZM15.625 14.844a.781.781 0 0 0 .781-.781v-.782a.781.781 0 1 0-1.562 0v.781a.781.781 0 0 0 .781.782Z" fill="#fff"/></svg>