<svg width="50" height="50" fill="none" xmlns="http://www.w3.org/2000/svg"><path d="m1.72 39.531 2.072 2.764-2.166 5.053a.781.781 0 0 0 1.095.993l15.625-8.594a.78.78 0 0 0 0-1.369L2.72 29.784a.78.78 0 0 0-1.095.993l2.166 5.053-2.072 2.764a.782.782 0 0 0 0 .937Zm3.53 3.327 7.335-1.726-8.629 4.746 1.295-3.02Zm7.335-5.865L5.25 35.267l-1.295-3.02 8.629 4.746Zm-7.579-.178 9.551 2.248-9.55 2.247-1.686-2.248 1.685-2.247ZM35.938 1.563c-6.63 0-12.054 5.19-12.46 11.718h-2.06l-2.116-2.115-1.104 1.105 1.01 1.01h-3.192c-4.524 0-8.203 3.68-8.203 8.203s3.68 8.203 8.203 8.203h8.66l2.115 2.115 1.105-1.104-1.01-1.01h14.91a4.302 4.302 0 0 1 4.298 4.296 4.302 4.302 0 0 1-4.297 4.297h-7.098l-2.115-2.115-1.105 1.105 1.01 1.01H20.313v1.563h12.176l-1.01 1.01 1.105 1.105 2.114-2.115h7.099a5.866 5.866 0 0 0 5.86-5.86 5.866 5.866 0 0 0-5.86-5.859H26.886l1.01-1.01-1.105-1.105-2.114 2.115h-8.661a6.648 6.648 0 0 1-6.641-6.64c0-3.662 2.98-6.641 6.64-6.641h3.193l-1.01 1.01 1.104 1.105 2.115-2.115h2.06c.407 6.528 5.832 11.719 12.46 11.719 6.893 0 12.5-5.608 12.5-12.5 0-6.893-5.607-12.5-12.5-12.5Zm0 23.437c-5.768 0-10.495-4.49-10.898-10.156h2.343c.397 4.373 4.08 7.812 8.555 7.812 4.738 0 8.593-3.855 8.593-8.593 0-4.74-3.855-8.594-8.593-8.594-4.475 0-8.158 3.439-8.555 7.812H25.04c.403-5.666 5.13-10.156 10.898-10.156 6.03 0 10.937 4.906 10.937 10.938 0 6.03-4.907 10.937-10.938 10.937Zm-1.792-8.041 2.344-2.344a.781.781 0 0 0 0-1.105l-2.344-2.344-1.105 1.105 1.01 1.01h-5.099c.39-3.51 3.373-6.25 6.985-6.25a7.04 7.04 0 0 1 7.032 7.032 7.04 7.04 0 0 1-7.032 7.03c-3.612 0-6.594-2.74-6.985-6.25h5.1l-1.01 1.01 1.104 1.106Z" fill="#fff"/><path d="M40.625 14.063a4.693 4.693 0 0 0-4.688-4.688v1.563a3.128 3.128 0 0 1 3.126 3.124 3.128 3.128 0 0 1-3.126 3.126v1.562a4.693 4.693 0 0 0 4.688-4.688Z" fill="#fff"/></svg>